999
"DXF R12 Output" (www.mydxf.blogspot.com)
 0 
SECTION
 2 
HEADER
 9 
$ACADVER
 1 
AC1009
 9 
$EXTMIN
 10 
 0 
 20 
 0 
 9 
$EXTMAX
 10 
 8.5 
 20 
 11 
 0 
ENDSEC
 0 
SECTION
 2 
ENTITIES
0
LINE
8
Layer 1
10
-55.718300
20
-31.615600
11
-61.131960
21
-28.344460
0
LINE
8
Layer 1
10
-61.131960
20
-28.344460
11
-63.745450
21
-26.755980
0
LINE
8
Layer 1
10
-63.745450
20
-26.755980
11
-64.566835
21
-26.256058
0
LINE
8
Layer 1
10
-64.566835
20
-26.256058
11
-65.350882
21
-25.767551
0
LINE
8
Layer 1
10
-65.350882
20
-25.767551
11
-66.932634
21
-24.689389
0
LINE
8
Layer 1
10
-66.932634
20
-24.689389
11
-67.597782
21
-23.810891
0
LINE
8
Layer 1
10
-67.597782
20
-23.810891
11
-68.066048
21
-22.426073
0
LINE
8
Layer 1
10
-68.066048
20
-22.426073
11
-68.317045
21
-20.563901
0
LINE
8
Layer 1
10
-68.317045
20
-20.563901
11
-68.346649
21
-18.285209
0
LINE
8
Layer 1
10
-68.346649
20
-18.285209
11
-68.150740
21
-15.650831
0
LINE
8
Layer 1
10
-68.150740
20
-15.650831
11
-67.444629
21
-10.685191
0
LINE
8
Layer 1
10
-67.444629
20
-10.685191
11
-67.143588
21
-8.930421
0
LINE
8
Layer 1
10
-67.143588
20
-8.930421
11
-66.734569
21
-6.690281
0
LINE
8
Layer 1
10
-66.734569
20
-6.690281
11
-65.273949
21
1.038189
0
LINE
8
Layer 1
10
-65.273949
20
1.038189
11
-64.334404
21
6.041159
0
LINE
8
Layer 1
10
-64.334404
20
6.041159
11
-63.706895
21
9.467899
0
LINE
8
Layer 1
10
-63.706895
20
9.467899
11
-63.076843
21
12.902779
0
LINE
8
Layer 1
10
-63.076843
20
12.902779
11
-61.429343
21
21.722129
0
LINE
8
Layer 1
10
-61.429343
20
21.722129
11
-58.667333
21
36.245729
0
LINE
8
Layer 1
10
-58.667333
20
36.245729
11
-56.162665
21
49.498929
0
LINE
8
Layer 1
10
-56.162665
20
49.498929
11
-54.532753
21
59.169829
0
LINE
8
Layer 1
10
-54.532753
20
59.169829
11
-53.959713
21
62.754049
0
LINE
8
Layer 1
10
-53.959713
20
62.754049
11
-53.478014
21
65.740899
0
LINE
8
Layer 1
10
-53.478014
20
65.740899
11
-52.538398
21
71.191899
0
LINE
8
Layer 1
10
-52.538398
20
71.191899
11
-50.899018
21
78.957709
0
LINE
8
Layer 1
10
-50.899018
20
78.957709
11
-50.111401
21
82.429919
0
LINE
8
Layer 1
10
-50.111401
20
82.429919
11
-49.557148
21
84.819399
0
LINE
8
Layer 1
10
-49.557148
20
84.819399
11
-48.249778
21
90.345069
0
LINE
8
Layer 1
10
-48.249778
20
90.345069
11
-46.718299
21
96.006415
0
LINE
8
Layer 1
10
-46.718299
20
96.006415
11
-45.960947
21
97.977810
0
LINE
8
Layer 1
10
-45.960947
20
97.977810
11
-45.194508
21
99.419959
0
LINE
8
Layer 1
10
-45.194508
20
99.419959
11
-44.053864
21
100.755511
0
LINE
8
Layer 1
10
-44.053864
20
100.755511
11
-43.497338
21
101.089192
0
LINE
8
Layer 1
10
-43.497338
20
101.089192
11
-42.947408
21
101.202209
0
LINE
8
Layer 1
10
-42.947408
20
101.202209
11
-42.314520
21
101.063198
0
LINE
8
Layer 1
10
-42.314520
20
101.063198
11
-41.008058
21
100.301235
0
LINE
8
Layer 1
10
-41.008058
20
100.301235
11
-39.234998
21
99.203625
0
LINE
8
Layer 1
10
-39.234998
20
99.203625
11
-37.648618
21
98.221637
0
LINE
8
Layer 1
10
-37.648618
20
98.221637
11
-36.080518
21
97.250911
0
LINE
8
Layer 1
10
-36.080518
20
97.250911
11
-34.493368
21
96.274487
0
LINE
8
Layer 1
10
-34.493368
20
96.274487
11
-33.428918
21
95.615103
0
LINE
8
Layer 1
10
-33.428918
20
95.615103
11
-32.644869
21
95.122796
0
LINE
8
Layer 1
10
-32.644869
20
95.122796
11
-30.858720
21
93.889604
0
LINE
8
Layer 1
10
-30.858720
20
93.889604
11
-30.420793
21
93.394149
0
LINE
8
Layer 1
10
-30.420793
20
93.394149
11
-30.081989
21
92.793796
0
LINE
8
Layer 1
10
-30.081989
20
92.793796
11
-29.433268
21
91.007060
0
LINE
8
Layer 1
10
-29.433268
20
91.007060
11
-28.539289
21
87.470236
0
LINE
8
Layer 1
10
-28.539289
20
87.470236
11
-28.165503
21
85.902136
0
LINE
8
Layer 1
10
-28.165503
20
85.902136
11
-27.321063
21
82.147372
0
LINE
8
Layer 1
10
-27.321063
20
82.147372
11
-26.743365
21
78.876255
0
LINE
8
Layer 1
10
-26.743365
20
78.876255
11
-26.372920
21
75.683203
0
LINE
8
Layer 1
10
-26.372920
20
75.683203
11
-26.150233
21
72.162636
0
LINE
8
Layer 1
10
-26.150233
20
72.162636
11
-26.074800
21
67.047656
0
LINE
8
Layer 1
10
-26.074800
20
67.047656
11
-25.850095
21
54.950956
0
LINE
8
Layer 1
10
-25.850095
20
54.950956
11
-25.770595
21
52.150786
0
LINE
8
Layer 1
10
-25.770595
20
52.150786
11
-25.616892
21
48.342556
0
LINE
8
Layer 1
10
-25.616892
20
48.342556
11
-25.471405
21
45.169026
0
LINE
8
Layer 1
10
-25.471405
20
45.169026
11
-25.250931
21
41.360796
0
LINE
8
Layer 1
10
-25.250931
20
41.360796
11
-25.138878
21
39.494016
0
LINE
8
Layer 1
10
-25.138878
20
39.494016
11
-24.693949
21
33.501646
0
LINE
8
Layer 1
10
-24.693949
20
33.501646
11
-24.577249
21
32.138896
0
LINE
8
Layer 1
10
-24.577249
20
32.138896
11
-23.758047
21
24.186406
0
LINE
8
Layer 1
10
-23.758047
20
24.186406
11
-22.834085
21
17.304986
0
LINE
8
Layer 1
10
-22.834085
20
17.304986
11
-21.847267
21
11.865606
0
LINE
8
Layer 1
10
-21.847267
20
11.865606
11
-20.993530
21
7.790172
0
LINE
8
Layer 1
10
-20.993530
20
7.790172
11
-20.215847
21
4.734506
0
LINE
8
Layer 1
10
-20.215847
20
4.734506
11
-18.690624
21
-0.214776
0
LINE
8
Layer 1
10
-18.690624
20
-0.214776
11
-17.106907
21
-4.044954
0
LINE
8
Layer 1
10
-17.106907
20
-4.044954
11
-16.579238
21
-5.013648
0
LINE
8
Layer 1
10
-16.579238
20
-5.013648
11
-16.253040
21
-5.234104
0
LINE
8
Layer 1
10
-16.253040
20
-5.234104
11
-15.406823
21
-4.557446
0
LINE
8
Layer 1
10
-15.406823
20
-4.557446
11
-14.275400
21
-3.330634
0
LINE
8
Layer 1
10
-14.275400
20
-3.330634
11
-12.856249
21
-1.254869
0
LINE
8
Layer 1
10
-12.856249
20
-1.254869
11
-11.402672
21
1.387132
0
LINE
8
Layer 1
10
-11.402672
20
1.387132
11
-9.881735
21
4.660875
0
LINE
8
Layer 1
10
-9.881735
20
4.660875
11
-8.260500
21
8.631866
0
LINE
8
Layer 1
10
-8.260500
20
8.631866
11
-6.856380
21
12.402766
0
LINE
8
Layer 1
10
-6.856380
20
12.402766
11
-5.855150
21
15.225866
0
LINE
8
Layer 1
10
-5.855150
20
15.225866
11
-3.197710
21
23.103686
0
LINE
8
Layer 1
10
-3.197710
20
23.103686
11
-0.876010
21
31.541536
0
LINE
8
Layer 1
10
-0.876010
20
31.541536
11
-0.573606
21
32.848286
0
LINE
8
Layer 1
10
-0.573606
20
32.848286
11
0.473164
21
38.187276
0
LINE
8
Layer 1
10
0.473164
20
38.187276
11
1.485636
21
45.530322
0
LINE
8
Layer 1
10
1.485636
20
45.530322
11
2.040820
21
53.270700
0
LINE
8
Layer 1
10
2.040820
20
53.270700
11
2.091584
21
60.035850
0
LINE
8
Layer 1
10
2.091584
20
60.035850
11
1.936120
21
66.151500
0
LINE
8
Layer 1
10
1.936120
20
66.151500
11
1.814790
21
67.981000
0
LINE
8
Layer 1
10
1.814790
20
67.981000
11
1.703820
21
69.511700
0
LINE
8
Layer 1
10
1.703820
20
69.511700
11
1.555070
21
71.266500
0
LINE
8
Layer 1
10
1.555070
20
71.266500
11
1.136254
21
75.350422
0
LINE
8
Layer 1
10
1.136254
20
75.350422
11
0.474153
21
80.083525
0
LINE
8
Layer 1
10
0.474153
20
80.083525
11
-0.350434
21
84.944391
0
LINE
8
Layer 1
10
-0.350434
20
84.944391
11
-1.256710
21
89.411600
0
LINE
8
Layer 1
10
-1.256710
20
89.411600
11
-1.624570
21
91.091700
0
LINE
8
Layer 1
10
-1.624570
20
91.091700
11
-2.820600
21
96.393360
0
LINE
8
Layer 1
10
-2.820600
20
96.393360
11
-3.663281
21
100.877741
0
LINE
8
Layer 1
10
-3.663281
20
100.877741
11
-3.914030
21
104.146200
0
LINE
8
Layer 1
10
-3.914030
20
104.146200
11
-3.740765
21
105.561401
0
LINE
8
Layer 1
10
-3.740765
20
105.561401
11
-3.375889
21
106.660650
0
LINE
8
Layer 1
10
-3.375889
20
106.660650
11
-2.705149
21
107.652269
0
LINE
8
Layer 1
10
-2.705149
20
107.652269
11
-2.034089
21
108.042070
0
LINE
8
Layer 1
10
-2.034089
20
108.042070
11
-0.855384
21
107.382571
0
LINE
8
Layer 1
10
-0.855384
20
107.382571
11
0.499331
21
106.405530
0
LINE
8
Layer 1
10
0.499331
20
106.405530
11
2.772051
21
103.695160
0
LINE
8
Layer 1
10
2.772051
20
103.695160
11
3.883732
21
101.869764
0
LINE
8
Layer 1
10
3.883732
20
101.869764
11
4.897481
21
99.828240
0
LINE
8
Layer 1
10
4.897481
20
99.828240
11
6.072361
21
96.432690
0
LINE
8
Layer 1
10
6.072361
20
96.432690
11
6.879167
21
93.105486
0
LINE
8
Layer 1
10
6.879167
20
93.105486
11
7.635321
21
88.702220
0
LINE
8
Layer 1
10
7.635321
20
88.702220
11
7.870856
21
87.096790
0
LINE
8
Layer 1
10
7.870856
20
87.096790
11
8.753938
21
78.744081
0
LINE
8
Layer 1
10
8.753938
20
78.744081
11
9.394256
21
69.586390
0
LINE
8
Layer 1
10
9.394256
20
69.586390
11
9.469704
21
68.204970
0
LINE
8
Layer 1
10
9.469704
20
68.204970
11
9.587442
21
62.389410
0
LINE
8
Layer 1
10
9.587442
20
62.389410
11
9.511841
21
55.212170
0
LINE
8
Layer 1
10
9.511841
20
55.212170
11
9.186295
21
49.468828
0
LINE
8
Layer 1
10
9.186295
20
49.468828
11
8.761216
21
44.571470
0
LINE
8
Layer 1
10
8.761216
20
44.571470
11
7.119206
21
31.503970
0
LINE
8
Layer 1
10
7.119206
20
31.503970
11
6.780789
21
29.039820
0
LINE
8
Layer 1
10
6.780789
20
29.039820
11
6.593342
21
27.733070
0
LINE
8
Layer 1
10
6.593342
20
27.733070
11
6.221472
21
24.930260
0
LINE
8
Layer 1
10
6.221472
20
24.930260
11
6.266476
21
24.822116
0
LINE
8
Layer 1
10
6.266476
20
24.822116
11
6.530051
21
25.048426
0
LINE
8
Layer 1
10
6.530051
20
25.048426
11
9.155591
21
28.278416
0
LINE
8
Layer 1
10
9.155591
20
28.278416
11
12.304517
21
33.103047
0
LINE
8
Layer 1
10
12.304517
20
33.103047
11
13.429524
21
35.222837
0
LINE
8
Layer 1
10
13.429524
20
35.222837
11
14.337331
21
37.290996
0
LINE
8
Layer 1
10
14.337331
20
37.290996
11
15.510651
21
40.576297
0
LINE
8
Layer 1
10
15.510651
20
40.576297
11
16.338061
21
43.414036
0
LINE
8
Layer 1
10
16.338061
20
43.414036
11
17.265128
21
47.135476
0
LINE
8
Layer 1
10
17.265128
20
47.135476
11
18.024801
21
49.261996
0
LINE
8
Layer 1
10
18.024801
20
49.261996
11
18.757165
21
50.397709
0
LINE
8
Layer 1
10
18.757165
20
50.397709
11
19.149929
21
50.725600
0
LINE
8
Layer 1
10
19.149929
20
50.725600
11
19.512951
21
50.843086
0
LINE
8
Layer 1
10
19.512951
20
50.843086
11
20.558351
21
50.309901
0
LINE
8
Layer 1
10
20.558351
20
50.309901
11
22.996901
21
48.790741
0
LINE
8
Layer 1
10
22.996901
20
48.790741
11
23.631606
21
48.396889
0
LINE
8
Layer 1
10
23.631606
20
48.396889
11
26.168706
21
46.774849
0
LINE
8
Layer 1
10
26.168706
20
46.774849
11
26.389836
21
46.432818
0
LINE
8
Layer 1
10
26.389836
20
46.432818
11
26.397916
21
45.937608
0
LINE
8
Layer 1
10
26.397916
20
45.937608
11
25.702997
21
44.069849
0
LINE
8
Layer 1
10
25.702997
20
44.069849
11
25.027825
21
42.515549
0
LINE
8
Layer 1
10
25.027825
20
42.515549
11
24.517476
21
41.003928
0
LINE
8
Layer 1
10
24.517476
20
41.003928
11
23.070287
21
34.901519
0
LINE
8
Layer 1
10
23.070287
20
34.901519
11
22.411665
21
31.688180
0
LINE
8
Layer 1
10
22.411665
20
31.688180
11
21.978478
21
28.876087
0
LINE
8
Layer 1
10
21.978478
20
28.876087
11
21.754446
21
26.332535
0
LINE
8
Layer 1
10
21.754446
20
26.332535
11
21.723287
21
23.924819
0
LINE
8
Layer 1
10
21.723287
20
23.924819
11
21.833464
21
21.816635
0
LINE
8
Layer 1
10
21.833464
20
21.816635
11
22.102998
21
20.118619
0
LINE
8
Layer 1
10
22.102998
20
20.118619
11
22.400528
21
19.061405
0
LINE
8
Layer 1
10
22.400528
20
19.061405
11
22.641468
21
18.961409
0
LINE
8
Layer 1
10
22.641468
20
18.961409
11
23.086762
21
18.982049
0
LINE
8
Layer 1
10
23.086762
20
18.982049
11
24.395458
21
19.208366
0
LINE
8
Layer 1
10
24.395458
20
19.208366
11
25.706114
21
19.706212
0
LINE
8
Layer 1
10
25.706114
20
19.706212
11
27.013069
21
20.470524
0
LINE
8
Layer 1
10
27.013069
20
20.470524
11
28.310661
21
21.496237
0
LINE
8
Layer 1
10
28.310661
20
21.496237
11
29.593228
21
22.778288
0
LINE
8
Layer 1
10
29.593228
20
22.778288
11
30.855108
21
24.311613
0
LINE
8
Layer 1
10
30.855108
20
24.311613
11
32.090640
21
26.091148
0
LINE
8
Layer 1
10
32.090640
20
26.091148
11
33.294162
21
28.111829
0
LINE
8
Layer 1
10
33.294162
20
28.111829
11
34.856968
21
31.128168
0
LINE
8
Layer 1
10
34.856968
20
31.128168
11
36.183970
21
34.111405
0
LINE
8
Layer 1
10
36.183970
20
34.111405
11
37.275633
21
37.062679
0
LINE
8
Layer 1
10
37.275633
20
37.062679
11
38.132422
21
39.983129
0
LINE
8
Layer 1
10
38.132422
20
39.983129
11
38.631583
21
42.335764
0
LINE
8
Layer 1
10
38.631583
20
42.335764
11
38.777768
21
45.392799
0
LINE
8
Layer 1
10
38.777768
20
45.392799
11
38.923814
21
49.319123
0
LINE
8
Layer 1
10
38.923814
20
49.319123
11
39.153902
21
51.911909
0
LINE
8
Layer 1
10
39.153902
20
51.911909
11
39.418514
21
53.209613
0
LINE
8
Layer 1
10
39.418514
20
53.209613
11
39.936628
21
54.013299
0
LINE
8
Layer 1
10
39.936628
20
54.013299
11
40.408833
21
54.269060
0
LINE
8
Layer 1
10
40.408833
20
54.269060
11
41.108658
21
53.960823
0
LINE
8
Layer 1
10
41.108658
20
53.960823
11
42.452738
21
53.128446
0
LINE
8
Layer 1
10
42.452738
20
53.128446
11
44.023328
21
52.157721
0
LINE
8
Layer 1
10
44.023328
20
52.157721
11
46.337298
21
50.731251
0
LINE
8
Layer 1
10
46.337298
20
50.731251
11
47.102678
21
50.159703
0
LINE
8
Layer 1
10
47.102678
20
50.159703
11
47.283336
21
49.795362
0
LINE
8
Layer 1
10
47.283336
20
49.795362
11
47.294448
21
48.891473
0
LINE
8
Layer 1
10
47.294448
20
48.891473
11
47.361086
21
48.195604
0
LINE
8
Layer 1
10
47.361086
20
48.195604
11
47.907925
21
48.569723
0
LINE
8
Layer 1
10
47.907925
20
48.569723
11
49.568718
21
49.786112
0
LINE
8
Layer 1
10
49.568718
20
49.786112
11
51.248245
21
50.509703
0
LINE
8
Layer 1
10
51.248245
20
50.509703
11
52.387908
21
50.608317
0
LINE
8
Layer 1
10
52.387908
20
50.608317
11
53.339045
21
50.436968
0
LINE
8
Layer 1
10
53.339045
20
50.436968
11
54.944475
21
49.478006
0
LINE
8
Layer 1
10
54.944475
20
49.478006
11
59.340510
21
46.718995
0
LINE
8
Layer 1
10
59.340510
20
46.718995
11
60.115836
21
46.110877
0
LINE
8
Layer 1
10
60.115836
20
46.110877
11
60.476025
21
45.647716
0
LINE
8
Layer 1
10
60.476025
20
45.647716
11
60.795763
21
44.782709
0
LINE
8
Layer 1
10
60.795763
20
44.782709
11
61.035426
21
43.537426
0
LINE
8
Layer 1
10
61.035426
20
43.537426
11
61.112085
21
41.125193
0
LINE
8
Layer 1
10
61.112085
20
41.125193
11
60.996118
21
37.477646
0
LINE
8
Layer 1
10
60.996118
20
37.477646
11
60.901963
21
33.616256
0
LINE
8
Layer 1
10
60.901963
20
33.616256
11
61.177316
21
30.288476
0
LINE
8
Layer 1
10
61.177316
20
30.288476
11
61.964842
21
26.524815
0
LINE
8
Layer 1
10
61.964842
20
26.524815
11
62.444343
21
25.127703
0
LINE
8
Layer 1
10
62.444343
20
25.127703
11
62.849096
21
24.509696
0
LINE
8
Layer 1
10
62.849096
20
24.509696
11
63.814416
21
24.496491
0
LINE
8
Layer 1
10
63.814416
20
24.496491
11
65.444948
21
24.740809
0
LINE
8
Layer 1
10
65.444948
20
24.740809
11
69.020006
21
25.682436
0
LINE
8
Layer 1
10
69.020006
20
25.682436
11
72.228533
21
27.159046
0
LINE
8
Layer 1
10
72.228533
20
27.159046
11
73.531055
21
27.913269
0
LINE
8
Layer 1
10
73.531055
20
27.913269
11
74.125616
21
28.407596
0
LINE
8
Layer 1
10
74.125616
20
28.407596
11
74.051686
21
29.437896
0
LINE
8
Layer 1
10
74.051686
20
29.437896
11
74.004501
21
32.079495
0
LINE
8
Layer 1
10
74.004501
20
32.079495
11
74.377959
21
35.425146
0
LINE
8
Layer 1
10
74.377959
20
35.425146
11
75.096427
21
38.995798
0
LINE
8
Layer 1
10
75.096427
20
38.995798
11
76.084276
21
42.312396
0
LINE
8
Layer 1
10
76.084276
20
42.312396
11
77.340026
21
45.051725
0
LINE
8
Layer 1
10
77.340026
20
45.051725
11
78.073865
21
46.137192
0
LINE
8
Layer 1
10
78.073865
20
46.137192
11
78.903896
21
47.076356
0
LINE
8
Layer 1
10
78.903896
20
47.076356
11
79.948337
21
47.968619
0
LINE
8
Layer 1
10
79.948337
20
47.968619
11
81.077634
21
48.646500
0
LINE
8
Layer 1
10
81.077634
20
48.646500
11
82.328490
21
49.127880
0
LINE
8
Layer 1
10
82.328490
20
49.127880
11
83.737606
21
49.430636
0
LINE
8
Layer 1
10
83.737606
20
49.430636
11
85.411131
21
49.480308
0
LINE
8
Layer 1
10
85.411131
20
49.480308
11
86.941096
21
49.239371
0
LINE
8
Layer 1
10
86.941096
20
49.239371
11
88.432975
21
48.561404
0
LINE
8
Layer 1
10
88.432975
20
48.561404
11
93.213476
21
45.631251
0
LINE
8
Layer 1
10
93.213476
20
45.631251
11
94.387058
21
44.849921
0
LINE
8
Layer 1
10
94.387058
20
44.849921
11
95.122445
21
44.189501
0
LINE
8
Layer 1
10
95.122445
20
44.189501
11
95.643993
21
43.523412
0
LINE
8
Layer 1
10
95.643993
20
43.523412
11
96.005737
21
42.804761
0
LINE
8
Layer 1
10
96.005737
20
42.804761
11
96.207718
21
42.034463
0
LINE
8
Layer 1
10
96.207718
20
42.034463
11
96.249976
21
41.213434
0
LINE
8
Layer 1
10
96.249976
20
41.213434
11
95.855485
21
39.422843
0
LINE
8
Layer 1
10
95.855485
20
39.422843
11
94.822587
21
37.440311
0
LINE
8
Layer 1
10
94.822587
20
37.440311
11
93.259099
21
35.455465
0
LINE
8
Layer 1
10
93.259099
20
35.455465
11
90.045288
21
32.101321
0
LINE
8
Layer 1
10
90.045288
20
32.101321
11
83.966688
21
25.901711
0
LINE
8
Layer 1
10
83.966688
20
25.901711
11
84.246033
21
25.889649
0
LINE
8
Layer 1
10
84.246033
20
25.889649
11
85.082199
21
26.252416
0
LINE
8
Layer 1
10
85.082199
20
26.252416
11
87.426458
21
27.609541
0
LINE
8
Layer 1
10
87.426458
20
27.609541
11
90.302413
21
29.742355
0
LINE
8
Layer 1
10
90.302413
20
29.742355
11
93.498784
21
32.438049
0
LINE
8
Layer 1
10
93.498784
20
32.438049
11
96.505842
21
35.244514
0
LINE
8
Layer 1
10
96.505842
20
35.244514
11
98.813858
21
37.709641
0
LINE
8
Layer 1
10
98.813858
20
37.709641
11
100.414548
21
39.799641
0
LINE
8
Layer 1
10
100.414548
20
39.799641
11
102.654636
21
42.762758
0
LINE
8
Layer 1
10
102.654636
20
42.762758
11
103.359529
21
43.442671
0
LINE
8
Layer 1
10
103.359529
20
43.442671
11
104.014608
21
43.843051
0
LINE
8
Layer 1
10
104.014608
20
43.843051
11
105.064060
21
44.113325
0
LINE
8
Layer 1
10
105.064060
20
44.113325
11
106.189878
21
44.015678
0
LINE
8
Layer 1
10
106.189878
20
44.015678
11
107.162077
21
43.589039
0
LINE
8
Layer 1
10
107.162077
20
43.589039
11
108.086249
21
42.883680
0
LINE
8
Layer 1
10
108.086249
20
42.883680
11
108.833775
21
42.020298
0
LINE
8
Layer 1
10
108.833775
20
42.020298
11
109.276038
21
41.119588
0
LINE
8
Layer 1
10
109.276038
20
41.119588
11
109.362271
21
40.107632
0
LINE
8
Layer 1
10
109.362271
20
40.107632
11
109.165621
21
39.025778
0
LINE
8
Layer 1
10
109.165621
20
39.025778
11
108.667805
21
37.846360
0
LINE
8
Layer 1
10
108.667805
20
37.846360
11
107.929333
21
36.565692
0
LINE
8
Layer 1
10
107.929333
20
36.565692
11
105.615061
21
33.521768
0
LINE
8
Layer 1
10
105.615061
20
33.521768
11
103.419598
21
31.123040
0
LINE
8
Layer 1
10
103.419598
20
31.123040
11
100.565957
21
28.248368
0
LINE
8
Layer 1
10
100.565957
20
28.248368
11
97.649843
21
25.480347
0
LINE
8
Layer 1
10
97.649843
20
25.480347
11
95.266961
21
23.401568
0
LINE
8
Layer 1
10
95.266961
20
23.401568
11
93.595335
21
22.163715
0
LINE
8
Layer 1
10
93.595335
20
22.163715
11
91.966942
21
21.163177
0
LINE
8
Layer 1
10
91.966942
20
21.163177
11
90.419956
21
20.420908
0
LINE
8
Layer 1
10
90.419956
20
20.420908
11
88.992551
21
19.957858
0
LINE
8
Layer 1
10
88.992551
20
19.957858
11
87.289578
21
19.815871
0
LINE
8
Layer 1
10
87.289578
20
19.815871
11
85.408591
21
19.988654
0
LINE
8
Layer 1
10
85.408591
20
19.988654
11
83.434108
21
20.560072
0
LINE
8
Layer 1
10
83.434108
20
20.560072
11
81.129941
21
21.804634
0
LINE
8
Layer 1
10
81.129941
20
21.804634
11
79.796821
21
22.543469
0
LINE
8
Layer 1
10
79.796821
20
22.543469
11
78.967450
21
22.105288
0
LINE
8
Layer 1
10
78.967450
20
22.105288
11
76.382527
21
20.751612
0
LINE
8
Layer 1
10
76.382527
20
20.751612
11
73.701340
21
19.743591
0
LINE
8
Layer 1
10
73.701340
20
19.743591
11
70.979682
21
19.098296
0
LINE
8
Layer 1
10
70.979682
20
19.098296
11
68.273350
21
18.832798
0
LINE
8
Layer 1
10
68.273350
20
18.832798
11
66.932153
21
18.827931
0
LINE
8
Layer 1
10
66.932153
20
18.827931
11
66.046290
21
18.954258
0
LINE
8
Layer 1
10
66.046290
20
18.954258
11
65.208810
21
19.159516
0
LINE
8
Layer 1
10
65.208810
20
19.159516
11
64.262450
21
19.578656
0
LINE
8
Layer 1
10
64.262450
20
19.578656
11
59.648830
21
22.317158
0
LINE
8
Layer 1
10
59.648830
20
22.317158
11
57.435637
21
23.767290
0
LINE
8
Layer 1
10
57.435637
20
23.767290
11
56.326160
21
24.939328
0
LINE
8
Layer 1
10
56.326160
20
24.939328
11
55.355080
21
26.564519
0
LINE
8
Layer 1
10
55.355080
20
26.564519
11
54.549201
21
28.600080
0
LINE
8
Layer 1
10
54.549201
20
28.600080
11
53.909231
21
31.043808
0
LINE
8
Layer 1
10
53.909231
20
31.043808
11
53.435880
21
33.893498
0
LINE
8
Layer 1
10
53.435880
20
33.893498
11
53.266903
21
35.707543
0
LINE
8
Layer 1
10
53.266903
20
35.707543
11
53.219588
21
38.820288
0
LINE
8
Layer 1
10
53.219588
20
38.820288
11
53.128489
21
42.239768
0
LINE
8
Layer 1
10
53.128489
20
42.239768
11
52.241998
21
41.134926
0
LINE
8
Layer 1
10
52.241998
20
41.134926
11
50.911959
21
38.784458
0
LINE
8
Layer 1
10
50.911959
20
38.784458
11
49.654939
21
35.868299
0
LINE
8
Layer 1
10
49.654939
20
35.868299
11
48.407133
21
32.276158
0
LINE
8
Layer 1
10
48.407133
20
32.276158
11
47.218628
21
28.166368
0
LINE
8
Layer 1
10
47.218628
20
28.166368
11
46.139509
21
23.697258
0
LINE
8
Layer 1
10
46.139509
20
23.697258
11
44.974409
21
17.988488
0
LINE
8
Layer 1
10
44.974409
20
17.988488
11
44.692102
21
16.810826
0
LINE
8
Layer 1
10
44.692102
20
16.810826
11
44.260119
21
16.071658
0
LINE
8
Layer 1
10
44.260119
20
16.071658
11
43.986782
21
15.796235
0
LINE
8
Layer 1
10
43.986782
20
15.796235
11
43.642910
21
15.779785
0
LINE
8
Layer 1
10
43.642910
20
15.779785
11
41.839729
21
16.793280
0
LINE
8
Layer 1
10
41.839729
20
16.793280
11
40.308969
21
17.724438
0
LINE
8
Layer 1
10
40.308969
20
17.724438
11
38.703539
21
18.697675
0
LINE
8
Layer 1
10
38.703539
20
18.697675
11
37.767423
21
19.179817
0
LINE
8
Layer 1
10
37.767423
20
19.179817
11
37.329821
21
18.800773
0
LINE
8
Layer 1
10
37.329821
20
18.800773
11
36.267071
21
17.536443
0
LINE
8
Layer 1
10
36.267071
20
17.536443
11
34.989066
21
16.231508
0
LINE
8
Layer 1
10
34.989066
20
16.231508
11
33.659485
21
15.150170
0
LINE
8
Layer 1
10
33.659485
20
15.150170
11
32.307762
21
14.313483
0
LINE
8
Layer 1
10
32.307762
20
14.313483
11
30.963331
21
13.742503
0
LINE
8
Layer 1
10
30.963331
20
13.742503
11
29.566980
21
13.398914
0
LINE
8
Layer 1
10
29.566980
20
13.398914
11
27.838881
21
13.321919
0
LINE
8
Layer 1
10
27.838881
20
13.321919
11
26.221024
21
13.395455
0
LINE
8
Layer 1
10
26.221024
20
13.395455
11
24.863110
21
13.699502
0
LINE
8
Layer 1
10
24.863110
20
13.699502
11
23.393234
21
14.361125
0
LINE
8
Layer 1
10
23.393234
20
14.361125
11
21.439491
21
15.507389
0
LINE
8
Layer 1
10
21.439491
20
15.507389
11
19.102351
21
16.942019
0
LINE
8
Layer 1
10
19.102351
20
16.942019
11
17.160901
21
18.174809
0
LINE
8
Layer 1
10
17.160901
20
18.174809
11
16.136332
21
19.071276
0
LINE
8
Layer 1
10
16.136332
20
19.071276
11
15.361384
21
20.155199
0
LINE
8
Layer 1
10
15.361384
20
20.155199
11
14.796019
21
21.499103
0
LINE
8
Layer 1
10
14.796019
20
21.499103
11
14.400201
21
23.175509
0
LINE
8
Layer 1
10
14.400201
20
23.175509
11
14.218332
21
23.910452
0
LINE
8
Layer 1
10
14.218332
20
23.910452
11
13.528713
21
23.399373
0
LINE
8
Layer 1
10
13.528713
20
23.399373
11
11.508419
21
21.722589
0
LINE
8
Layer 1
10
11.508419
20
21.722589
11
9.490102
21
20.406953
0
LINE
8
Layer 1
10
9.490102
20
20.406953
11
7.558775
21
19.500301
0
LINE
8
Layer 1
10
7.558775
20
19.500301
11
5.799453
21
19.050463
0
LINE
8
Layer 1
10
5.799453
20
19.050463
11
5.364628
21
18.996155
0
LINE
8
Layer 1
10
5.364628
20
18.996155
11
5.309715
21
18.623001
0
LINE
8
Layer 1
10
5.309715
20
18.623001
11
5.064935
21
16.831091
0
LINE
8
Layer 1
10
5.064935
20
16.831091
11
4.470776
21
12.574831
0
LINE
8
Layer 1
10
4.470776
20
12.574831
11
4.088198
21
9.849331
0
LINE
8
Layer 1
10
4.088198
20
9.849331
11
3.646122
21
6.937151
0
LINE
8
Layer 1
10
3.646122
20
6.937151
11
3.159699
21
3.912961
0
LINE
8
Layer 1
10
3.159699
20
3.912961
11
2.747753
21
1.486141
0
LINE
8
Layer 1
10
2.747753
20
1.486141
11
2.299352
21
-0.828669
0
LINE
8
Layer 1
10
2.299352
20
-0.828669
11
1.252578
21
-5.283179
0
LINE
8
Layer 1
10
1.252578
20
-5.283179
11
0.071462
21
-8.660599
0
LINE
8
Layer 1
10
0.071462
20
-8.660599
11
-1.014069
21
-10.737138
0
LINE
8
Layer 1
10
-1.014069
20
-10.737138
11
-2.244614
21
-12.433931
0
LINE
8
Layer 1
10
-2.244614
20
-12.433931
11
-3.626437
21
-13.758218
0
LINE
8
Layer 1
10
-3.626437
20
-13.758218
11
-5.165798
21
-14.717239
0
LINE
8
Layer 1
10
-5.165798
20
-14.717239
11
-6.640672
21
-15.259727
0
LINE
8
Layer 1
10
-6.640672
20
-15.259727
11
-8.152648
21
-15.416901
0
LINE
8
Layer 1
10
-8.152648
20
-15.416901
11
-9.950856
21
-15.194743
0
LINE
8
Layer 1
10
-9.950856
20
-15.194743
11
-11.886208
21
-14.441113
0
LINE
8
Layer 1
10
-11.886208
20
-14.441113
11
-16.311718
21
-11.826263
0
LINE
8
Layer 1
10
-16.311718
20
-11.826263
11
-16.963857
21
-11.435120
0
LINE
8
Layer 1
10
-16.963857
20
-11.435120
11
-17.971917
21
-10.829170
0
LINE
8
Layer 1
10
-17.971917
20
-10.829170
11
-20.302327
21
-9.395850
0
LINE
8
Layer 1
10
-20.302327
20
-9.395850
11
-22.206447
21
-8.170840
0
LINE
8
Layer 1
10
-22.206447
20
-8.170840
11
-23.919919
21
-6.520063
0
LINE
8
Layer 1
10
-23.919919
20
-6.520063
11
-25.443152
21
-4.212443
0
LINE
8
Layer 1
10
-25.443152
20
-4.212443
11
-26.838030
21
-1.133747
0
LINE
8
Layer 1
10
-26.838030
20
-1.133747
11
-28.166437
21
2.830260
0
LINE
8
Layer 1
10
-28.166437
20
2.830260
11
-29.769537
21
9.326660
0
LINE
8
Layer 1
10
-29.769537
20
9.326660
11
-30.152309
21
11.305450
0
LINE
8
Layer 1
10
-30.152309
20
11.305450
11
-30.704400
21
14.462120
0
LINE
8
Layer 1
10
-30.704400
20
14.462120
11
-30.961349
21
16.179560
0
LINE
8
Layer 1
10
-30.961349
20
16.179560
11
-31.407172
21
19.593960
0
LINE
8
Layer 1
10
-31.407172
20
19.593960
11
-31.784082
21
22.618150
0
LINE
8
Layer 1
10
-31.784082
20
22.618150
11
-32.795242
21
32.026730
0
LINE
8
Layer 1
10
-32.795242
20
32.026730
11
-33.989802
21
42.555330
0
LINE
8
Layer 1
10
-33.989802
20
42.555330
11
-34.254238
21
44.534120
0
LINE
8
Layer 1
10
-34.254238
20
44.534120
11
-34.400113
21
45.616850
0
LINE
8
Layer 1
10
-34.400113
20
45.616850
11
-34.512045
21
46.550240
0
LINE
8
Layer 1
10
-34.512045
20
46.550240
11
-34.772858
21
48.566360
0
LINE
8
Layer 1
10
-34.772858
20
48.566360
11
-35.181448
21
51.665220
0
LINE
8
Layer 1
10
-35.181448
20
51.665220
11
-35.706341
21
55.772140
0
LINE
8
Layer 1
10
-35.706341
20
55.772140
11
-35.928297
21
57.489580
0
LINE
8
Layer 1
10
-35.928297
20
57.489580
11
-36.154820
21
59.244350
0
LINE
8
Layer 1
10
-36.154820
20
59.244350
11
-36.451678
21
61.745840
0
LINE
8
Layer 1
10
-36.451678
20
61.745840
11
-37.093984
21
67.047500
0
LINE
8
Layer 1
10
-37.093984
20
67.047500
11
-37.948095
21
73.082700
0
LINE
8
Layer 1
10
-37.948095
20
73.082700
11
-38.177508
21
74.314780
0
LINE
8
Layer 1
10
-38.177508
20
74.314780
11
-39.211808
21
79.554930
0
LINE
8
Layer 1
10
-39.211808
20
79.554930
11
-39.749817
21
81.592604
0
LINE
8
Layer 1
10
-39.749817
20
81.592604
11
-39.922302
21
81.744508
0
LINE
8
Layer 1
10
-39.922302
20
81.744508
11
-40.105563
21
81.480290
0
LINE
8
Layer 1
10
-40.105563
20
81.480290
11
-41.531397
21
77.483265
0
LINE
8
Layer 1
10
-41.531397
20
77.483265
11
-43.609913
21
70.855690
0
LINE
8
Layer 1
10
-43.609913
20
70.855690
11
-46.221114
21
61.735314
0
LINE
8
Layer 1
10
-46.221114
20
61.735314
11
-48.362298
21
53.365978
0
LINE
8
Layer 1
10
-48.362298
20
53.365978
11
-50.266220
21
44.771623
0
LINE
8
Layer 1
10
-50.266220
20
44.771623
11
-52.165633
21
34.976190
0
LINE
8
Layer 1
10
-52.165633
20
34.976190
11
-53.946808
21
24.943825
0
LINE
8
Layer 1
10
-53.946808
20
24.943825
11
-55.249372
21
16.720590
0
LINE
8
Layer 1
10
-55.249372
20
16.720590
11
-56.140994
21
9.840681
0
LINE
8
Layer 1
10
-56.140994
20
9.840681
11
-56.689343
21
3.838290
0
LINE
8
Layer 1
10
-56.689343
20
3.838290
11
-56.922154
21
-3.996022
0
LINE
8
Layer 1
10
-56.922154
20
-3.996022
11
-56.723656
21
-11.021310
0
LINE
8
Layer 1
10
-56.723656
20
-11.021310
11
-56.541008
21
-13.224110
0
LINE
8
Layer 1
10
-56.541008
20
-13.224110
11
-56.241762
21
-15.529760
0
LINE
8
Layer 1
10
-56.241762
20
-15.529760
11
-56.040819
21
-15.556857
0
LINE
8
Layer 1
10
-56.040819
20
-15.556857
11
-55.488658
21
-15.320732
0
LINE
8
Layer 1
10
-55.488658
20
-15.320732
11
-54.380768
21
-14.901641
0
LINE
8
Layer 1
10
-54.380768
20
-14.901641
11
-53.847324
21
-14.798565
0
LINE
8
Layer 1
10
-53.847324
20
-14.798565
11
-53.402690
21
-14.850907
0
LINE
8
Layer 1
10
-53.402690
20
-14.850907
11
-51.827638
21
-15.731247
0
LINE
8
Layer 1
10
-51.827638
20
-15.731247
11
-50.009492
21
-17.035577
0
LINE
8
Layer 1
10
-50.009492
20
-17.035577
11
-49.559425
21
-17.632561
0
LINE
8
Layer 1
10
-49.559425
20
-17.632561
11
-49.206418
21
-18.405967
0
LINE
8
Layer 1
10
-49.206418
20
-18.405967
11
-49.034565
21
-18.990190
0
LINE
8
Layer 1
10
-49.034565
20
-18.990190
11
-49.006390
21
-19.795177
0
LINE
8
Layer 1
10
-49.006390
20
-19.795177
11
-49.172409
21
-21.346975
0
LINE
8
Layer 1
10
-49.172409
20
-21.346975
11
-49.761255
21
-23.379397
0
LINE
8
Layer 1
10
-49.761255
20
-23.379397
11
-51.150693
21
-26.863072
0
LINE
8
Layer 1
10
-51.150693
20
-26.863072
11
-52.671175
21
-29.682487
0
LINE
8
Layer 1
10
-52.671175
20
-29.682487
11
-53.618644
21
-30.874123
0
LINE
8
Layer 1
10
-53.618644
20
-30.874123
11
-54.491065
21
-31.579347
0
LINE
8
Layer 1
10
-54.491065
20
-31.579347
11
-55.136556
21
-31.734240
0
LINE
8
Layer 1
10
-55.136556
20
-31.734240
11
-55.718235
21
-31.615683
0
LINE
8
Layer 1
10
-55.718235
20
-31.615683
11
-55.718300
21
-31.615600
0
LINE
8
Layer 1
10
84.110100
20
37.160400
11
86.498850
21
39.682823
0
LINE
8
Layer 1
10
86.498850
20
39.682823
11
87.794790
21
41.379210
0
LINE
8
Layer 1
10
87.794790
20
41.379210
11
88.423491
21
42.493916
0
LINE
8
Layer 1
10
88.423491
20
42.493916
11
88.709356
21
43.353290
0
LINE
8
Layer 1
10
88.709356
20
43.353290
11
88.756713
21
43.698820
0
LINE
8
Layer 1
10
88.756713
20
43.698820
11
88.493377
21
43.656086
0
LINE
8
Layer 1
10
88.493377
20
43.656086
11
86.960312
21
43.027774
0
LINE
8
Layer 1
10
86.960312
20
43.027774
11
85.520757
21
41.901146
0
LINE
8
Layer 1
10
85.520757
20
41.901146
11
84.154561
21
39.925435
0
LINE
8
Layer 1
10
84.154561
20
39.925435
11
82.907507
21
37.148686
0
LINE
8
Layer 1
10
82.907507
20
37.148686
11
82.514497
21
35.976780
0
LINE
8
Layer 1
10
82.514497
20
35.976780
11
82.512376
21
35.610966
0
LINE
8
Layer 1
10
82.512376
20
35.610966
11
84.110106
21
37.160396
0
LINE
8
Layer 1
10
84.110106
20
37.160396
11
84.110100
21
37.160400
0
LINE
8
Layer 1
10
100.031700
20
-30.556900
11
99.449240
21
-30.068802
0
LINE
8
Layer 1
10
99.449240
20
-30.068802
11
99.350094
21
-29.803458
0
LINE
8
Layer 1
10
99.350094
20
-29.803458
11
100.605924
21
-30.736625
0
LINE
8
Layer 1
10
100.605924
20
-30.736625
11
100.503207
21
-30.827410
0
LINE
8
Layer 1
10
100.503207
20
-30.827410
11
100.031701
21
-30.556900
0
LINE
8
Layer 1
10
100.031701
20
-30.556900
11
100.031700
21
-30.556900
 0 
ENDSEC
 0 
EOF