999
"DXF R12 Output" (www.mydxf.blogspot.com)
 0 
SECTION
 2 
HEADER
 9 
$ACADVER
 1 
AC1009
 9 
$EXTMIN
 10 
 0 
 20 
 0 
 9 
$EXTMAX
 10 
 8.5 
 20 
 11 
 0 
ENDSEC
 0 
SECTION
 2 
ENTITIES
0
LINE
8
Image
10
24.427600
20
12.966700
11
21.914800
21
15.491200
0
LINE
8
Image
10
21.914800
20
15.491200
11
22.669501
21
17.976140
0
LINE
8
Image
10
22.669501
20
17.976140
11
24.147500
21
23.706700
0
LINE
8
Image
10
24.147500
20
23.706700
11
25.494688
21
29.151400
0
LINE
8
Image
10
25.494688
20
29.151400
11
27.503600
21
35.983300
0
LINE
8
Image
10
27.503600
20
35.983300
11
28.617784
21
39.690481
0
LINE
8
Image
10
28.617784
20
39.690481
11
29.132400
21
41.825625
0
LINE
8
Image
10
29.132400
20
41.825625
11
29.157041
21
43.077156
0
LINE
8
Image
10
29.157041
20
43.077156
11
28.801300
21
44.133500
0
LINE
8
Image
10
28.801300
20
44.133500
11
27.158180
21
47.344197
0
LINE
8
Image
10
27.158180
20
47.344197
11
24.687238
21
51.528600
0
LINE
8
Image
10
24.687238
20
51.528600
11
21.992927
21
55.707978
0
LINE
8
Image
10
21.992927
20
55.707978
11
19.679700
21
58.903600
0
LINE
8
Image
10
19.679700
20
58.903600
11
18.187325
21
60.472138
0
LINE
8
Image
10
18.187325
20
60.472138
11
16.589200
21
61.780800
0
LINE
8
Image
10
16.589200
20
61.780800
11
14.620200
21
63.319688
0
LINE
8
Image
10
14.620200
20
63.319688
11
12.236000
21
65.441700
0
LINE
8
Image
10
12.236000
20
65.441700
11
10.048504
21
67.657350
0
LINE
8
Image
10
10.048504
20
67.657350
11
9.783237
21
68.173481
0
LINE
8
Image
10
9.783237
20
68.173481
11
9.868000
21
68.561700
0
LINE
8
Image
10
9.868000
20
68.561700
11
10.248400
21
68.973238
0
LINE
8
Image
10
10.248400
20
68.973238
11
10.725100
21
69.144400
0
LINE
8
Image
10
10.725100
20
69.144400
11
12.123249
21
68.727971
0
LINE
8
Image
10
12.123249
20
68.727971
11
14.719090
21
67.726770
0
LINE
8
Image
10
14.719090
20
67.726770
11
17.867002
21
66.596922
0
LINE
8
Image
10
17.867002
20
66.596922
11
21.756174
21
65.460071
0
LINE
8
Image
10
21.756174
20
65.460071
11
26.067031
21
64.401778
0
LINE
8
Image
10
26.067031
20
64.401778
11
30.480000
21
63.507600
0
LINE
8
Image
10
30.480000
20
63.507600
11
34.311920
21
62.795465
0
LINE
8
Image
10
34.311920
20
62.795465
11
34.639758
21
62.798137
0
LINE
8
Image
10
34.639758
20
62.798137
11
34.939044
21
63.010816
0
LINE
8
Image
10
34.939044
20
63.010816
11
35.698270
21
64.340745
0
LINE
8
Image
10
35.698270
20
64.340745
11
36.443325
21
65.700472
0
LINE
8
Image
10
36.443325
20
65.700472
11
37.221371
21
66.774481
0
LINE
8
Image
10
37.221371
20
66.774481
11
37.961575
21
67.479760
0
LINE
8
Image
10
37.961575
20
67.479760
11
38.593100
21
67.733300
0
LINE
8
Image
10
38.593100
20
67.733300
11
39.228845
21
67.459919
0
LINE
8
Image
10
39.228845
20
67.459919
11
40.020120
21
66.802643
0
LINE
8
Image
10
40.020120
20
66.802643
11
40.516407
21
66.240728
0
LINE
8
Image
10
40.516407
20
66.240728
11
40.787015
21
65.711580
0
LINE
8
Image
10
40.787015
20
65.711580
11
40.922200
21
63.870700
0
LINE
8
Image
10
40.922200
20
63.870700
11
40.922200
21
61.869500
0
LINE
8
Image
10
40.922200
20
61.869500
11
41.839422
21
61.707428
0
LINE
8
Image
10
41.839422
20
61.707428
11
44.520592
21
61.392751
0
LINE
8
Image
10
44.520592
20
61.392751
11
48.213608
21
61.152243
0
LINE
8
Image
10
48.213608
20
61.152243
11
55.584822
21
61.041514
0
LINE
8
Image
10
55.584822
20
61.041514
11
58.681247
21
61.224306
0
LINE
8
Image
10
58.681247
20
61.224306
11
60.976473
21
61.532464
0
LINE
8
Image
10
60.976473
20
61.532464
11
62.578183
21
61.987068
0
LINE
8
Image
10
62.578183
20
61.987068
11
63.594062
21
62.609194
0
LINE
8
Image
10
63.594062
20
62.609194
11
64.229522
21
63.206177
0
LINE
8
Image
10
64.229522
20
63.206177
11
66.545842
21
60.877757
0
LINE
8
Image
10
66.545842
20
60.877757
11
68.181745
21
59.141563
0
LINE
8
Image
10
68.181745
20
59.141563
11
68.862162
21
58.237007
0
LINE
8
Image
10
68.862162
20
58.237007
11
68.430661
21
57.566567
0
LINE
8
Image
10
68.430661
20
57.566567
11
67.898255
21
57.435267
0
LINE
8
Image
10
67.898255
20
57.435267
11
66.741051
21
57.386525
0
LINE
8
Image
10
66.741051
20
57.386525
11
62.687518
21
57.528877
0
LINE
8
Image
10
62.687518
20
57.528877
11
48.570861
21
58.718017
0
LINE
8
Image
10
48.570861
20
58.718017
11
40.174800
21
59.548900
0
LINE
8
Image
10
40.174800
20
59.548900
11
40.075500
21
59.250300
0
LINE
8
Image
10
40.075500
20
59.250300
11
37.777510
21
53.253080
0
LINE
8
Image
10
37.777510
20
53.253080
11
34.406200
21
44.308900
0
LINE
8
Image
10
34.406200
20
44.308900
11
33.698237
21
41.941938
0
LINE
8
Image
10
33.698237
20
41.941938
11
33.571160
21
41.171044
0
LINE
8
Image
10
33.571160
20
41.171044
11
33.609311
21
40.625107
0
LINE
8
Image
10
33.609311
20
40.625107
11
33.823160
21
40.266552
0
LINE
8
Image
10
33.823160
20
40.266552
11
34.223175
21
40.057801
0
LINE
8
Image
10
34.223175
20
40.057801
11
35.623580
21
39.939410
0
LINE
8
Image
10
35.623580
20
39.939410
11
36.855646
21
40.094416
0
LINE
8
Image
10
36.855646
20
40.094416
11
38.218252
21
40.517156
0
LINE
8
Image
10
38.218252
20
40.517156
11
39.630355
21
41.155228
0
LINE
8
Image
10
39.630355
20
41.155228
11
41.010914
21
41.956230
0
LINE
8
Image
10
41.010914
20
41.956230
11
42.278886
21
42.867761
0
LINE
8
Image
10
42.278886
20
42.867761
11
43.353229
21
43.837419
0
LINE
8
Image
10
43.353229
20
43.837419
11
44.152901
21
44.812802
0
LINE
8
Image
10
44.152901
20
44.812802
11
44.596860
21
45.741510
0
LINE
8
Image
10
44.596860
20
45.741510
11
45.525392
21
48.283898
0
LINE
8
Image
10
45.525392
20
48.283898
11
46.019618
21
49.158574
0
LINE
8
Image
10
46.019618
20
49.158574
11
46.440460
21
49.574790
0
LINE
8
Image
10
46.440460
20
49.574790
11
47.208185
21
49.245421
0
LINE
8
Image
10
47.208185
20
49.245421
11
48.391407
21
48.275774
0
LINE
8
Image
10
48.391407
20
48.275774
11
49.477367
21
47.141312
0
LINE
8
Image
10
49.477367
20
47.141312
11
49.953300
21
46.317500
0
LINE
8
Image
10
49.953300
20
46.317500
11
49.002280
21
44.177790
0
LINE
8
Image
10
49.002280
20
44.177790
11
47.654274
21
41.287160
0
LINE
8
Image
10
47.654274
20
41.287160
11
46.851084
21
38.674508
0
LINE
8
Image
10
46.851084
20
38.674508
11
46.680733
21
37.597968
0
LINE
8
Image
10
46.680733
20
37.597968
11
46.678912
21
36.741577
0
LINE
8
Image
10
46.678912
20
36.741577
11
46.856396
21
36.155551
0
LINE
8
Image
10
46.856396
20
36.155551
11
47.223960
21
35.890110
0
LINE
8
Image
10
47.223960
20
35.890110
11
48.173852
21
35.879228
0
LINE
8
Image
10
48.173852
20
35.879228
11
49.087960
21
36.194682
0
LINE
8
Image
10
49.087960
20
36.194682
11
49.948067
21
36.811477
0
LINE
8
Image
10
49.948067
20
36.811477
11
50.735954
21
37.704619
0
LINE
8
Image
10
50.735954
20
37.704619
11
51.433401
21
38.849117
0
LINE
8
Image
10
51.433401
20
38.849117
11
52.022190
21
40.219975
0
LINE
8
Image
10
52.022190
20
40.219975
11
52.484103
21
41.792201
0
LINE
8
Image
10
52.484103
20
41.792201
11
52.800920
21
43.540800
0
LINE
8
Image
10
52.800920
20
43.540800
11
53.143284
21
45.648251
0
LINE
8
Image
10
53.143284
20
45.648251
11
53.338135
21
46.252148
0
LINE
8
Image
10
53.338135
20
46.252148
11
53.579501
21
46.577827
0
LINE
8
Image
10
53.579501
20
46.577827
11
53.890433
21
46.641543
0
LINE
8
Image
10
53.890433
20
46.641543
11
54.293982
21
46.459545
0
LINE
8
Image
10
54.293982
20
46.459545
11
55.471140
21
45.423420
0
LINE
8
Image
10
55.471140
20
45.423420
11
56.522085
21
44.244295
0
LINE
8
Image
10
56.522085
20
44.244295
11
56.976763
21
43.135326
0
LINE
8
Image
10
56.976763
20
43.135326
11
56.895519
21
41.682574
0
LINE
8
Image
10
56.895519
20
41.682574
11
56.338696
21
39.472100
0
LINE
8
Image
10
56.338696
20
39.472100
11
55.519214
21
36.066236
0
LINE
8
Image
10
55.519214
20
36.066236
11
55.481921
21
35.258979
0
LINE
8
Image
10
55.481921
20
35.258979
11
55.686046
21
35.001730
0
LINE
8
Image
10
55.686046
20
35.001730
11
56.279679
21
35.118667
0
LINE
8
Image
10
56.279679
20
35.118667
11
56.989636
21
35.426195
0
LINE
8
Image
10
56.989636
20
35.426195
11
58.574375
21
36.468759
0
LINE
8
Image
10
58.574375
20
36.468759
11
60.071970
21
37.840899
0
LINE
8
Image
10
60.071970
20
37.840899
11
61.114126
21
39.254090
0
LINE
8
Image
10
61.114126
20
39.254090
11
61.691068
21
40.670487
0
LINE
8
Image
10
61.691068
20
40.670487
11
62.298718
21
42.616309
0
LINE
8
Image
10
62.298718
20
42.616309
11
63.117856
21
46.363720
0
LINE
8
Image
10
63.117856
20
46.363720
11
63.325923
21
47.565085
0
LINE
8
Image
10
63.325923
20
47.565085
11
63.570413
21
48.162390
0
LINE
8
Image
10
63.570413
20
48.162390
11
64.411852
21
47.633796
0
LINE
8
Image
10
64.411852
20
47.633796
11
66.055133
21
46.128220
0
LINE
8
Image
10
66.055133
20
46.128220
11
67.799767
21
44.223065
0
LINE
8
Image
10
67.799767
20
44.223065
11
68.200338
21
43.585745
0
LINE
8
Image
10
68.200338
20
43.585745
11
68.354143
21
43.068450
0
LINE
8
Image
10
68.354143
20
43.068450
11
68.601370
21
42.327127
0
LINE
8
Image
10
68.601370
20
42.327127
11
69.353088
21
41.949450
0
LINE
8
Image
10
69.353088
20
41.949450
11
69.913324
21
41.852768
0
LINE
8
Image
10
69.913324
20
41.852768
11
70.503036
21
41.966786
0
LINE
8
Image
10
70.503036
20
41.966786
11
72.633528
21
43.139990
0
LINE
8
Image
10
72.633528
20
43.139990
11
74.840666
21
44.336174
0
LINE
8
Image
10
74.840666
20
44.336174
11
75.617352
21
44.540850
0
LINE
8
Image
10
75.617352
20
44.540850
11
76.460500
21
44.591100
0
LINE
8
Image
10
76.460500
20
44.591100
11
77.680952
21
44.496302
0
LINE
8
Image
10
77.680952
20
44.496302
11
78.700175
21
44.142381
0
LINE
8
Image
10
78.700175
20
44.142381
11
79.716323
21
43.425041
0
LINE
8
Image
10
79.716323
20
43.425041
11
80.927550
21
42.239990
0
LINE
8
Image
10
80.927550
20
42.239990
11
82.401940
21
40.681040
0
LINE
8
Image
10
82.401940
20
40.681040
11
83.735970
21
41.390351
0
LINE
8
Image
10
83.735970
20
41.390351
11
86.247216
21
43.021946
0
LINE
8
Image
10
86.247216
20
43.021946
11
89.241650
21
45.647891
0
LINE
8
Image
10
89.241650
20
45.647891
11
90.476201
21
46.753728
0
LINE
8
Image
10
90.476201
20
46.753728
11
91.291272
21
47.190648
0
LINE
8
Image
10
91.291272
20
47.190648
11
91.625527
21
47.172488
0
LINE
8
Image
10
91.625527
20
47.172488
11
91.955741
21
47.004165
0
LINE
8
Image
10
91.955741
20
47.004165
11
92.738480
21
46.239790
0
LINE
8
Image
10
92.738480
20
46.239790
11
93.459777
21
45.271775
0
LINE
8
Image
10
93.459777
20
45.271775
11
93.550417
21
44.854109
0
LINE
8
Image
10
93.550417
20
44.854109
11
93.428805
21
44.417511
0
LINE
8
Image
10
93.428805
20
44.417511
11
92.452083
21
43.298035
0
LINE
8
Image
10
92.452083
20
43.298035
11
90.336130
21
41.534380
0
LINE
8
Image
10
90.336130
20
41.534380
11
88.041777
21
39.785720
0
LINE
8
Image
10
88.041777
20
39.785720
11
85.905495
21
38.354265
0
LINE
8
Image
10
85.905495
20
38.354265
11
83.956727
21
37.258232
0
LINE
8
Image
10
83.956727
20
37.258232
11
82.224920
21
36.515840
0
LINE
8
Image
10
82.224920
20
36.515840
11
80.960034
21
35.913460
0
LINE
8
Image
10
80.960034
20
35.913460
11
80.663556
21
35.515456
0
LINE
8
Image
10
80.663556
20
35.515456
11
80.444450
21
34.921640
0
LINE
8
Image
10
80.444450
20
34.921640
11
80.107296
21
34.121904
0
LINE
8
Image
10
80.107296
20
34.121904
11
79.596748
21
33.332947
0
LINE
8
Image
10
79.596748
20
33.332947
11
78.201869
21
31.905542
0
LINE
8
Image
10
78.201869
20
31.905542
11
76.552618
21
30.875777
0
LINE
8
Image
10
76.552618
20
30.875777
11
75.724105
21
30.583868
0
LINE
8
Image
10
75.724105
20
30.583868
11
74.941800
21
30.480000
0
LINE
8
Image
10
74.941800
20
30.480000
11
73.966343
21
30.799747
0
LINE
8
Image
10
73.966343
20
30.799747
11
72.624790
21
31.778000
0
LINE
8
Image
10
72.624790
20
31.778000
11
71.355145
21
32.978031
0
LINE
8
Image
10
71.355145
20
32.978031
11
70.629735
21
34.052492
0
LINE
8
Image
10
70.629735
20
34.052492
11
70.330198
21
35.265551
0
LINE
8
Image
10
70.330198
20
35.265551
11
70.338170
21
36.881370
0
LINE
8
Image
10
70.338170
20
36.881370
11
70.364358
21
38.339981
0
LINE
8
Image
10
70.364358
20
38.339981
11
70.241201
21
38.946660
0
LINE
8
Image
10
70.241201
20
38.946660
11
68.209221
21
40.632780
0
LINE
8
Image
10
68.209221
20
40.632780
11
66.406751
21
42.318900
0
LINE
8
Image
10
66.406751
20
42.318900
11
65.780128
21
39.997780
0
LINE
8
Image
10
65.780128
20
39.997780
11
65.139707
21
37.885757
0
LINE
8
Image
10
65.139707
20
37.885757
11
64.458655
21
36.320496
0
LINE
8
Image
10
64.458655
20
36.320496
11
63.594540
21
35.039645
0
LINE
8
Image
10
63.594540
20
35.039645
11
62.404928
21
33.780850
0
LINE
8
Image
10
62.404928
20
33.780850
11
60.763266
21
32.443495
0
LINE
8
Image
10
60.763266
20
32.443495
11
59.125758
21
31.737940
0
LINE
8
Image
10
59.125758
20
31.737940
11
57.734444
21
31.463886
0
LINE
8
Image
10
57.734444
20
31.463886
11
56.557632
21
31.544961
0
LINE
8
Image
10
56.557632
20
31.544961
11
55.505341
21
32.002922
0
LINE
8
Image
10
55.505341
20
32.002922
11
54.487588
21
32.859530
0
LINE
8
Image
10
54.487588
20
32.859530
11
53.534601
21
33.842763
0
LINE
8
Image
10
53.534601
20
33.842763
11
52.744193
21
33.279942
0
LINE
8
Image
10
52.744193
20
33.279942
11
51.866630
21
32.736440
0
LINE
8
Image
10
51.866630
20
32.736440
11
51.024098
21
32.393492
0
LINE
8
Image
10
51.024098
20
32.393492
11
50.195684
21
32.255485
0
LINE
8
Image
10
50.195684
20
32.255485
11
49.360472
21
32.326811
0
LINE
8
Image
10
49.360472
20
32.326811
11
48.497547
21
32.611858
0
LINE
8
Image
10
48.497547
20
32.611858
11
47.585994
21
33.115016
0
LINE
8
Image
10
47.585994
20
33.115016
11
45.533343
21
34.793222
0
LINE
8
Image
10
45.533343
20
34.793222
11
43.983786
21
36.443397
0
LINE
8
Image
10
43.983786
20
36.443397
11
43.144073
21
37.669582
0
LINE
8
Image
10
43.144073
20
37.669582
11
42.809860
21
38.593836
0
LINE
8
Image
10
42.809860
20
38.593836
11
41.583510
21
38.051363
0
LINE
8
Image
10
41.583510
20
38.051363
11
40.335694
21
37.619338
0
LINE
8
Image
10
40.335694
20
37.619338
11
39.010657
21
37.373842
0
LINE
8
Image
10
39.010657
20
37.373842
11
37.695461
21
37.324596
0
LINE
8
Image
10
37.695461
20
37.324596
11
36.477170
21
37.481317
0
LINE
8
Image
10
36.477170
20
37.481317
11
35.658655
21
37.632756
0
LINE
8
Image
10
35.658655
20
37.632756
11
35.439937
21
37.586653
0
LINE
8
Image
10
35.439937
20
37.586653
11
35.341067
21
37.416552
0
LINE
8
Image
10
35.341067
20
37.416552
11
35.481335
21
36.576013
0
LINE
8
Image
10
35.481335
20
36.576013
11
36.036384
21
34.854447
0
LINE
8
Image
10
36.036384
20
34.854447
11
36.655134
21
32.393551
0
LINE
8
Image
10
36.655134
20
32.393551
11
36.801776
21
29.210007
0
LINE
8
Image
10
36.801776
20
29.210007
11
36.597493
21
25.787233
0
LINE
8
Image
10
36.597493
20
25.787233
11
35.928683
21
22.551438
0
LINE
8
Image
10
35.928683
20
22.551438
11
34.755412
21
19.363353
0
LINE
8
Image
10
34.755412
20
19.363353
11
33.037746
21
16.083707
0
LINE
8
Image
10
33.037746
20
16.083707
11
31.673866
21
14.100998
0
LINE
8
Image
10
31.673866
20
14.100998
11
30.114531
21
12.284088
0
LINE
8
Image
10
30.114531
20
12.284088
11
28.669016
21
10.956611
0
LINE
8
Image
10
28.669016
20
10.956611
11
28.085591
21
10.577545
0
LINE
8
Image
10
28.085591
20
10.577545
11
27.646600
21
10.442200
0
LINE
8
Image
10
27.646600
20
10.442200
11
27.183956
21
10.578503
0
LINE
8
Image
10
27.183956
20
10.578503
11
26.529763
21
11.016049
0
LINE
8
Image
10
26.529763
20
11.016049
11
24.427630
21
12.966700
0
LINE
8
Image
10
24.427630
20
12.966700
11
24.427600
21
12.966700
0
LINE
8
Image
10
31.344370
20
28.150500
11
31.700784
21
30.116342
0
LINE
8
Image
10
31.700784
20
30.116342
11
31.880285
21
32.162779
0
LINE
8
Image
10
31.880285
20
32.162779
11
31.853501
21
33.616623
0
LINE
8
Image
10
31.853501
20
33.616623
11
31.753573
21
33.910953
0
LINE
8
Image
10
31.753573
20
33.910953
11
31.591060
21
33.804690
0
LINE
8
Image
10
31.591060
20
33.804690
11
30.335970
21
29.007483
0
LINE
8
Image
10
30.335970
20
29.007483
11
29.366290
21
23.988830
0
LINE
8
Image
10
29.366290
20
23.988830
11
29.429797
21
23.738455
0
LINE
8
Image
10
29.429797
20
23.738455
11
29.591721
21
23.804849
0
LINE
8
Image
10
29.591721
20
23.804849
11
30.118988
21
24.694739
0
LINE
8
Image
10
30.118988
20
24.694739
11
30.764425
21
26.272092
0
LINE
8
Image
10
30.764425
20
26.272092
11
31.344370
21
28.150500
0
LINE
8
Image
10
31.344370
20
28.150500
11
31.344370
21
28.150500
0
LINE
8
Image
10
75.423800
20
34.769600
11
76.198127
21
35.508683
0
LINE
8
Image
10
76.198127
20
35.508683
11
75.493940
21
36.114165
0
LINE
8
Image
10
75.493940
20
36.114165
11
74.185877
21
36.906553
0
LINE
8
Image
10
74.185877
20
36.906553
11
73.956750
21
36.702776
0
LINE
8
Image
10
73.956750
20
36.702776
11
73.690362
21
36.071663
0
LINE
8
Image
10
73.690362
20
36.071663
11
73.377686
21
34.511113
0
LINE
8
Image
10
73.377686
20
34.511113
11
73.493508
21
33.989092
0
LINE
8
Image
10
73.493508
20
33.989092
11
74.012685
21
34.025810
0
LINE
8
Image
10
74.012685
20
34.025810
11
75.423795
21
34.769600
0
LINE
8
Image
10
75.423795
20
34.769600
11
75.423800
21
34.769600
0
LINE
8
Image
10
77.446830
20
39.117990
11
77.720045
21
39.379679
0
LINE
8
Image
10
77.720045
20
39.379679
11
77.882766
21
39.798311
0
LINE
8
Image
10
77.882766
20
39.798311
11
77.894536
21
40.186736
0
LINE
8
Image
10
77.894536
20
40.186736
11
77.714900
21
40.357800
0
LINE
8
Image
10
77.714900
20
40.357800
11
76.585200
21
39.767250
0
LINE
8
Image
10
76.585200
20
39.767250
11
75.635500
21
39.064800
0
LINE
8
Image
10
75.635500
20
39.064800
11
76.351355
21
38.951299
0
LINE
8
Image
10
76.351355
20
38.951299
11
77.446860
21
39.118013
0
LINE
8
Image
10
77.446860
20
39.118013
11
77.446830
21
39.117990
0
LINE
8
Image
10
33.408800
20
58.402900
11
33.663126
21
59.444674
0
LINE
8
Image
10
33.663126
20
59.444674
11
33.602445
21
60.045084
0
LINE
8
Image
10
33.602445
20
60.045084
11
33.159332
21
60.321476
0
LINE
8
Image
10
33.159332
20
60.321476
11
32.266360
21
60.391200
0
LINE
8
Image
10
32.266360
20
60.391200
11
26.691495
21
60.720438
0
LINE
8
Image
10
26.691495
20
60.720438
11
21.237200
21
61.214000
0
LINE
8
Image
10
21.237200
20
61.214000
11
19.755500
21
61.309600
0
LINE
8
Image
10
19.755500
20
61.309600
11
21.196530
21
59.603510
0
LINE
8
Image
10
21.196530
20
59.603510
11
24.249558
21
55.814060
0
LINE
8
Image
10
24.249558
20
55.814060
11
27.947180
21
50.300060
0
LINE
8
Image
10
27.947180
20
50.300060
11
30.324250
21
46.554570
0
LINE
8
Image
10
30.324250
20
46.554570
11
31.636870
21
51.711170
0
LINE
8
Image
10
31.636870
20
51.711170
11
33.408720
21
58.402920
0
LINE
8
Image
10
33.408720
20
58.402920
11
33.408800
21
58.402900
 0 
ENDSEC
 0 
EOF