999
"DXF R12 Output" (www.mydxf.blogspot.com)
 0 
SECTION
 2 
HEADER
 9 
$ACADVER
 1 
AC1009
 9 
$EXTMIN
 10 
 0 
 20 
 0 
 9 
$EXTMAX
 10 
 8.5 
 20 
 11 
 0 
ENDSEC
 0 
SECTION
 2 
ENTITIES
0
LINE
8
layer2
10
45.279500
20
68.800500
11
44.706237
21
68.558517
0
LINE
8
layer2
10
44.706237
20
68.558517
11
44.189645
21
67.912737
0
LINE
8
layer2
10
44.189645
20
67.912737
11
43.597695
21
66.856348
0
LINE
8
layer2
10
43.597695
20
66.856348
11
42.627607
21
64.392987
0
LINE
8
layer2
10
42.627607
20
64.392987
11
42.300737
21
63.178107
0
LINE
8
layer2
10
42.300737
20
63.178107
11
37.307827
21
63.362213
0
LINE
8
layer2
10
37.307827
20
63.362213
11
18.945727
21
64.423853
0
LINE
8
layer2
10
18.945727
20
64.423853
11
18.377924
21
64.329182
0
LINE
8
layer2
10
18.377924
20
64.329182
11
17.961257
21
63.996661
0
LINE
8
layer2
10
17.961257
20
63.996661
11
17.886194
21
63.656044
0
LINE
8
layer2
10
17.886194
20
63.656044
11
18.134393
21
63.160884
0
LINE
8
layer2
10
18.134393
20
63.160884
11
20.025557
21
61.113261
0
LINE
8
layer2
10
20.025557
20
61.113261
11
22.208297
21
59.103075
0
LINE
8
layer2
10
22.208297
20
59.103075
11
22.916076
21
58.712763
0
LINE
8
layer2
10
22.916076
20
58.712763
11
23.645387
21
58.534681
0
LINE
8
layer2
10
23.645387
20
58.534681
11
24.741491
21
58.162062
0
LINE
8
layer2
10
24.741491
20
58.162062
11
25.947048
21
57.239964
0
LINE
8
layer2
10
25.947048
20
57.239964
11
27.480823
21
55.560730
0
LINE
8
layer2
10
27.480823
20
55.560730
11
29.561577
21
52.916701
0
LINE
8
layer2
10
29.561577
20
52.916701
11
31.217839
21
50.529339
0
LINE
8
layer2
10
31.217839
20
50.529339
11
32.618233
21
48.067058
0
LINE
8
layer2
10
32.618233
20
48.067058
11
33.761659
21
45.533709
0
LINE
8
layer2
10
33.761659
20
45.533709
11
34.647018
21
42.933146
0
LINE
8
layer2
10
34.647018
20
42.933146
11
35.273212
21
40.269221
0
LINE
8
layer2
10
35.273212
20
40.269221
11
35.639141
21
37.545787
0
LINE
8
layer2
10
35.639141
20
37.545787
11
35.743705
21
34.766696
0
LINE
8
layer2
10
35.743705
20
34.766696
11
35.585807
21
31.935801
0
LINE
8
layer2
10
35.585807
20
31.935801
11
34.958893
21
27.513247
0
LINE
8
layer2
10
34.958893
20
27.513247
11
33.956160
21
23.129861
0
LINE
8
layer2
10
33.956160
20
23.129861
11
32.523470
21
18.587445
0
LINE
8
layer2
10
32.523470
20
18.587445
11
30.606687
21
13.687801
0
LINE
8
layer2
10
30.606687
20
13.687801
11
29.285771
21
10.349253
0
LINE
8
layer2
10
29.285771
20
10.349253
11
28.625617
21
8.267151
0
LINE
8
layer2
10
28.625617
20
8.267151
11
28.435998
21
7.079831
0
LINE
8
layer2
10
28.435998
20
7.079831
11
30.657398
21
4.962611
0
LINE
8
layer2
10
30.657398
20
4.962611
11
32.319642
21
3.463906
0
LINE
8
layer2
10
32.319642
20
3.463906
11
33.196838
21
2.833821
0
LINE
8
layer2
10
33.196838
20
2.833821
11
33.588501
21
2.968556
0
LINE
8
layer2
10
33.588501
20
2.968556
11
33.934782
21
3.478191
0
LINE
8
layer2
10
33.934782
20
3.478191
11
34.697798
21
6.067801
0
LINE
8
layer2
10
34.697798
20
6.067801
11
36.119938
21
11.288911
0
LINE
8
layer2
10
36.119938
20
11.288911
11
38.112602
21
18.725606
0
LINE
8
layer2
10
38.112602
20
18.725606
11
40.503198
21
28.590411
0
LINE
8
layer2
10
40.503198
20
28.590411
11
41.266631
21
31.921951
0
LINE
8
layer2
10
41.266631
20
31.921951
11
42.059280
21
31.748317
0
LINE
8
layer2
10
42.059280
20
31.748317
11
44.037044
21
31.566716
0
LINE
8
layer2
10
44.037044
20
31.566716
11
46.451360
21
31.733980
0
LINE
8
layer2
10
46.451360
20
31.733980
11
47.249260
21
31.818508
0
LINE
8
layer2
10
47.249260
20
31.818508
11
47.780789
21
31.752792
0
LINE
8
layer2
10
47.780789
20
31.752792
11
48.240848
21
31.468070
0
LINE
8
layer2
10
48.240848
20
31.468070
11
48.824340
21
30.895583
0
LINE
8
layer2
10
48.824340
20
30.895583
11
49.801096
21
30.001502
0
LINE
8
layer2
10
49.801096
20
30.001502
11
50.752302
21
29.412129
0
LINE
8
layer2
10
50.752302
20
29.412129
11
51.763273
21
29.087681
0
LINE
8
layer2
10
51.763273
20
29.087681
11
52.919320
21
28.988373
0
LINE
8
layer2
10
52.919320
20
28.988373
11
54.213927
21
29.127690
0
LINE
8
layer2
10
54.213927
20
29.127690
11
55.519919
21
29.531406
0
LINE
8
layer2
10
55.519919
20
29.531406
11
56.784861
21
30.178165
0
LINE
8
layer2
10
56.784861
20
30.178165
11
57.956320
21
31.046613
0
LINE
8
layer2
10
57.956320
20
31.046613
11
59.016310
21
31.977615
0
LINE
8
layer2
10
59.016310
20
31.977615
11
60.237250
21
30.778725
0
LINE
8
layer2
10
60.237250
20
30.778725
11
61.161808
21
30.004826
0
LINE
8
layer2
10
61.161808
20
30.004826
11
61.638440
21
29.871977
0
LINE
8
layer2
10
61.638440
20
29.871977
11
63.091990
21
33.880967
0
LINE
8
layer2
10
63.091990
20
33.880967
11
65.189515
21
39.357885
0
LINE
8
layer2
10
65.189515
20
39.357885
11
66.062938
21
41.293688
0
LINE
8
layer2
10
66.062938
20
41.293688
11
66.508420
21
41.959017
0
LINE
8
layer2
10
66.508420
20
41.959017
11
66.306123
21
39.664307
0
LINE
8
layer2
10
66.306123
20
39.664307
11
66.114529
21
37.627369
0
LINE
8
layer2
10
66.114529
20
37.627369
11
66.256925
21
36.135420
0
LINE
8
layer2
10
66.256925
20
36.135420
11
66.805776
21
34.903237
0
LINE
8
layer2
10
66.805776
20
34.903237
11
67.833543
21
33.645597
0
LINE
8
layer2
10
67.833543
20
33.645597
11
69.421911
21
32.169695
0
LINE
8
layer2
10
69.421911
20
32.169695
11
70.777009
21
31.440113
0
LINE
8
layer2
10
70.777009
20
31.440113
11
71.423489
21
31.338934
0
LINE
8
layer2
10
71.423489
20
31.338934
11
72.079339
21
31.404824
0
LINE
8
layer2
10
72.079339
20
31.404824
11
73.509403
21
32.011797
0
LINE
8
layer2
10
73.509403
20
32.011797
11
74.270920
21
32.599166
0
LINE
8
layer2
10
74.270920
20
32.599166
11
75.089114
21
33.467746
0
LINE
8
layer2
10
75.089114
20
33.467746
11
76.700475
21
35.729175
0
LINE
8
layer2
10
76.700475
20
35.729175
11
77.953375
21
38.157366
0
LINE
8
layer2
10
77.953375
20
38.157366
11
78.323491
21
39.234397
0
LINE
8
layer2
10
78.323491
20
39.234397
11
78.457700
21
40.113600
0
LINE
8
layer2
10
78.457700
20
40.113600
11
78.238946
21
40.851320
0
LINE
8
layer2
10
78.238946
20
40.851320
11
77.717581
21
41.680505
0
LINE
8
layer2
10
77.717581
20
41.680505
11
77.095951
21
42.337947
0
LINE
8
layer2
10
77.095951
20
42.337947
11
76.576400
21
42.560440
0
LINE
8
layer2
10
76.576400
20
42.560440
11
76.036593
21
41.912838
0
LINE
8
layer2
10
76.036593
20
41.912838
11
75.325690
21
40.476850
0
LINE
8
layer2
10
75.325690
20
40.476850
11
74.129983
21
38.285245
0
LINE
8
layer2
10
74.129983
20
38.285245
11
72.582524
21
36.345569
0
LINE
8
layer2
10
72.582524
20
36.345569
11
70.970600
21
34.960096
0
LINE
8
layer2
10
70.970600
20
34.960096
11
70.230241
21
34.569646
0
LINE
8
layer2
10
70.230241
20
34.569646
11
69.581500
21
34.431100
0
LINE
8
layer2
10
69.581500
20
34.431100
11
69.379521
21
34.537024
0
LINE
8
layer2
10
69.379521
20
34.537024
11
69.240862
21
34.843277
0
LINE
8
layer2
10
69.240862
20
34.843277
11
69.151807
21
35.987656
0
LINE
8
layer2
10
69.151807
20
35.987656
11
69.310947
21
37.726007
0
LINE
8
layer2
10
69.310947
20
37.726007
11
69.714892
21
39.920100
0
LINE
8
layer2
10
69.714892
20
39.920100
11
70.191906
21
42.356771
0
LINE
8
layer2
10
70.191906
20
42.356771
11
70.242117
21
43.916907
0
LINE
8
layer2
10
70.242117
20
43.916907
11
69.800238
21
45.049878
0
LINE
8
layer2
10
69.800238
20
45.049878
11
68.800978
21
46.205050
0
LINE
8
layer2
10
68.800978
20
46.205050
11
67.666635
21
47.257719
0
LINE
8
layer2
10
67.666635
20
47.257719
11
67.006200
21
47.695500
0
LINE
8
layer2
10
67.006200
20
47.695500
11
65.655720
21
46.998214
0
LINE
8
layer2
10
65.655720
20
46.998214
11
64.900927
21
46.580178
0
LINE
8
layer2
10
64.900927
20
46.580178
11
64.698763
21
46.554638
0
LINE
8
layer2
10
64.698763
20
46.554638
11
64.628810
21
46.656460
0
LINE
8
layer2
10
64.628810
20
46.656460
11
64.209106
21
47.318335
0
LINE
8
layer2
10
64.209106
20
47.318335
11
63.200060
21
48.411530
0
LINE
8
layer2
10
63.200060
20
48.411530
11
61.941955
21
49.511537
0
LINE
8
layer2
10
61.941955
20
49.511537
11
61.646643
21
49.549034
0
LINE
8
layer2
10
61.646643
20
49.549034
11
61.411920
21
49.327649
0
LINE
8
layer2
10
61.411920
20
49.327649
11
61.027447
21
47.874658
0
LINE
8
layer2
10
61.027447
20
47.874658
11
60.608251
21
45.062349
0
LINE
8
layer2
10
60.608251
20
45.062349
11
60.233613
21
42.433403
0
LINE
8
layer2
10
60.233613
20
42.433403
11
59.717186
21
40.544128
0
LINE
8
layer2
10
59.717186
20
40.544128
11
58.850751
21
38.855866
0
LINE
8
layer2
10
58.850751
20
38.855866
11
57.426091
21
36.829959
0
LINE
8
layer2
10
57.426091
20
36.829959
11
56.140303
21
35.202433
0
LINE
8
layer2
10
56.140303
20
35.202433
11
55.017978
21
33.999289
0
LINE
8
layer2
10
55.017978
20
33.999289
11
53.992183
21
33.156730
0
LINE
8
layer2
10
53.992183
20
33.156730
11
52.995981
21
32.610959
0
LINE
8
layer2
10
52.995981
20
32.610959
11
51.431024
21
32.230787
0
LINE
8
layer2
10
51.431024
20
32.230787
11
49.974615
21
32.238006
0
LINE
8
layer2
10
49.974615
20
32.238006
11
49.456910
21
32.362557
0
LINE
8
layer2
10
49.456910
20
32.362557
11
49.170096
21
32.554760
0
LINE
8
layer2
10
49.170096
20
32.554760
11
49.182091
21
32.804883
0
LINE
8
layer2
10
49.182091
20
32.804883
11
49.560811
21
33.103194
0
LINE
8
layer2
10
49.560811
20
33.103194
11
50.806555
21
34.103583
0
LINE
8
layer2
10
50.806555
20
34.103583
11
52.657074
21
35.880525
0
LINE
8
layer2
10
52.657074
20
35.880525
11
54.478333
21
37.796356
0
LINE
8
layer2
10
54.478333
20
37.796356
11
55.636301
21
39.213414
0
LINE
8
layer2
10
55.636301
20
39.213414
11
56.273151
21
40.411352
0
LINE
8
layer2
10
56.273151
20
40.411352
11
56.412798
21
41.389590
0
LINE
8
layer2
10
56.412798
20
41.389590
11
56.033971
21
42.317265
0
LINE
8
layer2
10
56.033971
20
42.317265
11
55.115404
21
43.363514
0
LINE
8
layer2
10
55.115404
20
43.363514
11
53.852697
21
44.540322
0
LINE
8
layer2
10
53.852697
20
44.540322
11
52.983913
21
45.149758
0
LINE
8
layer2
10
52.983913
20
45.149758
11
52.251664
21
45.316414
0
LINE
8
layer2
10
52.251664
20
45.316414
11
51.398564
21
45.164884
0
LINE
8
layer2
10
51.398564
20
45.164884
11
50.215564
21
44.586521
0
LINE
8
layer2
10
50.215564
20
44.586521
11
48.937663
21
43.553697
0
LINE
8
layer2
10
48.937663
20
43.553697
11
47.764633
21
42.256284
0
LINE
8
layer2
10
47.764633
20
42.256284
11
46.896244
21
40.884154
0
LINE
8
layer2
10
46.896244
20
40.884154
11
46.406001
21
39.584250
0
LINE
8
layer2
10
46.406001
20
39.584250
11
46.038009
21
38.087486
0
LINE
8
layer2
10
46.038009
20
38.087486
11
45.848469
21
36.686261
0
LINE
8
layer2
10
45.848469
20
36.686261
11
45.893584
21
35.672974
0
LINE
8
layer2
10
45.893584
20
35.672974
11
45.843658
21
35.073501
0
LINE
8
layer2
10
45.843658
20
35.073501
11
45.177005
21
34.583224
0
LINE
8
layer2
10
45.177005
20
34.583224
11
44.096724
21
34.147674
0
LINE
8
layer2
10
44.096724
20
34.147674
11
42.986051
21
33.878341
0
LINE
8
layer2
10
42.986051
20
33.878341
11
42.118828
21
33.820493
0
LINE
8
layer2
10
42.118828
20
33.820493
11
41.768900
21
34.019400
0
LINE
8
layer2
10
41.768900
20
34.019400
11
42.492644
21
37.440240
0
LINE
8
layer2
10
42.492644
20
37.440240
11
44.179364
21
46.143370
0
LINE
8
layer2
10
44.179364
20
46.143370
11
46.066174
21
56.103270
0
LINE
8
layer2
10
46.066174
20
56.103270
11
46.925244
21
59.663425
0
LINE
8
layer2
10
46.925244
20
59.663425
11
47.229624
21
60.321958
0
LINE
8
layer2
10
47.229624
20
60.321958
11
47.554454
21
60.542750
0
LINE
8
layer2
10
47.554454
20
60.542750
11
59.395054
21
60.952303
0
LINE
8
layer2
10
59.395054
20
60.952303
11
68.591354
21
61.262440
0
LINE
8
layer2
10
68.591354
20
61.262440
11
70.420307
21
61.432272
0
LINE
8
layer2
10
70.420307
20
61.432272
11
71.086854
21
61.652897
0
LINE
8
layer2
10
71.086854
20
61.652897
11
71.330067
21
62.159654
0
LINE
8
layer2
10
71.330067
20
62.159654
11
71.174675
21
62.769181
0
LINE
8
layer2
10
71.174675
20
62.769181
11
70.634171
21
63.456392
0
LINE
8
layer2
10
70.634171
20
63.456392
11
69.722044
21
64.196207
0
LINE
8
layer2
10
69.722044
20
64.196207
11
68.537484
21
65.017517
0
LINE
8
layer2
10
68.537484
20
65.017517
11
65.666204
21
64.650408
0
LINE
8
layer2
10
65.666204
20
64.650408
11
60.818800
21
64.037400
0
LINE
8
layer2
10
60.818800
20
64.037400
11
53.198810
21
63.604145
0
LINE
8
layer2
10
53.198810
20
63.604145
11
47.554370
21
63.416181
0
LINE
8
layer2
10
47.554370
20
63.416181
11
47.537832
21
65.080851
0
LINE
8
layer2
10
47.537832
20
65.080851
11
47.392621
21
66.538531
0
LINE
8
layer2
10
47.392621
20
66.538531
11
47.038432
21
67.658881
0
LINE
8
layer2
10
47.038432
20
67.658881
11
46.678548
21
68.173732
0
LINE
8
layer2
10
46.678548
20
68.173732
11
46.239156
21
68.545760
0
LINE
8
layer2
10
46.239156
20
68.545760
11
45.759669
21
68.759741
0
LINE
8
layer2
10
45.759669
20
68.759741
11
45.279502
21
68.800451
0
LINE
8
layer2
10
45.279502
20
68.800451
11
45.279500
21
68.800500
0
LINE
8
layer2
10
41.820630
20
60.175640
11
41.628256
21
58.239770
0
LINE
8
layer2
10
41.628256
20
58.239770
11
40.710753
21
50.585462
0
LINE
8
layer2
10
40.710753
20
50.585462
11
39.631756
21
43.609470
0
LINE
8
layer2
10
39.631756
20
43.609470
11
38.824779
21
39.577340
0
LINE
8
layer2
10
38.824779
20
39.577340
11
38.259785
21
41.406270
0
LINE
8
layer2
10
38.259785
20
41.406270
11
37.748158
21
43.083623
0
LINE
8
layer2
10
37.748158
20
43.083623
11
37.034842
21
44.842869
0
LINE
8
layer2
10
37.034842
20
44.842869
11
35.040885
21
48.546255
0
LINE
8
layer2
10
35.040885
20
48.546255
11
32.353403
21
52.394848
0
LINE
8
layer2
10
32.353403
20
52.394848
11
29.047885
21
56.267070
0
LINE
8
layer2
10
29.047885
20
56.267070
11
27.133515
21
58.554610
0
LINE
8
layer2
10
27.133515
20
58.554610
11
39.748615
21
59.982810
0
LINE
8
layer2
10
39.748615
20
59.982810
11
41.820630
21
60.175640
0
LINE
8
layer2
10
52.005930
20
41.071040
11
52.584325
21
40.957201
0
LINE
8
layer2
10
52.584325
20
40.957201
11
52.817869
21
40.667000
0
LINE
8
layer2
10
52.817869
20
40.667000
11
52.672472
21
40.277989
0
LINE
8
layer2
10
52.672472
20
40.277989
11
52.281095
21
39.750982
0
LINE
8
layer2
10
52.281095
20
39.750982
11
51.087562
21
38.517059
0
LINE
8
layer2
10
51.087562
20
38.517059
11
49.347539
21
36.968130
0
LINE
8
layer2
10
49.347539
20
36.968130
11
49.363230
21
38.024557
0
LINE
8
layer2
10
49.363230
20
38.024557
11
49.536176
21
38.901836
0
LINE
8
layer2
10
49.536176
20
38.901836
11
49.832980
21
39.611889
0
LINE
8
layer2
10
49.832980
20
39.611889
11
50.220244
21
40.166639
0
LINE
8
layer2
10
50.220244
20
40.166639
11
51.132560
21
40.857915
0
LINE
8
layer2
10
51.132560
20
40.857915
11
52.005939
21
41.071040
0
LINE
8
layer2
10
52.005939
20
41.071040
11
52.005930
21
41.071040
 0 
ENDSEC
 0 
EOF