999
"DXF R12 Output" (www.mydxf.blogspot.com)
 0 
SECTION
 2 
HEADER
 9 
$ACADVER
 1 
AC1009
 9 
$EXTMIN
 10 
 0 
 20 
 0 
 9 
$EXTMAX
 10 
 8.5 
 20 
 11 
 0 
ENDSEC
 0 
SECTION
 2 
ENTITIES
0
LINE
8
Image
10
30.657500
20
4.962460
11
28.436140
21
7.079690
0
LINE
8
Image
10
28.436140
20
7.079690
11
28.625677
21
8.267080
0
LINE
8
Image
10
28.625677
20
8.267080
11
29.285760
21
10.349214
0
LINE
8
Image
10
29.285760
20
10.349214
11
30.606607
21
13.687800
0
LINE
8
Image
10
30.606607
20
13.687800
11
32.523444
21
18.587450
0
LINE
8
Image
10
32.523444
20
18.587450
11
33.956255
21
23.129922
0
LINE
8
Image
10
33.956255
20
23.129922
11
34.959108
21
27.513383
0
LINE
8
Image
10
34.959108
20
27.513383
11
35.586077
21
31.936000
0
LINE
8
Image
10
35.586077
20
31.936000
11
35.743975
21
34.766857
0
LINE
8
Image
10
35.743975
20
34.766857
11
35.639389
21
37.545909
0
LINE
8
Image
10
35.639389
20
37.545909
11
35.273423
21
40.269307
0
LINE
8
Image
10
35.273423
20
40.269307
11
34.647185
21
42.933200
0
LINE
8
Image
10
34.647185
20
42.933200
11
33.761777
21
45.533736
0
LINE
8
Image
10
33.761777
20
45.533736
11
32.618307
21
48.067066
0
LINE
8
Image
10
32.618307
20
48.067066
11
31.217880
21
50.529337
0
LINE
8
Image
10
31.217880
20
50.529337
11
29.561600
21
52.916700
0
LINE
8
Image
10
29.561600
20
52.916700
11
27.480833
21
55.560659
0
LINE
8
Image
10
27.480833
20
55.560659
11
25.947012
21
57.239800
0
LINE
8
Image
10
25.947012
20
57.239800
11
24.741411
21
58.161816
0
LINE
8
Image
10
24.741411
20
58.161816
11
23.645300
21
58.534400
0
LINE
8
Image
10
23.645300
20
58.534400
11
22.916053
21
58.712475
0
LINE
8
Image
10
22.916053
20
58.712475
11
22.208425
21
59.102800
0
LINE
8
Image
10
22.208425
20
59.102800
11
20.025900
21
61.113000
0
LINE
8
Image
10
20.025900
20
61.113000
11
18.134638
21
63.160825
0
LINE
8
Image
10
18.134638
20
63.160825
11
17.886361
21
63.656119
0
LINE
8
Image
10
17.886361
20
63.656119
11
17.961400
21
63.996800
0
LINE
8
Image
10
17.961400
20
63.996800
11
18.378070
21
64.329145
0
LINE
8
Image
10
18.378070
20
64.329145
11
18.945876
21
64.423640
0
LINE
8
Image
10
18.945876
20
64.423640
11
37.307676
21
63.362400
0
LINE
8
Image
10
37.307676
20
63.362400
11
42.300916
21
63.178184
0
LINE
8
Image
10
42.300916
20
63.178184
11
42.627946
21
64.392684
0
LINE
8
Image
10
42.627946
20
64.392684
11
43.598012
21
66.856264
0
LINE
8
Image
10
43.598012
20
66.856264
11
44.189948
21
67.912803
0
LINE
8
Image
10
44.189948
20
67.912803
11
44.706536
21
68.558654
0
LINE
8
Image
10
44.706536
20
68.558654
11
45.279626
21
68.800216
0
LINE
8
Image
10
45.279626
20
68.800216
11
45.921687
21
68.706683
0
LINE
8
Image
10
45.921687
20
68.706683
11
46.539219
21
68.314136
0
LINE
8
Image
10
46.539219
20
68.314136
11
47.038726
21
67.658657
0
LINE
8
Image
10
47.038726
20
67.658657
11
47.392728
21
66.538384
0
LINE
8
Image
10
47.392728
20
66.538384
11
47.537748
21
65.080787
0
LINE
8
Image
10
47.537748
20
65.080787
11
47.554427
21
63.416047
0
LINE
8
Image
10
47.554427
20
63.416047
11
53.198867
21
63.603896
0
LINE
8
Image
10
53.198867
20
63.603896
11
60.818857
21
64.037411
0
LINE
8
Image
10
60.818857
20
64.037411
11
65.666007
21
64.650132
0
LINE
8
Image
10
65.666007
20
64.650132
11
68.537607
21
65.017187
0
LINE
8
Image
10
68.537607
20
65.017187
11
69.722067
21
64.196354
0
LINE
8
Image
10
69.722067
20
64.196354
11
70.634199
21
63.456477
0
LINE
8
Image
10
70.634199
20
63.456477
11
71.174716
21
62.769129
0
LINE
8
Image
10
71.174716
20
62.769129
11
71.330121
21
62.159466
0
LINE
8
Image
10
71.330121
20
62.159466
11
71.086917
21
61.652644
0
LINE
8
Image
10
71.086917
20
61.652644
11
70.420393
21
61.432028
0
LINE
8
Image
10
70.420393
20
61.432028
11
68.591471
21
61.262218
0
LINE
8
Image
10
68.591471
20
61.262218
11
59.395217
21
60.952111
0
LINE
8
Image
10
59.395217
20
60.952111
11
47.554417
21
60.542777
0
LINE
8
Image
10
47.554417
20
60.542777
11
47.229590
21
60.321964
0
LINE
8
Image
10
47.229590
20
60.321964
11
46.925219
21
59.663392
0
LINE
8
Image
10
46.925219
20
59.663392
11
46.066157
21
56.103187
0
LINE
8
Image
10
46.066157
20
56.103187
11
44.179400
21
46.143300
0
LINE
8
Image
10
44.179400
20
46.143300
11
42.492660
21
37.439950
0
LINE
8
Image
10
42.492660
20
37.439950
11
41.768837
21
34.019170
0
LINE
8
Image
10
41.768837
20
34.019170
11
42.118792
21
33.820325
0
LINE
8
Image
10
42.118792
20
33.820325
11
42.986072
21
33.878303
0
LINE
8
Image
10
42.986072
20
33.878303
11
44.096802
21
34.147765
0
LINE
8
Image
10
44.096802
20
34.147765
11
45.177107
21
34.583374
0
LINE
8
Image
10
45.177107
20
34.583374
11
45.843606
21
35.073465
0
LINE
8
Image
10
45.843606
20
35.073465
11
45.893389
21
35.672754
0
LINE
8
Image
10
45.893389
20
35.672754
11
45.848343
21
36.686046
0
LINE
8
Image
10
45.848343
20
36.686046
11
46.038033
21
38.087274
0
LINE
8
Image
10
46.038033
20
38.087274
11
46.406176
21
39.584040
0
LINE
8
Image
10
46.406176
20
39.584040
11
46.896489
21
40.883944
0
LINE
8
Image
10
46.896489
20
40.883944
11
47.764800
21
42.256071
0
LINE
8
Image
10
47.764800
20
42.256071
11
48.937655
21
43.553477
0
LINE
8
Image
10
48.937655
20
43.553477
11
50.215379
21
44.586294
0
LINE
8
Image
10
50.215379
20
44.586294
11
51.398299
21
45.164654
0
LINE
8
Image
10
51.398299
20
45.164654
11
52.251446
21
45.316253
0
LINE
8
Image
10
52.251446
20
45.316253
11
52.983798
21
45.149748
0
LINE
8
Image
10
52.983798
20
45.149748
11
53.852685
21
44.540464
0
LINE
8
Image
10
53.852685
20
44.540464
11
55.115439
21
43.363724
0
LINE
8
Image
10
55.115439
20
43.363724
11
56.034031
21
42.317464
0
LINE
8
Image
10
56.034031
20
42.317464
11
56.412917
21
41.389765
0
LINE
8
Image
10
56.412917
20
41.389765
11
56.273332
21
40.411503
0
LINE
8
Image
10
56.273332
20
40.411503
11
55.636511
21
39.213554
0
LINE
8
Image
10
55.636511
20
39.213554
11
54.478521
21
37.796492
0
LINE
8
Image
10
54.478521
20
37.796492
11
52.657214
21
35.880641
0
LINE
8
Image
10
52.657214
20
35.880641
11
50.806648
21
34.103680
0
LINE
8
Image
10
50.806648
20
34.103680
11
49.560881
21
33.103284
0
LINE
8
Image
10
49.560881
20
33.103284
11
49.182169
21
32.804968
0
LINE
8
Image
10
49.182169
20
32.804968
11
49.170196
21
32.554833
0
LINE
8
Image
10
49.170196
20
32.554833
11
49.457040
21
32.362613
0
LINE
8
Image
10
49.457040
20
32.362613
11
49.974778
21
32.238042
0
LINE
8
Image
10
49.974778
20
32.238042
11
51.431250
21
32.230787
0
LINE
8
Image
10
51.431250
20
32.230787
11
52.996231
21
32.610942
0
LINE
8
Image
10
52.996231
20
32.610942
11
53.992402
21
33.156715
0
LINE
8
Image
10
53.992402
20
33.156715
11
55.018118
21
33.999282
0
LINE
8
Image
10
55.018118
20
33.999282
11
56.140364
21
35.202437
0
LINE
8
Image
10
56.140364
20
35.202437
11
57.426121
21
36.829972
0
LINE
8
Image
10
57.426121
20
36.829972
11
58.850799
21
38.855915
0
LINE
8
Image
10
58.850799
20
38.855915
11
59.717272
21
40.544256
0
LINE
8
Image
10
59.717272
20
40.544256
11
60.233737
21
42.433610
0
LINE
8
Image
10
60.233737
20
42.433610
11
60.608391
21
45.062592
0
LINE
8
Image
10
60.608391
20
45.062592
11
61.027459
21
47.874668
0
LINE
8
Image
10
61.027459
20
47.874668
11
61.411804
21
49.327422
0
LINE
8
Image
10
61.411804
20
49.327422
11
61.646557
21
49.548863
0
LINE
8
Image
10
61.646557
20
49.548863
11
61.941932
21
49.511494
0
LINE
8
Image
10
61.941932
20
49.511494
11
63.200124
21
48.411677
0
LINE
8
Image
10
63.200124
20
48.411677
11
64.209145
21
47.318326
0
LINE
8
Image
10
64.209145
20
47.318326
11
64.628824
21
46.656297
0
LINE
8
Image
10
64.628824
20
46.656297
11
64.698816
21
46.554540
0
LINE
8
Image
10
64.698816
20
46.554540
11
64.901066
21
46.580223
0
LINE
8
Image
10
64.901066
20
46.580223
11
65.655984
21
46.998466
0
LINE
8
Image
10
65.655984
20
46.998466
11
67.006200
21
47.695500
0
LINE
8
Image
10
67.006200
20
47.695500
11
67.666750
21
47.257654
0
LINE
8
Image
10
67.666750
20
47.257654
11
68.801260
21
46.204960
0
LINE
8
Image
10
68.801260
20
46.204960
11
69.800484
21
45.049802
0
LINE
8
Image
10
69.800484
20
45.049802
11
70.242285
21
43.916862
0
LINE
8
Image
10
70.242285
20
43.916862
11
70.191995
21
42.356757
0
LINE
8
Image
10
70.191995
20
42.356757
11
69.714948
21
39.920100
0
LINE
8
Image
10
69.714948
20
39.920100
11
69.311045
21
37.726028
0
LINE
8
Image
10
69.311045
20
37.726028
11
69.151956
21
35.987675
0
LINE
8
Image
10
69.151956
20
35.987675
11
69.241051
21
34.843284
0
LINE
8
Image
10
69.241051
20
34.843284
11
69.379720
21
34.537026
0
LINE
8
Image
10
69.379720
20
34.537026
11
69.581700
21
34.431100
0
LINE
8
Image
10
69.581700
20
34.431100
11
70.230437
21
34.569654
0
LINE
8
Image
10
70.230437
20
34.569654
11
70.970761
21
34.960124
0
LINE
8
Image
10
70.970761
20
34.960124
11
72.582564
21
36.345654
0
LINE
8
Image
10
72.582564
20
36.345654
11
74.129902
21
38.285380
0
LINE
8
Image
10
74.129902
20
38.285380
11
75.325570
21
40.476990
0
LINE
8
Image
10
75.325570
20
40.476990
11
76.036385
21
41.912996
0
LINE
8
Image
10
76.036385
20
41.912996
11
76.576110
21
42.560610
0
LINE
8
Image
10
76.576110
20
42.560610
11
77.095703
21
42.338128
0
LINE
8
Image
10
77.095703
20
42.338128
11
77.717427
21
41.680710
0
LINE
8
Image
10
77.717427
20
41.680710
11
78.238884
21
40.851549
0
LINE
8
Image
10
78.238884
20
40.851549
11
78.457680
21
40.113840
0
LINE
8
Image
10
78.457680
20
40.113840
11
78.323466
21
39.234617
0
LINE
8
Image
10
78.323466
20
39.234617
11
77.953337
21
38.157543
0
LINE
8
Image
10
77.953337
20
38.157543
11
76.700399
21
35.729235
0
LINE
8
Image
10
76.700399
20
35.729235
11
75.089004
21
33.467697
0
LINE
8
Image
10
75.089004
20
33.467697
11
74.270803
21
32.599086
0
LINE
8
Image
10
74.270803
20
32.599086
11
73.509290
21
32.011710
0
LINE
8
Image
10
73.509290
20
32.011710
11
72.079258
21
31.404778
0
LINE
8
Image
10
72.079258
20
31.404778
11
71.423439
21
31.338931
0
LINE
8
Image
10
71.423439
20
31.338931
11
70.776996
21
31.440159
0
LINE
8
Image
10
70.776996
20
31.440159
11
69.421967
21
32.169834
0
LINE
8
Image
10
69.421967
20
32.169834
11
67.833630
21
33.645780
0
LINE
8
Image
10
67.833630
20
33.645780
11
66.805821
21
34.903376
0
LINE
8
Image
10
66.805821
20
34.903376
11
66.256880
21
36.135462
0
LINE
8
Image
10
66.256880
20
36.135462
11
66.114394
21
37.627315
0
LINE
8
Image
10
66.114394
20
37.627315
11
66.305950
21
39.664210
0
LINE
8
Image
10
66.305950
20
39.664210
11
66.508210
21
41.959090
0
LINE
8
Image
10
66.508210
20
41.959090
11
66.062766
21
41.293749
0
LINE
8
Image
10
66.062766
20
41.293749
11
65.189426
21
39.357926
0
LINE
8
Image
10
65.189426
20
39.357926
11
63.092020
21
33.880980
0
LINE
8
Image
10
63.092020
20
33.880980
11
61.638530
21
29.871930
0
LINE
8
Image
10
61.638530
20
29.871930
11
61.161865
21
30.004926
0
LINE
8
Image
10
61.161865
20
30.004926
11
60.237270
21
30.778975
0
LINE
8
Image
10
60.237270
20
30.778975
11
59.016120
21
31.977445
0
LINE
8
Image
10
59.016120
20
31.977445
11
57.956250
21
31.046866
0
LINE
8
Image
10
57.956250
20
31.046866
11
56.784791
21
30.178358
0
LINE
8
Image
10
56.784791
20
30.178358
11
55.519849
21
29.531465
0
LINE
8
Image
10
55.519849
20
29.531465
11
54.213857
21
29.127615
0
LINE
8
Image
10
54.213857
20
29.127615
11
52.919250
21
28.988236
0
LINE
8
Image
10
52.919250
20
28.988236
11
51.763219
21
29.087575
0
LINE
8
Image
10
51.763219
20
29.087575
11
50.752282
21
29.412091
0
LINE
8
Image
10
50.752282
20
29.412091
11
49.801110
21
30.001532
0
LINE
8
Image
10
49.801110
20
30.001532
11
48.824370
21
30.895646
0
LINE
8
Image
10
48.824370
20
30.895646
11
48.240847
21
31.468086
0
LINE
8
Image
10
48.240847
20
31.468086
11
47.780723
21
31.752703
0
LINE
8
Image
10
47.780723
20
31.752703
11
47.249129
21
31.818315
0
LINE
8
Image
10
47.249129
20
31.818315
11
46.451200
21
31.733741
0
LINE
8
Image
10
46.451200
20
31.733741
11
44.036954
21
31.566517
0
LINE
8
Image
10
44.036954
20
31.566517
11
42.059260
21
31.748162
0
LINE
8
Image
10
42.059260
20
31.748162
11
41.266806
21
31.922214
0
LINE
8
Image
10
41.266806
20
31.922214
11
40.503435
21
28.590534
0
LINE
8
Image
10
40.503435
20
28.590534
11
38.112717
21
18.725679
0
LINE
8
Image
10
38.112717
20
18.725679
11
36.119900
21
11.288900
0
LINE
8
Image
10
36.119900
20
11.288900
11
34.697790
21
6.067790
0
LINE
8
Image
10
34.697790
20
6.067790
11
33.934885
21
3.478137
0
LINE
8
Image
10
33.934885
20
3.478137
11
33.588679
21
2.968474
0
LINE
8
Image
10
33.588679
20
2.968474
11
33.197050
21
2.833730
0
LINE
8
Image
10
33.197050
20
2.833730
11
32.319778
21
3.463782
0
LINE
8
Image
10
32.319778
20
3.463782
11
30.657460
21
4.962450
0
LINE
8
Image
10
30.657460
20
4.962450
11
30.657500
21
4.962460
0
LINE
8
Image
10
39.631960
20
43.609160
11
40.710765
21
50.585184
0
LINE
8
Image
10
40.710765
20
50.585184
11
41.628080
21
58.239560
0
LINE
8
Image
10
41.628080
20
58.239560
11
41.820476
21
60.175790
0
LINE
8
Image
10
41.820476
20
60.175790
11
39.748556
21
59.982721
0
LINE
8
Image
10
39.748556
20
59.982721
11
27.133656
21
58.554431
0
LINE
8
Image
10
27.133656
20
58.554431
11
29.048006
21
56.267201
0
LINE
8
Image
10
29.048006
20
56.267201
11
32.353473
21
52.394931
0
LINE
8
Image
10
32.353473
20
52.394931
11
35.040836
21
48.546177
0
LINE
8
Image
10
35.040836
20
48.546177
11
37.034674
21
44.842611
0
LINE
8
Image
10
37.034674
20
44.842611
11
37.747952
21
43.083294
0
LINE
8
Image
10
37.747952
20
43.083294
11
38.259566
21
41.405901
0
LINE
8
Image
10
38.259566
20
41.405901
11
38.824718
21
39.577321
0
LINE
8
Image
10
38.824718
20
39.577321
11
39.631941
21
43.609151
0
LINE
8
Image
10
39.631941
20
43.609151
11
39.631960
21
43.609160
 0 
ENDSEC
 0 
EOF