999
"DXF R12 Output" (www.mydxf.blogspot.com)
 0 
SECTION
 2 
HEADER
 9 
$ACADVER
 1 
AC1009
 9 
$EXTMIN
 10 
 0 
 20 
 0 
 9 
$EXTMAX
 10 
 8.5 
 20 
 11 
 0 
ENDSEC
 0 
SECTION
 2 
ENTITIES
0
LINE
8
Layer 1
10
36.901600
20
70.555500
11
36.423406
21
70.389036
0
LINE
8
Layer 1
10
36.423406
20
70.389036
11
35.907600
21
69.845912
0
LINE
8
Layer 1
10
35.907600
20
69.845912
11
34.571600
21
67.367300
0
LINE
8
Layer 1
10
34.571600
20
67.367300
11
33.783662
21
65.831912
0
LINE
8
Layer 1
10
33.783662
20
65.831912
11
33.299400
21
65.193300
0
LINE
8
Layer 1
10
33.299400
20
65.193300
11
26.156200
21
63.929900
0
LINE
8
Layer 1
10
26.156200
20
63.929900
11
20.971184
21
62.892598
0
LINE
8
Layer 1
10
20.971184
20
62.892598
11
16.571850
21
61.852063
0
LINE
8
Layer 1
10
16.571850
20
61.852063
11
13.371616
21
60.915870
0
LINE
8
Layer 1
10
13.371616
20
60.915870
11
11.783900
21
60.191600
0
LINE
8
Layer 1
10
11.783900
20
60.191600
11
11.526523
21
59.901617
0
LINE
8
Layer 1
10
11.526523
20
59.901617
11
11.534937
21
59.596812
0
LINE
8
Layer 1
10
11.534937
20
59.596812
11
12.620600
21
58.341200
0
LINE
8
Layer 1
10
12.620600
20
58.341200
11
13.970000
21
56.954300
0
LINE
8
Layer 1
10
13.970000
20
56.954300
11
16.227800
21
57.102000
0
LINE
8
Layer 1
10
16.227800
20
57.102000
11
19.581712
21
57.665038
0
LINE
8
Layer 1
10
19.581712
20
57.665038
11
25.238500
21
59.101300
0
LINE
8
Layer 1
10
25.238500
20
59.101300
11
32.059200
21
60.886100
0
LINE
8
Layer 1
10
32.059200
20
60.886100
11
31.565650
21
58.400748
0
LINE
8
Layer 1
10
31.565650
20
58.400748
11
30.281150
21
53.097413
0
LINE
8
Layer 1
10
30.281150
20
53.097413
11
28.911000
21
47.794095
0
LINE
8
Layer 1
10
28.911000
20
47.794095
11
28.160500
21
45.308800
0
LINE
8
Layer 1
10
28.160500
20
45.308800
11
25.682200
21
44.629100
0
LINE
8
Layer 1
10
25.682200
20
44.629100
11
23.574189
21
43.981203
0
LINE
8
Layer 1
10
23.574189
20
43.981203
11
21.575012
21
43.198775
0
LINE
8
Layer 1
10
21.575012
20
43.198775
11
19.957455
21
42.401009
0
LINE
8
Layer 1
10
19.957455
20
42.401009
11
18.994300
21
41.707100
0
LINE
8
Layer 1
10
18.994300
20
41.707100
11
18.736858
21
41.372573
0
LINE
8
Layer 1
10
18.736858
20
41.372573
11
18.730638
21
41.074787
0
LINE
8
Layer 1
10
18.730638
20
41.074787
11
19.717000
21
40.015500
0
LINE
8
Layer 1
10
19.717000
20
40.015500
11
20.435945
21
39.375908
0
LINE
8
Layer 1
10
20.435945
20
39.375908
11
20.971562
21
39.055788
0
LINE
8
Layer 1
10
20.971562
20
39.055788
11
21.550173
21
38.973398
0
LINE
8
Layer 1
10
21.550173
20
38.973398
11
22.398100
21
39.047000
0
LINE
8
Layer 1
10
22.398100
20
39.047000
11
25.208700
21
39.678700
0
LINE
8
Layer 1
10
25.208700
20
39.678700
11
26.641900
21
40.037000
0
LINE
8
Layer 1
10
26.641900
20
40.037000
11
24.364800
21
32.314400
0
LINE
8
Layer 1
10
24.364800
20
32.314400
11
21.313450
21
21.910075
0
LINE
8
Layer 1
10
21.313450
20
21.910075
11
20.337075
21
17.900844
0
LINE
8
Layer 1
10
20.337075
20
17.900844
11
19.463900
21
13.687800
0
LINE
8
Layer 1
10
19.463900
20
13.687800
11
18.628813
21
10.016661
0
LINE
8
Layer 1
10
18.628813
20
10.016661
11
17.853800
21
7.531280
0
LINE
8
Layer 1
10
17.853800
20
7.531280
11
17.121800
21
5.890310
0
LINE
8
Layer 1
10
17.121800
20
5.890310
11
19.779200
21
3.382280
0
LINE
8
Layer 1
10
19.779200
20
3.382280
11
22.604800
21
0.860473
0
LINE
8
Layer 1
10
22.604800
20
0.860473
11
23.217200
21
1.340580
0
LINE
8
Layer 1
10
23.217200
20
1.340580
11
23.446089
21
1.827382
0
LINE
8
Layer 1
10
23.446089
20
1.827382
11
23.632463
21
2.829153
0
LINE
8
Layer 1
10
23.632463
20
2.829153
11
23.967400
21
7.061090
0
LINE
8
Layer 1
10
23.967400
20
7.061090
11
24.385198
21
12.185865
0
LINE
8
Layer 1
10
24.385198
20
12.185865
11
25.048012
21
16.974599
0
LINE
8
Layer 1
10
25.048012
20
16.974599
11
26.021720
21
21.814631
0
LINE
8
Layer 1
10
26.021720
20
21.814631
11
27.372200
21
27.093300
0
LINE
8
Layer 1
10
27.372200
20
27.093300
11
29.792100
21
35.842200
0
LINE
8
Layer 1
10
29.792100
20
35.842200
11
31.009975
21
39.984400
0
LINE
8
Layer 1
10
31.009975
20
39.984400
11
31.694900
21
41.819000
0
LINE
8
Layer 1
10
31.694900
20
41.819000
11
37.926325
21
43.486175
0
LINE
8
Layer 1
10
37.926325
20
43.486175
11
43.902600
21
44.809400
0
LINE
8
Layer 1
10
43.902600
20
44.809400
11
42.904400
21
42.303600
0
LINE
8
Layer 1
10
42.904400
20
42.303600
11
41.975487
21
40.039366
0
LINE
8
Layer 1
10
41.975487
20
40.039366
11
41.150600
21
37.429625
0
LINE
8
Layer 1
10
41.150600
20
37.429625
11
40.517712
21
34.791272
0
LINE
8
Layer 1
10
40.517712
20
34.791272
11
40.164800
21
32.441200
0
LINE
8
Layer 1
10
40.164800
20
32.441200
11
40.132111
21
30.975645
0
LINE
8
Layer 1
10
40.132111
20
30.975645
11
40.431513
21
29.828437
0
LINE
8
Layer 1
10
40.431513
20
29.828437
11
41.206508
21
28.695161
0
LINE
8
Layer 1
10
41.206508
20
28.695161
11
42.600600
21
27.271400
0
LINE
8
Layer 1
10
42.600600
20
27.271400
11
44.263013
21
25.864125
0
LINE
8
Layer 1
10
44.263013
20
25.864125
11
44.817286
21
25.728856
0
LINE
8
Layer 1
10
44.817286
20
25.728856
11
45.522600
21
25.804000
0
LINE
8
Layer 1
10
45.522600
20
25.804000
11
47.226705
21
26.339692
0
LINE
8
Layer 1
10
47.226705
20
26.339692
11
48.904287
21
27.430788
0
LINE
8
Layer 1
10
48.904287
20
27.430788
11
50.630677
21
29.139189
0
LINE
8
Layer 1
10
50.630677
20
29.139189
11
52.481200
21
31.526800
0
LINE
8
Layer 1
10
52.481200
20
31.526800
11
53.717000
21
33.279100
0
LINE
8
Layer 1
10
53.717000
20
33.279100
11
54.211400
21
31.817200
0
LINE
8
Layer 1
10
54.211400
20
31.817200
11
54.973962
21
30.317487
0
LINE
8
Layer 1
10
54.973962
20
30.317487
11
56.394200
21
28.724400
0
LINE
8
Layer 1
10
56.394200
20
28.724400
11
58.021687
21
27.344362
0
LINE
8
Layer 1
10
58.021687
20
27.344362
11
58.626608
21
27.136477
0
LINE
8
Layer 1
10
58.626608
20
27.136477
11
59.379100
21
27.093300
0
LINE
8
Layer 1
10
59.379100
20
27.093300
11
60.649488
21
27.282925
0
LINE
8
Layer 1
10
60.649488
20
27.282925
11
61.826500
21
28.132400
0
LINE
8
Layer 1
10
61.826500
20
28.132400
11
63.123656
21
29.699531
0
LINE
8
Layer 1
10
63.123656
20
29.699531
11
64.351025
21
32.026450
0
LINE
8
Layer 1
10
64.351025
20
32.026450
11
65.544231
21
35.193969
0
LINE
8
Layer 1
10
65.544231
20
35.193969
11
66.738900
21
39.282900
0
LINE
8
Layer 1
10
66.738900
20
39.282900
11
67.870000
21
43.128700
0
LINE
8
Layer 1
10
67.870000
20
43.128700
11
68.373875
21
42.856162
0
LINE
8
Layer 1
10
68.373875
20
42.856162
11
69.362700
21
41.978300
0
LINE
8
Layer 1
10
69.362700
20
41.978300
11
70.449919
21
41.061361
0
LINE
8
Layer 1
10
70.449919
20
41.061361
11
71.656125
21
40.277687
0
LINE
8
Layer 1
10
71.656125
20
40.277687
11
72.801769
21
39.729045
0
LINE
8
Layer 1
10
72.801769
20
39.729045
11
73.707300
21
39.517200
0
LINE
8
Layer 1
10
73.707300
20
39.517200
11
74.214088
21
39.230913
0
LINE
8
Layer 1
10
74.214088
20
39.230913
11
74.771200
21
38.551400
0
LINE
8
Layer 1
10
74.771200
20
38.551400
11
75.427275
21
37.246925
0
LINE
8
Layer 1
10
75.427275
20
37.246925
11
75.972109
21
36.476506
0
LINE
8
Layer 1
10
75.972109
20
36.476506
11
76.742900
21
35.864300
0
LINE
8
Layer 1
10
76.742900
20
35.864300
11
79.249800
21
34.550200
0
LINE
8
Layer 1
10
79.249800
20
34.550200
11
81.560500
21
34.475800
0
LINE
8
Layer 1
10
81.560500
20
34.475800
11
83.909000
21
34.727612
0
LINE
8
Layer 1
10
83.909000
20
34.727612
11
85.944300
21
35.560000
0
LINE
8
Layer 1
10
85.944300
20
35.560000
11
87.161943
21
36.275518
0
LINE
8
Layer 1
10
87.161943
20
36.275518
11
88.401745
21
37.179600
0
LINE
8
Layer 1
10
88.401745
20
37.179600
11
90.721013
21
39.312575
0
LINE
8
Layer 1
10
90.721013
20
39.312575
11
92.448473
21
41.477163
0
LINE
8
Layer 1
10
92.448473
20
41.477163
11
92.948518
21
42.420760
0
LINE
8
Layer 1
10
92.948518
20
42.420760
11
93.130500
21
43.191600
0
LINE
8
Layer 1
10
93.130500
20
43.191600
11
92.751170
21
43.884445
0
LINE
8
Layer 1
10
92.751170
20
43.884445
11
91.886638
21
44.840362
0
LINE
8
Layer 1
10
91.886638
20
44.840362
11
90.954736
21
45.648923
0
LINE
8
Layer 1
10
90.954736
20
45.648923
11
90.373300
21
45.899700
0
LINE
8
Layer 1
10
90.373300
20
45.899700
11
89.341500
21
44.179900
0
LINE
8
Layer 1
10
89.341500
20
44.179900
11
88.715919
21
43.148875
0
LINE
8
Layer 1
10
88.715919
20
43.148875
11
87.871377
21
42.131517
0
LINE
8
Layer 1
10
87.871377
20
42.131517
11
85.677812
21
40.245463
0
LINE
8
Layer 1
10
85.677812
20
40.245463
11
83.065617
21
38.737052
0
LINE
8
Layer 1
10
83.065617
20
38.737052
11
81.697786
21
38.191749
0
LINE
8
Layer 1
10
81.697786
20
38.191749
11
80.339600
21
37.821600
0
LINE
8
Layer 1
10
80.339600
20
37.821600
11
78.887248
21
37.601542
0
LINE
8
Layer 1
10
78.887248
20
37.601542
11
77.961388
21
37.673412
0
LINE
8
Layer 1
10
77.961388
20
37.673412
11
77.471933
21
38.066752
0
LINE
8
Layer 1
10
77.471933
20
38.066752
11
77.328800
21
38.811100
0
LINE
8
Layer 1
10
77.328800
20
38.811100
11
77.424725
21
39.526263
0
LINE
8
Layer 1
10
77.424725
20
39.526263
11
77.681600
21
39.793300
0
LINE
8
Layer 1
10
77.681600
20
39.793300
11
78.547711
21
40.065834
0
LINE
8
Layer 1
10
78.547711
20
40.065834
11
79.984638
21
40.723850
0
LINE
8
Layer 1
10
79.984638
20
40.723850
11
82.639800
21
42.242400
0
LINE
8
Layer 1
10
82.639800
20
42.242400
11
83.593577
21
43.120428
0
LINE
8
Layer 1
10
83.593577
20
43.120428
11
84.423312
21
44.151850
0
LINE
8
Layer 1
10
84.423312
20
44.151850
11
85.009092
21
45.163547
0
LINE
8
Layer 1
10
85.009092
20
45.163547
11
85.231000
21
45.982400
0
LINE
8
Layer 1
10
85.231000
20
45.982400
11
85.131305
21
46.424433
0
LINE
8
Layer 1
10
85.131305
20
46.424433
11
84.811588
21
46.971063
0
LINE
8
Layer 1
10
84.811588
20
46.971063
11
83.388300
21
48.550500
0
LINE
8
Layer 1
10
83.388300
20
48.550500
11
81.632500
21
50.103037
0
LINE
8
Layer 1
10
81.632500
20
50.103037
11
81.029063
21
50.320477
0
LINE
8
Layer 1
10
81.029063
20
50.320477
11
80.291600
21
50.349600
0
LINE
8
Layer 1
10
80.291600
20
50.349600
11
79.321618
21
50.207171
0
LINE
8
Layer 1
10
79.321618
20
50.207171
11
78.386600
21
49.829500
0
LINE
8
Layer 1
10
78.386600
20
49.829500
11
77.496376
21
49.227785
0
LINE
8
Layer 1
10
77.496376
20
49.227785
11
76.660775
21
48.413225
0
LINE
8
Layer 1
10
76.660775
20
48.413225
11
75.889627
21
47.397018
0
LINE
8
Layer 1
10
75.889627
20
47.397018
11
75.192762
21
46.190363
0
LINE
8
Layer 1
10
75.192762
20
46.190363
11
74.061200
21
43.250500
0
LINE
8
Layer 1
10
74.061200
20
43.250500
11
73.700245
21
43.004241
0
LINE
8
Layer 1
10
73.700245
20
43.004241
11
72.918212
21
42.909425
0
LINE
8
Layer 1
10
72.918212
20
42.909425
11
71.890498
21
42.969447
0
LINE
8
Layer 1
10
71.890498
20
42.969447
11
70.792500
21
43.187700
0
LINE
8
Layer 1
10
70.792500
20
43.187700
11
70.067547
21
43.537534
0
LINE
8
Layer 1
10
70.067547
20
43.537534
11
69.552950
21
44.128325
0
LINE
8
Layer 1
10
69.552950
20
44.128325
11
69.246103
21
44.964553
0
LINE
8
Layer 1
10
69.246103
20
44.964553
11
69.144400
21
46.050700
0
LINE
8
Layer 1
10
69.144400
20
46.050700
11
69.013579
21
46.539066
0
LINE
8
Layer 1
10
69.013579
20
46.539066
11
68.664289
21
47.145261
0
LINE
8
Layer 1
10
68.664289
20
47.145261
11
67.569338
21
48.450562
0
LINE
8
Layer 1
10
67.569338
20
48.450562
11
66.377617
21
49.445458
0
LINE
8
Layer 1
10
66.377617
20
49.445458
11
65.907366
21
49.663645
0
LINE
8
Layer 1
10
65.907366
20
49.663645
11
65.607200
21
49.608800
0
LINE
8
Layer 1
10
65.607200
20
49.608800
11
65.186162
21
48.483375
0
LINE
8
Layer 1
10
65.186162
20
48.483375
11
64.633800
21
46.284400
0
LINE
8
Layer 1
10
64.633800
20
46.284400
11
63.172850
21
40.638825
0
LINE
8
Layer 1
10
63.172850
20
40.638825
11
61.510075
21
35.981075
0
LINE
8
Layer 1
10
61.510075
20
35.981075
11
60.644757
21
34.121201
0
LINE
8
Layer 1
10
60.644757
20
34.121201
11
59.779087
21
32.626562
0
LINE
8
Layer 1
10
59.779087
20
32.626562
11
58.929768
21
31.536587
0
LINE
8
Layer 1
10
58.929768
20
31.536587
11
58.113500
21
30.890700
0
LINE
8
Layer 1
10
58.113500
20
30.890700
11
57.650941
21
30.669561
0
LINE
8
Layer 1
10
57.650941
20
30.669561
11
57.393225
21
30.659913
0
LINE
8
Layer 1
10
57.393225
20
30.659913
11
57.125200
21
31.501400
0
LINE
8
Layer 1
10
57.125200
20
31.501400
11
57.050286
21
33.723019
0
LINE
8
Layer 1
10
57.050286
20
33.723019
11
57.301313
21
37.052650
0
LINE
8
Layer 1
10
57.301313
20
37.052650
11
57.796783
21
40.725556
0
LINE
8
Layer 1
10
57.796783
20
40.725556
11
58.455200
21
43.977000
0
LINE
8
Layer 1
10
58.455200
20
43.977000
11
59.345400
21
47.455200
0
LINE
8
Layer 1
10
59.345400
20
47.455200
11
57.976200
21
48.845400
0
LINE
8
Layer 1
10
57.976200
20
48.845400
11
56.900375
21
49.827175
0
LINE
8
Layer 1
10
56.900375
20
49.827175
11
56.236600
21
50.235500
0
LINE
8
Layer 1
10
56.236600
20
50.235500
11
55.873255
21
50.025328
0
LINE
8
Layer 1
10
55.873255
20
50.025328
11
55.550737
21
49.315975
0
LINE
8
Layer 1
10
55.550737
20
49.315975
11
54.879500
21
45.926700
0
LINE
8
Layer 1
10
54.879500
20
45.926700
11
54.142909
21
42.836312
0
LINE
8
Layer 1
10
54.142909
20
42.836312
11
52.873875
21
39.724700
0
LINE
8
Layer 1
10
52.873875
20
39.724700
11
51.048678
21
36.543638
0
LINE
8
Layer 1
10
51.048678
20
36.543638
11
48.643600
21
33.244900
0
LINE
8
Layer 1
10
48.643600
20
33.244900
11
47.458347
21
31.859866
0
LINE
8
Layer 1
10
47.458347
20
31.859866
11
46.380100
21
30.821800
0
LINE
8
Layer 1
10
46.380100
20
30.821800
11
45.317678
21
30.053809
0
LINE
8
Layer 1
10
45.317678
20
30.053809
11
44.179900
21
29.479000
0
LINE
8
Layer 1
10
44.179900
20
29.479000
11
43.093400
21
29.025300
0
LINE
8
Layer 1
10
43.093400
20
29.025300
11
43.274800
21
31.093000
0
LINE
8
Layer 1
10
43.274800
20
31.093000
11
43.603786
21
33.508809
0
LINE
8
Layer 1
10
43.603786
20
33.508809
11
44.186563
21
36.035975
0
LINE
8
Layer 1
10
44.186563
20
36.035975
11
45.045058
21
38.754278
0
LINE
8
Layer 1
10
45.045058
20
38.754278
11
46.201200
21
41.743500
0
LINE
8
Layer 1
10
46.201200
20
41.743500
11
47.849900
21
45.658300
0
LINE
8
Layer 1
10
47.849900
20
45.658300
11
50.949300
21
46.137800
0
LINE
8
Layer 1
10
50.949300
20
46.137800
11
53.310850
21
46.547925
0
LINE
8
Layer 1
10
53.310850
20
46.547925
11
54.435200
21
46.976200
0
LINE
8
Layer 1
10
54.435200
20
46.976200
11
54.622030
21
47.261117
0
LINE
8
Layer 1
10
54.622030
20
47.261117
11
54.533188
21
47.616412
0
LINE
8
Layer 1
10
54.533188
20
47.616412
11
53.198300
21
49.107200
0
LINE
8
Layer 1
10
53.198300
20
49.107200
11
51.861850
21
50.302725
0
LINE
8
Layer 1
10
51.861850
20
50.302725
11
51.001200
21
50.800000
0
LINE
8
Layer 1
10
51.001200
20
50.800000
11
46.694500
21
49.656800
0
LINE
8
Layer 1
10
46.694500
20
49.656800
11
38.631062
21
47.529750
0
LINE
8
Layer 1
10
38.631062
20
47.529750
11
33.153400
21
46.345600
0
LINE
8
Layer 1
10
33.153400
20
46.345600
11
34.889700
21
51.223300
0
LINE
8
Layer 1
10
34.889700
20
51.223300
11
37.737800
21
59.125500
0
LINE
8
Layer 1
10
37.737800
20
59.125500
11
38.968100
21
62.464200
0
LINE
8
Layer 1
10
38.968100
20
62.464200
11
40.610852
21
62.979589
0
LINE
8
Layer 1
10
40.610852
20
62.979589
11
44.238862
21
63.683763
0
LINE
8
Layer 1
10
44.238862
20
63.683763
11
48.789167
21
64.393055
0
LINE
8
Layer 1
10
48.789167
20
64.393055
11
53.198800
21
64.923800
0
LINE
8
Layer 1
10
53.198800
20
64.923800
11
58.875650
21
65.201225
0
LINE
8
Layer 1
10
58.875650
20
65.201225
11
63.745200
21
65.120000
0
LINE
8
Layer 1
10
63.745200
20
65.120000
11
64.313650
21
65.210762
0
LINE
8
Layer 1
10
64.313650
20
65.210762
11
64.729700
21
65.542800
0
LINE
8
Layer 1
10
64.729700
20
65.542800
11
64.808975
21
65.878617
0
LINE
8
Layer 1
10
64.808975
20
65.878617
11
64.579175
21
66.355463
0
LINE
8
Layer 1
10
64.579175
20
66.355463
11
62.797700
21
68.294400
0
LINE
8
Layer 1
10
62.797700
20
68.294400
11
61.040650
21
69.903112
0
LINE
8
Layer 1
10
61.040650
20
69.903112
11
60.003000
21
70.555500
0
LINE
8
Layer 1
10
60.003000
20
70.555500
11
55.057500
21
69.575500
0
LINE
8
Layer 1
10
55.057500
20
69.575500
11
46.084125
21
67.767225
0
LINE
8
Layer 1
10
46.084125
20
67.767225
11
39.533700
21
66.604400
0
LINE
8
Layer 1
10
39.533700
20
66.604400
11
39.317900
21
66.926575
0
LINE
8
Layer 1
10
39.317900
20
66.926575
11
39.125800
21
67.701300
0
LINE
8
Layer 1
10
39.125800
20
67.701300
11
38.800923
21
68.634408
0
LINE
8
Layer 1
10
38.800923
20
68.634408
11
38.212637
21
69.561412
0
LINE
8
Layer 1
10
38.212637
20
69.561412
11
37.524883
21
70.271911
0
LINE
8
Layer 1
10
37.524883
20
70.271911
11
36.901600
21
70.555500
0
LINE
8
Layer 1
10
36.901600
20
70.555500
11
36.901600
21
70.555500
0
LINE
8
Layer 1
10
80.807500
20
46.294400
11
80.879200
21
46.292100
0
LINE
8
Layer 1
10
80.879200
20
46.292100
11
80.948100
21
46.286600
0
LINE
8
Layer 1
10
80.948100
20
46.286600
11
81.013100
21
46.277800
0
LINE
8
Layer 1
10
81.013100
20
46.277800
11
81.074900
21
46.265100
0
LINE
8
Layer 1
10
81.074900
20
46.265100
11
81.132800
21
46.249200
0
LINE
8
Layer 1
10
81.132800
20
46.249200
11
81.187300
21
46.230400
0
LINE
8
Layer 1
10
81.187300
20
46.230400
11
81.236900
21
46.207800
0
LINE
8
Layer 1
10
81.236900
20
46.207800
11
81.282700
21
46.181400
0
LINE
8
Layer 1
10
81.282700
20
46.181400
11
81.324000
21
46.152100
0
LINE
8
Layer 1
10
81.324000
20
46.152100
11
81.361000
21
46.119100
0
LINE
8
Layer 1
10
81.361000
20
46.119100
11
81.392400
21
46.082700
0
LINE
8
Layer 1
10
81.392400
20
46.082700
11
81.419400
21
46.043000
0
LINE
8
Layer 1
10
81.419400
20
46.043000
11
81.440900
21
46.000000
0
LINE
8
Layer 1
10
81.440900
20
46.000000
11
81.456900
21
45.953700
0
LINE
8
Layer 1
10
81.456900
20
45.953700
11
81.467300
21
45.903500
0
LINE
8
Layer 1
10
81.467300
20
45.903500
11
81.471800
21
45.850100
0
LINE
8
Layer 1
10
81.471800
20
45.850100
11
81.470100
21
45.793300
0
LINE
8
Layer 1
10
81.470100
20
45.793300
11
81.462900
21
45.733200
0
LINE
8
Layer 1
10
81.462900
20
45.733200
11
81.448600
21
45.669300
0
LINE
8
Layer 1
10
81.448600
20
45.669300
11
81.428200
21
45.602600
0
LINE
8
Layer 1
10
81.428200
20
45.602600
11
81.402300
21
45.533700
0
LINE
8
Layer 1
10
81.402300
20
45.533700
11
81.372000
21
45.465900
0
LINE
8
Layer 1
10
81.372000
20
45.465900
11
81.337800
21
45.398600
0
LINE
8
Layer 1
10
81.337800
20
45.398600
11
81.299800
21
45.331900
0
LINE
8
Layer 1
10
81.299800
20
45.331900
11
81.257900
21
45.265200
0
LINE
8
Layer 1
10
81.257900
20
45.265200
11
81.212100
21
45.199600
0
LINE
8
Layer 1
10
81.212100
20
45.199600
11
81.111300
21
45.070100
0
LINE
8
Layer 1
10
81.111300
20
45.070100
11
80.997700
21
44.943300
0
LINE
8
Layer 1
10
80.997700
20
44.943300
11
80.873100
21
44.818800
0
LINE
8
Layer 1
10
80.873100
20
44.818800
11
80.738100
21
44.697500
0
LINE
8
Layer 1
10
80.738100
20
44.697500
11
80.594200
21
44.579500
0
LINE
8
Layer 1
10
80.594200
20
44.579500
11
80.442100
21
44.464300
0
LINE
8
Layer 1
10
80.442100
20
44.464300
11
80.283900
21
44.352400
0
LINE
8
Layer 1
10
80.283900
20
44.352400
11
80.119600
21
44.243800
0
LINE
8
Layer 1
10
80.119600
20
44.243800
11
79.951000
21
44.139100
0
LINE
8
Layer 1
10
79.951000
20
44.139100
11
79.779500
21
44.037700
0
LINE
8
Layer 1
10
79.779500
20
44.037700
11
79.605900
21
43.940700
0
LINE
8
Layer 1
10
79.605900
20
43.940700
11
79.431200
21
43.847500
0
LINE
8
Layer 1
10
79.431200
20
43.847500
11
79.257000
21
43.758200
0
LINE
8
Layer 1
10
79.257000
20
43.758200
11
78.914700
21
43.592900
0
LINE
8
Layer 1
10
78.914700
20
43.592900
11
78.587300
21
43.446200
0
LINE
8
Layer 1
10
78.587300
20
43.446200
11
78.284600
21
43.318900
0
LINE
8
Layer 1
10
78.284600
20
43.318900
11
78.016200
21
43.212000
0
LINE
8
Layer 1
10
78.016200
20
43.212000
11
77.790700
21
43.127100
0
LINE
8
Layer 1
10
77.790700
20
43.127100
11
77.618200
21
43.065300
0
LINE
8
Layer 1
10
77.618200
20
43.065300
11
77.469400
21
43.014100
0
LINE
8
Layer 1
10
77.469400
20
43.014100
11
77.488700
21
43.161800
0
LINE
8
Layer 1
10
77.488700
20
43.161800
11
77.512900
21
43.306200
0
LINE
8
Layer 1
10
77.512900
20
43.306200
11
77.543300
21
43.447300
0
LINE
8
Layer 1
10
77.543300
20
43.447300
11
77.578000
21
43.584600
0
LINE
8
Layer 1
10
77.578000
20
43.584600
11
77.617100
21
43.719100
0
LINE
8
Layer 1
10
77.617100
20
43.719100
11
77.661200
21
43.849700
0
LINE
8
Layer 1
10
77.661200
20
43.849700
11
77.709700
21
43.977000
0
LINE
8
Layer 1
10
77.709700
20
43.977000
11
77.762100
21
44.101100
0
LINE
8
Layer 1
10
77.762100
20
44.101100
11
77.818900
21
44.221800
0
LINE
8
Layer 1
10
77.818900
20
44.221800
11
77.878900
21
44.338600
0
LINE
8
Layer 1
10
77.878900
20
44.338600
11
77.942900
21
44.452700
0
LINE
8
Layer 1
10
77.942900
20
44.452700
11
78.010100
21
44.563000
0
LINE
8
Layer 1
10
78.010100
20
44.563000
11
78.080700
21
44.669900
0
LINE
8
Layer 1
10
78.080700
20
44.669900
11
78.154000
21
44.773600
0
LINE
8
Layer 1
10
78.154000
20
44.773600
11
78.230600
21
44.873300
0
LINE
8
Layer 1
10
78.230600
20
44.873300
11
78.309400
21
44.970300
0
LINE
8
Layer 1
10
78.309400
20
44.970300
11
78.390500
21
45.063500
0
LINE
8
Layer 1
10
78.390500
20
45.063500
11
78.474300
21
45.153300
0
LINE
8
Layer 1
10
78.474300
20
45.153300
11
78.560200
21
45.239900
0
LINE
8
Layer 1
10
78.560200
20
45.239900
11
78.647300
21
45.323100
0
LINE
8
Layer 1
10
78.647300
20
45.323100
11
78.736600
21
45.402500
0
LINE
8
Layer 1
10
78.736600
20
45.402500
11
78.827600
21
45.479100
0
LINE
8
Layer 1
10
78.827600
20
45.479100
11
78.919600
21
45.551900
0
LINE
8
Layer 1
10
78.919600
20
45.551900
11
79.012200
21
45.621300
0
LINE
8
Layer 1
10
79.012200
20
45.621300
11
79.106500
21
45.687500
0
LINE
8
Layer 1
10
79.106500
20
45.687500
11
79.201300
21
45.749800
0
LINE
8
Layer 1
10
79.201300
20
45.749800
11
79.296100
21
45.809300
0
LINE
8
Layer 1
10
79.296100
20
45.809300
11
79.392000
21
45.865000
0
LINE
8
Layer 1
10
79.392000
20
45.865000
11
79.583300
21
45.966400
0
LINE
8
Layer 1
10
79.583300
20
45.966400
11
79.773500
21
46.054000
0
LINE
8
Layer 1
10
79.773500
20
46.054000
11
79.960900
21
46.128400
0
LINE
8
Layer 1
10
79.960900
20
46.128400
11
80.144400
21
46.189100
0
LINE
8
Layer 1
10
80.144400
20
46.189100
11
80.322500
21
46.235900
0
LINE
8
Layer 1
10
80.322500
20
46.235900
11
80.493400
21
46.269000
0
LINE
8
Layer 1
10
80.493400
20
46.269000
11
80.576000
21
46.280600
0
LINE
8
Layer 1
10
80.576000
20
46.280600
11
80.656000
21
46.288300
0
LINE
8
Layer 1
10
80.656000
20
46.288300
11
80.733100
21
46.293300
0
LINE
8
Layer 1
10
80.733100
20
46.293300
11
80.807500
21
46.294400
0
LINE
8
Layer 1
10
80.807500
20
46.294400
11
80.807500
21
46.294400
 0 
ENDSEC
 0 
EOF