999
"DXF R12 Output" (www.mydxf.blogspot.com)
 0 
SECTION
 2 
HEADER
 9 
$ACADVER
 1 
AC1009
 9 
$EXTMIN
 10 
 0 
 20 
 0 
 9 
$EXTMAX
 10 
 8.5 
 20 
 11 
 0 
ENDSEC
 0 
SECTION
 2 
ENTITIES
0
LINE
8
Image
10
19.779300
20
3.382430
11
17.121990
21
5.890090
0
LINE
8
Image
10
17.121990
20
5.890090
11
17.853968
21
7.531170
0
LINE
8
Image
10
17.853968
20
7.531170
11
18.628808
21
10.016606
0
LINE
8
Image
10
18.628808
20
10.016606
11
19.463700
21
13.687800
0
LINE
8
Image
10
19.463700
20
13.687800
11
20.336909
21
17.900847
0
LINE
8
Image
10
20.336909
20
17.900847
11
21.313409
21
21.910091
0
LINE
8
Image
10
21.313409
20
21.910091
11
24.364970
21
32.314500
0
LINE
8
Image
10
24.364970
20
32.314500
11
26.641960
21
40.036790
0
LINE
8
Image
10
26.641960
20
40.036790
11
25.208440
21
39.678755
0
LINE
8
Image
10
25.208440
20
39.678755
11
22.398210
21
39.046922
0
LINE
8
Image
10
22.398210
20
39.046922
11
21.550268
21
38.973327
0
LINE
8
Image
10
21.550268
20
38.973327
11
20.971580
21
39.055723
0
LINE
8
Image
10
20.971580
20
39.055723
11
20.435867
21
39.375841
0
LINE
8
Image
10
20.435867
20
39.375841
11
19.716850
21
40.015409
0
LINE
8
Image
10
19.716850
20
40.015409
11
18.730506
21
41.074856
0
LINE
8
Image
10
18.730506
20
41.074856
11
18.736726
21
41.372733
0
LINE
8
Image
10
18.736726
20
41.372733
11
18.994180
21
41.707299
0
LINE
8
Image
10
18.994180
20
41.707299
11
19.957335
21
42.401187
0
LINE
8
Image
10
19.957335
20
42.401187
11
21.574929
21
43.198956
0
LINE
8
Image
10
21.574929
20
43.198956
11
23.574148
21
43.981412
0
LINE
8
Image
10
23.574148
20
43.981412
11
25.682180
21
44.629359
0
LINE
8
Image
10
25.682180
20
44.629359
11
28.160680
21
45.308837
0
LINE
8
Image
10
28.160680
20
45.308837
11
28.911172
21
47.794092
0
LINE
8
Image
10
28.911172
20
47.794092
11
30.281259
21
53.097341
0
LINE
8
Image
10
30.281259
20
53.097341
11
31.565684
21
58.400614
0
LINE
8
Image
10
31.565684
20
58.400614
11
32.059190
21
60.885937
0
LINE
8
Image
10
32.059190
20
60.885937
11
25.238650
21
59.101337
0
LINE
8
Image
10
25.238650
20
59.101337
11
19.581806
21
57.664992
0
LINE
8
Image
10
19.581806
20
57.664992
11
16.227800
21
57.101900
0
LINE
8
Image
10
16.227800
20
57.101900
11
13.970020
21
56.954436
0
LINE
8
Image
10
13.970020
20
56.954436
11
12.620550
21
58.340976
0
LINE
8
Image
10
12.620550
20
58.340976
11
11.534994
21
59.596759
0
LINE
8
Image
10
11.534994
20
59.596759
11
11.526677
21
59.901698
0
LINE
8
Image
10
11.526677
20
59.901698
11
11.784100
21
60.191700
0
LINE
8
Image
10
11.784100
20
60.191700
11
13.371753
21
60.915967
0
LINE
8
Image
10
13.371753
20
60.915967
11
16.571850
21
61.852063
0
LINE
8
Image
10
16.571850
20
61.852063
11
20.971047
21
62.892502
0
LINE
8
Image
10
20.971047
20
62.892502
11
26.156000
21
63.929800
0
LINE
8
Image
10
26.156000
20
63.929800
11
33.299200
21
65.193300
0
LINE
8
Image
10
33.299200
20
65.193300
11
33.783640
21
65.831900
0
LINE
8
Image
10
33.783640
20
65.831900
11
34.571790
21
67.367260
0
LINE
8
Image
10
34.571790
20
67.367260
11
35.907661
21
69.845870
0
LINE
8
Image
10
35.907661
20
69.845870
11
36.423423
21
70.389021
0
LINE
8
Image
10
36.423423
20
70.389021
11
36.901600
21
70.555500
0
LINE
8
Image
10
36.901600
20
70.555500
11
37.524835
21
70.271950
0
LINE
8
Image
10
37.524835
20
70.271950
11
38.212524
21
69.561541
0
LINE
8
Image
10
38.212524
20
69.561541
11
38.800740
21
68.634631
0
LINE
8
Image
10
38.800740
20
68.634631
11
39.125560
21
67.701580
0
LINE
8
Image
10
39.125560
20
67.701580
11
39.317858
21
66.926723
0
LINE
8
Image
10
39.317858
20
66.926723
11
39.533900
21
66.604400
0
LINE
8
Image
10
39.533900
20
66.604400
11
46.084200
21
67.767362
0
LINE
8
Image
10
46.084200
20
67.767362
11
55.057600
21
69.575700
0
LINE
8
Image
10
55.057600
20
69.575700
11
60.003100
21
70.555500
0
LINE
8
Image
10
60.003100
20
70.555500
11
61.040636
21
69.903159
0
LINE
8
Image
10
61.040636
20
69.903159
11
62.797580
21
68.294540
0
LINE
8
Image
10
62.797580
20
68.294540
11
64.579027
21
66.355565
0
LINE
8
Image
10
64.579027
20
66.355565
11
64.808804
21
65.878721
0
LINE
8
Image
10
64.808804
20
65.878721
11
64.729540
21
65.542880
0
LINE
8
Image
10
64.729540
20
65.542880
11
64.313572
21
65.210850
0
LINE
8
Image
10
64.313572
20
65.210850
11
63.745217
21
65.120063
0
LINE
8
Image
10
63.745217
20
65.120063
11
58.875637
21
65.201221
0
LINE
8
Image
10
58.875637
20
65.201221
11
53.198817
21
64.923738
0
LINE
8
Image
10
53.198817
20
64.923738
11
48.789173
21
64.392969
0
LINE
8
Image
10
48.789173
20
64.392969
11
44.238881
21
63.683595
0
LINE
8
Image
10
44.238881
20
63.683595
11
40.610907
21
62.979347
0
LINE
8
Image
10
40.610907
20
62.979347
11
38.968217
21
62.463958
0
LINE
8
Image
10
38.968217
20
62.463958
11
37.737517
21
59.125518
0
LINE
8
Image
10
37.737517
20
59.125518
11
34.889697
21
51.223298
0
LINE
8
Image
10
34.889697
20
51.223298
11
33.153497
21
46.345598
0
LINE
8
Image
10
33.153497
20
46.345598
11
38.631118
21
47.529820
0
LINE
8
Image
10
38.631118
20
47.529820
11
46.694497
21
49.656878
0
LINE
8
Image
10
46.694497
20
49.656878
11
51.001400
21
50.800000
0
LINE
8
Image
10
51.001400
20
50.800000
11
51.861957
21
50.302767
0
LINE
8
Image
10
51.861957
20
50.302767
11
53.198230
21
49.107290
0
LINE
8
Image
10
53.198230
20
49.107290
11
54.533064
21
47.616528
0
LINE
8
Image
10
54.533064
20
47.616528
11
54.621860
21
47.261235
0
LINE
8
Image
10
54.621860
20
47.261235
11
54.435000
21
46.976310
0
LINE
8
Image
10
54.435000
20
46.976310
11
53.310668
21
46.548093
0
LINE
8
Image
10
53.310668
20
46.548093
11
50.949190
21
46.138015
0
LINE
8
Image
10
50.949190
20
46.138015
11
47.850000
21
45.658444
0
LINE
8
Image
10
47.850000
20
45.658444
11
46.201180
21
41.743304
0
LINE
8
Image
10
46.201180
20
41.743304
11
45.045092
21
38.754125
0
LINE
8
Image
10
45.045092
20
38.754125
11
44.186644
21
36.035940
0
LINE
8
Image
10
44.186644
20
36.035940
11
43.603894
21
33.508888
0
LINE
8
Image
10
43.603894
20
33.508888
11
43.274900
21
31.093104
0
LINE
8
Image
10
43.274900
20
31.093104
11
43.093443
21
29.025134
0
LINE
8
Image
10
43.093443
20
29.025134
11
44.179843
21
29.479060
0
LINE
8
Image
10
44.179843
20
29.479060
11
45.317681
21
30.053864
0
LINE
8
Image
10
45.317681
20
30.053864
11
46.380169
21
30.821829
0
LINE
8
Image
10
46.380169
20
30.821829
11
47.458477
21
31.859864
0
LINE
8
Image
10
47.458477
20
31.859864
11
48.643773
21
33.244880
0
LINE
8
Image
10
48.643773
20
33.244880
11
51.048822
21
36.543615
0
LINE
8
Image
10
51.048822
20
36.543615
11
52.873973
21
39.724626
0
LINE
8
Image
10
52.873973
20
39.724626
11
54.142961
21
42.836190
0
LINE
8
Image
10
54.142961
20
42.836190
11
54.879523
21
45.926580
0
LINE
8
Image
10
54.879523
20
45.926580
11
55.550640
21
49.315922
0
LINE
8
Image
10
55.550640
20
49.315922
11
55.873086
21
50.025312
0
LINE
8
Image
10
55.873086
20
50.025312
11
56.236400
21
50.235500
0
LINE
8
Image
10
56.236400
20
50.235500
11
56.900191
21
49.827144
0
LINE
8
Image
10
56.900191
20
49.827144
11
57.976020
21
48.845350
0
LINE
8
Image
10
57.976020
20
48.845350
11
59.345270
21
47.455200
0
LINE
8
Image
10
59.345270
20
47.455200
11
58.455427
21
43.977020
0
LINE
8
Image
10
58.455427
20
43.977020
11
57.796962
21
40.725507
0
LINE
8
Image
10
57.796962
20
40.725507
11
57.301388
21
37.052536
0
LINE
8
Image
10
57.301388
20
37.052536
11
57.050251
21
33.722857
0
LINE
8
Image
10
57.050251
20
33.722857
11
57.125097
21
31.501220
0
LINE
8
Image
10
57.125097
20
31.501220
11
57.393271
21
30.659885
0
LINE
8
Image
10
57.393271
20
30.659885
11
57.651043
21
30.669631
0
LINE
8
Image
10
57.651043
20
30.669631
11
58.113602
21
30.890779
0
LINE
8
Image
10
58.113602
20
30.890779
11
58.929887
21
31.536656
0
LINE
8
Image
10
58.929887
20
31.536656
11
59.779206
21
32.626612
0
LINE
8
Image
10
59.779206
20
32.626612
11
60.644862
21
34.121225
0
LINE
8
Image
10
60.644862
20
34.121225
11
61.510157
21
35.981074
0
LINE
8
Image
10
61.510157
20
35.981074
11
63.172873
21
40.638789
0
LINE
8
Image
10
63.172873
20
40.638789
11
64.633772
21
46.284379
0
LINE
8
Image
10
64.633772
20
46.284379
11
65.186292
21
48.483254
0
LINE
8
Image
10
65.186292
20
48.483254
11
65.607554
21
49.608639
0
LINE
8
Image
10
65.607554
20
49.608639
11
65.907661
21
49.663504
0
LINE
8
Image
10
65.907661
20
49.663504
11
66.377851
21
49.445332
0
LINE
8
Image
10
66.377851
20
49.445332
11
67.569457
21
48.450455
0
LINE
8
Image
10
67.569457
20
48.450455
11
68.664323
21
47.145160
0
LINE
8
Image
10
68.664323
20
47.145160
11
69.013588
21
46.538966
0
LINE
8
Image
10
69.013588
20
46.538966
11
69.144400
21
46.050600
0
LINE
8
Image
10
69.144400
20
46.050600
11
69.246118
21
44.964486
0
LINE
8
Image
10
69.246118
20
44.964486
11
69.552999
21
44.128312
0
LINE
8
Image
10
69.552999
20
44.128312
11
70.067633
21
43.537581
0
LINE
8
Image
10
70.067633
20
43.537581
11
70.792610
21
43.187790
0
LINE
8
Image
10
70.792610
20
43.187790
11
71.890531
21
42.969533
0
LINE
8
Image
10
71.890531
20
42.969533
11
72.918139
21
42.909481
0
LINE
8
Image
10
72.918139
20
42.909481
11
73.700090
21
43.004267
0
LINE
8
Image
10
73.700090
20
43.004267
11
74.061040
21
43.250528
0
LINE
8
Image
10
74.061040
20
43.250528
11
75.192617
21
46.190380
0
LINE
8
Image
10
75.192617
20
46.190380
11
75.889487
21
47.397046
0
LINE
8
Image
10
75.889487
20
47.397046
11
76.660639
21
48.413272
0
LINE
8
Image
10
76.660639
20
48.413272
11
77.496241
21
49.227856
0
LINE
8
Image
10
77.496241
20
49.227856
11
78.386464
21
49.829597
0
LINE
8
Image
10
78.386464
20
49.829597
11
79.321477
21
50.207295
0
LINE
8
Image
10
79.321477
20
50.207295
11
80.291450
21
50.349748
0
LINE
8
Image
10
80.291450
20
50.349748
11
81.028916
21
50.320558
0
LINE
8
Image
10
81.028916
20
50.320558
11
81.632390
21
50.103012
0
LINE
8
Image
10
81.632390
20
50.103012
11
83.388260
21
48.550338
0
LINE
8
Image
10
83.388260
20
48.550338
11
84.811579
21
46.970887
0
LINE
8
Image
10
84.811579
20
46.970887
11
85.131342
21
46.424213
0
LINE
8
Image
10
85.131342
20
46.424213
11
85.231060
21
45.982128
0
LINE
8
Image
10
85.231060
20
45.982128
11
85.009140
21
45.163295
0
LINE
8
Image
10
85.009140
20
45.163295
11
84.423335
21
44.151628
0
LINE
8
Image
10
84.423335
20
44.151628
11
83.593578
21
43.120225
0
LINE
8
Image
10
83.593578
20
43.120225
11
82.639800
21
42.242188
0
LINE
8
Image
10
82.639800
20
42.242188
11
79.984648
21
40.723852
0
LINE
8
Image
10
79.984648
20
40.723852
11
78.547733
21
40.065977
0
LINE
8
Image
10
78.547733
20
40.065977
11
77.681620
21
39.793528
0
LINE
8
Image
10
77.681620
20
39.793528
11
77.424751
21
39.526285
0
LINE
8
Image
10
77.424751
20
39.526285
11
77.328843
21
38.810904
0
LINE
8
Image
10
77.328843
20
38.810904
11
77.471981
21
38.066622
0
LINE
8
Image
10
77.471981
20
38.066622
11
77.961444
21
37.673401
0
LINE
8
Image
10
77.961444
20
37.673401
11
78.887307
21
37.601649
0
LINE
8
Image
10
78.887307
20
37.601649
11
80.339643
21
37.821772
0
LINE
8
Image
10
80.339643
20
37.821772
11
81.697849
21
38.191886
0
LINE
8
Image
10
81.697849
20
38.191886
11
83.065689
21
38.737142
0
LINE
8
Image
10
83.065689
20
38.737142
11
85.677877
21
40.245442
0
LINE
8
Image
10
85.677877
20
40.245442
11
87.871413
21
42.131397
0
LINE
8
Image
10
87.871413
20
42.131397
11
88.715938
21
43.148721
0
LINE
8
Image
10
88.715938
20
43.148721
11
89.341503
21
44.179732
0
LINE
8
Image
10
89.341503
20
44.179732
11
90.373173
21
45.899472
0
LINE
8
Image
10
90.373173
20
45.899472
11
90.954648
21
45.648780
0
LINE
8
Image
10
90.954648
20
45.648780
11
91.886649
21
44.840358
0
LINE
8
Image
10
91.886649
20
44.840358
11
92.751277
21
43.884566
0
LINE
8
Image
10
92.751277
20
43.884566
11
93.130633
21
43.191762
0
LINE
8
Image
10
93.130633
20
43.191762
11
92.948643
21
42.420917
0
LINE
8
Image
10
92.948643
20
42.420917
11
92.448568
21
41.477299
0
LINE
8
Image
10
92.448568
20
41.477299
11
90.721003
21
39.312646
0
LINE
8
Image
10
90.721003
20
39.312646
11
88.401628
21
37.179603
0
LINE
8
Image
10
88.401628
20
37.179603
11
87.161790
21
36.275499
0
LINE
8
Image
10
87.161790
20
36.275499
11
85.944133
21
35.559972
0
LINE
8
Image
10
85.944133
20
35.559972
11
83.908911
21
34.727491
0
LINE
8
Image
10
83.908911
20
34.727491
11
81.560563
21
34.475542
0
LINE
8
Image
10
81.560563
20
34.475542
11
79.128453
21
34.378889
0
LINE
8
Image
10
79.128453
20
34.378889
11
77.246363
21
35.985569
0
LINE
8
Image
10
77.246363
20
35.985569
11
75.742956
21
37.402112
0
LINE
8
Image
10
75.742956
20
37.402112
11
74.771313
21
38.551669
0
LINE
8
Image
10
74.771313
20
38.551669
11
74.214222
21
39.231080
0
LINE
8
Image
10
74.214222
20
39.231080
11
73.707493
21
39.517286
0
LINE
8
Image
10
73.707493
20
39.517286
11
72.801916
21
39.729111
0
LINE
8
Image
10
72.801916
20
39.729111
11
71.656182
21
40.277681
0
LINE
8
Image
10
71.656182
20
40.277681
11
70.449873
21
41.061278
0
LINE
8
Image
10
70.449873
20
41.061278
11
69.362573
21
41.978186
0
LINE
8
Image
10
69.362573
20
41.978186
11
68.373825
21
42.855999
0
LINE
8
Image
10
68.373825
20
42.855999
11
67.869963
21
43.128496
0
LINE
8
Image
10
67.869963
20
43.128496
11
66.738813
21
39.282966
0
LINE
8
Image
10
66.738813
20
39.282966
11
65.544124
21
35.194001
0
LINE
8
Image
10
65.544124
20
35.194001
11
64.350871
21
32.026455
0
LINE
8
Image
10
64.350871
20
32.026455
11
63.123451
21
29.699515
0
LINE
8
Image
10
63.123451
20
29.699515
11
61.826263
21
28.132366
0
LINE
8
Image
10
61.826263
20
28.132366
11
60.649233
21
27.282921
0
LINE
8
Image
10
60.649233
20
27.282921
11
59.378800
21
27.093300
0
LINE
8
Image
10
59.378800
20
27.093300
11
58.626343
21
27.136471
0
LINE
8
Image
10
58.626343
20
27.136471
11
58.021454
21
27.344340
0
LINE
8
Image
10
58.021454
20
27.344340
11
56.394010
21
28.724310
0
LINE
8
Image
10
56.394010
20
28.724310
11
54.973970
21
30.317366
0
LINE
8
Image
10
54.973970
20
30.317366
11
54.211650
21
31.817070
0
LINE
8
Image
10
54.211650
20
31.817070
11
53.716799
21
33.278820
0
LINE
8
Image
10
53.716799
20
33.278820
11
52.481219
21
31.526610
0
LINE
8
Image
10
52.481219
20
31.526610
11
50.630734
21
29.139040
0
LINE
8
Image
10
50.630734
20
29.139040
11
48.904363
21
27.430725
0
LINE
8
Image
10
48.904363
20
27.430725
11
47.226793
21
26.339727
0
LINE
8
Image
10
47.226793
20
26.339727
11
45.522709
21
25.804110
0
LINE
8
Image
10
45.522709
20
25.804110
11
44.817381
21
25.728897
0
LINE
8
Image
10
44.817381
20
25.728897
11
44.263145
21
25.864060
0
LINE
8
Image
10
44.263145
20
25.864060
11
42.600809
21
27.271200
0
LINE
8
Image
10
42.600809
20
27.271200
11
41.206627
21
28.694968
0
LINE
8
Image
10
41.206627
20
28.694968
11
40.431512
21
29.828235
0
LINE
8
Image
10
40.431512
20
29.828235
11
40.132005
21
30.975437
0
LINE
8
Image
10
40.132005
20
30.975437
11
40.164649
21
32.441010
0
LINE
8
Image
10
40.164649
20
32.441010
11
40.517601
21
34.791048
0
LINE
8
Image
10
40.517601
20
34.791048
11
41.150570
21
37.429365
0
LINE
8
Image
10
41.150570
20
37.429365
11
41.975526
21
40.039077
0
LINE
8
Image
10
41.975526
20
40.039077
11
42.904439
21
42.303300
0
LINE
8
Image
10
42.904439
20
42.303300
11
43.902557
21
44.809170
0
LINE
8
Image
10
43.902557
20
44.809170
11
37.926279
21
43.486163
0
LINE
8
Image
10
37.926279
20
43.486163
11
31.694857
21
41.819230
0
LINE
8
Image
10
31.694857
20
41.819230
11
31.009888
21
39.984477
0
LINE
8
Image
10
31.009888
20
39.984477
11
29.791907
21
35.842180
0
LINE
8
Image
10
29.791907
20
35.842180
11
27.372377
21
27.093300
0
LINE
8
Image
10
27.372377
20
27.093300
11
26.021851
21
21.814672
0
LINE
8
Image
10
26.021851
20
21.814672
11
25.048069
21
16.974734
0
LINE
8
Image
10
25.048069
20
16.974734
11
24.385181
21
12.186078
0
LINE
8
Image
10
24.385181
20
12.186078
11
23.967337
21
7.061300
0
LINE
8
Image
10
23.967337
20
7.061300
11
23.632340
21
2.829238
0
LINE
8
Image
10
23.632340
20
2.829238
11
23.445912
21
1.827381
0
LINE
8
Image
10
23.445912
20
1.827381
11
23.216989
21
1.340540
0
LINE
8
Image
10
23.216989
20
1.340540
11
22.604573
21
0.860692
0
LINE
8
Image
10
22.604573
20
0.860692
11
19.779343
21
3.382392
0
LINE
8
Image
10
19.779343
20
3.382392
11
19.779300
21
3.382430
 0 
ENDSEC
 0 
EOF