999
"DXF R12 Output" (www.mydxf.blogspot.com)
 0 
SECTION
 2 
HEADER
 9 
$ACADVER
 1 
AC1009
 9 
$EXTMIN
 10 
 0 
 20 
 0 
 9 
$EXTMAX
 10 
 8.5 
 20 
 11 
 0 
ENDSEC
 0 
SECTION
 2 
ENTITIES
0
LINE
8
Image
10
13.970000
20
17.197200
11
12.824872
21
17.586907
0
LINE
8
Image
10
12.824872
20
17.586907
11
11.672225
21
18.240357
0
LINE
8
Image
10
11.672225
20
18.240357
11
10.374146
21
19.251208
0
LINE
8
Image
10
10.374146
20
19.251208
11
8.792720
21
20.713120
0
LINE
8
Image
10
8.792720
20
20.713120
11
6.565782
21
23.111620
0
LINE
8
Image
10
6.565782
20
23.111620
11
5.911300
21
24.115484
0
LINE
8
Image
10
5.911300
20
24.115484
11
5.541948
21
25.075366
0
LINE
8
Image
10
5.541948
20
25.075366
11
5.442078
21
26.055971
0
LINE
8
Image
10
5.442078
20
26.055971
11
5.596047
21
27.122005
0
LINE
8
Image
10
5.596047
20
27.122005
11
6.602910
21
29.769180
0
LINE
8
Image
10
6.602910
20
29.769180
11
7.626694
21
31.611950
0
LINE
8
Image
10
7.626694
20
31.611950
11
8.910909
21
33.248051
0
LINE
8
Image
10
8.910909
20
33.248051
11
10.489114
21
34.713852
0
LINE
8
Image
10
10.489114
20
34.713852
11
12.394870
21
36.045720
0
LINE
8
Image
10
12.394870
20
36.045720
11
16.499900
21
38.609490
0
LINE
8
Image
10
16.499900
20
38.609490
11
18.465350
21
39.860100
0
LINE
8
Image
10
18.465350
20
39.860100
11
17.387820
21
40.412908
0
LINE
8
Image
10
17.387820
20
40.412908
11
15.929928
21
41.472413
0
LINE
8
Image
10
15.929928
20
41.472413
11
13.937900
21
43.243300
0
LINE
8
Image
10
13.937900
20
43.243300
11
11.976575
21
45.326920
0
LINE
8
Image
10
11.976575
20
45.326920
11
10.690181
21
47.243638
0
LINE
8
Image
10
10.690181
20
47.243638
11
9.955542
21
49.231436
0
LINE
8
Image
10
9.955542
20
49.231436
11
9.649480
21
51.528300
0
LINE
8
Image
10
9.649480
20
51.528300
11
9.667186
21
53.760375
0
LINE
8
Image
10
9.667186
20
53.760375
11
9.876790
21
54.536887
0
LINE
8
Image
10
9.876790
20
54.536887
11
10.275000
21
55.428600
0
LINE
8
Image
10
10.275000
20
55.428600
11
11.065830
21
56.726835
0
LINE
8
Image
10
11.065830
20
56.726835
11
12.124139
21
57.987458
0
LINE
8
Image
10
12.124139
20
57.987458
11
13.392957
21
59.171987
0
LINE
8
Image
10
13.392957
20
59.171987
11
14.815312
21
60.241938
0
LINE
8
Image
10
14.815312
20
60.241938
11
16.334235
21
61.158828
0
LINE
8
Image
10
16.334235
20
61.158828
11
17.892755
21
61.884173
0
LINE
8
Image
10
17.892755
20
61.884173
11
19.433900
21
62.379492
0
LINE
8
Image
10
19.433900
20
62.379492
11
20.900700
21
62.606300
0
LINE
8
Image
10
20.900700
20
62.606300
11
22.573474
21
62.598619
0
LINE
8
Image
10
22.573474
20
62.598619
11
23.913855
21
62.289088
0
LINE
8
Image
10
23.913855
20
62.289088
11
25.184846
21
61.574570
0
LINE
8
Image
10
25.184846
20
61.574570
11
26.649450
21
60.351930
0
LINE
8
Image
10
26.649450
20
60.351930
11
28.039545
21
58.947234
0
LINE
8
Image
10
28.039545
20
58.947234
11
29.092585
21
57.585763
0
LINE
8
Image
10
29.092585
20
57.585763
11
29.818010
21
56.253215
0
LINE
8
Image
10
29.818010
20
56.253215
11
30.225260
21
54.935290
0
LINE
8
Image
10
30.225260
20
54.935290
11
30.307020
21
53.691501
0
LINE
8
Image
10
30.307020
20
53.691501
11
30.187011
21
52.159691
0
LINE
8
Image
10
30.187011
20
52.159691
11
29.898890
21
50.595190
0
LINE
8
Image
10
29.898890
20
50.595190
11
29.476311
21
49.253330
0
LINE
8
Image
10
29.476311
20
49.253330
11
29.022830
21
48.415657
0
LINE
8
Image
10
29.022830
20
48.415657
11
28.809612
21
48.437375
0
LINE
8
Image
10
28.809612
20
48.437375
11
28.496682
21
48.690307
0
LINE
8
Image
10
28.496682
20
48.690307
11
28.220581
21
49.032007
0
LINE
8
Image
10
28.220581
20
49.032007
11
28.059545
21
49.535244
0
LINE
8
Image
10
28.059545
20
49.535244
11
27.978806
21
51.612337
0
LINE
8
Image
10
27.978806
20
51.612337
11
27.934906
21
53.276979
0
LINE
8
Image
10
27.934906
20
53.276979
11
27.754854
21
54.750522
0
LINE
8
Image
10
27.754854
20
54.750522
11
27.415613
21
56.160900
0
LINE
8
Image
10
27.415613
20
56.160900
11
26.894146
21
57.636047
0
LINE
8
Image
10
26.894146
20
57.636047
11
26.345817
21
58.485714
0
LINE
8
Image
10
26.345817
20
58.485714
11
25.495008
21
58.979766
0
LINE
8
Image
10
25.495008
20
58.979766
11
24.293566
21
59.133398
0
LINE
8
Image
10
24.293566
20
59.133398
11
22.693336
21
58.961807
0
LINE
8
Image
10
22.693336
20
58.961807
11
21.110824
21
58.568016
0
LINE
8
Image
10
21.110824
20
58.568016
11
19.572156
21
57.982547
0
LINE
8
Image
10
19.572156
20
57.982547
11
18.115170
21
57.233589
0
LINE
8
Image
10
18.115170
20
57.233589
11
16.777701
21
56.349329
0
LINE
8
Image
10
16.777701
20
56.349329
11
15.597586
21
55.357958
0
LINE
8
Image
10
15.597586
20
55.357958
11
14.612661
21
54.287662
0
LINE
8
Image
10
14.612661
20
54.287662
11
13.860762
21
53.166633
0
LINE
8
Image
10
13.860762
20
53.166633
11
13.379726
21
52.023057
0
LINE
8
Image
10
13.379726
20
52.023057
11
13.131711
21
50.811620
0
LINE
8
Image
10
13.131711
20
50.811620
11
13.063892
21
49.562530
0
LINE
8
Image
10
13.063892
20
49.562530
11
13.163516
21
48.320551
0
LINE
8
Image
10
13.163516
20
48.320551
11
13.417833
21
47.130442
0
LINE
8
Image
10
13.417833
20
47.130442
11
13.814089
21
46.036965
0
LINE
8
Image
10
13.814089
20
46.036965
11
14.339533
21
45.084881
0
LINE
8
Image
10
14.339533
20
45.084881
11
14.981413
21
44.318951
0
LINE
8
Image
10
14.981413
20
44.318951
11
15.726976
21
43.783937
0
LINE
8
Image
10
15.726976
20
43.783937
11
17.308057
21
43.124377
0
LINE
8
Image
10
17.308057
20
43.124377
11
19.082808
21
42.649566
0
LINE
8
Image
10
19.082808
20
42.649566
11
20.999539
21
42.370066
0
LINE
8
Image
10
20.999539
20
42.370066
11
23.006556
21
42.296437
0
LINE
8
Image
10
23.006556
20
42.296437
11
25.552056
21
42.337503
0
LINE
8
Image
10
25.552056
20
42.337503
11
27.485996
21
40.388633
0
LINE
8
Image
10
27.485996
20
40.388633
11
28.804900
21
38.913557
0
LINE
8
Image
10
28.804900
20
38.913557
11
29.227726
21
38.128773
0
LINE
8
Image
10
29.227726
20
38.128773
11
28.694073
21
37.909135
0
LINE
8
Image
10
28.694073
20
37.909135
11
27.680936
21
37.817781
0
LINE
8
Image
10
27.680936
20
37.817781
11
26.026189
21
37.539477
0
LINE
8
Image
10
26.026189
20
37.539477
11
23.639030
21
36.812666
0
LINE
8
Image
10
23.639030
20
36.812666
11
20.988889
21
35.799497
0
LINE
8
Image
10
20.988889
20
35.799497
11
18.545196
21
34.662121
0
LINE
8
Image
10
18.545196
20
34.662121
11
17.088762
21
33.771154
0
LINE
8
Image
10
17.088762
20
33.771154
11
15.710964
21
32.683712
0
LINE
8
Image
10
15.710964
20
32.683712
11
14.442304
21
31.440557
0
LINE
8
Image
10
14.442304
20
31.440557
11
13.313282
21
30.082454
0
LINE
8
Image
10
13.313282
20
30.082454
11
12.354400
21
28.650165
0
LINE
8
Image
10
12.354400
20
28.650165
11
11.596160
21
27.184454
0
LINE
8
Image
10
11.596160
20
27.184454
11
11.069061
21
25.726085
0
LINE
8
Image
10
11.069061
20
25.726085
11
10.803606
21
24.315821
0
LINE
8
Image
10
10.803606
20
24.315821
11
10.773086
21
22.797760
0
LINE
8
Image
10
10.773086
20
22.797760
11
10.997804
21
22.539957
0
LINE
8
Image
10
10.997804
20
22.539957
11
11.462663
21
22.380991
0
LINE
8
Image
10
11.462663
20
22.380991
11
13.233524
21
22.162369
0
LINE
8
Image
10
13.233524
20
22.162369
11
15.693149
21
22.179817
0
LINE
8
Image
10
15.693149
20
22.179817
11
18.287131
21
22.406547
0
LINE
8
Image
10
18.287131
20
22.406547
11
20.461063
21
22.815771
0
LINE
8
Image
10
20.461063
20
22.815771
11
22.892909
21
23.636565
0
LINE
8
Image
10
22.892909
20
23.636565
11
25.439689
21
24.775388
0
LINE
8
Image
10
25.439689
20
24.775388
11
28.058757
21
26.203138
0
LINE
8
Image
10
28.058757
20
26.203138
11
30.707464
21
27.890715
0
LINE
8
Image
10
30.707464
20
27.890715
11
33.343165
21
29.809017
0
LINE
8
Image
10
33.343165
20
29.809017
11
35.923213
21
31.928945
0
LINE
8
Image
10
35.923213
20
31.928945
11
38.404962
21
34.221396
0
LINE
8
Image
10
38.404962
20
34.221396
11
40.745763
21
36.657271
0
LINE
8
Image
10
40.745763
20
36.657271
11
44.848916
21
41.643419
0
LINE
8
Image
10
44.848916
20
41.643419
11
49.701924
21
48.124800
0
LINE
8
Image
10
49.701924
20
48.124800
11
54.098927
21
54.434016
0
LINE
8
Image
10
54.098927
20
54.434016
11
56.834063
21
58.903671
0
LINE
8
Image
10
56.834063
20
58.903671
11
57.694797
21
60.268416
0
LINE
8
Image
10
57.694797
20
60.268416
11
58.114328
21
60.642902
0
LINE
8
Image
10
58.114328
20
60.642902
11
58.537946
21
60.813974
0
LINE
8
Image
10
58.537946
20
60.813974
11
58.974132
21
60.783013
0
LINE
8
Image
10
58.974132
20
60.783013
11
59.431370
21
60.551403
0
LINE
8
Image
10
59.431370
20
60.551403
11
60.442933
21
59.491762
0
LINE
8
Image
10
60.442933
20
59.491762
11
61.313832
21
58.028011
0
LINE
8
Image
10
61.313832
20
58.028011
11
61.389425
21
57.471922
0
LINE
8
Image
10
61.389425
20
57.471922
11
61.261473
21
56.918732
0
LINE
8
Image
10
61.261473
20
56.918732
11
60.203595
21
55.470120
0
LINE
8
Image
10
60.203595
20
55.470120
11
58.007023
21
52.899522
0
LINE
8
Image
10
58.007023
20
52.899522
11
49.551983
21
42.892522
0
LINE
8
Image
10
49.551983
20
42.892522
11
44.676728
21
36.727818
0
LINE
8
Image
10
44.676728
20
36.727818
11
43.472885
21
34.820114
0
LINE
8
Image
10
43.472885
20
34.820114
11
42.397553
21
32.707522
0
LINE
8
Image
10
42.397553
20
32.707522
11
41.139391
21
29.937017
0
LINE
8
Image
10
41.139391
20
29.937017
11
40.236857
21
27.596390
0
LINE
8
Image
10
40.236857
20
27.596390
11
39.693057
21
25.694799
0
LINE
8
Image
10
39.693057
20
25.694799
11
39.511100
21
24.241400
0
LINE
8
Image
10
39.511100
20
24.241400
11
39.619355
21
23.344841
0
LINE
8
Image
10
39.619355
20
23.344841
11
39.798068
21
23.183867
0
LINE
8
Image
10
39.798068
20
23.183867
11
40.098410
21
23.142240
0
LINE
8
Image
10
40.098410
20
23.142240
11
41.191034
21
23.455336
0
LINE
8
Image
10
41.191034
20
23.455336
11
42.974374
21
24.311841
0
LINE
8
Image
10
42.974374
20
24.311841
11
47.676050
21
27.158390
0
LINE
8
Image
10
47.676050
20
27.158390
11
52.650336
21
30.672009
0
LINE
8
Image
10
52.650336
20
30.672009
11
53.466269
21
31.552163
0
LINE
8
Image
10
53.466269
20
31.552163
11
53.750460
21
32.345180
0
LINE
8
Image
10
53.750460
20
32.345180
11
54.423685
21
34.596280
0
LINE
8
Image
10
54.423685
20
34.596280
11
55.568239
21
36.877406
0
LINE
8
Image
10
55.568239
20
36.877406
11
57.105323
21
39.057471
0
LINE
8
Image
10
57.105323
20
39.057471
11
58.956140
21
41.005390
0
LINE
8
Image
10
58.956140
20
41.005390
11
60.589287
21
42.232301
0
LINE
8
Image
10
60.589287
20
42.232301
11
61.309127
21
42.539811
0
LINE
8
Image
10
61.309127
20
42.539811
11
61.997512
21
42.643441
0
LINE
8
Image
10
61.997512
20
42.643441
11
62.679220
21
42.543252
0
LINE
8
Image
10
62.679220
20
42.543252
11
63.379027
21
42.239309
0
LINE
8
Image
10
63.379027
20
42.239309
11
64.932040
21
41.020404
0
LINE
8
Image
10
64.932040
20
41.020404
11
65.830190
21
40.089063
0
LINE
8
Image
10
65.830190
20
40.089063
11
66.408793
21
39.266646
0
LINE
8
Image
10
66.408793
20
39.266646
11
66.647608
21
38.502607
0
LINE
8
Image
10
66.647608
20
38.502607
11
66.526398
21
37.746399
0
LINE
8
Image
10
66.526398
20
37.746399
11
66.024921
21
36.947475
0
LINE
8
Image
10
66.024921
20
36.947475
11
65.122938
21
36.055287
0
LINE
8
Image
10
65.122938
20
36.055287
11
62.036500
21
33.788934
0
LINE
8
Image
10
62.036500
20
33.788934
11
57.855500
21
30.794700
0
LINE
8
Image
10
57.855500
20
30.794700
11
56.867723
21
29.956695
0
LINE
8
Image
10
56.867723
20
29.956695
11
58.068493
21
30.220070
0
LINE
8
Image
10
58.068493
20
30.220070
11
60.720233
21
31.046395
0
LINE
8
Image
10
60.720233
20
31.046395
11
63.340107
21
32.367982
0
LINE
8
Image
10
63.340107
20
32.367982
11
65.978473
21
34.215181
0
LINE
8
Image
10
65.978473
20
34.215181
11
68.685693
21
36.618340
0
LINE
8
Image
10
68.685693
20
36.618340
11
71.329073
21
38.946670
0
LINE
8
Image
10
71.329073
20
38.946670
11
71.755214
21
38.735725
0
LINE
8
Image
10
71.755214
20
38.735725
11
72.243837
21
38.228075
0
LINE
8
Image
10
72.243837
20
38.228075
11
72.646135
21
37.611495
0
LINE
8
Image
10
72.646135
20
37.611495
11
72.813303
21
37.073760
0
LINE
8
Image
10
72.813303
20
37.073760
11
72.603383
21
36.406368
0
LINE
8
Image
10
72.603383
20
36.406368
11
72.057123
21
35.530172
0
LINE
8
Image
10
72.057123
20
35.530172
11
71.299776
21
34.617085
0
LINE
8
Image
10
71.299776
20
34.617085
11
70.456593
21
33.839020
0
LINE
8
Image
10
70.456593
20
33.839020
11
69.882774
21
33.198587
0
LINE
8
Image
10
69.882774
20
33.198587
11
69.268837
21
32.242203
0
LINE
8
Image
10
69.268837
20
32.242203
11
68.779605
21
31.259572
0
LINE
8
Image
10
68.779605
20
31.259572
11
68.579900
21
30.540400
0
LINE
8
Image
10
68.579900
20
30.540400
11
69.735340
21
31.481018
0
LINE
8
Image
10
69.735340
20
31.481018
11
70.851686
21
32.696556
0
LINE
8
Image
10
70.851686
20
32.696556
11
72.037799
21
34.229387
0
LINE
8
Image
10
72.037799
20
34.229387
11
74.256160
21
37.743828
0
LINE
8
Image
10
74.256160
20
37.743828
11
75.031449
21
38.988195
0
LINE
8
Image
10
75.031449
20
38.988195
11
75.553020
21
39.507718
0
LINE
8
Image
10
75.553020
20
39.507718
11
76.167398
21
39.176037
0
LINE
8
Image
10
76.167398
20
39.176037
11
77.046126
21
38.405718
0
LINE
8
Image
10
77.046126
20
38.405718
11
77.833911
21
37.544582
0
LINE
8
Image
10
77.833911
20
37.544582
11
78.175460
21
36.940448
0
LINE
8
Image
10
78.175460
20
36.940448
11
77.883097
21
36.223643
0
LINE
8
Image
10
77.883097
20
36.223643
11
77.180184
21
35.062308
0
LINE
8
Image
10
77.180184
20
35.062308
11
76.547483
21
33.974339
0
LINE
8
Image
10
76.547483
20
33.974339
11
76.471334
21
33.684448
0
LINE
8
Image
10
76.471334
20
33.684448
11
76.563848
21
33.584408
0
LINE
8
Image
10
76.563848
20
33.584408
11
77.060776
21
34.064160
0
LINE
8
Image
10
77.060776
20
34.064160
11
77.723388
21
35.217608
0
LINE
8
Image
10
77.723388
20
35.217608
11
79.137658
21
37.589075
0
LINE
8
Image
10
79.137658
20
37.589075
11
80.913740
21
39.733186
0
LINE
8
Image
10
80.913740
20
39.733186
11
82.780435
21
41.368560
0
LINE
8
Image
10
82.780435
20
41.368560
11
83.663010
21
41.907539
0
LINE
8
Image
10
83.663010
20
41.907539
11
84.466538
21
42.213818
0
LINE
8
Image
10
84.466538
20
42.213818
11
84.935603
21
42.257434
0
LINE
8
Image
10
84.935603
20
42.257434
11
85.402891
21
42.084974
0
LINE
8
Image
10
85.402891
20
42.084974
11
86.910418
21
40.744028
0
LINE
8
Image
10
86.910418
20
40.744028
11
88.017991
21
39.501446
0
LINE
8
Image
10
88.017991
20
39.501446
11
88.425168
21
38.527217
0
LINE
8
Image
10
88.425168
20
38.527217
11
88.371643
21
38.059114
0
LINE
8
Image
10
88.371643
20
38.059114
11
88.149663
21
37.560156
0
LINE
8
Image
10
88.149663
20
37.560156
11
87.209195
21
36.339078
0
LINE
8
Image
10
87.209195
20
36.339078
11
86.009881
21
35.269884
0
LINE
8
Image
10
86.009881
20
35.269884
11
84.263411
21
34.047259
0
LINE
8
Image
10
84.263411
20
34.047259
11
82.313483
21
32.892279
0
LINE
8
Image
10
82.313483
20
32.892279
11
80.503795
21
32.026018
0
LINE
8
Image
10
80.503795
20
32.026018
11
79.541217
21
31.501475
0
LINE
8
Image
10
79.541217
20
31.501475
11
79.355696
21
31.209695
0
LINE
8
Image
10
79.355696
20
31.209695
11
79.304355
21
30.835728
0
LINE
8
Image
10
79.304355
20
30.835728
11
79.381408
21
30.452103
0
LINE
8
Image
10
79.381408
20
30.452103
11
79.610090
21
30.237897
0
LINE
8
Image
10
79.610090
20
30.237897
11
79.986683
21
30.191830
0
LINE
8
Image
10
79.986683
20
30.191830
11
80.507471
21
30.312621
0
LINE
8
Image
10
80.507471
20
30.312621
11
81.966762
21
31.049658
0
LINE
8
Image
10
81.966762
20
31.049658
11
83.958225
21
32.438768
0
LINE
8
Image
10
83.958225
20
32.438768
11
86.084312
21
34.153657
0
LINE
8
Image
10
86.084312
20
34.153657
11
87.678021
21
35.674417
0
LINE
8
Image
10
87.678021
20
35.674417
11
88.835135
21
37.103765
0
LINE
8
Image
10
88.835135
20
37.103765
11
89.651435
21
38.544418
0
LINE
8
Image
10
89.651435
20
38.544418
11
90.556651
21
40.075518
0
LINE
8
Image
10
90.556651
20
40.075518
11
91.816161
21
38.994838
0
LINE
8
Image
10
91.816161
20
38.994838
11
92.871421
21
37.914158
0
LINE
8
Image
10
92.871421
20
37.914158
11
94.217591
21
38.580368
0
LINE
8
Image
10
94.217591
20
38.580368
11
95.480168
21
39.101485
0
LINE
8
Image
10
95.480168
20
39.101485
11
96.625361
21
39.418855
0
LINE
8
Image
10
96.625361
20
39.418855
11
97.236453
21
39.478616
0
LINE
8
Image
10
97.236453
20
39.478616
11
97.718478
21
39.370787
0
LINE
8
Image
10
97.718478
20
39.370787
11
98.950461
21
38.351665
0
LINE
8
Image
10
98.950461
20
38.351665
11
99.793798
21
37.398508
0
LINE
8
Image
10
99.793798
20
37.398508
11
99.992769
21
36.988717
0
LINE
8
Image
10
99.992769
20
36.988717
11
100.039977
21
36.575771
0
LINE
8
Image
10
100.039977
20
36.575771
11
99.669206
21
35.597374
0
LINE
8
Image
10
99.669206
20
35.597374
11
98.661697
21
34.177235
0
LINE
8
Image
10
98.661697
20
34.177235
11
97.065780
21
31.818077
0
LINE
8
Image
10
97.065780
20
31.818077
11
96.654548
21
30.971016
0
LINE
8
Image
10
96.654548
20
30.971016
11
96.573307
21
30.473625
0
LINE
8
Image
10
96.573307
20
30.473625
11
96.827185
21
30.350529
0
LINE
8
Image
10
96.827185
20
30.350529
11
97.342290
21
30.533713
0
LINE
8
Image
10
97.342290
20
30.533713
11
98.908776
21
31.617958
0
LINE
8
Image
10
98.908776
20
31.617958
11
100.777955
21
33.324433
0
LINE
8
Image
10
100.777955
20
33.324433
11
102.455017
21
35.251215
0
LINE
8
Image
10
102.455017
20
35.251215
11
103.153989
21
35.996524
0
LINE
8
Image
10
103.153989
20
35.996524
11
103.438412
21
36.025146
0
LINE
8
Image
10
103.438412
20
36.025146
11
103.792237
21
35.877206
0
LINE
8
Image
10
103.792237
20
35.877206
11
104.338499
21
35.399709
0
LINE
8
Image
10
104.338499
20
35.399709
11
104.603782
21
34.736275
0
LINE
8
Image
10
104.603782
20
34.736275
11
104.578860
21
33.942817
0
LINE
8
Image
10
104.578860
20
33.942817
11
104.254508
21
33.075246
0
LINE
8
Image
10
104.254508
20
33.075246
11
103.282504
21
31.714341
0
LINE
8
Image
10
103.282504
20
31.714341
11
101.847333
21
30.170813
0
LINE
8
Image
10
101.847333
20
30.170813
11
100.309533
21
28.798297
0
LINE
8
Image
10
100.309533
20
28.798297
11
99.029638
21
27.950426
0
LINE
8
Image
10
99.029638
20
27.950426
11
97.809259
21
27.490124
0
LINE
8
Image
10
97.809259
20
27.490124
11
96.876618
21
27.438570
0
LINE
8
Image
10
96.876618
20
27.438570
11
96.019982
21
27.836783
0
LINE
8
Image
10
96.019982
20
27.836783
11
95.027618
21
28.725786
0
LINE
8
Image
10
95.027618
20
28.725786
11
94.053795
21
29.925159
0
LINE
8
Image
10
94.053795
20
29.925159
11
93.681443
21
31.070323
0
LINE
8
Image
10
93.681443
20
31.070323
11
93.896677
21
32.377994
0
LINE
8
Image
10
93.896677
20
32.377994
11
94.685616
21
34.064886
0
LINE
8
Image
10
94.685616
20
34.064886
11
95.417503
21
35.526172
0
LINE
8
Image
10
95.417503
20
35.526172
11
95.354620
21
35.659367
0
LINE
8
Image
10
95.354620
20
35.659367
11
95.038394
21
35.529346
0
LINE
8
Image
10
95.038394
20
35.529346
11
93.691368
21
34.385681
0
LINE
8
Image
10
93.691368
20
34.385681
11
91.344704
21
32.103466
0
LINE
8
Image
10
91.344704
20
32.103466
11
88.286174
21
29.010466
0
LINE
8
Image
10
88.286174
20
29.010466
11
87.534707
21
29.727962
0
LINE
8
Image
10
87.534707
20
29.727962
11
86.783237
21
30.445461
0
LINE
8
Image
10
86.783237
20
30.445461
11
85.152817
21
29.223791
0
LINE
8
Image
10
85.152817
20
29.223791
11
83.092207
21
27.881299
0
LINE
8
Image
10
83.092207
20
27.881299
11
82.246960
21
27.542580
0
LINE
8
Image
10
82.246960
20
27.542580
11
81.473766
21
27.425064
0
LINE
8
Image
10
81.473766
20
27.425064
11
80.734136
21
27.528391
0
LINE
8
Image
10
80.734136
20
27.528391
11
79.989580
21
27.852199
0
LINE
8
Image
10
79.989580
20
27.852199
11
78.331737
21
29.159817
0
LINE
8
Image
10
78.331737
20
29.159817
11
77.224805
21
30.335815
0
LINE
8
Image
10
77.224805
20
30.335815
11
76.764400
21
31.081700
0
LINE
8
Image
10
76.764400
20
31.081700
11
76.589078
21
31.550157
0
LINE
8
Image
10
76.589078
20
31.550157
11
76.167557
21
32.059015
0
LINE
8
Image
10
76.167557
20
32.059015
11
75.811947
21
32.351766
0
LINE
8
Image
10
75.811947
20
32.351766
11
75.551961
21
32.401852
0
LINE
8
Image
10
75.551961
20
32.401852
11
74.827007
21
31.608868
0
LINE
8
Image
10
74.827007
20
31.608868
11
72.946041
21
29.365246
0
LINE
8
Image
10
72.946041
20
29.365246
11
71.013058
21
27.504956
0
LINE
8
Image
10
71.013058
20
27.504956
11
69.206970
21
26.180394
0
LINE
8
Image
10
69.206970
20
26.180394
11
67.706687
21
25.543958
0
LINE
8
Image
10
67.706687
20
25.543958
11
67.127917
21
25.483585
0
LINE
8
Image
10
67.127917
20
25.483585
11
66.636703
21
25.635931
0
LINE
8
Image
10
66.636703
20
25.635931
11
65.134337
21
27.031278
0
LINE
8
Image
10
65.134337
20
27.031278
11
63.540567
21
28.702178
0
LINE
8
Image
10
63.540567
20
28.702178
11
61.615267
21
28.046144
0
LINE
8
Image
10
61.615267
20
28.046144
11
59.803713
21
27.541664
0
LINE
8
Image
10
59.803713
20
27.541664
11
58.321523
21
27.385583
0
LINE
8
Image
10
58.321523
20
27.385583
11
57.123922
21
27.578516
0
LINE
8
Image
10
57.123922
20
27.578516
11
56.166137
21
28.121080
0
LINE
8
Image
10
56.166137
20
28.121080
11
55.280115
21
28.866620
0
LINE
8
Image
10
55.280115
20
28.866620
11
54.380597
21
28.200223
0
LINE
8
Image
10
54.380597
20
28.200223
11
50.069207
21
25.094770
0
LINE
8
Image
10
50.069207
20
25.094770
11
46.497351
21
22.704163
0
LINE
8
Image
10
46.497351
20
22.704163
11
43.809592
21
21.120195
0
LINE
8
Image
10
43.809592
20
21.120195
11
42.150497
21
20.434663
0
LINE
8
Image
10
42.150497
20
20.434663
11
41.207051
21
20.397115
0
LINE
8
Image
10
41.207051
20
20.397115
11
40.293744
21
20.662381
0
LINE
8
Image
10
40.293744
20
20.662381
11
39.368501
21
21.249978
0
LINE
8
Image
10
39.368501
20
21.249978
11
38.389247
21
22.179423
0
LINE
8
Image
10
38.389247
20
22.179423
11
37.445581
21
23.435553
0
LINE
8
Image
10
37.445581
20
23.435553
11
37.289907
21
24.019535
0
LINE
8
Image
10
37.289907
20
24.019535
11
37.253300
21
24.784400
0
LINE
8
Image
10
37.253300
20
24.784400
11
37.516601
21
26.866231
0
LINE
8
Image
10
37.516601
20
26.866231
11
38.260750
21
29.210000
0
LINE
8
Image
10
38.260750
20
29.210000
11
38.139305
21
29.231571
0
LINE
8
Image
10
38.139305
20
29.231571
11
37.639626
21
28.873050
0
LINE
8
Image
10
37.639626
20
28.873050
11
35.825230
21
27.270310
0
LINE
8
Image
10
35.825230
20
27.270310
11
31.637288
21
23.653443
0
LINE
8
Image
10
31.637288
20
23.653443
11
27.535229
21
20.719689
0
LINE
8
Image
10
27.535229
20
20.719689
11
23.701863
21
18.585792
0
LINE
8
Image
10
23.701863
20
18.585792
11
21.943068
21
17.855274
0
LINE
8
Image
10
21.943068
20
17.855274
11
20.320000
21
17.368500
0
LINE
8
Image
10
20.320000
20
17.368500
11
18.725665
21
17.104271
0
LINE
8
Image
10
18.725665
20
17.104271
11
16.973371
21
16.983272
0
LINE
8
Image
10
16.973371
20
16.983272
11
15.306895
21
17.012077
0
LINE
8
Image
10
15.306895
20
17.012077
11
13.970010
21
17.197259
0
LINE
8
Image
10
13.970010
20
17.197259
11
13.970000
21
17.197200
0
LINE
8
Image
10
63.397600
20
39.107200
11
63.668728
21
39.658668
0
LINE
8
Image
10
63.668728
20
39.658668
11
63.673133
21
39.996402
0
LINE
8
Image
10
63.673133
20
39.996402
11
63.144204
21
39.959060
0
LINE
8
Image
10
63.144204
20
39.959060
11
62.162489
21
39.524722
0
LINE
8
Image
10
62.162489
20
39.524722
11
61.006328
21
38.839188
0
LINE
8
Image
10
61.006328
20
38.839188
11
59.954063
21
38.048262
0
LINE
8
Image
10
59.954063
20
38.048262
11
58.243177
21
36.066835
0
LINE
8
Image
10
58.243177
20
36.066835
11
57.564913
21
35.032649
0
LINE
8
Image
10
57.564913
20
35.032649
11
57.291103
21
34.365472
0
LINE
8
Image
10
57.291103
20
34.365472
11
58.173858
21
34.836867
0
LINE
8
Image
10
58.173858
20
34.836867
11
60.153992
21
36.303094
0
LINE
8
Image
10
60.153992
20
36.303094
11
62.229306
21
37.985942
0
LINE
8
Image
10
62.229306
20
37.985942
11
63.397603
21
39.107202
0
LINE
8
Image
10
63.397603
20
39.107202
11
63.397600
21
39.107200
0
LINE
8
Image
10
85.125700
20
38.286165
11
85.307155
21
38.715568
0
LINE
8
Image
10
85.307155
20
38.715568
11
85.235474
21
38.886550
0
LINE
8
Image
10
85.235474
20
38.886550
11
84.639674
21
38.858796
0
LINE
8
Image
10
84.639674
20
38.858796
11
83.581491
21
38.414657
0
LINE
8
Image
10
83.581491
20
38.414657
11
82.327982
21
37.443417
0
LINE
8
Image
10
82.327982
20
37.443417
11
81.245431
21
36.245223
0
LINE
8
Image
10
81.245431
20
36.245223
11
80.700124
21
35.120226
0
LINE
8
Image
10
80.700124
20
35.120226
11
80.846792
21
35.090236
0
LINE
8
Image
10
80.846792
20
35.090236
11
81.280171
21
35.286526
0
LINE
8
Image
10
81.280171
20
35.286526
11
82.665941
21
36.148662
0
LINE
8
Image
10
82.665941
20
36.148662
11
84.175195
21
37.288065
0
LINE
8
Image
10
84.175195
20
37.288065
11
85.125694
21
38.286166
0
LINE
8
Image
10
85.125694
20
38.286166
11
85.125700
21
38.286165
 0 
ENDSEC
 0 
EOF