999
"DXF R12 Output" (www.mydxf.blogspot.com)
 0 
SECTION
 2 
HEADER
 9 
$ACADVER
 1 
AC1009
 9 
$EXTMIN
 10 
 0 
 20 
 0 
 9 
$EXTMAX
 10 
 8.5 
 20 
 11 
 0 
ENDSEC
 0 
SECTION
 2 
ENTITIES
0
LINE
8
Image
10
46.276300
20
9.464100
11
44.450010
21
11.308180
0
LINE
8
Image
10
44.450010
20
11.308180
11
44.487520
21
13.062430
0
LINE
8
Image
10
44.487520
20
13.062430
11
44.737084
21
14.967206
0
LINE
8
Image
10
44.737084
20
14.967206
11
45.396567
21
17.372905
0
LINE
8
Image
10
45.396567
20
17.372905
11
46.436326
21
20.188442
0
LINE
8
Image
10
46.436326
20
20.188442
11
47.826720
21
23.322730
0
LINE
8
Image
10
47.826720
20
23.322730
11
49.049305
21
25.731357
0
LINE
8
Image
10
49.049305
20
25.731357
11
50.297543
21
27.847200
0
LINE
8
Image
10
50.297543
20
27.847200
11
51.669729
21
29.823776
0
LINE
8
Image
10
51.669729
20
29.823776
11
53.264160
21
31.814600
0
LINE
8
Image
10
53.264160
20
31.814600
11
54.691700
21
33.737900
0
LINE
8
Image
10
54.691700
20
33.737900
11
53.540080
21
33.528737
0
LINE
8
Image
10
53.540080
20
33.528737
11
52.924034
21
33.373656
0
LINE
8
Image
10
52.924034
20
33.373656
11
52.444248
21
33.420726
0
LINE
8
Image
10
52.444248
20
33.420726
11
51.062440
21
34.420386
0
LINE
8
Image
10
51.062440
20
34.420386
11
49.626020
21
35.631596
0
LINE
8
Image
10
49.626020
20
35.631596
11
47.884680
21
33.772776
0
LINE
8
Image
10
47.884680
20
33.772776
11
46.338524
21
32.328880
0
LINE
8
Image
10
46.338524
20
32.328880
11
45.066450
21
31.467636
0
LINE
8
Image
10
45.066450
20
31.467636
11
44.012911
21
31.169552
0
LINE
8
Image
10
44.012911
20
31.169552
11
43.072330
21
31.588198
0
LINE
8
Image
10
43.072330
20
31.588198
11
41.636040
21
32.728628
0
LINE
8
Image
10
41.636040
20
32.728628
11
40.918600
21
33.302200
0
LINE
8
Image
10
40.918600
20
33.302200
11
39.716550
21
31.676100
0
LINE
8
Image
10
39.716550
20
31.676100
11
37.938861
21
29.231195
0
LINE
8
Image
10
37.938861
20
29.231195
11
35.783734
21
26.999919
0
LINE
8
Image
10
35.783734
20
26.999919
11
33.314397
21
25.016902
0
LINE
8
Image
10
33.314397
20
25.016902
11
30.594081
21
23.316775
0
LINE
8
Image
10
30.594081
20
23.316775
11
27.686014
21
21.934170
0
LINE
8
Image
10
27.686014
20
21.934170
11
24.653426
21
20.903719
0
LINE
8
Image
10
24.653426
20
20.903719
11
21.559545
21
20.260052
0
LINE
8
Image
10
21.559545
20
20.260052
11
18.467600
21
20.037800
0
LINE
8
Image
10
18.467600
20
20.037800
11
15.133298
21
20.283661
0
LINE
8
Image
10
15.133298
20
20.283661
11
13.684390
21
20.620341
0
LINE
8
Image
10
13.684390
20
20.620341
11
12.322638
21
21.125613
0
LINE
8
Image
10
12.322638
20
21.125613
11
11.004287
21
21.819045
0
LINE
8
Image
10
11.004287
20
21.819045
11
9.685583
21
22.720208
0
LINE
8
Image
10
9.685583
20
22.720208
11
6.872100
21
25.224000
0
LINE
8
Image
10
6.872100
20
25.224000
11
4.395290
21
27.888613
0
LINE
8
Image
10
4.395290
20
27.888613
11
3.866767
21
28.774964
0
LINE
8
Image
10
3.866767
20
28.774964
11
3.520240
21
29.758000
0
LINE
8
Image
10
3.520240
20
29.758000
11
3.218611
21
31.151779
0
LINE
8
Image
10
3.218611
20
31.151779
11
3.134921
21
32.538272
0
LINE
8
Image
10
3.134921
20
32.538272
11
3.276428
21
33.939010
0
LINE
8
Image
10
3.276428
20
33.939010
11
3.650387
21
35.375525
0
LINE
8
Image
10
3.650387
20
35.375525
11
4.264058
21
36.869350
0
LINE
8
Image
10
4.264058
20
36.869350
11
5.124695
21
38.442016
0
LINE
8
Image
10
5.124695
20
38.442016
11
7.615900
21
41.910000
0
LINE
8
Image
10
7.615900
20
41.910000
11
10.641800
21
45.665900
0
LINE
8
Image
10
10.641800
20
45.665900
11
11.381056
21
46.599603
0
LINE
8
Image
10
11.381056
20
46.599603
11
9.656986
21
48.347013
0
LINE
8
Image
10
9.656986
20
48.347013
11
8.351923
21
49.814489
0
LINE
8
Image
10
8.351923
20
49.814489
11
7.635330
21
50.888900
0
LINE
8
Image
10
7.635330
20
50.888900
11
7.376633
21
52.241331
0
LINE
8
Image
10
7.376633
20
52.241331
11
7.347307
21
54.046425
0
LINE
8
Image
10
7.347307
20
54.046425
11
7.532710
21
55.955731
0
LINE
8
Image
10
7.532710
20
55.955731
11
7.918200
21
57.620800
0
LINE
8
Image
10
7.918200
20
57.620800
11
8.922848
21
59.914319
0
LINE
8
Image
10
8.922848
20
59.914319
11
10.322039
21
62.097325
0
LINE
8
Image
10
10.322039
20
62.097325
11
12.049620
21
64.116944
0
LINE
8
Image
10
12.049620
20
64.116944
11
14.039438
21
65.920300
0
LINE
8
Image
10
14.039438
20
65.920300
11
16.225338
21
67.454519
0
LINE
8
Image
10
16.225338
20
67.454519
11
18.541167
21
68.666725
0
LINE
8
Image
10
18.541167
20
68.666725
11
20.920772
21
69.504044
0
LINE
8
Image
10
20.920772
20
69.504044
11
23.298000
21
69.913600
0
LINE
8
Image
10
23.298000
20
69.913600
11
25.176861
21
69.871231
0
LINE
8
Image
10
25.176861
20
69.871231
11
26.876537
21
69.367050
0
LINE
8
Image
10
26.876537
20
69.367050
11
28.620670
21
68.298944
0
LINE
8
Image
10
28.620670
20
68.298944
11
30.632900
21
66.564800
0
LINE
8
Image
10
30.632900
20
66.564800
11
32.470225
21
64.709003
0
LINE
8
Image
10
32.470225
20
64.709003
11
33.637650
21
63.201075
0
LINE
8
Image
10
33.637650
20
63.201075
11
34.252250
21
61.853384
0
LINE
8
Image
10
34.252250
20
61.853384
11
34.431100
21
60.478300
0
LINE
8
Image
10
34.431100
20
60.478300
11
34.345026
21
59.504319
0
LINE
8
Image
10
34.345026
20
59.504319
11
34.099120
21
58.519822
0
LINE
8
Image
10
34.099120
20
58.519822
11
33.201690
21
56.634974
0
LINE
8
Image
10
33.201690
20
56.634974
11
31.886578
21
55.055149
0
LINE
8
Image
10
31.886578
20
55.055149
11
31.118568
21
54.451930
0
LINE
8
Image
10
31.118568
20
54.451930
11
30.301550
21
54.011740
0
LINE
8
Image
10
30.301550
20
54.011740
11
29.470468
21
53.720841
0
LINE
8
Image
10
29.470468
20
53.720841
11
28.831710
21
53.654135
0
LINE
8
Image
10
28.831710
20
53.654135
11
28.292140
21
53.819412
0
LINE
8
Image
10
28.292140
20
53.819412
11
27.758620
21
54.224465
0
LINE
8
Image
10
27.758620
20
54.224465
11
27.117500
21
54.826700
0
LINE
8
Image
10
27.117500
20
54.826700
11
28.087800
21
56.010800
0
LINE
8
Image
10
28.087800
20
56.010800
11
28.998554
21
57.305550
0
LINE
8
Image
10
28.998554
20
57.305550
11
29.695401
21
58.698693
0
LINE
8
Image
10
29.695401
20
58.698693
11
30.169583
21
60.168811
0
LINE
8
Image
10
30.169583
20
60.168811
11
30.412340
21
61.694490
0
LINE
8
Image
10
30.412340
20
61.694490
11
30.471118
21
63.232970
0
LINE
8
Image
10
30.471118
20
63.232970
11
30.321070
21
64.261551
0
LINE
8
Image
10
30.321070
20
64.261551
11
29.915825
21
64.921225
0
LINE
8
Image
10
29.915825
20
64.921225
11
29.209010
21
65.352980
0
LINE
8
Image
10
29.209010
20
65.352980
11
27.878651
21
65.667053
0
LINE
8
Image
10
27.878651
20
65.667053
11
26.146581
21
65.741794
0
LINE
8
Image
10
26.146581
20
65.741794
11
24.272621
21
65.583242
0
LINE
8
Image
10
24.272621
20
65.583242
11
22.516590
21
65.197436
0
LINE
8
Image
10
22.516590
20
65.197436
11
20.268256
21
64.278213
0
LINE
8
Image
10
20.268256
20
64.278213
11
18.151960
21
62.985060
0
LINE
8
Image
10
18.151960
20
62.985060
11
16.223411
21
61.387466
0
LINE
8
Image
10
16.223411
20
61.387466
11
14.538319
21
59.554922
0
LINE
8
Image
10
14.538319
20
59.554922
11
13.152391
21
57.556918
0
LINE
8
Image
10
13.152391
20
57.556918
11
12.121338
21
55.462942
0
LINE
8
Image
10
12.121338
20
55.462942
11
11.500868
21
53.342485
0
LINE
8
Image
10
11.500868
20
53.342485
11
11.346690
21
51.265036
0
LINE
8
Image
10
11.346690
20
51.265036
11
11.430000
21
49.530000
0
LINE
8
Image
10
11.430000
20
49.530000
11
12.899300
21
49.607800
0
LINE
8
Image
10
12.899300
20
49.607800
11
14.375793
21
49.865423
0
LINE
8
Image
10
14.375793
20
49.865423
11
15.862630
21
50.381154
0
LINE
8
Image
10
15.862630
20
50.381154
11
17.787570
21
51.079460
0
LINE
8
Image
10
17.787570
20
51.079460
11
18.667727
21
50.501131
0
LINE
8
Image
10
18.667727
20
50.501131
11
20.178750
21
49.106800
0
LINE
8
Image
10
20.178750
20
49.106800
11
21.812335
21
47.320259
0
LINE
8
Image
10
21.812335
20
47.320259
11
21.866998
21
46.943525
0
LINE
8
Image
10
21.866998
20
46.943525
11
21.582290
21
46.611160
0
LINE
8
Image
10
21.582290
20
46.611160
11
20.774579
21
46.094254
0
LINE
8
Image
10
20.774579
20
46.094254
11
19.614440
21
45.582000
0
LINE
8
Image
10
19.614440
20
45.582000
11
18.749731
21
45.167430
0
LINE
8
Image
10
18.749731
20
45.167430
11
17.734534
21
44.424997
0
LINE
8
Image
10
17.734534
20
44.424997
11
14.383090
21
41.233750
0
LINE
8
Image
10
14.383090
20
41.233750
11
10.839683
21
37.422550
0
LINE
8
Image
10
10.839683
20
37.422550
11
9.584014
21
35.818035
0
LINE
8
Image
10
9.584014
20
35.818035
11
8.637220
21
34.352305
0
LINE
8
Image
10
8.637220
20
34.352305
11
7.972942
21
32.978905
0
LINE
8
Image
10
7.972942
20
32.978905
11
7.564819
21
31.651383
0
LINE
8
Image
10
7.564819
20
31.651383
11
7.386492
21
30.323282
0
LINE
8
Image
10
7.386492
20
30.323282
11
7.411600
21
28.948150
0
LINE
8
Image
10
7.411600
20
28.948150
11
7.620816
21
27.389422
0
LINE
8
Image
10
7.620816
20
27.389422
11
8.020181
21
26.346671
0
LINE
8
Image
10
8.020181
20
26.346671
11
8.739384
21
25.614062
0
LINE
8
Image
10
8.739384
20
25.614062
11
9.908110
21
24.985760
0
LINE
8
Image
10
9.908110
20
24.985760
11
12.616354
21
24.030072
0
LINE
8
Image
10
12.616354
20
24.030072
11
15.452835
21
23.541310
0
LINE
8
Image
10
15.452835
20
23.541310
11
18.438678
21
23.517615
0
LINE
8
Image
10
18.438678
20
23.517615
11
21.595010
21
23.957130
0
LINE
8
Image
10
21.595010
20
23.957130
11
24.461096
21
24.710536
0
LINE
8
Image
10
24.461096
20
24.710536
11
27.139039
21
25.744922
0
LINE
8
Image
10
27.139039
20
25.744922
11
29.618750
21
27.052352
0
LINE
8
Image
10
29.618750
20
27.052352
11
31.890144
21
28.624891
0
LINE
8
Image
10
31.890144
20
28.624891
11
33.943133
21
30.454604
0
LINE
8
Image
10
33.943133
20
30.454604
11
35.767632
21
32.533555
0
LINE
8
Image
10
35.767632
20
32.533555
11
37.353553
21
34.853809
0
LINE
8
Image
10
37.353553
20
34.853809
11
38.690810
21
37.407430
0
LINE
8
Image
10
38.690810
20
37.407430
11
40.679823
21
42.635505
0
LINE
8
Image
10
40.679823
20
42.635505
11
42.327120
21
48.037130
0
LINE
8
Image
10
42.327120
20
48.037130
11
43.031907
21
50.506570
0
LINE
8
Image
10
43.031907
20
50.506570
11
43.334454
21
50.763835
0
LINE
8
Image
10
43.334454
20
50.763835
11
43.769347
21
50.686296
0
LINE
8
Image
10
43.769347
20
50.686296
11
45.276577
21
49.409290
0
LINE
8
Image
10
45.276577
20
49.409290
11
46.414416
21
48.062769
0
LINE
8
Image
10
46.414416
20
48.062769
11
46.543731
21
47.555598
0
LINE
8
Image
10
46.543731
20
47.555598
11
46.498677
21
46.917090
0
LINE
8
Image
10
46.498677
20
46.917090
11
45.794878
21
44.777980
0
LINE
8
Image
10
45.794878
20
44.777980
11
44.310227
21
41.181730
0
LINE
8
Image
10
44.310227
20
41.181730
11
42.282006
21
36.220509
0
LINE
8
Image
10
42.282006
20
36.220509
11
42.101792
21
35.261624
0
LINE
8
Image
10
42.101792
20
35.261624
11
42.187178
21
35.057081
0
LINE
8
Image
10
42.187178
20
35.057081
11
42.376997
21
34.995600
0
LINE
8
Image
10
42.376997
20
34.995600
11
42.932705
21
35.204951
0
LINE
8
Image
10
42.932705
20
35.204951
11
43.744127
21
35.780945
0
LINE
8
Image
10
43.744127
20
35.780945
11
45.830521
21
37.720499
0
LINE
8
Image
10
45.830521
20
37.720499
11
48.028993
21
40.189544
0
LINE
8
Image
10
48.028993
20
40.189544
11
49.732357
21
42.563360
0
LINE
8
Image
10
49.732357
20
42.563360
11
50.814304
21
44.017840
0
LINE
8
Image
10
50.814304
20
44.017840
11
52.222587
21
45.102750
0
LINE
8
Image
10
52.222587
20
45.102750
11
53.605178
21
45.783899
0
LINE
8
Image
10
53.605178
20
45.783899
11
54.752012
21
45.894480
0
LINE
8
Image
10
54.752012
20
45.894480
11
55.879054
21
45.397824
0
LINE
8
Image
10
55.879054
20
45.397824
11
57.202267
21
44.257261
0
LINE
8
Image
10
57.202267
20
44.257261
11
58.702177
21
42.502311
0
LINE
8
Image
10
58.702177
20
42.502311
11
59.308043
21
41.583724
0
LINE
8
Image
10
59.308043
20
41.583724
11
59.733849
21
40.976029
0
LINE
8
Image
10
59.733849
20
40.976029
11
59.545784
21
40.495234
0
LINE
8
Image
10
59.545784
20
40.495234
11
59.195389
21
40.228606
0
LINE
8
Image
10
59.195389
20
40.228606
11
58.883471
21
40.345851
0
LINE
8
Image
10
58.883471
20
40.345851
11
58.523733
21
40.606748
0
LINE
8
Image
10
58.523733
20
40.606748
11
58.295735
21
40.498116
0
LINE
8
Image
10
58.295735
20
40.498116
11
58.149307
21
39.017261
0
LINE
8
Image
10
58.149307
20
39.017261
11
58.160878
21
37.394481
0
LINE
8
Image
10
58.160878
20
37.394481
11
59.222138
21
38.567061
0
LINE
8
Image
10
59.222138
20
38.567061
11
59.842697
21
39.331505
0
LINE
8
Image
10
59.842697
20
39.331505
11
60.266966
21
40.276616
0
LINE
8
Image
10
60.266966
20
40.276616
11
61.222138
21
44.917051
0
LINE
8
Image
10
61.222138
20
44.917051
11
62.948938
21
53.152195
0
LINE
8
Image
10
62.948938
20
53.152195
11
63.932677
21
56.797424
0
LINE
8
Image
10
63.932677
20
56.797424
11
65.098108
21
60.536651
0
LINE
8
Image
10
65.098108
20
60.536651
11
66.716057
21
65.028021
0
LINE
8
Image
10
66.716057
20
65.028021
11
67.291736
21
66.193033
0
LINE
8
Image
10
67.291736
20
66.193033
11
67.787788
21
66.814771
0
LINE
8
Image
10
67.787788
20
66.814771
11
68.080114
21
66.842991
0
LINE
8
Image
10
68.080114
20
66.842991
11
68.527557
21
66.641303
0
LINE
8
Image
10
68.527557
20
66.641303
11
69.648642
21
65.770525
0
LINE
8
Image
10
69.648642
20
65.770525
11
70.672738
21
64.647082
0
LINE
8
Image
10
70.672738
20
64.647082
11
71.121538
21
63.715621
0
LINE
8
Image
10
71.121538
20
63.715621
11
70.371711
21
58.911111
0
LINE
8
Image
10
70.371711
20
58.911111
11
69.746663
21
54.619191
0
LINE
8
Image
10
69.746663
20
54.619191
11
73.644463
21
54.692510
0
LINE
8
Image
10
73.644463
20
54.692510
11
77.415900
21
54.892200
0
LINE
8
Image
10
77.415900
20
54.892200
11
78.068033
21
57.351520
0
LINE
8
Image
10
78.068033
20
57.351520
11
78.732480
21
59.518803
0
LINE
8
Image
10
78.732480
20
59.518803
11
79.474314
21
61.231068
0
LINE
8
Image
10
79.474314
20
61.231068
11
80.349663
21
62.595080
0
LINE
8
Image
10
80.349663
20
62.595080
11
81.414653
21
63.717610
0
LINE
8
Image
10
81.414653
20
63.717610
11
82.607596
21
64.654156
0
LINE
8
Image
10
82.607596
20
64.654156
11
83.525264
21
65.046149
0
LINE
8
Image
10
83.525264
20
65.046149
11
84.322867
21
64.917406
0
LINE
8
Image
10
84.322867
20
64.917406
11
85.155613
21
64.291748
0
LINE
8
Image
10
85.155613
20
64.291748
11
85.679595
21
63.749093
0
LINE
8
Image
10
85.679595
20
63.749093
11
85.955984
21
63.297655
0
LINE
8
Image
10
85.955984
20
63.297655
11
86.044360
21
62.778974
0
LINE
8
Image
10
86.044360
20
62.778974
11
86.004305
21
62.034588
0
LINE
8
Image
10
86.004305
20
62.034588
11
85.580871
21
60.388073
0
LINE
8
Image
10
85.580871
20
60.388073
11
84.703135
21
58.254568
0
LINE
8
Image
10
84.703135
20
58.254568
11
83.657205
21
55.666418
0
LINE
8
Image
10
83.657205
20
55.666418
11
85.568318
21
55.811679
0
LINE
8
Image
10
85.568318
20
55.811679
11
89.755417
21
56.436179
0
LINE
8
Image
10
89.755417
20
56.436179
11
94.466509
21
57.255619
0
LINE
8
Image
10
94.466509
20
57.255619
11
97.949605
21
57.985698
0
LINE
8
Image
10
97.949605
20
57.985698
11
98.388958
21
58.019024
0
LINE
8
Image
10
98.388958
20
58.019024
11
98.872898
21
57.830426
0
LINE
8
Image
10
98.872898
20
57.830426
11
100.489605
21
56.482678
0
LINE
8
Image
10
100.489605
20
56.482678
11
101.926404
21
55.001392
0
LINE
8
Image
10
101.926404
20
55.001392
11
102.088580
21
54.604697
0
LINE
8
Image
10
102.088580
20
54.604697
11
101.988295
21
54.277898
0
LINE
8
Image
10
101.988295
20
54.277898
11
101.653330
21
53.936358
0
LINE
8
Image
10
101.653330
20
53.936358
11
100.906214
21
53.809984
0
LINE
8
Image
10
100.906214
20
53.809984
11
96.378775
21
54.167312
0
LINE
8
Image
10
96.378775
20
54.167312
11
93.031080
21
54.356930
0
LINE
8
Image
10
93.031080
20
54.356930
11
89.524843
21
54.297213
0
LINE
8
Image
10
89.524843
20
54.297213
11
86.121846
21
54.001622
0
LINE
8
Image
10
86.121846
20
54.001622
11
83.083875
21
53.483619
0
LINE
8
Image
10
83.083875
20
53.483619
11
82.586747
21
53.142605
0
LINE
8
Image
10
82.586747
20
53.142605
11
82.102713
21
52.279696
0
LINE
8
Image
10
82.102713
20
52.279696
11
80.984445
21
48.542199
0
LINE
8
Image
10
80.984445
20
48.542199
11
80.482485
21
45.487232
0
LINE
8
Image
10
80.482485
20
45.487232
11
80.233486
21
40.632579
0
LINE
8
Image
10
80.233486
20
40.632579
11
80.212952
21
35.368314
0
LINE
8
Image
10
80.212952
20
35.368314
11
80.544376
21
30.981365
0
LINE
8
Image
10
80.544376
20
30.981365
11
81.311922
21
26.816824
0
LINE
8
Image
10
81.311922
20
26.816824
11
82.599756
21
22.219779
0
LINE
8
Image
10
82.599756
20
22.219779
11
83.336377
21
19.572249
0
LINE
8
Image
10
83.336377
20
19.572249
11
83.417243
21
18.905875
0
LINE
8
Image
10
83.417243
20
18.905875
11
83.325261
21
18.583629
0
LINE
8
Image
10
83.325261
20
18.583629
11
83.131623
21
18.487145
0
LINE
8
Image
10
83.131623
20
18.487145
11
82.882598
21
18.553399
0
LINE
8
Image
10
82.882598
20
18.553399
11
82.125181
21
19.223844
0
LINE
8
Image
10
82.125181
20
19.223844
11
81.366317
21
20.115432
0
LINE
8
Image
10
81.366317
20
20.115432
11
80.729186
21
21.077593
0
LINE
8
Image
10
80.729186
20
21.077593
11
80.177869
21
22.233223
0
LINE
8
Image
10
80.177869
20
22.233223
11
79.676445
21
23.705218
0
LINE
8
Image
10
79.676445
20
23.705218
11
78.679591
21
28.089880
0
LINE
8
Image
10
78.679591
20
28.089880
11
77.451261
21
35.214744
0
LINE
8
Image
10
77.451261
20
35.214744
11
77.300346
21
36.139475
0
LINE
8
Image
10
77.300346
20
36.139475
11
76.435268
21
35.274397
0
LINE
8
Image
10
76.435268
20
35.274397
11
75.548344
21
34.528800
0
LINE
8
Image
10
75.548344
20
34.528800
11
74.540333
21
33.899462
0
LINE
8
Image
10
74.540333
20
33.899462
11
73.557423
21
33.464542
0
LINE
8
Image
10
73.557423
20
33.464542
11
72.745800
21
33.302200
0
LINE
8
Image
10
72.745800
20
33.302200
11
71.801156
21
33.762459
0
LINE
8
Image
10
71.801156
20
33.762459
11
70.292240
21
35.117500
0
LINE
8
Image
10
70.292240
20
35.117500
11
68.493080
21
36.932800
0
LINE
8
Image
10
68.493080
20
36.932800
11
68.673620
21
40.409170
0
LINE
8
Image
10
68.673620
20
40.409170
11
68.854163
21
43.885540
0
LINE
8
Image
10
68.854163
20
43.885540
11
68.061514
21
42.968341
0
LINE
8
Image
10
68.061514
20
42.968341
11
66.989282
21
41.417493
0
LINE
8
Image
10
66.989282
20
41.417493
11
65.784315
21
39.186410
0
LINE
8
Image
10
65.784315
20
39.186410
11
64.608893
21
36.603289
0
LINE
8
Image
10
64.608893
20
36.603289
11
63.625294
21
33.996331
0
LINE
8
Image
10
63.625294
20
33.996331
11
62.341094
21
30.632961
0
LINE
8
Image
10
62.341094
20
30.632961
11
62.130210
21
30.621691
0
LINE
8
Image
10
62.130210
20
30.621691
11
61.751920
21
30.830476
0
LINE
8
Image
10
61.751920
20
30.830476
11
60.579964
21
31.848281
0
LINE
8
Image
10
60.579964
20
31.848281
11
59.075594
21
33.333961
0
LINE
8
Image
10
59.075594
20
33.333961
11
58.343976
21
32.374759
0
LINE
8
Image
10
58.343976
20
32.374759
11
57.852598
21
31.513875
0
LINE
8
Image
10
57.852598
20
31.513875
11
57.481067
21
30.121284
0
LINE
8
Image
10
57.481067
20
30.121284
11
56.715316
21
23.706659
0
LINE
8
Image
10
56.715316
20
23.706659
11
55.969795
21
18.651162
0
LINE
8
Image
10
55.969795
20
18.651162
11
55.443089
21
16.469559
0
LINE
8
Image
10
55.443089
20
16.469559
11
54.810050
21
14.508734
0
LINE
8
Image
10
54.810050
20
14.508734
11
54.067901
21
12.761200
0
LINE
8
Image
10
54.067901
20
12.761200
11
53.213866
21
11.219468
0
LINE
8
Image
10
53.213866
20
11.219468
11
52.245166
21
9.876051
0
LINE
8
Image
10
52.245166
20
9.876051
11
51.159026
21
8.723459
0
LINE
8
Image
10
51.159026
20
8.723459
11
49.949720
21
7.805643
0
LINE
8
Image
10
49.949720
20
7.805643
11
49.416488
21
7.611212
0
LINE
8
Image
10
49.416488
20
7.611212
11
48.891260
21
7.599107
0
LINE
8
Image
10
48.891260
20
7.599107
11
48.344328
21
7.773834
0
LINE
8
Image
10
48.344328
20
7.773834
11
47.745986
21
8.139899
0
LINE
8
Image
10
47.745986
20
8.139899
11
46.276236
21
9.464066
0
LINE
8
Image
10
46.276236
20
9.464066
11
46.276300
21
9.464100
0
LINE
8
Image
10
49.496680
20
12.134990
11
51.012428
21
13.959268
0
LINE
8
Image
10
51.012428
20
13.959268
11
52.255562
21
16.383362
0
LINE
8
Image
10
52.255562
20
16.383362
11
53.223046
21
19.399796
0
LINE
8
Image
10
53.223046
20
19.399796
11
53.911840
21
23.001090
0
LINE
8
Image
10
53.911840
20
23.001090
11
54.137807
21
26.300290
0
LINE
8
Image
10
54.137807
20
26.300290
11
54.045560
21
27.341710
0
LINE
8
Image
10
54.045560
20
27.341710
11
52.562050
21
25.171400
0
LINE
8
Image
10
52.562050
20
25.171400
11
50.837736
21
22.240150
0
LINE
8
Image
10
50.837736
20
22.240150
11
49.402084
21
18.987640
0
LINE
8
Image
10
49.402084
20
18.987640
11
48.348839
21
15.661660
0
LINE
8
Image
10
48.348839
20
15.661660
11
47.771750
21
12.510000
0
LINE
8
Image
10
47.771750
20
12.510000
11
47.727657
21
11.457089
0
LINE
8
Image
10
47.727657
20
11.457089
11
47.940917
21
11.056559
0
LINE
8
Image
10
47.940917
20
11.056559
11
48.500823
21
11.288996
0
LINE
8
Image
10
48.500823
20
11.288996
11
49.496670
21
12.134989
0
LINE
8
Image
10
49.496670
20
12.134989
11
49.496680
21
12.134990
0
LINE
8
Image
10
54.047520
20
39.870090
11
54.837987
21
41.345550
0
LINE
8
Image
10
54.837987
20
41.345550
11
54.061529
21
40.639995
0
LINE
8
Image
10
54.061529
20
40.639995
11
52.874066
21
39.090049
0
LINE
8
Image
10
52.874066
20
39.090049
11
52.401886
21
38.232472
0
LINE
8
Image
10
52.401886
20
38.232472
11
52.211100
21
37.644200
0
LINE
8
Image
10
52.211100
20
37.644200
11
52.260367
21
37.548725
0
LINE
8
Image
10
52.260367
20
37.548725
11
52.396411
21
37.602775
0
LINE
8
Image
10
52.396411
20
37.602775
11
52.858295
21
38.073950
0
LINE
8
Image
10
52.858295
20
38.073950
11
54.047500
21
39.870120
0
LINE
8
Image
10
54.047500
20
39.870120
11
54.047520
21
39.870090
0
LINE
8
Image
10
74.734020
20
40.349388
11
75.706640
21
41.351911
0
LINE
8
Image
10
75.706640
20
41.351911
11
76.339000
21
41.768900
0
LINE
8
Image
10
76.339000
20
41.768900
11
76.610583
21
41.985145
0
LINE
8
Image
10
76.610583
20
41.985145
11
76.616879
21
42.686122
0
LINE
8
Image
10
76.616879
20
42.686122
11
76.342429
21
46.020881
0
LINE
8
Image
10
76.342429
20
46.020881
11
76.484277
21
49.128862
0
LINE
8
Image
10
76.484277
20
49.128862
11
76.625529
21
51.879632
0
LINE
8
Image
10
76.625529
20
51.879632
11
72.763949
21
51.154862
0
LINE
8
Image
10
72.763949
20
51.154862
11
69.482711
21
50.321606
0
LINE
8
Image
10
69.482711
20
50.321606
11
68.976805
21
49.973871
0
LINE
8
Image
10
68.976805
20
49.973871
11
68.766999
21
49.479042
0
LINE
8
Image
10
68.766999
20
49.479042
11
68.677770
21
48.974366
0
LINE
8
Image
10
68.677770
20
48.974366
11
68.820203
21
48.515759
0
LINE
8
Image
10
68.820203
20
48.515759
11
70.234499
21
47.004042
0
LINE
8
Image
10
70.234499
20
47.004042
11
71.518207
21
45.639420
0
LINE
8
Image
10
71.518207
20
45.639420
11
72.225779
21
44.381162
0
LINE
8
Image
10
72.225779
20
44.381162
11
72.484513
21
42.863584
0
LINE
8
Image
10
72.484513
20
42.863584
11
72.421709
21
40.721002
0
LINE
8
Image
10
72.421709
20
40.721002
11
72.235965
21
38.078542
0
LINE
8
Image
10
72.235965
20
38.078542
11
72.877413
21
38.504223
0
LINE
8
Image
10
72.877413
20
38.504223
11
74.733963
21
40.349403
0
LINE
8
Image
10
74.733963
20
40.349403
11
74.734020
21
40.349388
0
LINE
8
Image
10
65.460700
20
49.600500
11
65.352700
21
49.849688
0
LINE
8
Image
10
65.352700
20
49.849688
11
65.072200
21
49.953300
0
LINE
8
Image
10
65.072200
20
49.953300
11
64.810666
21
49.773885
0
LINE
8
Image
10
64.810666
20
49.773885
11
64.553363
21
49.145600
0
LINE
8
Image
10
64.553363
20
49.145600
11
63.889780
21
46.002190
0
LINE
8
Image
10
63.889780
20
46.002190
11
63.906724
21
45.884120
0
LINE
8
Image
10
63.906724
20
45.884120
11
64.047064
21
46.084211
0
LINE
8
Image
10
64.047064
20
46.084211
11
64.604166
21
47.272190
0
LINE
8
Image
10
64.604166
20
47.272190
11
65.460758
21
49.600520
0
LINE
8
Image
10
65.460758
20
49.600520
11
65.460700
21
49.600500
0
LINE
8
Image
10
66.688470
20
55.315500
11
66.847226
21
56.303277
0
LINE
8
Image
10
66.847226
20
56.303277
11
66.456298
21
55.456611
0
LINE
8
Image
10
66.456298
20
55.456611
11
66.062397
21
54.242166
0
LINE
8
Image
10
66.062397
20
54.242166
11
66.089985
21
53.968299
0
LINE
8
Image
10
66.089985
20
53.968299
11
66.284811
21
54.059611
0
LINE
8
Image
10
66.284811
20
54.059611
11
66.688470
21
55.315501
0
LINE
8
Image
10
66.688470
20
55.315501
11
66.688470
21
55.315500
 0 
ENDSEC
 0 
EOF