999
"DXF R12 Output" (www.mydxf.blogspot.com)
 0 
SECTION
 2 
HEADER
 9 
$ACADVER
 1 
AC1009
 9 
$EXTMIN
 10 
 0 
 20 
 0 
 9 
$EXTMAX
 10 
 8.5 
 20 
 11 
 0 
ENDSEC
 0 
SECTION
 2 
ENTITIES
0
LINE
8
Image
10
29.068900
20
8.643750
11
25.583013
21
9.555905
0
LINE
8
Image
10
25.583013
20
9.555905
11
22.813300
21
10.636000
0
LINE
8
Image
10
22.813300
20
10.636000
11
21.001587
21
11.961228
0
LINE
8
Image
10
21.001587
20
11.961228
11
18.980925
21
13.901175
0
LINE
8
Image
10
18.980925
20
13.901175
11
17.269750
21
15.907609
0
LINE
8
Image
10
17.269750
20
15.907609
11
16.386500
21
17.432300
0
LINE
8
Image
10
16.386500
20
17.432300
11
16.225518
21
18.643453
0
LINE
8
Image
10
16.225518
20
18.643453
11
16.394534
21
19.849803
0
LINE
8
Image
10
16.394534
20
19.849803
11
16.891727
21
21.049164
0
LINE
8
Image
10
16.891727
20
21.049164
11
17.715275
21
22.239350
0
LINE
8
Image
10
17.715275
20
22.239350
11
18.863357
21
23.418173
0
LINE
8
Image
10
18.863357
20
23.418173
11
20.334153
21
24.583447
0
LINE
8
Image
10
20.334153
20
24.583447
11
22.125841
21
25.732985
0
LINE
8
Image
10
22.125841
20
25.732985
11
24.236600
21
26.864600
0
LINE
8
Image
10
24.236600
20
26.864600
11
28.356938
21
28.535550
0
LINE
8
Image
10
28.356938
20
28.535550
11
34.501600
21
30.679900
0
LINE
8
Image
10
34.501600
20
30.679900
11
42.051100
21
33.304300
0
LINE
8
Image
10
42.051100
20
33.304300
11
41.055498
21
34.023750
0
LINE
8
Image
10
41.055498
20
34.023750
11
38.408387
21
35.519225
0
LINE
8
Image
10
38.408387
20
35.519225
11
30.197800
21
39.732900
0
LINE
8
Image
10
30.197800
20
39.732900
11
24.410050
21
42.729750
0
LINE
8
Image
10
24.410050
20
42.729750
11
22.797916
21
43.835550
0
LINE
8
Image
10
22.797916
20
43.835550
11
21.166600
21
45.209400
0
LINE
8
Image
10
21.166600
20
45.209400
11
18.133236
21
48.176902
0
LINE
8
Image
10
18.133236
20
48.176902
11
16.997654
21
49.560364
0
LINE
8
Image
10
16.997654
20
49.560364
11
16.097137
21
50.909288
0
LINE
8
Image
10
16.097137
20
50.909288
11
15.417435
21
52.247913
0
LINE
8
Image
10
15.417435
20
52.247913
11
14.944295
21
53.600480
0
LINE
8
Image
10
14.944295
20
53.600480
11
14.663467
21
54.991229
0
LINE
8
Image
10
14.663467
20
54.991229
11
14.560700
21
56.444400
0
LINE
8
Image
10
14.560700
20
56.444400
11
14.683225
21
58.454450
0
LINE
8
Image
10
14.683225
20
58.454450
11
15.366300
21
60.062800
0
LINE
8
Image
10
15.366300
20
60.062800
11
16.187634
21
61.352921
0
LINE
8
Image
10
16.187634
20
61.352921
11
17.225395
21
62.670992
0
LINE
8
Image
10
17.225395
20
62.670992
11
19.805062
21
65.263388
0
LINE
8
Image
10
19.805062
20
65.263388
11
22.815023
21
67.584789
0
LINE
8
Image
10
22.815023
20
67.584789
11
25.965000
21
69.380000
0
LINE
8
Image
10
25.965000
20
69.380000
11
28.439139
21
70.421983
0
LINE
8
Image
10
28.439139
20
70.421983
11
30.690237
21
71.073413
0
LINE
8
Image
10
30.690237
20
71.073413
11
33.189117
21
71.434686
0
LINE
8
Image
10
33.189117
20
71.434686
11
36.406600
21
71.606200
0
LINE
8
Image
10
36.406600
20
71.606200
11
39.546165
21
71.615450
0
LINE
8
Image
10
39.546165
20
71.615450
11
42.010194
21
71.413836
0
LINE
8
Image
10
42.010194
20
71.413836
11
44.008980
21
70.970988
0
LINE
8
Image
10
44.008980
20
70.970988
11
45.752820
21
70.256540
0
LINE
8
Image
10
45.752820
20
70.256540
11
47.340863
21
69.126059
0
LINE
8
Image
10
47.340863
20
69.126059
11
49.319053
21
67.331325
0
LINE
8
Image
10
49.319053
20
67.331325
11
51.125713
21
65.422017
0
LINE
8
Image
10
51.125713
20
65.422017
11
52.199170
21
63.947820
0
LINE
8
Image
10
52.199170
20
63.947820
11
52.606841
21
62.826961
0
LINE
8
Image
10
52.606841
20
62.826961
11
52.744783
21
61.640106
0
LINE
8
Image
10
52.744783
20
61.640106
11
52.591497
21
60.333069
0
LINE
8
Image
10
52.591497
20
60.333069
11
52.125481
21
58.851664
0
LINE
8
Image
10
52.125481
20
58.851664
11
51.325237
21
57.141703
0
LINE
8
Image
10
51.325237
20
57.141703
11
50.169263
21
55.149000
0
LINE
8
Image
10
50.169263
20
55.149000
11
46.704130
21
50.098620
0
LINE
8
Image
10
46.704130
20
50.098620
11
45.076442
21
48.031483
0
LINE
8
Image
10
45.076442
20
48.031483
11
43.337191
21
46.068528
0
LINE
8
Image
10
43.337191
20
46.068528
11
41.855477
21
44.602638
0
LINE
8
Image
10
41.855477
20
44.602638
11
41.000400
21
44.026700
0
LINE
8
Image
10
41.000400
20
44.026700
11
39.688540
21
45.118340
0
LINE
8
Image
10
39.688540
20
45.118340
11
39.093872
21
45.756552
0
LINE
8
Image
10
39.093872
20
45.756552
11
38.811110
21
46.213890
0
LINE
8
Image
10
38.811110
20
46.213890
11
38.775968
21
46.676358
0
LINE
8
Image
10
38.775968
20
46.676358
11
38.924159
21
47.329960
0
LINE
8
Image
10
38.924159
20
47.329960
11
39.417946
21
48.548143
0
LINE
8
Image
10
39.417946
20
48.548143
11
40.347144
21
50.125034
0
LINE
8
Image
10
40.347144
20
50.125034
11
43.586209
21
54.468910
0
LINE
8
Image
10
43.586209
20
54.468910
11
45.523849
21
57.067878
0
LINE
8
Image
10
45.523849
20
57.067878
11
46.847218
21
59.348564
0
LINE
8
Image
10
46.847218
20
59.348564
11
47.627742
21
61.460078
0
LINE
8
Image
10
47.627742
20
61.460078
11
47.936849
21
63.551530
0
LINE
8
Image
10
47.936849
20
63.551530
11
47.922808
21
65.512353
0
LINE
8
Image
10
47.922808
20
65.512353
11
47.694507
21
65.849348
0
LINE
8
Image
10
47.694507
20
65.849348
11
47.231294
21
66.069250
0
LINE
8
Image
10
47.231294
20
66.069250
11
43.979282
21
67.007323
0
LINE
8
Image
10
43.979282
20
67.007323
11
40.177799
21
67.567944
0
LINE
8
Image
10
40.177799
20
67.567944
11
36.372941
21
67.701280
0
LINE
8
Image
10
36.372941
20
67.701280
11
34.639900
21
67.592144
0
LINE
8
Image
10
34.639900
20
67.592144
11
33.110800
21
67.357500
0
LINE
8
Image
10
33.110800
20
67.357500
11
30.073264
21
66.503366
0
LINE
8
Image
10
30.073264
20
66.503366
11
27.309712
21
65.285575
0
LINE
8
Image
10
27.309712
20
65.285575
11
24.776280
21
63.680747
0
LINE
8
Image
10
24.776280
20
63.680747
11
22.429100
21
61.665500
0
LINE
8
Image
10
22.429100
20
61.665500
11
20.699194
21
59.799119
0
LINE
8
Image
10
20.699194
20
59.799119
11
19.671175
21
58.140225
0
LINE
8
Image
10
19.671175
20
58.140225
11
19.177344
21
56.303694
0
LINE
8
Image
10
19.177344
20
56.303694
11
19.050000
21
53.904400
0
LINE
8
Image
10
19.050000
20
53.904400
11
19.181032
21
51.137616
0
LINE
8
Image
10
19.181032
20
51.137616
11
19.435535
21
50.249375
0
LINE
8
Image
10
19.435535
20
50.249375
11
19.896666
21
49.247740
0
LINE
8
Image
10
19.896666
20
49.247740
11
20.421280
21
48.302083
0
LINE
8
Image
10
20.421280
20
48.302083
11
21.006192
21
47.572476
0
LINE
8
Image
10
21.006192
20
47.572476
11
23.142216
21
45.967780
0
LINE
8
Image
10
23.142216
20
45.967780
11
26.743191
21
43.836488
0
LINE
8
Image
10
26.743191
20
43.836488
11
32.032206
21
40.940340
0
LINE
8
Image
10
32.032206
20
40.940340
11
37.412522
21
37.975799
0
LINE
8
Image
10
37.412522
20
37.975799
11
41.232996
21
35.680070
0
LINE
8
Image
10
41.232996
20
35.680070
11
43.942686
21
33.860620
0
LINE
8
Image
10
43.942686
20
33.860620
11
46.701386
21
34.859229
0
LINE
8
Image
10
46.701386
20
34.859229
11
53.529477
21
37.491714
0
LINE
8
Image
10
53.529477
20
37.491714
11
58.548211
21
39.805264
0
LINE
8
Image
10
58.548211
20
39.805264
11
60.420865
21
40.864323
0
LINE
8
Image
10
60.420865
20
40.864323
11
61.891333
21
41.869911
0
LINE
8
Image
10
61.891333
20
41.869911
11
62.976334
21
42.830782
0
LINE
8
Image
10
62.976334
20
42.830782
11
63.692586
21
43.755689
0
LINE
8
Image
10
63.692586
20
43.755689
11
64.124473
21
44.345711
0
LINE
8
Image
10
64.124473
20
44.345711
11
64.469800
21
44.591100
0
LINE
8
Image
10
64.469800
20
44.591100
11
65.222181
21
44.084520
0
LINE
8
Image
10
65.222181
20
44.084520
11
66.418975
21
42.933437
0
LINE
8
Image
10
66.418975
20
42.933437
11
67.527606
21
41.690836
0
LINE
8
Image
10
67.527606
20
41.690836
11
68.015500
21
40.909700
0
LINE
8
Image
10
68.015500
20
40.909700
11
67.849377
21
40.444699
0
LINE
8
Image
10
67.849377
20
40.444699
11
67.394713
21
39.905925
0
LINE
8
Image
10
67.394713
20
39.905925
11
65.881980
21
38.859090
0
LINE
8
Image
10
65.881980
20
38.859090
11
65.397113
21
38.534704
0
LINE
8
Image
10
65.397113
20
38.534704
11
65.012766
21
38.002894
0
LINE
8
Image
10
65.012766
20
38.002894
11
64.121390
21
35.509970
0
LINE
8
Image
10
64.121390
20
35.509970
11
63.101313
21
31.543852
0
LINE
8
Image
10
63.101313
20
31.543852
11
62.655420
21
28.575010
0
LINE
8
Image
10
62.655420
20
28.575010
11
62.751770
21
28.417980
0
LINE
8
Image
10
62.751770
20
28.417980
11
63.048466
21
28.308078
0
LINE
8
Image
10
63.048466
20
28.308078
11
64.276070
21
28.222455
0
LINE
8
Image
10
64.276070
20
28.222455
11
65.944736
21
28.410729
0
LINE
8
Image
10
65.944736
20
28.410729
11
67.733290
21
29.090293
0
LINE
8
Image
10
67.733290
20
29.090293
11
71.385303
21
31.198099
0
LINE
8
Image
10
71.385303
20
31.198099
11
74.868160
21
33.641313
0
LINE
8
Image
10
74.868160
20
33.641313
11
75.653031
21
34.290003
0
LINE
8
Image
10
75.653031
20
34.290003
11
74.485961
21
35.696893
0
LINE
8
Image
10
74.485961
20
35.696893
11
72.973160
21
37.871360
0
LINE
8
Image
10
72.973160
20
37.871360
11
71.856011
21
40.148821
0
LINE
8
Image
10
71.856011
20
40.148821
11
71.271954
21
42.181095
0
LINE
8
Image
10
71.271954
20
42.181095
11
71.222786
21
42.996481
0
LINE
8
Image
10
71.222786
20
42.996481
11
71.358431
21
43.620003
0
LINE
8
Image
10
71.358431
20
43.620003
11
71.822275
21
44.201543
0
LINE
8
Image
10
71.822275
20
44.201543
11
72.468557
21
44.267779
0
LINE
8
Image
10
72.468557
20
44.267779
11
73.323399
21
43.811930
0
LINE
8
Image
10
73.323399
20
43.811930
11
74.412921
21
42.827216
0
LINE
8
Image
10
74.412921
20
42.827216
11
75.536616
21
41.484876
0
LINE
8
Image
10
75.536616
20
41.484876
11
75.784192
21
40.970811
0
LINE
8
Image
10
75.784192
20
40.970811
11
75.864201
21
40.494046
0
LINE
8
Image
10
75.864201
20
40.494046
11
76.071932
21
39.367711
0
LINE
8
Image
10
76.071932
20
39.367711
11
76.545114
21
37.874870
0
LINE
8
Image
10
76.545114
20
37.874870
11
77.091177
21
36.548211
0
LINE
8
Image
10
77.091177
20
36.548211
11
77.517551
21
35.920426
0
LINE
8
Image
10
77.517551
20
35.920426
11
78.318325
21
36.482631
0
LINE
8
Image
10
78.318325
20
36.482631
11
79.892572
21
38.025436
0
LINE
8
Image
10
79.892572
20
38.025436
11
83.522951
21
42.146696
0
LINE
8
Image
10
83.522951
20
42.146696
11
84.671106
21
43.474450
0
LINE
8
Image
10
84.671106
20
43.474450
11
85.357000
21
44.026700
0
LINE
8
Image
10
85.357000
20
44.026700
11
86.062108
21
43.557105
0
LINE
8
Image
10
86.062108
20
43.557105
11
87.161237
21
42.487237
0
LINE
8
Image
10
87.161237
20
42.487237
11
88.173423
21
41.325477
0
LINE
8
Image
10
88.173423
20
41.325477
11
88.617700
21
40.580200
0
LINE
8
Image
10
88.617700
20
40.580200
11
87.496150
21
39.184123
0
LINE
8
Image
10
87.496150
20
39.184123
11
84.799660
21
36.355330
0
LINE
8
Image
10
84.799660
20
36.355330
11
80.981610
21
32.506260
0
LINE
8
Image
10
80.981610
20
32.506260
11
82.471320
21
31.992737
0
LINE
8
Image
10
82.471320
20
31.992737
11
84.128729
21
31.616539
0
LINE
8
Image
10
84.128729
20
31.616539
11
86.077700
21
31.479099
0
LINE
8
Image
10
86.077700
20
31.479099
11
87.651089
21
31.565978
0
LINE
8
Image
10
87.651089
20
31.565978
11
88.911839
21
31.902366
0
LINE
8
Image
10
88.911839
20
31.902366
11
90.131352
21
32.601583
0
LINE
8
Image
10
90.131352
20
32.601583
11
91.581030
21
33.776949
0
LINE
8
Image
10
91.581030
20
33.776949
11
92.709766
21
34.676646
0
LINE
8
Image
10
92.709766
20
34.676646
11
93.574338
21
35.130694
0
LINE
8
Image
10
93.574338
20
35.130694
11
94.266225
21
35.167966
0
LINE
8
Image
10
94.266225
20
35.167966
11
94.876910
21
34.817339
0
LINE
8
Image
10
94.876910
20
34.817339
11
95.709552
21
33.723198
0
LINE
8
Image
10
95.709552
20
33.723198
11
96.142337
21
32.386323
0
LINE
8
Image
10
96.142337
20
32.386323
11
96.145652
21
30.992160
0
LINE
8
Image
10
96.145652
20
30.992160
11
95.689884
21
29.726159
0
LINE
8
Image
10
95.689884
20
29.726159
11
94.806167
21
28.693419
0
LINE
8
Image
10
94.806167
20
28.693419
11
93.579683
21
27.912630
0
LINE
8
Image
10
93.579683
20
27.912630
11
92.034809
21
27.395214
0
LINE
8
Image
10
92.034809
20
27.395214
11
90.195924
21
27.152589
0
LINE
8
Image
10
90.195924
20
27.152589
11
87.665192
21
27.238982
0
LINE
8
Image
10
87.665192
20
27.238982
11
85.192398
21
27.768371
0
LINE
8
Image
10
85.192398
20
27.768371
11
82.745424
21
28.750624
0
LINE
8
Image
10
82.745424
20
28.750624
11
80.292154
21
30.195609
0
LINE
8
Image
10
80.292154
20
30.195609
11
79.163264
21
30.964170
0
LINE
8
Image
10
79.163264
20
30.964170
11
75.776604
21
28.310610
0
LINE
8
Image
10
75.776604
20
28.310610
11
72.889224
21
26.162053
0
LINE
8
Image
10
72.889224
20
26.162053
11
70.654928
21
24.810249
0
LINE
8
Image
10
70.654928
20
24.810249
11
68.770055
21
24.103435
0
LINE
8
Image
10
68.770055
20
24.103435
11
66.930944
21
23.889850
0
LINE
8
Image
10
66.930944
20
23.889850
11
65.230074
21
23.997573
0
LINE
8
Image
10
65.230074
20
23.997573
11
64.116604
21
24.436477
0
LINE
8
Image
10
64.116604
20
24.436477
11
62.798124
21
25.482084
0
LINE
8
Image
10
62.798124
20
25.482084
11
61.152224
21
27.031406
0
LINE
8
Image
10
61.152224
20
27.031406
11
59.697424
21
28.568341
0
LINE
8
Image
10
59.697424
20
28.568341
11
58.952244
21
29.576787
0
LINE
8
Image
10
58.952244
20
29.576787
11
58.753446
21
30.435616
0
LINE
8
Image
10
58.753446
20
30.435616
11
58.734930
21
31.506683
0
LINE
8
Image
10
58.734930
20
31.506683
11
59.243308
21
34.360557
0
LINE
8
Image
10
59.243308
20
34.360557
11
59.583876
21
35.966628
0
LINE
8
Image
10
59.583876
20
35.966628
11
59.562172
21
36.305593
0
LINE
8
Image
10
59.562172
20
36.305593
11
59.418599
21
36.406667
0
LINE
8
Image
10
59.418599
20
36.406667
11
53.858269
21
34.865856
0
LINE
8
Image
10
53.858269
20
34.865856
11
47.695499
21
32.938787
0
LINE
8
Image
10
47.695499
20
32.938787
11
46.234309
21
32.372830
0
LINE
8
Image
10
46.234309
20
32.372830
11
46.090402
21
32.199309
0
LINE
8
Image
10
46.090402
20
32.199309
11
46.258913
21
31.823279
0
LINE
8
Image
10
46.258913
20
31.823279
11
47.750729
21
30.143940
0
LINE
8
Image
10
47.750729
20
30.143940
11
50.088563
21
27.442635
0
LINE
8
Image
10
50.088563
20
27.442635
11
51.608577
21
25.027066
0
LINE
8
Image
10
51.608577
20
25.027066
11
52.064990
21
23.920112
0
LINE
8
Image
10
52.064990
20
23.920112
11
52.320656
21
22.877007
0
LINE
8
Image
10
52.320656
20
22.877007
11
52.376811
21
21.895222
0
LINE
8
Image
10
52.376811
20
21.895222
11
52.234689
21
20.972230
0
LINE
8
Image
10
52.234689
20
20.972230
11
51.389270
21
19.083836
0
LINE
8
Image
10
51.389270
20
19.083836
11
49.849723
21
17.089852
0
LINE
8
Image
10
49.849723
20
17.089852
11
47.633336
21
15.009038
0
LINE
8
Image
10
47.633336
20
15.009038
11
44.757399
21
12.860150
0
LINE
8
Image
10
44.757399
20
12.860150
11
41.664677
21
10.967724
0
LINE
8
Image
10
41.664677
20
10.967724
11
38.767833
21
9.675931
0
LINE
8
Image
10
38.767833
20
9.675931
11
35.860847
21
8.911795
0
LINE
8
Image
10
35.860847
20
8.911795
11
32.737699
21
8.602340
0
LINE
8
Image
10
32.737699
20
8.602340
11
29.068809
21
8.643759
0
LINE
8
Image
10
29.068809
20
8.643759
11
29.068900
21
8.643750
0
LINE
8
Image
10
32.148160
20
11.868950
11
35.034223
21
12.566547
0
LINE
8
Image
10
35.034223
20
12.566547
11
37.649231
21
13.708210
0
LINE
8
Image
10
37.649231
20
13.708210
11
40.106929
21
15.356498
0
LINE
8
Image
10
40.106929
20
15.356498
11
42.521060
21
17.573970
0
LINE
8
Image
10
42.521060
20
17.573970
11
44.023481
21
19.230617
0
LINE
8
Image
10
44.023481
20
19.230617
11
45.244861
21
20.792454
0
LINE
8
Image
10
45.244861
20
20.792454
11
46.188205
21
22.267156
0
LINE
8
Image
10
46.188205
20
22.267156
11
46.856519
21
23.662399
0
LINE
8
Image
10
46.856519
20
23.662399
11
47.252807
21
24.985856
0
LINE
8
Image
10
47.252807
20
24.985856
11
47.380074
21
26.245204
0
LINE
8
Image
10
47.380074
20
26.245204
11
47.241327
21
27.448117
0
LINE
8
Image
10
47.241327
20
27.448117
11
46.839570
21
28.602270
0
LINE
8
Image
10
46.839570
20
28.602270
11
46.143763
21
29.745959
0
LINE
8
Image
10
46.143763
20
29.745959
11
45.276530
21
30.781700
0
LINE
8
Image
10
45.276530
20
30.781700
11
44.287229
21
31.740569
0
LINE
8
Image
10
44.287229
20
31.740569
11
42.393039
21
31.085385
0
LINE
8
Image
10
42.393039
20
31.085385
11
35.371155
21
28.364135
0
LINE
8
Image
10
35.371155
20
28.364135
11
29.823539
21
25.805515
0
LINE
8
Image
10
29.823539
20
25.805515
11
27.729322
21
24.520231
0
LINE
8
Image
10
27.729322
20
24.520231
11
25.888481
21
23.167892
0
LINE
8
Image
10
25.888481
20
23.167892
11
24.313116
21
21.763728
0
LINE
8
Image
10
24.313116
20
21.763728
11
23.015324
21
20.322971
0
LINE
8
Image
10
23.015324
20
20.322971
11
22.007205
21
18.860851
0
LINE
8
Image
10
22.007205
20
18.860851
11
21.300857
21
17.392598
0
LINE
8
Image
10
21.300857
20
17.392598
11
20.908379
21
15.933442
0
LINE
8
Image
10
20.908379
20
15.933442
11
20.841869
21
14.498615
0
LINE
8
Image
10
20.841869
20
14.498615
11
21.084274
21
14.060868
0
LINE
8
Image
10
21.084274
20
14.060868
11
21.706909
21
13.600381
0
LINE
8
Image
10
21.706909
20
13.600381
11
23.821853
21
12.700310
0
LINE
8
Image
10
23.821853
20
12.700310
11
26.644664
21
11.976646
0
LINE
8
Image
10
26.644664
20
11.976646
11
29.633309
21
11.607635
0
LINE
8
Image
10
29.633309
20
11.607635
11
32.148129
21
11.868913
0
LINE
8
Image
10
32.148129
20
11.868913
11
32.148160
21
11.868950
 0 
ENDSEC
 0 
EOF