  0
SECTION
  2
HEADER
  9
$ACADVER
  1
AC1014
  9
$HANDSEED
  5
FFFF
  9
$MEASUREMENT
 70
     1
  0
ENDSEC
  0
SECTION
  2
TABLES
  0
TABLE
  2
VPORT
  5
8
330
0
100
AcDbSymbolTable
 70
     4
  0
VPORT
  5
2E
330
8
100
AcDbSymbolTableRecord
100
AcDbViewportTableRecord
  2
*ACTIVE
 70
     0
 10
0.0
 20
0.0
 11
1.0
 21
1.0
 12
210.0
 22
148.5
 13
0.0
 23
0.0
 14
10.0
 24
10.0
 15
10.0
 25
10.0
 16
0.0
 26
0.0
 36
1.0
 17
0.0
 27
0.0
 37
0.0
 40
341.0
 41
1.24
 42
50.0
 43
0.0
 44
0.0
 50
0.0
 51
0.0
 71
     0
 72
   100
 73
     1
 74
     3
 75
     0
 76
     0
 77
     0
 78
     0
  0
ENDTAB
  0
TABLE
  2
LTYPE
  5
5
330
0
100
AcDbSymbolTable
 70
     1
  0
LTYPE
  5
14
330
5
100
AcDbSymbolTableRecord
100
AcDbLinetypeTableRecord
  2
BYBLOCK
 70
     0
  3

 72
    65
 73
     0
 40
0.0
  0
LTYPE
  5
15
330
5
100
AcDbSymbolTableRecord
100
AcDbLinetypeTableRecord
  2
BYLAYER
 70
     0
  3

 72
    65
 73
     0
 40
0.0
  0
LTYPE
  5
16
330
5
100
AcDbSymbolTableRecord
100
AcDbLinetypeTableRecord
  2
CONTINUOUS
 70
     0
  3
Solid line
 72
    65
 73
     0
 40
0.0
  0
ENDTAB
  0
TABLE
  2
LAYER
  5
2
100
AcDbSymbolTable
 70
2
  0
LAYER
  5
50
100
AcDbSymbolTableRecord
100
AcDbLayerTableRecord
  2
0
 70
0
  6
CONTINUOUS
  0
LAYER
  5
51
100
AcDbSymbolTableRecord
100
AcDbLayerTableRecord
  2
Image
 70
0
  6
CONTINUOUS
  0
ENDTAB
  0
TABLE
  2
STYLE
  5
3
330
0
100
AcDbSymbolTable
 70
     1
  0
STYLE
  5
11
330
3
100
AcDbSymbolTableRecord
100
AcDbTextStyleTableRecord
  2
STANDARD
 70
     0
 40
0.0
 41
1.0
 50
0.0
 71
     0
 42
2.5
  3
txt
  4

  0
ENDTAB
  0
TABLE
  2
VIEW
  5
6
330
0
100
AcDbSymbolTable
 70
     0
  0
ENDTAB
  0
TABLE
  2
UCS
  5
7
330
0
100
AcDbSymbolTable
 70
     0
  0
ENDTAB
  0
TABLE
  2
APPID
  5
9
330
0
100
AcDbSymbolTable
 70
     2
  0
APPID
  5
12
330
9
100
AcDbSymbolTableRecord
100
AcDbRegAppTableRecord
  2
ACAD
 70
     0
  0
ENDTAB
  0
TABLE
  2
DIMSTYLE
  5
A
330
0
100
AcDbSymbolTable
 70
     1
  0
DIMSTYLE
105
27
330
A
100
AcDbSymbolTableRecord
100
AcDbDimStyleTableRecord
  2
ISO-25
 70
     0
  3

  4

  5

  6

  7

 40
1.0
 41
2.5
 42
0.625
 43
3.75
 44
1.25
 45
0.0
 46
0.0
 47
0.0
 48
0.0
140
2.5
141
2.5
142
0.0
143
0.03937007874016
144
1.0
145
0.0
146
1.0
147
0.625
 71
     0
 72
     0
 73
     0
 74
     0
 75
     0
 76
     0
 77
     1
 78
     8
170
     0
171
     3
172
     1
173
     0
174
     0
175
     0
176
     0
177
     0
178
     0
270
     2
271
     2
272
     2
273
     2
274
     3
340
11
275
     0
280
     0
281
     0
282
     0
283
     0
284
     8
285
     0
286
     0
287
     3
288
     0
  0
ENDTAB
  0
TABLE
  2
BLOCK_RECORD
  5
1
330
0
100
AcDbSymbolTable
 70
     1
  0
BLOCK_RECORD
  5
1F
330
1
100
AcDbSymbolTableRecord
100
AcDbBlockTableRecord
  2
*MODEL_SPACE
  0
BLOCK_RECORD
  5
1B
330
1
100
AcDbSymbolTableRecord
100
AcDbBlockTableRecord
  2
*PAPER_SPACE
  0
ENDTAB
  0
ENDSEC
  0
SECTION
  2
BLOCKS
  0
BLOCK
  5
20
330
1F
100
AcDbEntity
  8
0
100
AcDbBlockBegin
  2
*MODEL_SPACE
 70
     0
 10
0.0
 20
0.0
 30
0.0
  3
*MODEL_SPACE
  1

  0
ENDBLK
  5
21
330
1F
100
AcDbEntity
  8
0
100
AcDbBlockEnd
  0
BLOCK
  5
1C
330
1B
100
AcDbEntity
 67
     1
  8
0
100
AcDbBlockBegin
  2
*PAPER_SPACE
  1

  0
ENDBLK
  5
1D
330
1B
100
AcDbEntity
 67
     1
  8
0
100
AcDbBlockEnd
  0
ENDSEC
  0
SECTION
  2
ENTITIES
  0
SPLINE
  5
100
100
AcDbEntity
  8
Image
 62
7
100
AcDbSpline
 70
8
 71
3
 72
8
 73
4
 74
0
 40
0
 40
0
 40
0
 40
0
 40
1
 40
1
 40
1
 40
1
 10
77.250000
 20
22.970557
 30
0.0
 10
71.605352
 20
24.066645
 30
0.0
 10
65.550653
 20
25.171680
 30
0.0
 10
60.625920
 20
28.264920
 30
0.0
  0
SPLINE
  5
101
100
AcDbEntity
  8
Image
 62
7
100
AcDbSpline
 70
8
 71
3
 72
8
 73
4
 74
0
 40
0
 40
0
 40
0
 40
0
 40
1
 40
1
 40
1
 40
1
 10
60.625920
 20
28.264920
 30
0.0
 10
53.609341
 20
32.672055
 30
0.0
 10
43.809295
 20
38.044312
 30
0.0
 10
43.546852
 20
46.326000
 30
0.0
  0
SPLINE
  5
102
100
AcDbEntity
  8
Image
 62
7
100
AcDbSpline
 70
8
 71
3
 72
8
 73
4
 74
0
 40
0
 40
0
 40
0
 40
0
 40
1
 40
1
 40
1
 40
1
 10
43.546852
 20
46.326000
 30
0.0
 10
43.202544
 20
57.191093
 30
0.0
 10
48.323920
 20
63.441540
 30
0.0
 10
64.408374
 20
71.392230
 30
0.0
  0
SPLINE
  5
103
100
AcDbEntity
  8
Image
 62
7
100
AcDbSpline
 70
8
 71
3
 72
8
 73
4
 74
0
 40
0
 40
0
 40
0
 40
0
 40
1
 40
1
 40
1
 40
1
 10
64.408374
 20
71.392230
 30
0.0
 10
68.438004
 20
73.384118
 30
0.0
 10
80.484975
 20
77.861670
 30
0.0
 10
91.687500
 20
81.531195
 30
0.0
  0
SPLINE
  5
104
100
AcDbEntity
  8
Image
 62
7
100
AcDbSpline
 70
8
 71
3
 72
8
 73
4
 74
0
 40
0
 40
0
 40
0
 40
0
 40
1
 40
1
 40
1
 40
1
 10
91.687500
 20
81.531195
 30
0.0
 10
102.721875
 20
85.145640
 30
0.0
 10
111.750000
 20
88.284135
 30
0.0
 10
111.750000
 20
88.505625
 30
0.0
  0
SPLINE
  5
105
100
AcDbEntity
  8
Image
 62
7
100
AcDbSpline
 70
8
 71
3
 72
8
 73
4
 74
0
 40
0
 40
0
 40
0
 40
0
 40
1
 40
1
 40
1
 40
1
 10
111.750000
 20
88.505625
 30
0.0
 10
111.750000
 20
89.353605
 30
0.0
 10
96.435428
 20
97.659292
 30
0.0
 10
80.250000
 20
105.589305
 30
0.0
  0
SPLINE
  5
106
100
AcDbEntity
  8
Image
 62
7
100
AcDbSpline
 70
8
 71
3
 72
8
 73
4
 74
0
 40
0
 40
0
 40
0
 40
0
 40
1
 40
1
 40
1
 40
1
 10
80.250000
 20
105.589305
 30
0.0
 10
64.646624
 20
113.234138
 30
0.0
 10
63.048980
 20
114.563385
 30
0.0
 10
55.950672
 20
120.143168
 30
0.0
  0
SPLINE
  5
107
100
AcDbEntity
  8
Image
 62
7
100
AcDbSpline
 70
8
 71
3
 72
8
 73
4
 74
0
 40
0
 40
0
 40
0
 40
0
 40
1
 40
1
 40
1
 40
1
 10
55.950672
 20
120.143168
 30
0.0
 10
42.688388
 20
130.568285
 30
0.0
 10
37.915943
 20
139.451315
 30
0.0
 10
38.694694
 20
150.000000
 30
0.0
  0
SPLINE
  5
108
100
AcDbEntity
  8
Image
 62
7
100
AcDbSpline
 70
8
 71
3
 72
8
 73
4
 74
0
 40
0
 40
0
 40
0
 40
0
 40
1
 40
1
 40
1
 40
1
 10
38.694694
 20
150.000000
 30
0.0
 10
39.031649
 20
154.564281
 30
0.0
 10
39.645731
 20
156.309579
 30
0.0
 10
40.835669
 20
159.615733
 30
0.0
  0
SPLINE
  5
109
100
AcDbEntity
  8
Image
 62
7
100
AcDbSpline
 70
8
 71
3
 72
8
 73
4
 74
0
 40
0
 40
0
 40
0
 40
0
 40
1
 40
1
 40
1
 40
1
 10
40.835669
 20
159.615733
 30
0.0
 10
45.997937
 20
173.958706
 30
0.0
 10
57.935045
 20
179.248582
 30
0.0
 10
69.001461
 20
184.376003
 30
0.0
  0
SPLINE
  5
10a
100
AcDbEntity
  8
Image
 62
7
100
AcDbSpline
 70
8
 71
3
 72
8
 73
4
 74
0
 40
0
 40
0
 40
0
 40
0
 40
1
 40
1
 40
1
 40
1
 10
69.001461
 20
184.376003
 30
0.0
 10
78.719362
 20
188.878614
 30
0.0
 10
83.520097
 20
189.902148
 30
0.0
 10
96.750000
 20
190.292096
 30
0.0
  0
SPLINE
  5
10b
100
AcDbEntity
  8
Image
 62
7
100
AcDbSpline
 70
8
 71
3
 72
8
 73
4
 74
0
 40
0
 40
0
 40
0
 40
0
 40
1
 40
1
 40
1
 40
1
 10
96.750000
 20
190.292096
 30
0.0
 10
109.319655
 20
190.662584
 30
0.0
 10
115.611750
 20
189.753962
 30
0.0
 10
121.587420
 20
186.705401
 30
0.0
  0
SPLINE
  5
10c
100
AcDbEntity
  8
Image
 62
7
100
AcDbSpline
 70
8
 71
3
 72
8
 73
4
 74
0
 40
0
 40
0
 40
0
 40
0
 40
1
 40
1
 40
1
 40
1
 10
121.587420
 20
186.705401
 30
0.0
 10
125.859758
 20
184.525818
 30
0.0
 10
136.877273
 20
173.743532
 30
0.0
 10
138.718485
 20
169.940096
 30
0.0
  0
SPLINE
  5
10d
100
AcDbEntity
  8
Image
 62
7
100
AcDbSpline
 70
8
 71
3
 72
8
 73
4
 74
0
 40
0
 40
0
 40
0
 40
0
 40
1
 40
1
 40
1
 40
1
 10
138.718485
 20
169.940096
 30
0.0
 10
142.512442
 20
162.102838
 30
0.0
 10
139.269982
 20
153.930828
 30
0.0
 10
124.115505
 20
133.136018
 30
0.0
  0
SPLINE
  5
10e
100
AcDbEntity
  8
Image
 62
7
100
AcDbSpline
 70
8
 71
3
 72
8
 73
4
 74
0
 40
0
 40
0
 40
0
 40
0
 40
1
 40
1
 40
1
 40
1
 10
124.115505
 20
133.136018
 30
0.0
 10
118.981507
 20
126.091194
 30
0.0
 10
110.441550
 20
117.000000
 30
0.0
 10
108.957892
 20
117.000000
 30
0.0
  0
SPLINE
  5
10f
100
AcDbEntity
  8
Image
 62
7
100
AcDbSpline
 70
8
 71
3
 72
8
 73
4
 74
0
 40
0
 40
0
 40
0
 40
0
 40
1
 40
1
 40
1
 40
1
 10
108.957892
 20
117.000000
 30
0.0
 10
108.598485
 20
117.000000
 30
0.0
 10
107.029672
 20
118.305458
 30
0.0
 10
105.471652
 20
119.901023
 30
0.0
  0
SPLINE
  5
110
100
AcDbEntity
  8
Image
 62
7
100
AcDbSpline
 70
8
 71
3
 72
8
 73
4
 74
0
 40
0
 40
0
 40
0
 40
0
 40
1
 40
1
 40
1
 40
1
 10
105.471652
 20
119.901023
 30
0.0
 10
102.736035
 20
122.702543
 30
0.0
 10
102.666367
 20
122.904128
 30
0.0
 10
103.440322
 20
125.778373
 30
0.0
  0
SPLINE
  5
111
100
AcDbEntity
  8
Image
 62
7
100
AcDbSpline
 70
8
 71
3
 72
8
 73
4
 74
0
 40
0
 40
0
 40
0
 40
0
 40
1
 40
1
 40
1
 40
1
 10
103.440322
 20
125.778373
 30
0.0
 10
104.440545
 20
129.492922
 30
0.0
 10
108.394492
 20
135.547565
 30
0.0
 10
115.829632
 20
144.750000
 30
0.0
  0
SPLINE
  5
112
100
AcDbEntity
  8
Image
 62
7
100
AcDbSpline
 70
8
 71
3
 72
8
 73
4
 74
0
 40
0
 40
0
 40
0
 40
0
 40
1
 40
1
 40
1
 40
1
 10
115.829632
 20
144.750000
 30
0.0
 10
123.867922
 20
154.698961
 30
0.0
 10
127.046955
 20
161.335663
 30
0.0
 10
127.391392
 20
168.886899
 30
0.0
  0
SPLINE
  5
113
100
AcDbEntity
  8
Image
 62
7
100
AcDbSpline
 70
8
 71
3
 72
8
 73
4
 74
0
 40
0
 40
0
 40
0
 40
0
 40
1
 40
1
 40
1
 40
1
 10
127.391392
 20
168.886899
 30
0.0
 10
127.656982
 20
174.709423
 30
0.0
 10
127.651297
 20
174.729715
 30
0.0
 10
125.516392
 20
175.577684
 30
0.0
  0
SPLINE
  5
114
100
AcDbEntity
  8
Image
 62
7
100
AcDbSpline
 70
8
 71
3
 72
8
 73
4
 74
0
 40
0
 40
0
 40
0
 40
0
 40
1
 40
1
 40
1
 40
1
 10
125.516392
 20
175.577684
 30
0.0
 10
115.612012
 20
179.511645
 30
0.0
 10
97.943610
 20
181.123615
 30
0.0
 10
87.991425
 20
179.001260
 30
0.0
  0
SPLINE
  5
115
100
AcDbEntity
  8
Image
 62
7
100
AcDbSpline
 70
8
 71
3
 72
8
 73
4
 74
0
 40
0
 40
0
 40
0
 40
0
 40
1
 40
1
 40
1
 40
1
 10
87.991425
 20
179.001260
 30
0.0
 10
76.691288
 20
176.591448
 30
0.0
 10
66.881098
 20
171.749749
 30
0.0
 10
59.604820
 20
163.875000
 30
0.0
  0
SPLINE
  5
116
100
AcDbEntity
  8
Image
 62
7
100
AcDbSpline
 70
8
 71
3
 72
8
 73
4
 74
0
 40
0
 40
0
 40
0
 40
0
 40
1
 40
1
 40
1
 40
1
 10
59.604820
 20
163.875000
 30
0.0
 10
54.516087
 20
158.367722
 30
0.0
 10
51.362344
 20
150.712013
 30
0.0
 10
50.625000
 20
143.250000
 30
0.0
  0
SPLINE
  5
117
100
AcDbEntity
  8
Image
 62
7
100
AcDbSpline
 70
8
 71
3
 72
8
 73
4
 74
0
 40
0
 40
0
 40
0
 40
0
 40
1
 40
1
 40
1
 40
1
 10
50.625000
 20
143.250000
 30
0.0
 10
50.214352
 20
139.094186
 30
0.0
 10
51.359469
 20
134.714242
 30
0.0
 10
53.281293
 20
131.006681
 30
0.0
  0
SPLINE
  5
118
100
AcDbEntity
  8
Image
 62
7
100
AcDbSpline
 70
8
 71
3
 72
8
 73
4
 74
0
 40
0
 40
0
 40
0
 40
0
 40
1
 40
1
 40
1
 40
1
 10
53.281293
 20
131.006681
 30
0.0
 10
55.143422
 20
127.414282
 30
0.0
 10
58.319316
 20
124.577295
 30
0.0
 10
61.491515
 20
122.065320
 30
0.0
  0
SPLINE
  5
119
100
AcDbEntity
  8
Image
 62
7
100
AcDbSpline
 70
8
 71
3
 72
8
 73
4
 74
0
 40
0
 40
0
 40
0
 40
0
 40
1
 40
1
 40
1
 40
1
 10
61.491515
 20
122.065320
 30
0.0
 10
68.574065
 20
116.456850
 30
0.0
 10
77.264557
 20
113.251440
 30
0.0
 10
85.125000
 20
108.798248
 30
0.0
  0
SPLINE
  5
11a
100
AcDbEntity
  8
Image
 62
7
100
AcDbSpline
 70
8
 71
3
 72
8
 73
4
 74
0
 40
0
 40
0
 40
0
 40
0
 40
1
 40
1
 40
1
 40
1
 10
85.125000
 20
108.798248
 30
0.0
 10
93.293513
 20
104.170530
 30
0.0
 10
105.615428
 20
97.478520
 30
0.0
 10
109.575945
 20
94.819177
 30
0.0
  0
SPLINE
  5
11b
100
AcDbEntity
  8
Image
 62
7
100
AcDbSpline
 70
8
 71
3
 72
8
 73
4
 74
0
 40
0
 40
0
 40
0
 40
0
 40
1
 40
1
 40
1
 40
1
 10
124.108095
 20
92.637795
 30
0.0
 10
151.665765
 20
102.613268
 30
0.0
 10
165.453255
 20
109.832272
 30
0.0
 10
169.262010
 20
116.279977
 30
0.0
  0
SPLINE
  5
11c
100
AcDbEntity
  8
Image
 62
7
100
AcDbSpline
 70
8
 71
3
 72
8
 73
4
 74
0
 40
0
 40
0
 40
0
 40
0
 40
1
 40
1
 40
1
 40
1
 10
169.262010
 20
116.279977
 30
0.0
 10
169.983285
 20
117.500992
 30
0.0
 10
170.912730
 20
118.500000
 30
0.0
 10
171.327458
 20
118.500000
 30
0.0
  0
SPLINE
  5
11d
100
AcDbEntity
  8
Image
 62
7
100
AcDbSpline
 70
8
 71
3
 72
8
 73
4
 74
0
 40
0
 40
0
 40
0
 40
0
 40
1
 40
1
 40
1
 40
1
 10
171.327458
 20
118.500000
 30
0.0
 10
172.576838
 20
118.500000
 30
0.0
 10
180.750000
 20
110.013923
 30
0.0
 10
180.750000
 20
108.716715
 30
0.0
  0
SPLINE
  5
11e
100
AcDbEntity
  8
Image
 62
7
100
AcDbSpline
 70
8
 71
3
 72
8
 73
4
 74
0
 40
0
 40
0
 40
0
 40
0
 40
1
 40
1
 40
1
 40
1
 10
180.750000
 20
108.716715
 30
0.0
 10
180.750000
 20
107.274187
 30
0.0
 10
178.240650
 20
104.862360
 30
0.0
 10
175.080202
 20
103.267267
 30
0.0
  0
SPLINE
  5
11f
100
AcDbEntity
  8
Image
 62
7
100
AcDbSpline
 70
8
 71
3
 72
8
 73
4
 74
0
 40
0
 40
0
 40
0
 40
0
 40
1
 40
1
 40
1
 40
1
 10
175.080202
 20
103.267267
 30
0.0
 10
173.058810
 20
102.247057
 30
0.0
 10
172.501387
 20
101.186685
 30
0.0
 10
170.401455
 20
94.367032
 30
0.0
  0
SPLINE
  5
120
100
AcDbEntity
  8
Image
 62
7
100
AcDbSpline
 70
8
 71
3
 72
8
 73
4
 74
0
 40
0
 40
0
 40
0
 40
0
 40
1
 40
1
 40
1
 40
1
 10
170.401455
 20
94.367032
 30
0.0
 10
168.347993
 20
87.698310
 30
0.0
 10
166.524615
 20
79.072560
 30
0.0
 10
166.505662
 20
75.937500
 30
0.0
  0
SPLINE
  5
121
100
AcDbEntity
  8
Image
 62
7
100
AcDbSpline
 70
8
 71
3
 72
8
 73
4
 74
0
 40
0
 40
0
 40
0
 40
0
 40
1
 40
1
 40
1
 40
1
 10
166.505662
 20
75.937500
 30
0.0
 10
166.501913
 20
75.295470
 30
0.0
 10
167.859165
 20
75.000187
 30
0.0
 10
170.812500
 20
75.000592
 30
0.0
  0
SPLINE
  5
122
100
AcDbEntity
  8
Image
 62
7
100
AcDbSpline
 70
8
 71
3
 72
8
 73
4
 74
0
 40
0
 40
0
 40
0
 40
0
 40
1
 40
1
 40
1
 40
1
 10
170.812500
 20
75.000592
 30
0.0
 10
174.069277
 20
75.001035
 30
0.0
 10
176.318422
 20
75.565620
 30
0.0
 10
180.000000
 20
77.306857
 30
0.0
  0
SPLINE
  5
123
100
AcDbEntity
  8
Image
 62
7
100
AcDbSpline
 70
8
 71
3
 72
8
 73
4
 74
0
 40
0
 40
0
 40
0
 40
0
 40
1
 40
1
 40
1
 40
1
 10
180.000000
 20
77.306857
 30
0.0
 10
184.762808
 20
79.559467
 30
0.0
 10
194.797335
 20
85.960057
 30
0.0
 10
198.960787
 20
89.401117
 30
0.0
  0
LWPOLYLINE
  5
124
100
AcDbEntity
  8
Image
 62
7
100
AcDbPolyline
 90
3
 70
0
 10
109.575945
 20
94.819177
 30
0.0
 10
116.776890
 20
89.984010
 30
0.0
 10
124.108095
 20
92.637795
 30
0.0
  0
SPLINE
  5
125
100
AcDbEntity
  8
Image
 62
7
100
AcDbSpline
 70
8
 71
3
 72
8
 73
4
 74
0
 40
0
 40
0
 40
0
 40
0
 40
1
 40
1
 40
1
 40
1
 10
197.945093
 20
94.863787
 30
0.0
 10
192.046140
 20
101.974890
 30
0.0
 10
187.977045
 20
112.283302
 30
0.0
 10
189.633728
 20
115.919317
 30
0.0
  0
SPLINE
  5
126
100
AcDbEntity
  8
Image
 62
7
100
AcDbSpline
 70
8
 71
3
 72
8
 73
4
 74
0
 40
0
 40
0
 40
0
 40
0
 40
1
 40
1
 40
1
 40
1
 10
189.633728
 20
115.919317
 30
0.0
 10
190.984905
 20
118.884832
 30
0.0
 10
193.443840
 20
118.246620
 30
0.0
 10
197.750993
 20
113.812500
 30
0.0
  0
SPLINE
  5
127
100
AcDbEntity
  8
Image
 62
7
100
AcDbSpline
 70
8
 71
3
 72
8
 73
4
 74
0
 40
0
 40
0
 40
0
 40
0
 40
1
 40
1
 40
1
 40
1
 10
197.750993
 20
113.812500
 30
0.0
 10
200.595630
 20
110.884012
 30
0.0
 10
201.583950
 20
109.295130
 30
0.0
 10
201.607748
 20
107.612137
 30
0.0
  0
SPLINE
  5
128
100
AcDbEntity
  8
Image
 62
7
100
AcDbSpline
 70
8
 71
3
 72
8
 73
4
 74
0
 40
0
 40
0
 40
0
 40
0
 40
1
 40
1
 40
1
 40
1
 10
201.607748
 20
107.612137
 30
0.0
 10
201.646073
 20
104.899665
 30
0.0
 10
204.930218
 20
95.814930
 30
0.0
 10
206.001503
 20
95.457832
 30
0.0
  0
SPLINE
  5
129
100
AcDbEntity
  8
Image
 62
7
100
AcDbSpline
 70
8
 71
3
 72
8
 73
4
 74
0
 40
0
 40
0
 40
0
 40
0
 40
1
 40
1
 40
1
 40
1
 10
206.001503
 20
95.457832
 30
0.0
 10
206.925690
 20
95.149770
 30
0.0
 10
216.588443
 20
105.167910
 30
0.0
 10
221.960745
 20
112.004040
 30
0.0
  0
SPLINE
  5
12a
100
AcDbEntity
  8
Image
 62
7
100
AcDbSpline
 70
8
 71
3
 72
8
 73
4
 74
0
 40
0
 40
0
 40
0
 40
0
 40
1
 40
1
 40
1
 40
1
 10
221.960745
 20
112.004040
 30
0.0
 10
224.120145
 20
114.751815
 30
0.0
 10
226.313408
 20
117.000000
 30
0.0
 10
226.834665
 20
117.000000
 30
0.0
  0
SPLINE
  5
12b
100
AcDbEntity
  8
Image
 62
7
100
AcDbSpline
 70
8
 71
3
 72
8
 73
4
 74
0
 40
0
 40
0
 40
0
 40
0
 40
1
 40
1
 40
1
 40
1
 10
226.834665
 20
117.000000
 30
0.0
 10
228.066953
 20
117.000000
 30
0.0
 10
235.500000
 20
109.143570
 30
0.0
 10
235.500000
 20
107.841105
 30
0.0
  0
SPLINE
  5
12c
100
AcDbEntity
  8
Image
 62
7
100
AcDbSpline
 70
8
 71
3
 72
8
 73
4
 74
0
 40
0
 40
0
 40
0
 40
0
 40
1
 40
1
 40
1
 40
1
 10
235.500000
 20
107.841105
 30
0.0
 10
235.500000
 20
107.291827
 30
0.0
 10
230.934127
 20
102.239438
 30
0.0
 10
225.353618
 20
96.613582
 30
0.0
  0
LWPOLYLINE
  5
12d
100
AcDbEntity
  8
Image
 62
7
100
AcDbPolyline
 90
3
 70
0
 10
198.960787
 20
89.401117
 30
0.0
 10
201.046568
 20
91.125000
 30
0.0
 10
197.945093
 20
94.863787
 30
0.0
  0
SPLINE
  5
12e
100
AcDbEntity
  8
Image
 62
7
100
AcDbSpline
 70
8
 71
3
 72
8
 73
4
 74
0
 40
0
 40
0
 40
0
 40
0
 40
1
 40
1
 40
1
 40
1
 10
219.166118
 20
85.020075
 30
0.0
 10
221.620860
 20
84.173895
 30
0.0
 10
225.262170
 20
83.655277
 30
0.0
 10
228.750000
 20
83.655090
 30
0.0
  0
SPLINE
  5
12f
100
AcDbEntity
  8
Image
 62
7
100
AcDbSpline
 70
8
 71
3
 72
8
 73
4
 74
0
 40
0
 40
0
 40
0
 40
0
 40
1
 40
1
 40
1
 40
1
 10
228.750000
 20
83.655090
 30
0.0
 10
235.199453
 20
83.654730
 30
0.0
 10
237.510022
 20
84.619485
 30
0.0
 10
243.375000
 20
89.761583
 30
0.0
  0
SPLINE
  5
130
100
AcDbEntity
  8
Image
 62
7
100
AcDbSpline
 70
8
 71
3
 72
8
 73
4
 74
0
 40
0
 40
0
 40
0
 40
0
 40
1
 40
1
 40
1
 40
1
 10
243.375000
 20
89.761583
 30
0.0
 10
247.950510
 20
93.773145
 30
0.0
 10
250.005720
 20
94.421895
 30
0.0
 10
252.133733
 20
92.526390
 30
0.0
  0
SPLINE
  5
131
100
AcDbEntity
  8
Image
 62
7
100
AcDbSpline
 70
8
 71
3
 72
8
 73
4
 74
0
 40
0
 40
0
 40
0
 40
0
 40
1
 40
1
 40
1
 40
1
 10
252.133733
 20
92.526390
 30
0.0
 10
255.757477
 20
89.298577
 30
0.0
 10
256.757438
 20
83.036415
 30
0.0
 10
254.294198
 20
78.996660
 30
0.0
  0
SPLINE
  5
132
100
AcDbEntity
  8
Image
 62
7
100
AcDbSpline
 70
8
 71
3
 72
8
 73
4
 74
0
 40
0
 40
0
 40
0
 40
0
 40
1
 40
1
 40
1
 40
1
 10
254.294198
 20
78.996660
 30
0.0
 10
251.798970
 20
74.904450
 30
0.0
 10
246.701933
 20
72.516810
 30
0.0
 10
239.694083
 20
72.157432
 30
0.0
  0
SPLINE
  5
133
100
AcDbEntity
  8
Image
 62
7
100
AcDbSpline
 70
8
 71
3
 72
8
 73
4
 74
0
 40
0
 40
0
 40
0
 40
0
 40
1
 40
1
 40
1
 40
1
 10
239.694083
 20
72.157432
 30
0.0
 10
230.586323
 20
71.690370
 30
0.0
 10
222.116775
 20
74.292720
 30
0.0
 10
213.375000
 20
80.244217
 30
0.0
  0
LWPOLYLINE
  5
134
100
AcDbEntity
  8
Image
 62
7
100
AcDbPolyline
 90
3
 70
0
 10
225.353618
 20
96.613582
 30
0.0
 10
215.207227
 20
86.384752
 30
0.0
 10
219.166118
 20
85.020075
 30
0.0
  0
SPLINE
  5
135
100
AcDbEntity
  8
Image
 62
7
100
AcDbSpline
 70
8
 71
3
 72
8
 73
4
 74
0
 40
0
 40
0
 40
0
 40
0
 40
1
 40
1
 40
1
 40
1
 10
201.375000
 20
75.234878
 30
0.0
 10
189.628410
 20
66.031065
 30
0.0
 10
184.661940
 20
63.548993
 30
0.0
 10
177.867825
 20
63.486780
 30
0.0
  0
SPLINE
  5
136
100
AcDbEntity
  8
Image
 62
7
100
AcDbSpline
 70
8
 71
3
 72
8
 73
4
 74
0
 40
0
 40
0
 40
0
 40
0
 40
1
 40
1
 40
1
 40
1
 10
177.867825
 20
63.486780
 30
0.0
 10
173.989253
 20
63.451230
 30
0.0
 10
172.186005
 20
63.801503
 30
0.0
 10
170.388773
 20
64.939433
 30
0.0
  0
SPLINE
  5
137
100
AcDbEntity
  8
Image
 62
7
100
AcDbSpline
 70
8
 71
3
 72
8
 73
4
 74
0
 40
0
 40
0
 40
0
 40
0
 40
1
 40
1
 40
1
 40
1
 10
170.388773
 20
64.939433
 30
0.0
 10
166.909485
 20
67.142363
 30
0.0
 10
157.435365
 20
76.572345
 30
0.0
 10
156.664568
 20
78.599707
 30
0.0
  0
SPLINE
  5
138
100
AcDbEntity
  8
Image
 62
7
100
AcDbSpline
 70
8
 71
3
 72
8
 73
4
 74
0
 40
0
 40
0
 40
0
 40
0
 40
1
 40
1
 40
1
 40
1
 10
156.664568
 20
78.599707
 30
0.0
 10
155.642115
 20
81.288960
 30
0.0
 10
155.889165
 20
85.349318
 30
0.0
 10
157.438065
 20
91.312500
 30
0.0
  0
SPLINE
  5
139
100
AcDbEntity
  8
Image
 62
7
100
AcDbSpline
 70
8
 71
3
 72
8
 73
4
 74
0
 40
0
 40
0
 40
0
 40
0
 40
1
 40
1
 40
1
 40
1
 10
157.438065
 20
91.312500
 30
0.0
 10
158.511225
 20
95.444108
 30
0.0
 10
158.623103
 20
96.750000
 30
0.0
 10
157.903898
 20
96.750000
 30
0.0
  0
SPLINE
  5
13a
100
AcDbEntity
  8
Image
 62
7
100
AcDbSpline
 70
8
 71
3
 72
8
 73
4
 74
0
 40
0
 40
0
 40
0
 40
0
 40
1
 40
1
 40
1
 40
1
 10
157.903898
 20
96.750000
 30
0.0
 10
156.657945
 20
96.750000
 30
0.0
 10
130.130648
 20
88.902787
 30
0.0
 10
126.750000
 20
87.534165
 30
0.0
  0
SPLINE
  5
13b
100
AcDbEntity
  8
Image
 62
7
100
AcDbSpline
 70
8
 71
3
 72
8
 73
4
 74
0
 40
0
 40
0
 40
0
 40
0
 40
1
 40
1
 40
1
 40
1
 10
126.750000
 20
87.534165
 30
0.0
 10
125.306250
 20
86.949675
 30
0.0
 10
123.558855
 20
86.272868
 30
0.0
 10
122.866905
 20
86.030145
 30
0.0
  0
SPLINE
  5
13c
100
AcDbEntity
  8
Image
 62
7
100
AcDbSpline
 70
8
 71
3
 72
8
 73
4
 74
0
 40
0
 40
0
 40
0
 40
0
 40
1
 40
1
 40
1
 40
1
 10
122.866905
 20
86.030145
 30
0.0
 10
121.867740
 20
85.679663
 30
0.0
 10
122.697143
 20
84.460583
 30
0.0
 10
126.896760
 20
80.106915
 30
0.0
  0
SPLINE
  5
13d
100
AcDbEntity
  8
Image
 62
7
100
AcDbSpline
 70
8
 71
3
 72
8
 73
4
 74
0
 40
0
 40
0
 40
0
 40
0
 40
1
 40
1
 40
1
 40
1
 10
126.896760
 20
80.106915
 30
0.0
 10
136.641015
 20
70.005240
 30
0.0
 10
140.119440
 20
64.681890
 30
0.0
 10
138.812813
 20
55.733265
 30
0.0
  0
SPLINE
  5
13e
100
AcDbEntity
  8
Image
 62
7
100
AcDbSpline
 70
8
 71
3
 72
8
 73
4
 74
0
 40
0
 40
0
 40
0
 40
0
 40
1
 40
1
 40
1
 40
1
 10
138.812813
 20
55.733265
 30
0.0
 10
137.400803
 20
46.062930
 30
0.0
 10
127.099148
 20
39.558022
 30
0.0
 10
118.942058
 20
34.175550
 30
0.0
  0
SPLINE
  5
13f
100
AcDbEntity
  8
Image
 62
7
100
AcDbSpline
 70
8
 71
3
 72
8
 73
4
 74
0
 40
0
 40
0
 40
0
 40
0
 40
1
 40
1
 40
1
 40
1
 10
118.942058
 20
34.175550
 30
0.0
 10
109.513958
 20
27.954398
 30
0.0
 10
98.143020
 20
24.711120
 30
0.0
 10
87.000000
 20
22.860488
 30
0.0
  0
SPLINE
  5
140
100
AcDbEntity
  8
Image
 62
7
100
AcDbSpline
 70
8
 71
3
 72
8
 73
4
 74
0
 40
0
 40
0
 40
0
 40
0
 40
1
 40
1
 40
1
 40
1
 10
87.000000
 20
22.860488
 30
0.0
 10
83.793713
 20
22.327988
 30
0.0
 10
78.281250
 20
22.770300
 30
0.0
 10
77.250000
 20
22.970558
 30
0.0
  0
LWPOLYLINE
  5
141
100
AcDbEntity
  8
Image
 62
7
100
AcDbPolyline
 90
3
 70
0
 10
213.375000
 20
80.244217
 30
0.0
 10
210.375000
 20
82.286655
 30
0.0
 10
201.375000
 20
75.234878
 30
0.0
  0
SPLINE
  5
142
100
AcDbEntity
  8
Image
 62
7
100
AcDbSpline
 70
8
 71
3
 72
8
 73
4
 74
0
 40
0
 40
0
 40
0
 40
0
 40
1
 40
1
 40
1
 40
1
 10
85.433093
 20
31.541467
 30
0.0
 10
96.273855
 20
33.300427
 30
0.0
 10
107.208540
 20
37.704915
 30
0.0
 10
115.819763
 20
46.644397
 30
0.0
  0
SPLINE
  5
143
100
AcDbEntity
  8
Image
 62
7
100
AcDbSpline
 70
8
 71
3
 72
8
 73
4
 74
0
 40
0
 40
0
 40
0
 40
0
 40
1
 40
1
 40
1
 40
1
 10
115.819763
 20
46.644397
 30
0.0
 10
127.469768
 20
58.738500
 30
0.0
 10
128.247225
 20
67.985580
 30
0.0
 10
124.475318
 20
76.009972
 30
0.0
  0
SPLINE
  5
144
100
AcDbEntity
  8
Image
 62
7
100
AcDbSpline
 70
8
 71
3
 72
8
 73
4
 74
0
 40
0
 40
0
 40
0
 40
0
 40
1
 40
1
 40
1
 40
1
 10
124.475318
 20
76.009972
 30
0.0
 10
123.636743
 20
77.793967
 30
0.0
 10
121.767555
 20
80.400277
 30
0.0
 10
120.321578
 20
81.801780
 30
0.0
  0
LWPOLYLINE
  5
145
100
AcDbEntity
  8
Image
 62
7
100
AcDbPolyline
 90
1
 70
1
 10
77.250000
 20
22.970558
 30
0.0
  0
SPLINE
  5
146
100
AcDbEntity
  8
Image
 62
7
100
AcDbSpline
 70
8
 71
3
 72
8
 73
4
 74
0
 40
0
 40
0
 40
0
 40
0
 40
1
 40
1
 40
1
 40
1
 10
112.658760
 20
82.608817
 30
0.0
 10
101.749815
 20
78.835492
 30
0.0
 10
84.940628
 20
71.774730
 30
0.0
 10
79.255522
 20
68.577652
 30
0.0
  0
SPLINE
  5
147
100
AcDbEntity
  8
Image
 62
7
100
AcDbSpline
 70
8
 71
3
 72
8
 73
4
 74
0
 40
0
 40
0
 40
0
 40
0
 40
1
 40
1
 40
1
 40
1
 10
79.255522
 20
68.577652
 30
0.0
 10
63.545389
 20
59.742900
 30
0.0
 10
54.674625
 20
48.575647
 30
0.0
 10
55.386900
 20
38.529855
 30
0.0
  0
SPLINE
  5
148
100
AcDbEntity
  8
Image
 62
7
100
AcDbSpline
 70
8
 71
3
 72
8
 73
4
 74
0
 40
0
 40
0
 40
0
 40
0
 40
1
 40
1
 40
1
 40
1
 10
55.386900
 20
38.529855
 30
0.0
 10
55.597407
 20
35.560905
 30
0.0
 10
68.506700
 20
31.315807
 30
0.0
 10
78.750000
 20
30.847125
 30
0.0
  0
SPLINE
  5
149
100
AcDbEntity
  8
Image
 62
7
100
AcDbSpline
 70
8
 71
3
 72
8
 73
4
 74
0
 40
0
 40
0
 40
0
 40
0
 40
1
 40
1
 40
1
 40
1
 10
78.750000
 20
30.847125
 30
0.0
 10
79.781250
 20
30.799950
 30
0.0
 10
82.788637
 20
31.112392
 30
0.0
 10
85.433093
 20
31.541467
 30
0.0
  0
LWPOLYLINE
  5
14a
100
AcDbEntity
  8
Image
 62
7
100
AcDbPolyline
 90
3
 70
0
 10
120.321578
 20
81.801780
 30
0.0
 10
117.692528
 20
84.349957
 30
0.0
 10
112.658760
 20
82.608817
 30
0.0
  0
LWPOLYLINE
  5
14b
100
AcDbEntity
  8
Image
 62
7
100
AcDbPolyline
 90
1
 70
1
 10
85.433093
 20
31.541467
 30
0.0
  0
ENDSEC
  0
SECTION
  2
OBJECTS
  0
DICTIONARY
  5
C
330
0
100
AcDbDictionary
  3
ACAD_GROUP
350
D
  3
ACAD_MLINESTYLE
350
17
  0
DICTIONARY
  5
D
330
C
100
AcDbDictionary
  0
DICTIONARY
  5
1A
330
C
100
AcDbDictionary
  0
DICTIONARY
  5
17
330
C
100
AcDbDictionary
  3
STANDARD
350
18
  0
DICTIONARY
  5
19
330
C
100
AcDbDictionary
  0
ENDSEC
  0
EOF
