999
"DXF R12 Output" (www.mydxf.blogspot.com)
 0 
SECTION
 2 
HEADER
 9 
$ACADVER
 1 
AC1009
 9 
$EXTMIN
 10 
 0 
 20 
 0 
 9 
$EXTMAX
 10 
 8.5 
 20 
 11 
 0 
ENDSEC
 0 
SECTION
 2 
ENTITIES
0
LINE
8
Layer 1
10
-3.456270
20
-27.317700
11
-5.642887
21
-27.045861
0
LINE
8
Layer 1
10
-5.642887
20
-27.045861
11
-7.889594
21
-26.591738
0
LINE
8
Layer 1
10
-7.889594
20
-26.591738
11
-10.157418
21
-25.964664
0
LINE
8
Layer 1
10
-10.157418
20
-25.964664
11
-12.407390
21
-25.173970
0
LINE
8
Layer 1
10
-12.407390
20
-25.173970
11
-14.992133
21
-24.010144
0
LINE
8
Layer 1
10
-14.992133
20
-24.010144
11
-17.539810
21
-22.663230
0
LINE
8
Layer 1
10
-17.539810
20
-22.663230
11
-18.811250
21
-21.910583
0
LINE
8
Layer 1
10
-18.811250
20
-21.910583
11
-30.179150
21
-14.400663
0
LINE
8
Layer 1
10
-30.179150
20
-14.400663
11
-32.323139
21
-12.746975
0
LINE
8
Layer 1
10
-32.323139
20
-12.746975
11
-34.260049
21
-11.032034
0
LINE
8
Layer 1
10
-34.260049
20
-11.032034
11
-36.005706
21
-9.240768
0
LINE
8
Layer 1
10
-36.005706
20
-9.240768
11
-37.575940
21
-7.358103
0
LINE
8
Layer 1
10
-37.575940
20
-7.358103
11
-39.622833
21
-4.424273
0
LINE
8
Layer 1
10
-39.622833
20
-4.424273
11
-41.464765
21
-1.212293
0
LINE
8
Layer 1
10
-41.464765
20
-1.212293
11
-43.093832
21
2.262607
0
LINE
8
Layer 1
10
-43.093832
20
2.262607
11
-44.502130
21
5.985197
0
LINE
8
Layer 1
10
-44.502130
20
5.985197
11
-45.514867
21
9.343246
0
LINE
8
Layer 1
10
-45.514867
20
9.343246
11
-46.300950
21
12.630937
0
LINE
8
Layer 1
10
-46.300950
20
12.630937
11
-46.871033
21
16.364497
0
LINE
8
Layer 1
10
-46.871033
20
16.364497
11
-47.057198
21
17.708577
0
LINE
8
Layer 1
10
-47.057198
20
17.708577
11
-47.129915
21
18.417956
0
LINE
8
Layer 1
10
-47.129915
20
18.417956
11
-47.204572
21
19.239338
0
LINE
8
Layer 1
10
-47.204572
20
19.239338
11
-47.279454
21
20.284738
0
LINE
8
Layer 1
10
-47.279454
20
20.284738
11
-47.369993
21
21.377959
0
LINE
8
Layer 1
10
-47.369993
20
21.377959
11
-47.533804
21
21.843048
0
LINE
8
Layer 1
10
-47.533804
20
21.843048
11
-48.937984
21
23.335328
0
LINE
8
Layer 1
10
-48.937984
20
23.335328
11
-51.285925
21
25.865120
0
LINE
8
Layer 1
10
-51.285925
20
25.865120
11
-53.078603
21
28.242228
0
LINE
8
Layer 1
10
-53.078603
20
28.242228
11
-55.269405
21
31.896409
0
LINE
8
Layer 1
10
-55.269405
20
31.896409
11
-57.074563
21
35.704348
0
LINE
8
Layer 1
10
-57.074563
20
35.704348
11
-58.563124
21
39.848801
0
LINE
8
Layer 1
10
-58.563124
20
39.848801
11
-59.696753
21
43.999109
0
LINE
8
Layer 1
10
-59.696753
20
43.999109
11
-60.494870
21
48.239637
0
LINE
8
Layer 1
10
-60.494870
20
48.239637
11
-60.976893
21
52.654748
0
LINE
8
Layer 1
10
-60.976893
20
52.654748
11
-61.019886
21
56.585121
0
LINE
8
Layer 1
10
-61.019886
20
56.585121
11
-60.874379
21
60.569898
0
LINE
8
Layer 1
10
-60.874379
20
60.569898
11
-60.170456
21
65.387843
0
LINE
8
Layer 1
10
-60.170456
20
65.387843
11
-58.840829
21
70.426498
0
LINE
8
Layer 1
10
-58.840829
20
70.426498
11
-57.918021
21
73.099223
0
LINE
8
Layer 1
10
-57.918021
20
73.099223
11
-56.824835
21
75.693908
0
LINE
8
Layer 1
10
-56.824835
20
75.693908
11
-55.557402
21
78.216665
0
LINE
8
Layer 1
10
-55.557402
20
78.216665
11
-54.111853
21
80.673604
0
LINE
8
Layer 1
10
-54.111853
20
80.673604
11
-52.484320
21
83.070836
0
LINE
8
Layer 1
10
-52.484320
20
83.070836
11
-50.670935
21
85.414472
0
LINE
8
Layer 1
10
-50.670935
20
85.414472
11
-48.667827
21
87.710623
0
LINE
8
Layer 1
10
-48.667827
20
87.710623
11
-46.471129
21
89.965398
0
LINE
8
Layer 1
10
-46.471129
20
89.965398
11
-43.087735
21
92.947837
0
LINE
8
Layer 1
10
-43.087735
20
92.947837
11
-39.459769
21
95.552869
0
LINE
8
Layer 1
10
-39.459769
20
95.552869
11
-35.647184
21
97.741863
0
LINE
8
Layer 1
10
-35.647184
20
97.741863
11
-31.709929
21
99.476188
0
LINE
8
Layer 1
10
-31.709929
20
99.476188
11
-29.272585
21
100.284678
0
LINE
8
Layer 1
10
-29.272585
20
100.284678
11
-26.754163
21
100.912210
0
LINE
8
Layer 1
10
-26.754163
20
100.912210
11
-24.163370
21
101.358224
0
LINE
8
Layer 1
10
-24.163370
20
101.358224
11
-21.508914
21
101.622159
0
LINE
8
Layer 1
10
-21.508914
20
101.622159
11
-18.799505
21
101.703455
0
LINE
8
Layer 1
10
-18.799505
20
101.703455
11
-16.043849
21
101.601551
0
LINE
8
Layer 1
10
-16.043849
20
101.601551
11
-13.250654
21
101.315885
0
LINE
8
Layer 1
10
-13.250654
20
101.315885
11
-10.428629
21
100.845898
0
LINE
8
Layer 1
10
-10.428629
20
100.845898
11
-6.112774
21
99.757221
0
LINE
8
Layer 1
10
-6.112774
20
99.757221
11
-1.771727
21
98.216533
0
LINE
8
Layer 1
10
-1.771727
20
98.216533
11
2.469318
21
96.274632
0
LINE
8
Layer 1
10
2.469318
20
96.274632
11
6.485171
21
93.982318
0
LINE
8
Layer 1
10
6.485171
20
93.982318
11
7.417762
21
93.400307
0
LINE
8
Layer 1
10
7.417762
20
93.400307
11
14.660872
21
88.532747
0
LINE
8
Layer 1
10
14.660872
20
88.532747
11
18.055696
21
85.939581
0
LINE
8
Layer 1
10
18.055696
20
85.939581
11
20.923400
21
83.274000
0
LINE
8
Layer 1
10
20.923400
20
83.274000
11
22.636663
21
81.450352
0
LINE
8
Layer 1
10
22.636663
20
81.450352
11
24.152675
21
79.626487
0
LINE
8
Layer 1
10
24.152675
20
79.626487
11
26.990300
21
75.466800
0
LINE
8
Layer 1
10
26.990300
20
75.466800
11
29.359954
21
71.041053
0
LINE
8
Layer 1
10
29.359954
20
71.041053
11
31.334076
21
66.163805
0
LINE
8
Layer 1
10
31.334076
20
66.163805
11
32.916205
21
60.824880
0
LINE
8
Layer 1
10
32.916205
20
60.824880
11
34.109880
21
55.014100
0
LINE
8
Layer 1
10
34.109880
20
55.014100
11
34.591263
21
52.057400
0
LINE
8
Layer 1
10
34.591263
20
52.057400
11
35.228402
21
46.270380
0
LINE
8
Layer 1
10
35.228402
20
46.270380
11
35.755872
21
37.384500
0
LINE
8
Layer 1
10
35.755872
20
37.384500
11
35.811921
21
29.873409
0
LINE
8
Layer 1
10
35.811921
20
29.873409
11
35.568491
21
22.711600
0
LINE
8
Layer 1
10
35.568491
20
22.711600
11
35.415603
21
20.583470
0
LINE
8
Layer 1
10
35.415603
20
20.583470
11
35.232794
21
18.347180
0
LINE
8
Layer 1
10
35.232794
20
18.347180
11
35.182930
21
17.794307
0
LINE
8
Layer 1
10
35.182930
20
17.794307
11
35.272578
21
17.453179
0
LINE
8
Layer 1
10
35.272578
20
17.453179
11
35.472359
21
17.284801
0
LINE
8
Layer 1
10
35.472359
20
17.284801
11
35.752893
21
17.250178
0
LINE
8
Layer 1
10
35.752893
20
17.250178
11
37.094964
21
17.669314
0
LINE
8
Layer 1
10
37.094964
20
17.669314
11
40.043766
21
18.642341
0
LINE
8
Layer 1
10
40.043766
20
18.642341
11
42.384512
21
19.578685
0
LINE
8
Layer 1
10
42.384512
20
19.578685
11
44.292436
21
20.557331
0
LINE
8
Layer 1
10
44.292436
20
20.557331
11
45.942774
21
21.657264
0
LINE
8
Layer 1
10
45.942774
20
21.657264
11
47.393811
21
22.876135
0
LINE
8
Layer 1
10
47.393811
20
22.876135
11
48.639717
21
24.208879
0
LINE
8
Layer 1
10
48.639717
20
24.208879
11
49.713929
21
25.696138
0
LINE
8
Layer 1
10
49.713929
20
25.696138
11
50.649884
21
27.378554
0
LINE
8
Layer 1
10
50.649884
20
27.378554
11
51.353299
21
28.933012
0
LINE
8
Layer 1
10
51.353299
20
28.933012
11
51.702364
21
30.106514
0
LINE
8
Layer 1
10
51.702364
20
30.106514
11
52.108143
21
35.256364
0
LINE
8
Layer 1
10
52.108143
20
35.256364
11
52.487137
21
39.295040
0
LINE
8
Layer 1
10
52.487137
20
39.295040
11
52.776217
21
40.809638
0
LINE
8
Layer 1
10
52.776217
20
40.809638
11
53.105877
21
41.818004
0
LINE
8
Layer 1
10
53.105877
20
41.818004
11
53.641097
21
42.583384
0
LINE
8
Layer 1
10
53.641097
20
42.583384
11
53.959639
21
42.861863
0
LINE
8
Layer 1
10
53.959639
20
42.861863
11
54.262551
21
42.958556
0
LINE
8
Layer 1
10
54.262551
20
42.958556
11
55.071267
21
42.611493
0
LINE
8
Layer 1
10
55.071267
20
42.611493
11
56.122137
21
41.927412
0
LINE
8
Layer 1
10
56.122137
20
41.927412
11
57.568697
21
41.006062
0
LINE
8
Layer 1
10
57.568697
20
41.006062
11
58.996977
21
40.084703
0
LINE
8
Layer 1
10
58.996977
20
40.084703
11
60.042377
21
39.412651
0
LINE
8
Layer 1
10
60.042377
20
39.412651
11
62.075327
21
37.994411
0
LINE
8
Layer 1
10
62.075327
20
37.994411
11
62.450507
21
35.683391
0
LINE
8
Layer 1
10
62.450507
20
35.683391
11
62.564976
21
35.207765
0
LINE
8
Layer 1
10
62.564976
20
35.207765
11
63.367692
21
35.426103
0
LINE
8
Layer 1
10
63.367692
20
35.426103
11
64.849089
21
35.887621
0
LINE
8
Layer 1
10
64.849089
20
35.887621
11
66.160443
21
36.079059
0
LINE
8
Layer 1
10
66.160443
20
36.079059
11
67.298902
21
36.000285
0
LINE
8
Layer 1
10
67.298902
20
36.000285
11
68.261612
21
35.651169
0
LINE
8
Layer 1
10
68.261612
20
35.651169
11
71.336392
21
33.712339
0
LINE
8
Layer 1
10
71.336392
20
33.712339
11
75.887408
21
30.723976
0
LINE
8
Layer 1
10
75.887408
20
30.723976
11
76.641500
21
30.093958
0
LINE
8
Layer 1
10
76.641500
20
30.093958
11
77.035802
21
29.563639
0
LINE
8
Layer 1
10
77.035802
20
29.563639
11
77.448171
21
28.759498
0
LINE
8
Layer 1
10
77.448171
20
28.759498
11
77.723891
21
27.844491
0
LINE
8
Layer 1
10
77.723891
20
27.844491
11
77.918550
21
25.433099
0
LINE
8
Layer 1
10
77.918550
20
25.433099
11
77.786328
21
23.090303
0
LINE
8
Layer 1
10
77.786328
20
23.090303
11
77.235847
21
19.463409
0
LINE
8
Layer 1
10
77.235847
20
19.463409
11
76.762029
21
16.366504
0
LINE
8
Layer 1
10
76.762029
20
16.366504
11
76.680539
21
14.273759
0
LINE
8
Layer 1
10
76.680539
20
14.273759
11
76.833809
21
10.639237
0
LINE
8
Layer 1
10
76.833809
20
10.639237
11
77.197973
21
8.524289
0
LINE
8
Layer 1
10
77.197973
20
8.524289
11
77.630888
21
8.196750
0
LINE
8
Layer 1
10
77.630888
20
8.196750
11
78.915523
21
7.792295
0
LINE
8
Layer 1
10
78.915523
20
7.792295
11
81.631082
21
7.196531
0
LINE
8
Layer 1
10
81.631082
20
7.196531
11
84.142513
21
7.017999
0
LINE
8
Layer 1
10
84.142513
20
7.017999
11
85.908144
21
7.117354
0
LINE
8
Layer 1
10
85.908144
20
7.117354
11
87.667903
21
7.439748
0
LINE
8
Layer 1
10
87.667903
20
7.439748
11
89.535594
21
8.013298
0
LINE
8
Layer 1
10
89.535594
20
8.013298
11
91.625023
21
8.866119
0
LINE
8
Layer 1
10
91.625023
20
8.866119
11
93.684741
21
9.844319
0
LINE
8
Layer 1
10
93.684741
20
9.844319
11
94.335133
21
10.313669
0
LINE
8
Layer 1
10
94.335133
20
10.313669
11
93.805843
21
11.115758
0
LINE
8
Layer 1
10
93.805843
20
11.115758
11
92.397223
21
13.128700
0
LINE
8
Layer 1
10
92.397223
20
13.128700
11
91.389643
21
15.183198
0
LINE
8
Layer 1
10
91.389643
20
15.183198
11
90.670341
21
17.827054
0
LINE
8
Layer 1
10
90.670341
20
17.827054
11
90.487701
21
20.613775
0
LINE
8
Layer 1
10
90.487701
20
20.613775
11
90.838216
21
23.426432
0
LINE
8
Layer 1
10
90.838216
20
23.426432
11
91.718384
21
26.148098
0
LINE
8
Layer 1
10
91.718384
20
26.148098
11
92.687271
21
27.948431
0
LINE
8
Layer 1
10
92.687271
20
27.948431
11
93.998389
21
29.697130
0
LINE
8
Layer 1
10
93.998389
20
29.697130
11
95.617074
21
31.353902
0
LINE
8
Layer 1
10
95.617074
20
31.353902
11
97.508664
21
32.878458
0
LINE
8
Layer 1
10
97.508664
20
32.878458
11
99.516021
21
34.142440
0
LINE
8
Layer 1
10
99.516021
20
34.142440
11
101.479955
21
34.995508
0
LINE
8
Layer 1
10
101.479955
20
34.995508
11
103.521037
21
35.477866
0
LINE
8
Layer 1
10
103.521037
20
35.477866
11
105.759834
21
35.629718
0
LINE
8
Layer 1
10
105.759834
20
35.629718
11
108.021337
21
35.477177
0
LINE
8
Layer 1
10
108.021337
20
35.477177
11
110.151049
21
34.991208
0
LINE
8
Layer 1
10
110.151049
20
34.991208
11
112.283417
21
34.129294
0
LINE
8
Layer 1
10
112.283417
20
34.129294
11
114.552884
21
32.848918
0
LINE
8
Layer 1
10
114.552884
20
32.848918
11
119.385622
21
29.736051
0
LINE
8
Layer 1
10
119.385622
20
29.736051
11
121.762934
21
28.052488
0
LINE
8
Layer 1
10
121.762934
20
28.052488
11
122.464124
21
27.366564
0
LINE
8
Layer 1
10
122.464124
20
27.366564
11
122.947403
21
26.688099
0
LINE
8
Layer 1
10
122.947403
20
26.688099
11
123.226574
21
25.992216
0
LINE
8
Layer 1
10
123.226574
20
25.992216
11
123.315444
21
25.254038
0
LINE
8
Layer 1
10
123.315444
20
25.254038
11
123.107805
21
24.011645
0
LINE
8
Layer 1
10
123.107805
20
24.011645
11
122.406039
21
22.551728
0
LINE
8
Layer 1
10
122.406039
20
22.551728
11
121.083995
21
20.665715
0
LINE
8
Layer 1
10
121.083995
20
20.665715
11
119.015524
21
18.145028
0
LINE
8
Layer 1
10
119.015524
20
18.145028
11
113.510412
21
11.934431
0
LINE
8
Layer 1
10
113.510412
20
11.934431
11
111.614394
21
10.059178
0
LINE
8
Layer 1
10
111.614394
20
10.059178
11
109.914304
21
8.611018
0
LINE
8
Layer 1
10
109.914304
20
8.611018
11
108.825534
21
7.726514
0
LINE
8
Layer 1
10
108.825534
20
7.726514
11
108.624429
21
7.517512
0
LINE
8
Layer 1
10
108.624429
20
7.517512
11
108.704836
21
7.433076
0
LINE
8
Layer 1
10
108.704836
20
7.433076
11
110.685417
21
7.568332
0
LINE
8
Layer 1
10
110.685417
20
7.568332
11
114.011006
21
8.113101
0
LINE
8
Layer 1
10
114.011006
20
8.113101
11
117.957957
21
9.175916
0
LINE
8
Layer 1
10
117.957957
20
9.175916
11
121.702146
21
10.805031
0
LINE
8
Layer 1
10
121.702146
20
10.805031
11
124.058009
21
12.122870
0
LINE
8
Layer 1
10
124.058009
20
12.122870
11
126.161560
21
13.532151
0
LINE
8
Layer 1
10
126.161560
20
13.532151
11
127.984249
21
15.011865
0
LINE
8
Layer 1
10
127.984249
20
15.011865
11
129.497526
21
16.541001
0
LINE
8
Layer 1
10
129.497526
20
16.541001
11
130.777232
21
18.133899
0
LINE
8
Layer 1
10
130.777232
20
18.133899
11
131.771487
21
19.659011
0
LINE
8
Layer 1
10
131.771487
20
19.659011
11
132.501114
21
21.152804
0
LINE
8
Layer 1
10
132.501114
20
21.152804
11
132.986936
21
22.651741
0
LINE
8
Layer 1
10
132.986936
20
22.651741
11
133.319529
21
23.641493
0
LINE
8
Layer 1
10
133.319529
20
23.641493
11
133.823163
21
24.371391
0
LINE
8
Layer 1
10
133.823163
20
24.371391
11
134.094472
21
24.615116
0
LINE
8
Layer 1
10
134.094472
20
24.615116
11
134.378181
21
24.630062
0
LINE
8
Layer 1
10
134.378181
20
24.630062
11
135.053217
21
24.334197
0
LINE
8
Layer 1
10
135.053217
20
24.334197
11
138.032217
21
22.412907
0
LINE
8
Layer 1
10
138.032217
20
22.412907
11
140.733499
21
20.594446
0
LINE
8
Layer 1
10
140.733499
20
20.594446
11
141.282179
21
20.081687
0
LINE
8
Layer 1
10
141.282179
20
20.081687
11
141.575217
21
19.612737
0
LINE
8
Layer 1
10
141.575217
20
19.612737
11
141.757476
21
18.644344
0
LINE
8
Layer 1
10
141.757476
20
18.644344
11
141.572253
21
17.389324
0
LINE
8
Layer 1
10
141.572253
20
17.389324
11
141.041251
21
15.929930
0
LINE
8
Layer 1
10
141.041251
20
15.929930
11
140.186177
21
14.348417
0
LINE
8
Layer 1
10
140.186177
20
14.348417
11
139.172214
21
12.911377
0
LINE
8
Layer 1
10
139.172214
20
12.911377
11
137.918963
21
11.432522
0
LINE
8
Layer 1
10
137.918963
20
11.432522
11
136.510517
21
10.003715
0
LINE
8
Layer 1
10
136.510517
20
10.003715
11
135.030967
21
8.716817
0
LINE
8
Layer 1
10
135.030967
20
8.716817
11
132.850256
21
7.139272
0
LINE
8
Layer 1
10
132.850256
20
7.139272
11
130.364017
21
5.541427
0
LINE
8
Layer 1
10
130.364017
20
5.541427
11
125.697067
21
3.186157
0
LINE
8
Layer 1
10
125.697067
20
3.186157
11
122.821759
21
2.143134
0
LINE
8
Layer 1
10
122.821759
20
2.143134
11
119.746194
21
1.335036
0
LINE
8
Layer 1
10
119.746194
20
1.335036
11
116.621892
21
0.794814
0
LINE
8
Layer 1
10
116.621892
20
0.794814
11
113.600367
21
0.555417
0
LINE
8
Layer 1
10
113.600367
20
0.555417
11
111.055364
21
0.620166
0
LINE
8
Layer 1
10
111.055364
20
0.620166
11
108.858769
21
1.019463
0
LINE
8
Layer 1
10
108.858769
20
1.019463
11
106.718444
21
1.835153
0
LINE
8
Layer 1
10
106.718444
20
1.835153
11
104.342247
21
3.149077
0
LINE
8
Layer 1
10
104.342247
20
3.149077
11
102.821437
21
3.969101
0
LINE
8
Layer 1
10
102.821437
20
3.969101
11
100.744847
21
3.043506
0
LINE
8
Layer 1
10
100.744847
20
3.043506
11
97.807016
21
1.687364
0
LINE
8
Layer 1
10
97.807016
20
1.687364
11
95.439452
21
0.809256
0
LINE
8
Layer 1
10
95.439452
20
0.809256
11
93.338123
21
0.315876
0
LINE
8
Layer 1
10
93.338123
20
0.315876
11
91.198997
21
0.113916
0
LINE
8
Layer 1
10
91.198997
20
0.113916
11
89.018135
21
0.190252
0
LINE
8
Layer 1
10
89.018135
20
0.190252
11
86.611501
21
0.569742
0
LINE
8
Layer 1
10
86.611501
20
0.569742
11
84.035755
21
1.240444
0
LINE
8
Layer 1
10
84.035755
20
1.240444
11
81.347557
21
2.190416
0
LINE
8
Layer 1
10
81.347557
20
2.190416
11
78.645629
21
3.489131
0
LINE
8
Layer 1
10
78.645629
20
3.489131
11
74.208037
21
6.209236
0
LINE
8
Layer 1
10
74.208037
20
6.209236
11
70.619724
21
8.556358
0
LINE
8
Layer 1
10
70.619724
20
8.556358
11
69.023337
21
9.881896
0
LINE
8
Layer 1
10
69.023337
20
9.881896
11
68.016202
21
11.126666
0
LINE
8
Layer 1
10
68.016202
20
11.126666
11
67.417476
21
12.638338
0
LINE
8
Layer 1
10
67.417476
20
12.638338
11
67.127823
21
14.831138
0
LINE
8
Layer 1
10
67.127823
20
14.831138
11
67.047907
21
18.119296
0
LINE
8
Layer 1
10
67.047907
20
18.119296
11
67.102847
21
20.790510
0
LINE
8
Layer 1
10
67.102847
20
20.790510
11
67.571330
21
24.089796
0
LINE
8
Layer 1
10
67.571330
20
24.089796
11
67.861295
21
26.163373
0
LINE
8
Layer 1
10
67.861295
20
26.163373
11
67.778834
21
26.648306
0
LINE
8
Layer 1
10
67.778834
20
26.648306
11
66.887284
21
26.062191
0
LINE
8
Layer 1
10
66.887284
20
26.062191
11
65.559714
21
24.903596
0
LINE
8
Layer 1
10
65.559714
20
24.903596
11
64.540502
21
23.780949
0
LINE
8
Layer 1
10
64.540502
20
23.780949
11
63.570214
21
22.481116
0
LINE
8
Layer 1
10
63.570214
20
22.481116
11
61.550294
21
19.017966
0
LINE
8
Layer 1
10
61.550294
20
19.017966
11
60.387569
21
16.596271
0
LINE
8
Layer 1
10
60.387569
20
16.596271
11
59.568355
21
14.365833
0
LINE
8
Layer 1
10
59.568355
20
14.365833
11
58.984080
21
11.968656
0
LINE
8
Layer 1
10
58.984080
20
11.968656
11
58.526174
21
9.046746
0
LINE
8
Layer 1
10
58.526174
20
9.046746
11
57.433200
21
2.448468
0
LINE
8
Layer 1
10
57.433200
20
2.448468
11
56.870412
21
0.087453
0
LINE
8
Layer 1
10
56.870412
20
0.087453
11
56.381224
21
-1.242954
0
LINE
8
Layer 1
10
56.381224
20
-1.242954
11
55.929716
21
-1.878090
0
LINE
8
Layer 1
10
55.929716
20
-1.878090
11
55.506179
21
-2.184647
0
LINE
8
Layer 1
10
55.506179
20
-2.184647
11
55.044109
21
-2.185725
0
LINE
8
Layer 1
10
55.044109
20
-2.185725
11
54.477004
21
-1.904429
0
LINE
8
Layer 1
10
54.477004
20
-1.904429
11
52.284174
21
-0.511179
0
LINE
8
Layer 1
10
52.284174
20
-0.511179
11
51.263534
21
0.142193
0
LINE
8
Layer 1
10
51.263534
20
0.142193
11
50.748928
21
0.459546
0
LINE
8
Layer 1
10
50.748928
20
0.459546
11
50.180112
21
0.818476
0
LINE
8
Layer 1
10
50.180112
20
0.818476
11
49.532444
21
1.230379
0
LINE
8
Layer 1
10
49.532444
20
1.230379
11
49.103100
21
1.487486
0
LINE
8
Layer 1
10
49.103100
20
1.487486
11
48.067010
21
2.139650
0
LINE
8
Layer 1
10
48.067010
20
2.139650
11
47.050970
21
2.852348
0
LINE
8
Layer 1
10
47.050970
20
2.852348
11
46.783063
21
3.175157
0
LINE
8
Layer 1
10
46.783063
20
3.175157
11
46.679413
21
3.823076
0
LINE
8
Layer 1
10
46.679413
20
3.823076
11
46.649043
21
5.729316
0
LINE
8
Layer 1
10
46.649043
20
5.729316
11
46.960903
21
8.452251
0
LINE
8
Layer 1
10
46.960903
20
8.452251
11
47.961843
21
12.589476
0
LINE
8
Layer 1
10
47.961843
20
12.589476
11
48.487044
21
14.639116
0
LINE
8
Layer 1
10
48.487044
20
14.639116
11
48.259081
21
14.710435
0
LINE
8
Layer 1
10
48.259081
20
14.710435
11
47.480924
21
14.534547
0
LINE
8
Layer 1
10
47.480924
20
14.534547
11
42.998704
21
13.682375
0
LINE
8
Layer 1
10
42.998704
20
13.682375
11
39.467814
21
13.301790
0
LINE
8
Layer 1
10
39.467814
20
13.301790
11
35.255104
21
13.265293
0
LINE
8
Layer 1
10
35.255104
20
13.265293
11
34.751240
21
13.289322
0
LINE
8
Layer 1
10
34.751240
20
13.289322
11
34.643636
21
13.143435
0
LINE
8
Layer 1
10
34.643636
20
13.143435
11
34.342158
21
11.324225
0
LINE
8
Layer 1
10
34.342158
20
11.324225
11
33.534561
21
6.862845
0
LINE
8
Layer 1
10
33.534561
20
6.862845
11
32.729738
21
3.483745
0
LINE
8
Layer 1
10
32.729738
20
3.483745
11
32.168486
21
1.467625
0
LINE
8
Layer 1
10
32.168486
20
1.467625
11
31.388111
21
-0.979594
0
LINE
8
Layer 1
10
31.388111
20
-0.979594
11
30.313764
21
-3.782641
0
LINE
8
Layer 1
10
30.313764
20
-3.782641
11
29.083606
21
-6.604304
0
LINE
8
Layer 1
10
29.083606
20
-6.604304
11
27.835796
21
-9.107375
0
LINE
8
Layer 1
10
27.835796
20
-9.107375
11
25.747256
21
-12.586452
0
LINE
8
Layer 1
10
25.747256
20
-12.586452
11
23.455520
21
-15.685456
0
LINE
8
Layer 1
10
23.455520
20
-15.685456
11
20.928267
21
-18.443669
0
LINE
8
Layer 1
10
20.928267
20
-18.443669
11
18.133176
21
-20.900375
0
LINE
8
Layer 1
10
18.133176
20
-20.900375
11
16.425077
21
-22.147511
0
LINE
8
Layer 1
10
16.425077
20
-22.147511
11
14.614401
21
-23.282122
0
LINE
8
Layer 1
10
14.614401
20
-23.282122
11
12.752335
21
-24.274559
0
LINE
8
Layer 1
10
12.752335
20
-24.274559
11
10.890066
21
-25.095175
0
LINE
8
Layer 1
10
10.890066
20
-25.095175
11
6.952254
21
-26.408192
0
LINE
8
Layer 1
10
6.952254
20
-26.408192
11
2.750906
21
-27.213295
0
LINE
8
Layer 1
10
2.750906
20
-27.213295
11
-0.260730
21
-27.353837
0
LINE
8
Layer 1
10
-0.260730
20
-27.353837
11
-3.456234
21
-27.317706
0
LINE
8
Layer 1
10
-3.456234
20
-27.317706
11
-3.456270
21
-27.317700
0
LINE
8
Layer 1
10
-10.430220
20
-14.815100
11
-7.134432
21
-14.250605
0
LINE
8
Layer 1
10
-7.134432
20
-14.250605
11
-3.901750
21
-13.336009
0
LINE
8
Layer 1
10
-3.901750
20
-13.336009
11
-0.694028
21
-12.058328
0
LINE
8
Layer 1
10
-0.694028
20
-12.058328
11
2.526880
21
-10.404580
0
LINE
8
Layer 1
10
2.526880
20
-10.404580
11
5.975455
21
-8.173122
0
LINE
8
Layer 1
10
5.975455
20
-8.173122
11
9.269159
21
-5.509164
0
LINE
8
Layer 1
10
9.269159
20
-5.509164
11
12.350424
21
-2.464264
0
LINE
8
Layer 1
10
12.350424
20
-2.464264
11
15.161680
21
0.910020
0
LINE
8
Layer 1
10
15.161680
20
0.910020
11
17.018103
21
3.562064
0
LINE
8
Layer 1
10
17.018103
20
3.562064
11
18.725229
21
6.417615
0
LINE
8
Layer 1
10
18.725229
20
6.417615
11
20.340245
21
9.580268
0
LINE
8
Layer 1
10
20.340245
20
9.580268
11
21.920340
21
13.153620
0
LINE
8
Layer 1
10
21.920340
20
13.153620
11
23.125875
21
16.432166
0
LINE
8
Layer 1
10
23.125875
20
16.432166
11
24.255834
21
20.191214
0
LINE
8
Layer 1
10
24.255834
20
20.191214
11
25.212330
21
24.072315
0
LINE
8
Layer 1
10
25.212330
20
24.072315
11
25.897480
21
27.717020
0
LINE
8
Layer 1
10
25.897480
20
27.717020
11
26.197427
21
29.618610
0
LINE
8
Layer 1
10
26.197427
20
29.618610
11
26.905124
21
36.115010
0
LINE
8
Layer 1
10
26.905124
20
36.115010
11
27.101351
21
40.576453
0
LINE
8
Layer 1
10
27.101351
20
40.576453
11
27.105945
21
44.291510
0
LINE
8
Layer 1
10
27.105945
20
44.291510
11
26.931468
21
49.129076
0
LINE
8
Layer 1
10
26.931468
20
49.129076
11
26.494300
21
53.466100
0
LINE
8
Layer 1
10
26.494300
20
53.466100
11
25.559838
21
59.318438
0
LINE
8
Layer 1
10
25.559838
20
59.318438
11
24.191500
21
64.753100
0
LINE
8
Layer 1
10
24.191500
20
64.753100
11
22.647789
21
69.328498
0
LINE
8
Layer 1
10
22.647789
20
69.328498
11
20.707262
21
73.740763
0
LINE
8
Layer 1
10
20.707262
20
73.740763
11
18.443355
21
77.841195
0
LINE
8
Layer 1
10
18.443355
20
77.841195
11
15.929500
21
81.481100
0
LINE
8
Layer 1
10
15.929500
20
81.481100
11
14.126439
21
83.670970
0
LINE
8
Layer 1
10
14.126439
20
83.670970
11
12.329309
21
85.619988
0
LINE
8
Layer 1
10
12.329309
20
85.619988
11
10.661717
21
87.202161
0
LINE
8
Layer 1
10
10.661717
20
87.202161
11
9.247270
21
88.291500
0
LINE
8
Layer 1
10
9.247270
20
88.291500
11
7.561457
21
89.191525
0
LINE
8
Layer 1
10
7.561457
20
89.191525
11
5.315505
21
90.130475
0
LINE
8
Layer 1
10
5.315505
20
90.130475
11
2.767296
21
91.010513
0
LINE
8
Layer 1
10
2.767296
20
91.010513
11
0.174712
21
91.733800
0
LINE
8
Layer 1
10
0.174712
20
91.733800
11
-4.070162
21
92.516514
0
LINE
8
Layer 1
10
-4.070162
20
92.516514
11
-8.298397
21
92.810012
0
LINE
8
Layer 1
10
-8.298397
20
92.810012
11
-12.477856
21
92.613930
0
LINE
8
Layer 1
10
-12.477856
20
92.613930
11
-16.576400
21
91.927900
0
LINE
8
Layer 1
10
-16.576400
20
91.927900
11
-21.119169
21
90.604048
0
LINE
8
Layer 1
10
-21.119169
20
90.604048
11
-25.496450
21
88.769512
0
LINE
8
Layer 1
10
-25.496450
20
88.769512
11
-29.657506
21
86.448995
0
LINE
8
Layer 1
10
-29.657506
20
86.448995
11
-33.551600
21
83.667200
0
LINE
8
Layer 1
10
-33.551600
20
83.667200
11
-36.538203
21
81.050155
0
LINE
8
Layer 1
10
-36.538203
20
81.050155
11
-39.128150
21
78.280587
0
LINE
8
Layer 1
10
-39.128150
20
78.280587
11
-41.438272
21
75.219477
0
LINE
8
Layer 1
10
-41.438272
20
75.219477
11
-43.585400
21
71.727800
0
LINE
8
Layer 1
10
-43.585400
20
71.727800
11
-44.771929
21
69.441850
0
LINE
8
Layer 1
10
-44.771929
20
69.441850
11
-45.836436
21
67.049095
0
LINE
8
Layer 1
10
-45.836436
20
67.049095
11
-46.743625
21
64.635572
0
LINE
8
Layer 1
10
-46.743625
20
64.635572
11
-47.458200
21
62.287320
0
LINE
8
Layer 1
10
-47.458200
20
62.287320
11
-48.460463
21
57.332739
0
LINE
8
Layer 1
10
-48.460463
20
57.332739
11
-49.028710
21
52.169320
0
LINE
8
Layer 1
10
-49.028710
20
52.169320
11
-48.993624
21
46.905000
0
LINE
8
Layer 1
10
-48.993624
20
46.905000
11
-48.324263
21
41.292890
0
LINE
8
Layer 1
10
-48.324263
20
41.292890
11
-47.813475
21
38.779918
0
LINE
8
Layer 1
10
-47.813475
20
38.779918
11
-47.151004
21
36.264400
0
LINE
8
Layer 1
10
-47.151004
20
36.264400
11
-46.781177
21
35.083902
0
LINE
8
Layer 1
10
-46.781177
20
35.083902
11
-46.521771
21
34.609200
0
LINE
8
Layer 1
10
-46.521771
20
34.609200
11
-46.295718
21
34.794325
0
LINE
8
Layer 1
10
-46.295718
20
34.794325
11
-46.025944
21
35.593307
0
LINE
8
Layer 1
10
-46.025944
20
35.593307
11
-44.605974
21
39.881621
0
LINE
8
Layer 1
10
-44.605974
20
39.881621
11
-42.916164
21
43.694187
0
LINE
8
Layer 1
10
-42.916164
20
43.694187
11
-40.717333
21
47.543313
0
LINE
8
Layer 1
10
-40.717333
20
47.543313
11
-38.056374
21
51.123977
0
LINE
8
Layer 1
10
-38.056374
20
51.123977
11
-35.982799
21
53.485084
0
LINE
8
Layer 1
10
-35.982799
20
53.485084
11
-33.713199
21
55.783064
0
LINE
8
Layer 1
10
-33.713199
20
55.783064
11
-31.024162
21
58.231783
0
LINE
8
Layer 1
10
-31.024162
20
58.231783
11
-27.692274
21
61.045107
0
LINE
8
Layer 1
10
-27.692274
20
61.045107
11
-22.776524
21
64.683068
0
LINE
8
Layer 1
10
-22.776524
20
64.683068
11
-20.299458
21
66.265547
0
LINE
8
Layer 1
10
-20.299458
20
66.265547
11
-18.119734
21
67.481817
0
LINE
8
Layer 1
10
-18.119734
20
67.481817
11
-16.694719
21
68.113733
0
LINE
8
Layer 1
10
-16.694719
20
68.113733
11
-15.325195
21
68.551523
0
LINE
8
Layer 1
10
-15.325195
20
68.551523
11
-14.018194
21
68.793403
0
LINE
8
Layer 1
10
-14.018194
20
68.793403
11
-12.780744
21
68.837587
0
LINE
8
Layer 1
10
-12.780744
20
68.837587
11
-11.798306
21
68.772601
0
LINE
8
Layer 1
10
-11.798306
20
68.772601
11
-11.071653
21
68.587785
0
LINE
8
Layer 1
10
-11.071653
20
68.587785
11
-8.862364
21
67.236027
0
LINE
8
Layer 1
10
-8.862364
20
67.236027
11
-6.747884
21
65.755217
0
LINE
8
Layer 1
10
-6.747884
20
65.755217
11
-6.768718
21
65.389187
0
LINE
8
Layer 1
10
-6.768718
20
65.389187
11
-7.055787
21
64.825475
0
LINE
8
Layer 1
10
-7.055787
20
64.825475
11
-7.747320
21
63.925908
0
LINE
8
Layer 1
10
-7.747320
20
63.925908
11
-11.250648
21
60.036057
0
LINE
8
Layer 1
10
-11.250648
20
60.036057
11
-14.234618
21
56.647227
0
LINE
8
Layer 1
10
-14.234618
20
56.647227
11
-16.424828
21
54.018767
0
LINE
8
Layer 1
10
-16.424828
20
54.018767
11
-19.183697
21
50.562236
0
LINE
8
Layer 1
10
-19.183697
20
50.562236
11
-21.733675
21
47.065766
0
LINE
8
Layer 1
10
-21.733675
20
47.065766
11
-24.002040
21
43.633922
0
LINE
8
Layer 1
10
-24.002040
20
43.633922
11
-25.916068
21
40.371267
0
LINE
8
Layer 1
10
-25.916068
20
40.371267
11
-27.691132
21
36.887659
0
LINE
8
Layer 1
10
-27.691132
20
36.887659
11
-29.112130
21
33.574089
0
LINE
8
Layer 1
10
-29.112130
20
33.574089
11
-30.234557
21
30.286534
0
LINE
8
Layer 1
10
-30.234557
20
30.286534
11
-31.113908
21
26.880967
0
LINE
8
Layer 1
10
-31.113908
20
26.880967
11
-31.802922
21
23.426694
0
LINE
8
Layer 1
10
-31.802922
20
23.426694
11
-32.275638
21
19.891647
0
LINE
8
Layer 1
10
-32.275638
20
19.891647
11
-32.342799
21
18.682018
0
LINE
8
Layer 1
10
-32.342799
20
18.682018
11
-32.240703
21
18.432450
0
LINE
8
Layer 1
10
-32.240703
20
18.432450
11
-32.026213
21
18.277717
0
LINE
8
Layer 1
10
-32.026213
20
18.277717
11
-30.199663
21
17.792477
0
LINE
8
Layer 1
10
-30.199663
20
17.792477
11
-27.341633
21
17.270017
0
LINE
8
Layer 1
10
-27.341633
20
17.270017
11
-24.047931
21
16.920406
0
LINE
8
Layer 1
10
-24.047931
20
16.920406
11
-20.848549
21
16.841687
0
LINE
8
Layer 1
10
-20.848549
20
16.841687
11
-17.796859
21
17.032899
0
LINE
8
Layer 1
10
-17.796859
20
17.032899
11
-14.946233
21
17.493082
0
LINE
8
Layer 1
10
-14.946233
20
17.493082
11
-11.687175
21
18.434826
0
LINE
8
Layer 1
10
-11.687175
20
18.434826
11
-10.364583
21
19.060089
0
LINE
8
Layer 1
10
-10.364583
20
19.060089
11
-9.023213
21
19.878242
0
LINE
8
Layer 1
10
-9.023213
20
19.878242
11
-6.291993
21
22.031752
0
LINE
8
Layer 1
10
-6.291993
20
22.031752
11
-3.573525
21
24.167156
0
LINE
8
Layer 1
10
-3.573525
20
24.167156
11
-2.431699
21
24.795130
0
LINE
8
Layer 1
10
-2.431699
20
24.795130
11
-1.365313
21
25.174282
0
LINE
8
Layer 1
10
-1.365313
20
25.174282
11
0.152476
21
25.426412
0
LINE
8
Layer 1
10
0.152476
20
25.426412
11
1.562417
21
25.417919
0
LINE
8
Layer 1
10
1.562417
20
25.417919
11
2.289671
21
25.332815
0
LINE
8
Layer 1
10
2.289671
20
25.332815
11
4.051021
21
24.153045
0
LINE
8
Layer 1
10
4.051021
20
24.153045
11
5.888721
21
22.898415
0
LINE
8
Layer 1
10
5.888721
20
22.898415
11
7.320061
21
21.031435
0
LINE
8
Layer 1
10
7.320061
20
21.031435
11
8.383777
21
19.255532
0
LINE
8
Layer 1
10
8.383777
20
19.255532
11
9.060451
21
17.668210
0
LINE
8
Layer 1
10
9.060451
20
17.668210
11
9.376623
21
16.187463
0
LINE
8
Layer 1
10
9.376623
20
16.187463
11
9.358831
21
14.731285
0
LINE
8
Layer 1
10
9.358831
20
14.731285
11
9.158669
21
13.714918
0
LINE
8
Layer 1
10
9.158669
20
13.714918
11
8.808163
21
12.719734
0
LINE
8
Layer 1
10
8.808163
20
12.719734
11
7.687194
21
10.833225
0
LINE
8
Layer 1
10
7.687194
20
10.833225
11
6.058068
21
9.152373
0
LINE
8
Layer 1
10
6.058068
20
9.152373
11
3.982931
21
7.757795
0
LINE
8
Layer 1
10
3.982931
20
7.757795
11
0.753496
21
6.395822
0
LINE
8
Layer 1
10
0.753496
20
6.395822
11
-2.737479
21
5.463265
0
LINE
8
Layer 1
10
-2.737479
20
5.463265
11
-4.947475
21
5.154154
0
LINE
8
Layer 1
10
-4.947475
20
5.154154
11
-7.249757
21
4.992256
0
LINE
8
Layer 1
10
-7.249757
20
4.992256
11
-12.059415
21
5.104259
0
LINE
8
Layer 1
10
-12.059415
20
5.104259
11
-17.022930
21
5.787593
0
LINE
8
Layer 1
10
-17.022930
20
5.787593
11
-21.996779
21
7.030575
0
LINE
8
Layer 1
10
-21.996779
20
7.030575
11
-26.496870
21
8.683164
0
LINE
8
Layer 1
10
-26.496870
20
8.683164
11
-31.192749
21
10.958265
0
LINE
8
Layer 1
10
-31.192749
20
10.958265
11
-31.899581
21
11.321543
0
LINE
8
Layer 1
10
-31.899581
20
11.321543
11
-32.256388
21
11.400823
0
LINE
8
Layer 1
10
-32.256388
20
11.400823
11
-32.371992
21
11.158562
0
LINE
8
Layer 1
10
-32.371992
20
11.158562
11
-32.355219
21
10.557213
0
LINE
8
Layer 1
10
-32.355219
20
10.557213
11
-32.194524
21
8.869968
0
LINE
8
Layer 1
10
-32.194524
20
8.869968
11
-31.672487
21
5.723823
0
LINE
8
Layer 1
10
-31.672487
20
5.723823
11
-30.498963
21
0.726442
0
LINE
8
Layer 1
10
-30.498963
20
0.726442
11
-29.711011
21
-1.688092
0
LINE
8
Layer 1
10
-29.711011
20
-1.688092
11
-28.818567
21
-3.946107
0
LINE
8
Layer 1
10
-28.818567
20
-3.946107
11
-27.353195
21
-6.902208
0
LINE
8
Layer 1
10
-27.353195
20
-6.902208
11
-25.650387
21
-9.725207
0
LINE
8
Layer 1
10
-25.650387
20
-9.725207
11
-23.876387
21
-12.112562
0
LINE
8
Layer 1
10
-23.876387
20
-12.112562
11
-22.532347
21
-13.487477
0
LINE
8
Layer 1
10
-22.532347
20
-13.487477
11
-21.628773
21
-13.905270
0
LINE
8
Layer 1
10
-21.628773
20
-13.905270
11
-20.238714
21
-14.289951
0
LINE
8
Layer 1
10
-20.238714
20
-14.289951
11
-16.178267
21
-14.919597
0
LINE
8
Layer 1
10
-16.178267
20
-14.919597
11
-13.394412
21
-14.957405
0
LINE
8
Layer 1
10
-13.394412
20
-14.957405
11
-10.430197
21
-14.815147
0
LINE
8
Layer 1
10
-10.430197
20
-14.815147
11
-10.430220
21
-14.815100
0
LINE
8
Layer 1
10
100.974000
20
14.064100
11
104.152379
21
16.696632
0
LINE
8
Layer 1
10
104.152379
20
16.696632
11
107.659010
21
20.359440
0
LINE
8
Layer 1
10
107.659010
20
20.359440
11
112.472909
21
26.097095
0
LINE
8
Layer 1
10
112.472909
20
26.097095
11
113.629611
21
27.776964
0
LINE
8
Layer 1
10
113.629611
20
27.776964
11
113.863279
21
28.277274
0
LINE
8
Layer 1
10
113.863279
20
28.277274
11
113.854920
21
28.535020
0
LINE
8
Layer 1
10
113.854920
20
28.535020
11
112.401379
21
28.638826
0
LINE
8
Layer 1
10
112.401379
20
28.638826
11
110.251460
21
28.425557
0
LINE
8
Layer 1
10
110.251460
20
28.425557
11
108.410586
21
27.834617
0
LINE
8
Layer 1
10
108.410586
20
27.834617
11
106.478338
21
26.840222
0
LINE
8
Layer 1
10
106.478338
20
26.840222
11
104.593793
21
25.526477
0
LINE
8
Layer 1
10
104.593793
20
25.526477
11
102.896030
21
23.977487
0
LINE
8
Layer 1
10
102.896030
20
23.977487
11
101.761078
21
22.592472
0
LINE
8
Layer 1
10
101.761078
20
22.592472
11
100.899928
21
21.094069
0
LINE
8
Layer 1
10
100.899928
20
21.094069
11
100.287113
21
19.427596
0
LINE
8
Layer 1
10
100.287113
20
19.427596
11
99.897170
21
17.538367
0
LINE
8
Layer 1
10
99.897170
20
17.538367
11
99.805506
21
15.245502
0
LINE
8
Layer 1
10
99.805506
20
15.245502
11
100.023470
21
13.697417
0
LINE
8
Layer 1
10
100.023470
20
13.697417
11
100.304154
21
13.640431
0
LINE
8
Layer 1
10
100.304154
20
13.640431
11
100.973997
21
14.064097
0
LINE
8
Layer 1
10
100.973997
20
14.064097
11
100.974000
21
14.064100
 0 
ENDSEC
 0 
EOF