999
"DXF R12 Output" (www.mydxf.blogspot.com)
 0 
SECTION
 2 
HEADER
 9 
$ACADVER
 1 
AC1009
 9 
$EXTMIN
 10 
 0 
 20 
 0 
 9 
$EXTMAX
 10 
 8.5 
 20 
 11 
 0 
ENDSEC
 0 
SECTION
 2 
ENTITIES
0
LINE
8
Image
10
13.188000
20
4.450600
11
10.724400
21
7.122950
0
LINE
8
Image
10
10.724400
20
7.122950
11
13.152130
21
12.197360
0
LINE
8
Image
10
13.152130
20
12.197360
11
17.127000
21
20.602200
0
LINE
8
Image
10
17.127000
20
20.602200
11
21.552038
21
31.410162
0
LINE
8
Image
10
21.552038
20
31.410162
11
23.470720
21
36.390295
0
LINE
8
Image
10
23.470720
20
36.390295
11
24.192000
21
38.544400
0
LINE
8
Image
10
24.192000
20
38.544400
11
21.872200
21
38.187100
0
LINE
8
Image
10
21.872200
20
38.187100
11
19.894120
21
37.953531
0
LINE
8
Image
10
19.894120
20
37.953531
11
17.867788
21
37.916275
0
LINE
8
Image
10
17.867788
20
37.916275
11
16.103861
21
38.066106
0
LINE
8
Image
10
16.103861
20
38.066106
11
14.913000
21
38.393800
0
LINE
8
Image
10
14.913000
20
38.393800
11
13.642988
21
39.298288
0
LINE
8
Image
10
13.642988
20
39.298288
11
12.982200
21
40.117500
0
LINE
8
Image
10
12.982200
20
40.117500
11
13.103636
21
40.394633
0
LINE
8
Image
10
13.103636
20
40.394633
11
13.476278
21
40.660459
0
LINE
8
Image
10
13.476278
20
40.660459
11
15.025184
21
41.170064
0
LINE
8
Image
10
15.025184
20
41.170064
11
17.728922
21
41.670057
0
LINE
8
Image
10
17.728922
20
41.670057
11
21.687500
21
42.184180
0
LINE
8
Image
10
21.687500
20
42.184180
11
25.667710
21
42.747718
0
LINE
8
Image
10
25.667710
20
42.747718
11
26.362125
21
44.511588
0
LINE
8
Image
10
26.362125
20
44.511588
11
28.403500
21
51.082200
0
LINE
8
Image
10
28.403500
20
51.082200
11
30.207430
21
56.797200
0
LINE
8
Image
10
30.207430
20
56.797200
11
30.304885
21
57.441650
0
LINE
8
Image
10
30.304885
20
57.441650
11
29.830294
21
57.569274
0
LINE
8
Image
10
29.830294
20
57.569274
11
22.448649
21
57.066271
0
LINE
8
Image
10
22.448649
20
57.066271
11
15.098894
21
56.311184
0
LINE
8
Image
10
15.098894
20
56.311184
11
12.655682
21
55.991523
0
LINE
8
Image
10
12.655682
20
55.991523
11
10.539243
21
55.907257
0
LINE
8
Image
10
10.539243
20
55.907257
11
8.668224
21
56.059780
0
LINE
8
Image
10
8.668224
20
56.059780
11
6.961274
21
56.450484
0
LINE
8
Image
10
6.961274
20
56.450484
11
5.350037
21
57.185933
0
LINE
8
Image
10
5.350037
20
57.185933
11
4.940907
21
57.582250
0
LINE
8
Image
10
4.940907
20
57.582250
11
4.796833
21
57.973153
0
LINE
8
Image
10
4.796833
20
57.973153
11
4.918359
21
58.340282
0
LINE
8
Image
10
4.918359
20
58.340282
11
5.306031
21
58.665279
0
LINE
8
Image
10
5.306031
20
58.665279
11
5.960397
21
58.929785
0
LINE
8
Image
10
5.960397
20
58.929785
11
6.882003
21
59.115444
0
LINE
8
Image
10
6.882003
20
59.115444
11
17.990318
21
59.787196
0
LINE
8
Image
10
17.990318
20
59.787196
11
30.917203
21
60.382274
0
LINE
8
Image
10
30.917203
20
60.382274
11
31.446497
21
60.640775
0
LINE
8
Image
10
31.446497
20
60.640775
11
31.864964
21
61.453864
0
LINE
8
Image
10
31.864964
20
61.453864
11
32.473615
21
62.880956
0
LINE
8
Image
10
32.473615
20
62.880956
11
33.296898
21
64.406215
0
LINE
8
Image
10
33.296898
20
64.406215
11
34.186191
21
65.778214
0
LINE
8
Image
10
34.186191
20
65.778214
11
34.992874
21
66.745524
0
LINE
8
Image
10
34.992874
20
66.745524
11
35.882649
21
67.592190
0
LINE
8
Image
10
35.882649
20
67.592190
11
36.850219
21
66.538000
0
LINE
8
Image
10
36.850219
20
66.538000
11
37.477325
21
65.686574
0
LINE
8
Image
10
37.477325
20
65.686574
11
37.782744
21
64.766236
0
LINE
8
Image
10
37.782744
20
64.766236
11
37.789064
21
63.627823
0
LINE
8
Image
10
37.789064
20
63.627823
11
37.518873
21
62.122170
0
LINE
8
Image
10
37.518873
20
62.122170
11
37.341494
21
60.777750
0
LINE
8
Image
10
37.341494
20
60.777750
11
41.237728
21
61.029046
0
LINE
8
Image
10
41.237728
20
61.029046
11
49.765404
21
61.893502
0
LINE
8
Image
10
49.765404
20
61.893502
11
58.794826
21
62.925130
0
LINE
8
Image
10
58.794826
20
62.925130
11
64.196294
21
63.677940
0
LINE
8
Image
10
64.196294
20
63.677940
11
65.514934
21
64.154503
0
LINE
8
Image
10
65.514934
20
64.154503
11
65.844038
21
64.228440
0
LINE
8
Image
10
65.844038
20
64.228440
11
66.314010
21
64.030936
0
LINE
8
Image
10
66.314010
20
64.030936
11
68.141754
21
62.534753
0
LINE
8
Image
10
68.141754
20
62.534753
11
69.633265
21
61.146584
0
LINE
8
Image
10
69.633265
20
61.146584
11
70.456351
21
60.210886
0
LINE
8
Image
10
70.456351
20
60.210886
11
70.716769
21
59.574186
0
LINE
8
Image
10
70.716769
20
59.574186
11
70.520274
21
59.083013
0
LINE
8
Image
10
70.520274
20
59.083013
11
70.012645
21
58.792456
0
LINE
8
Image
10
70.012645
20
58.792456
11
69.160134
21
58.819942
0
LINE
8
Image
10
69.160134
20
58.819942
11
65.253409
21
59.300674
0
LINE
8
Image
10
65.253409
20
59.300674
11
60.564357
21
59.451841
0
LINE
8
Image
10
60.564357
20
59.451841
11
53.999643
21
59.270513
0
LINE
8
Image
10
53.999643
20
59.270513
11
44.465934
21
58.753758
0
LINE
8
Image
10
44.465934
20
58.753758
11
36.579600
21
58.278900
0
LINE
8
Image
10
36.579600
20
58.278900
11
35.255400
21
55.033300
0
LINE
8
Image
10
35.255400
20
55.033300
11
30.946620
21
44.801100
0
LINE
8
Image
10
30.946620
20
44.801100
11
30.227301
21
43.176660
0
LINE
8
Image
10
30.227301
20
43.176660
11
30.847506
21
43.313938
0
LINE
8
Image
10
30.847506
20
43.313938
11
33.866596
21
43.744270
0
LINE
8
Image
10
33.866596
20
43.744270
11
39.333786
21
44.630142
0
LINE
8
Image
10
39.333786
20
44.630142
11
42.402086
21
45.222955
0
LINE
8
Image
10
42.402086
20
45.222955
11
44.393006
21
43.232035
0
LINE
8
Image
10
44.393006
20
43.232035
11
45.845231
21
41.657365
0
LINE
8
Image
10
45.845231
20
41.657365
11
46.124079
21
41.158689
0
LINE
8
Image
10
46.124079
20
41.158689
11
46.078335
21
40.819514
0
LINE
8
Image
10
46.078335
20
40.819514
11
45.688188
21
40.615136
0
LINE
8
Image
10
45.688188
20
40.615136
11
44.933829
21
40.520851
0
LINE
8
Image
10
44.933829
20
40.520851
11
42.253226
21
40.563745
0
LINE
8
Image
10
42.253226
20
40.563745
11
39.411131
21
40.583963
0
LINE
8
Image
10
39.411131
20
40.583963
11
36.243007
21
40.443278
0
LINE
8
Image
10
36.243007
20
40.443278
11
33.091843
21
40.164458
0
LINE
8
Image
10
33.091843
20
40.164458
11
30.300626
21
39.770272
0
LINE
8
Image
10
30.300626
20
39.770272
11
28.569066
21
39.462176
0
LINE
8
Image
10
28.569066
20
39.462176
11
26.714936
21
34.477196
0
LINE
8
Image
10
26.714936
20
34.477196
11
23.187316
21
24.661706
0
LINE
8
Image
10
23.187316
20
24.661706
11
23.526675
21
24.466407
0
LINE
8
Image
10
23.526675
20
24.466407
11
24.374266
21
24.271108
0
LINE
8
Image
10
24.374266
20
24.271108
11
25.920582
21
24.558536
0
LINE
8
Image
10
25.920582
20
24.558536
11
27.836465
21
25.430229
0
LINE
8
Image
10
27.836465
20
25.430229
11
30.147393
21
26.900305
0
LINE
8
Image
10
30.147393
20
26.900305
11
32.878846
21
28.982878
0
LINE
8
Image
10
32.878846
20
28.982878
11
37.770410
21
32.699087
0
LINE
8
Image
10
37.770410
20
32.699087
11
39.437010
21
33.766436
0
LINE
8
Image
10
39.437010
20
33.766436
11
40.357726
21
34.150168
0
LINE
8
Image
10
40.357726
20
34.150168
11
41.627726
21
34.713319
0
LINE
8
Image
10
41.627726
20
34.713319
11
42.623211
21
35.203674
0
LINE
8
Image
10
42.623211
20
35.203674
11
43.539927
21
35.249010
0
LINE
8
Image
10
43.539927
20
35.249010
11
44.473333
21
34.830049
0
LINE
8
Image
10
44.473333
20
34.830049
11
45.518886
21
33.927514
0
LINE
8
Image
10
45.518886
20
33.927514
11
46.584294
21
32.651531
0
LINE
8
Image
10
46.584294
20
32.651531
11
46.793053
21
32.141447
0
LINE
8
Image
10
46.793053
20
32.141447
11
46.853156
21
31.599184
0
LINE
8
Image
10
46.853156
20
31.599184
11
46.933172
21
30.613756
0
LINE
8
Image
10
46.933172
20
30.613756
11
47.056770
21
30.358153
0
LINE
8
Image
10
47.056770
20
30.358153
11
47.260892
21
30.258410
0
LINE
8
Image
10
47.260892
20
30.258410
11
47.985099
21
30.519865
0
LINE
8
Image
10
47.985099
20
30.519865
11
49.254576
21
31.384842
0
LINE
8
Image
10
49.254576
20
31.384842
11
51.804126
21
33.320705
0
LINE
8
Image
10
51.804126
20
33.320705
11
53.496699
21
34.844622
0
LINE
8
Image
10
53.496699
20
34.844622
11
54.647384
21
36.285109
0
LINE
8
Image
10
54.647384
20
36.285109
11
55.571276
21
37.970682
0
LINE
8
Image
10
55.571276
20
37.970682
11
56.444101
21
39.656556
0
LINE
8
Image
10
56.444101
20
39.656556
11
56.942226
21
40.357762
0
LINE
8
Image
10
56.942226
20
40.357762
11
58.396946
21
39.111182
0
LINE
8
Image
10
58.396946
20
39.111182
11
59.393483
21
37.920678
0
LINE
8
Image
10
59.393483
20
37.920678
11
59.454504
21
37.505277
0
LINE
8
Image
10
59.454504
20
37.505277
11
59.317323
21
36.995292
0
LINE
8
Image
10
59.317323
20
36.995292
11
58.317873
21
35.207982
0
LINE
8
Image
10
58.317873
20
35.207982
11
57.655329
21
34.053742
0
LINE
8
Image
10
57.655329
20
34.053742
11
57.027920
21
32.479137
0
LINE
8
Image
10
57.027920
20
32.479137
11
56.524311
21
30.743664
0
LINE
8
Image
10
56.524311
20
30.743664
11
56.233173
21
29.106822
0
LINE
8
Image
10
56.233173
20
29.106822
11
56.184538
21
27.816157
0
LINE
8
Image
10
56.184538
20
27.816157
11
56.368574
21
27.709440
0
LINE
8
Image
10
56.368574
20
27.709440
11
56.754304
21
27.804932
0
LINE
8
Image
10
56.754304
20
27.804932
11
57.654635
21
28.219824
0
LINE
8
Image
10
57.654635
20
28.219824
11
58.712205
21
28.911774
0
LINE
8
Image
10
58.712205
20
28.911774
11
60.756124
21
30.729992
0
LINE
8
Image
10
60.756124
20
30.729992
11
61.621573
21
31.854380
0
LINE
8
Image
10
61.621573
20
31.854380
11
62.478737
21
33.289927
0
LINE
8
Image
10
62.478737
20
33.289927
11
64.068884
21
36.909222
0
LINE
8
Image
10
64.068884
20
36.909222
11
64.982756
21
38.849872
0
LINE
8
Image
10
64.982756
20
38.849872
11
65.505730
21
38.637715
0
LINE
8
Image
10
65.505730
20
38.637715
11
66.381146
21
37.891576
0
LINE
8
Image
10
66.381146
20
37.891576
11
67.507546
21
36.765176
0
LINE
8
Image
10
67.507546
20
36.765176
11
66.209286
21
32.976296
0
LINE
8
Image
10
66.209286
20
32.976296
11
65.391299
21
30.382194
0
LINE
8
Image
10
65.391299
20
30.382194
11
64.976461
21
28.546012
0
LINE
8
Image
10
64.976461
20
28.546012
11
64.962814
21
27.454223
0
LINE
8
Image
10
64.962814
20
27.454223
11
65.105825
21
27.183249
0
LINE
8
Image
10
65.105825
20
27.183249
11
65.348400
21
27.093300
0
LINE
8
Image
10
65.348400
20
27.093300
11
66.009442
21
27.239399
0
LINE
8
Image
10
66.009442
20
27.239399
11
66.797411
21
27.675113
0
LINE
8
Image
10
66.797411
20
27.675113
11
68.731390
21
29.399890
0
LINE
8
Image
10
68.731390
20
29.399890
11
70.114885
21
30.899302
0
LINE
8
Image
10
70.114885
20
30.899302
11
70.881060
21
31.903466
0
LINE
8
Image
10
70.881060
20
31.903466
11
71.244778
21
32.767675
0
LINE
8
Image
10
71.244778
20
32.767675
11
71.420900
21
33.847220
0
LINE
8
Image
10
71.420900
20
33.847220
11
71.724549
21
35.276723
0
LINE
8
Image
10
71.724549
20
35.276723
11
72.261900
21
36.855183
0
LINE
8
Image
10
72.261900
20
36.855183
11
72.917460
21
38.290793
0
LINE
8
Image
10
72.917460
20
38.290793
11
73.575740
21
39.291750
0
LINE
8
Image
10
73.575740
20
39.291750
11
74.082050
21
39.687967
0
LINE
8
Image
10
74.082050
20
39.687967
11
74.616983
21
39.730237
0
LINE
8
Image
10
74.616983
20
39.730237
11
75.246166
21
39.402464
0
LINE
8
Image
10
75.246166
20
39.402464
11
76.035230
21
38.688554
0
LINE
8
Image
10
76.035230
20
38.688554
11
76.893811
21
37.613528
0
LINE
8
Image
10
76.893811
20
37.613528
11
77.010079
21
37.167266
0
LINE
8
Image
10
77.010079
20
37.167266
11
76.982178
21
36.642444
0
LINE
8
Image
10
76.982178
20
36.642444
11
76.641951
21
35.222524
0
LINE
8
Image
10
76.641951
20
35.222524
11
76.611021
21
34.876814
0
LINE
8
Image
10
76.611021
20
34.876814
11
77.303087
21
35.072198
0
LINE
8
Image
10
77.303087
20
35.072198
11
77.821173
21
35.225690
0
LINE
8
Image
10
77.821173
20
35.225690
11
78.252473
21
35.156401
0
LINE
8
Image
10
78.252473
20
35.156401
11
79.608187
21
33.998528
0
LINE
8
Image
10
79.608187
20
33.998528
11
80.422450
21
33.174773
0
LINE
8
Image
10
80.422450
20
33.174773
11
80.836956
21
32.595402
0
LINE
8
Image
10
80.836956
20
32.595402
11
80.967225
21
32.014342
0
LINE
8
Image
10
80.967225
20
32.014342
11
80.928777
21
31.185518
0
LINE
8
Image
10
80.928777
20
31.185518
11
80.748978
21
30.066796
0
LINE
8
Image
10
80.748978
20
30.066796
11
80.325340
21
28.826646
0
LINE
8
Image
10
80.325340
20
28.826646
11
78.324887
21
24.976638
0
LINE
8
Image
10
78.324887
20
24.976638
11
76.312039
21
20.789759
0
LINE
8
Image
10
76.312039
20
20.789759
11
75.618384
21
18.993977
0
LINE
8
Image
10
75.618384
20
18.993977
11
75.451387
21
18.152208
0
LINE
8
Image
10
75.451387
20
18.152208
11
75.997826
21
18.232328
0
LINE
8
Image
10
75.997826
20
18.232328
11
77.077018
21
18.845883
0
LINE
8
Image
10
77.077018
20
18.845883
11
80.155647
21
21.229738
0
LINE
8
Image
10
80.155647
20
21.229738
11
83.086697
21
24.122198
0
LINE
8
Image
10
83.086697
20
24.122198
11
86.489118
21
27.995974
0
LINE
8
Image
10
86.489118
20
27.995974
11
89.957053
21
32.364182
0
LINE
8
Image
10
89.957053
20
32.364182
11
93.084647
21
36.739938
0
LINE
8
Image
10
93.084647
20
36.739938
11
94.799077
21
39.070738
0
LINE
8
Image
10
94.799077
20
39.070738
11
95.039993
21
38.937196
0
LINE
8
Image
10
95.039993
20
38.937196
11
95.248798
21
38.387196
0
LINE
8
Image
10
95.248798
20
38.387196
11
95.288597
21
37.849255
0
LINE
8
Image
10
95.288597
20
37.849255
11
95.172925
21
37.200138
0
LINE
8
Image
10
95.172925
20
37.200138
11
94.376077
21
35.386230
0
LINE
8
Image
10
94.376077
20
35.386230
11
92.660070
21
32.581179
0
LINE
8
Image
10
92.660070
20
32.581179
11
89.826718
21
28.420696
0
LINE
8
Image
10
89.826718
20
28.420696
11
85.812610
21
22.950656
0
LINE
8
Image
10
85.812610
20
22.950656
11
84.119202
21
20.958644
0
LINE
8
Image
10
84.119202
20
20.958644
11
82.267688
21
19.004556
0
LINE
8
Image
10
82.267688
20
19.004556
11
79.980536
21
16.787247
0
LINE
8
Image
10
79.980536
20
16.787247
11
78.371285
21
15.554475
0
LINE
8
Image
10
78.371285
20
15.554475
11
77.715755
21
15.246013
0
LINE
8
Image
10
77.715755
20
15.246013
11
77.103558
21
15.110153
0
LINE
8
Image
10
77.103558
20
15.110153
11
75.840978
21
15.258196
0
LINE
8
Image
10
75.840978
20
15.258196
11
74.776684
21
15.856707
0
LINE
8
Image
10
74.776684
20
15.856707
11
73.514518
21
16.937656
0
LINE
8
Image
10
73.514518
20
16.937656
11
72.111448
21
18.362146
0
LINE
8
Image
10
72.111448
20
18.362146
11
73.049760
21
21.104936
0
LINE
8
Image
10
73.049760
20
21.104936
11
74.203115
21
24.022291
0
LINE
8
Image
10
74.203115
20
24.022291
11
75.658440
21
27.184776
0
LINE
8
Image
10
75.658440
20
27.184776
11
77.328810
21
30.649246
0
LINE
8
Image
10
77.328810
20
30.649246
11
76.458313
21
30.326517
0
LINE
8
Image
10
76.458313
20
30.326517
11
75.560499
21
30.032981
0
LINE
8
Image
10
75.560499
20
30.032981
11
74.624323
21
29.959374
0
LINE
8
Image
10
74.624323
20
29.959374
11
73.760374
21
29.883479
0
LINE
8
Image
10
73.760374
20
29.883479
11
73.186863
21
29.343947
0
LINE
8
Image
10
73.186863
20
29.343947
11
71.560509
21
27.208804
0
LINE
8
Image
10
71.560509
20
27.208804
11
69.965420
21
25.614181
0
LINE
8
Image
10
69.965420
20
25.614181
11
68.468537
21
24.616229
0
LINE
8
Image
10
68.468537
20
24.616229
11
67.777841
21
24.358552
0
LINE
8
Image
10
67.777841
20
24.358552
11
67.136800
21
24.271100
0
LINE
8
Image
10
67.136800
20
24.271100
11
66.514520
21
24.330631
0
LINE
8
Image
10
66.514520
20
24.330631
11
65.931691
21
24.570354
0
LINE
8
Image
10
65.931691
20
24.570354
11
64.258180
21
25.957160
0
LINE
8
Image
10
64.258180
20
25.957160
11
62.455770
21
27.643220
0
LINE
8
Image
10
62.455770
20
27.643220
11
61.778406
21
26.907828
0
LINE
8
Image
10
61.778406
20
26.907828
11
60.853720
21
26.189744
0
LINE
8
Image
10
60.853720
20
26.189744
11
59.499708
21
25.419457
0
LINE
8
Image
10
59.499708
20
25.419457
11
58.125715
21
24.804785
0
LINE
8
Image
10
58.125715
20
24.804785
11
57.141086
21
24.553548
0
LINE
8
Image
10
57.141086
20
24.553548
11
56.312620
21
24.957398
0
LINE
8
Image
10
56.312620
20
24.957398
11
55.125826
21
25.928668
0
LINE
8
Image
10
55.125826
20
25.928668
11
53.946402
21
27.257471
0
LINE
8
Image
10
53.946402
20
27.257471
11
53.488846
21
28.458308
0
LINE
8
Image
10
53.488846
20
28.458308
11
53.404233
21
29.359475
0
LINE
8
Image
10
53.404233
20
29.359475
11
53.474650
21
29.905178
0
LINE
8
Image
10
53.474650
20
29.905178
11
53.564688
21
30.166234
0
LINE
8
Image
10
53.564688
20
30.166234
11
53.266027
21
30.067281
0
LINE
8
Image
10
53.266027
20
30.067281
11
51.284910
21
28.666168
0
LINE
8
Image
10
51.284910
20
28.666168
11
49.456703
21
27.388958
0
LINE
8
Image
10
49.456703
20
27.388958
11
47.722764
21
26.351421
0
LINE
8
Image
10
47.722764
20
26.351421
11
46.269045
21
25.654715
0
LINE
8
Image
10
46.269045
20
25.654715
11
45.281500
21
25.400000
0
LINE
8
Image
10
45.281500
20
25.400000
11
44.577058
21
25.111192
0
LINE
8
Image
10
44.577058
20
25.111192
11
43.781820
21
24.184410
0
LINE
8
Image
10
43.781820
20
24.184410
11
42.293162
21
22.410294
0
LINE
8
Image
10
42.293162
20
22.410294
11
40.685931
21
21.149595
0
LINE
8
Image
10
40.685931
20
21.149595
11
39.124738
21
20.501481
0
LINE
8
Image
10
39.124738
20
20.501481
11
38.412845
21
20.438133
0
LINE
8
Image
10
38.412845
20
20.438133
11
37.774190
21
20.565120
0
LINE
8
Image
10
37.774190
20
20.565120
11
36.902438
21
21.174538
0
LINE
8
Image
10
36.902438
20
21.174538
11
35.737520
21
22.285770
0
LINE
8
Image
10
35.737520
20
22.285770
11
34.965412
21
23.142305
0
LINE
8
Image
10
34.965412
20
23.142305
11
34.571072
21
23.743198
0
LINE
8
Image
10
34.571072
20
23.743198
11
34.449865
21
24.329386
0
LINE
8
Image
10
34.449865
20
24.329386
11
34.497150
21
25.141810
0
LINE
8
Image
10
34.497150
20
25.141810
11
34.526979
21
26.147988
0
LINE
8
Image
10
34.526979
20
26.147988
11
34.453907
21
26.315302
0
LINE
8
Image
10
34.453907
20
26.315302
11
34.319099
21
26.278400
0
LINE
8
Image
10
34.319099
20
26.278400
11
31.818409
21
24.463540
0
LINE
8
Image
10
31.818409
20
24.463540
11
29.643372
21
23.124941
0
LINE
8
Image
10
29.643372
20
23.124941
11
28.651397
21
22.713612
0
LINE
8
Image
10
28.651397
20
22.713612
11
27.676774
21
22.466335
0
LINE
8
Image
10
27.676774
20
22.466335
11
26.684745
21
22.377164
0
LINE
8
Image
10
26.684745
20
22.377164
11
25.640553
21
22.440152
0
LINE
8
Image
10
25.640553
20
22.440152
11
23.256649
21
22.998820
0
LINE
8
Image
10
23.256649
20
22.998820
11
22.903857
21
23.002615
0
LINE
8
Image
10
22.903857
20
23.002615
11
22.577903
21
22.594365
0
LINE
8
Image
10
22.577903
20
22.594365
11
21.509739
21
19.565330
0
LINE
8
Image
10
21.509739
20
19.565330
11
19.207643
21
11.927202
0
LINE
8
Image
10
19.207643
20
11.927202
11
17.472659
21
5.453330
0
LINE
8
Image
10
17.472659
20
5.453330
11
16.649682
21
2.886046
0
LINE
8
Image
10
16.649682
20
2.886046
11
16.230404
21
2.208325
0
LINE
8
Image
10
16.230404
20
2.208325
11
15.825400
21
1.975580
0
LINE
8
Image
10
15.825400
20
1.975580
11
13.188030
21
4.450600
0
LINE
8
Image
10
13.188030
20
4.450600
11
13.188000
21
4.450600
0
LINE
8
Image
10
38.989400
20
23.955300
11
40.069645
21
24.774946
0
LINE
8
Image
10
40.069645
20
24.774946
11
40.866370
21
25.603780
0
LINE
8
Image
10
40.866370
20
25.603780
11
41.461206
21
26.439146
0
LINE
8
Image
10
41.461206
20
26.439146
11
40.369596
21
27.505076
0
LINE
8
Image
10
40.369596
20
27.505076
11
39.277986
21
28.571006
0
LINE
8
Image
10
39.277986
20
28.571006
11
38.576207
21
27.459316
0
LINE
8
Image
10
38.576207
20
27.459316
11
37.527726
21
25.277540
0
LINE
8
Image
10
37.527726
20
25.277540
11
36.971100
21
23.414600
0
LINE
8
Image
10
36.971100
20
23.414600
11
37.101609
21
23.178755
0
LINE
8
Image
10
37.101609
20
23.178755
11
37.487316
21
23.191824
0
LINE
8
Image
10
37.487316
20
23.191824
11
38.989400
21
23.955351
0
LINE
8
Image
10
38.989400
20
23.955351
11
38.989400
21
23.955300
0
LINE
8
Image
10
43.346990
20
29.802930
11
43.628256
21
30.743615
0
LINE
8
Image
10
43.628256
20
30.743615
11
43.601008
21
31.216427
0
LINE
8
Image
10
43.601008
20
31.216427
11
43.291338
21
31.187027
0
LINE
8
Image
10
43.291338
20
31.187027
11
42.725337
21
30.621075
0
LINE
8
Image
10
42.725337
20
30.621075
11
41.919582
21
29.240742
0
LINE
8
Image
10
41.919582
20
29.240742
11
41.806110
21
28.661850
0
LINE
8
Image
10
41.806110
20
28.661850
11
41.908541
21
28.224525
0
LINE
8
Image
10
41.908541
20
28.224525
11
42.185317
21
28.063209
0
LINE
8
Image
10
42.185317
20
28.063209
11
42.538137
21
28.295350
0
LINE
8
Image
10
42.538137
20
28.295350
11
43.346991
21
29.802935
0
LINE
8
Image
10
43.346991
20
29.802935
11
43.346990
21
29.802930
 0 
ENDSEC
 0 
EOF