999
"DXF R12 Output" (www.mydxf.blogspot.com)
 0 
SECTION
 2 
HEADER
 9 
$ACADVER
 1 
AC1009
 9 
$EXTMIN
 10 
 0 
 20 
 0 
 9 
$EXTMAX
 10 
 8.5 
 20 
 11 
 0 
ENDSEC
 0 
SECTION
 2 
ENTITIES
0
LINE
8
Image
10
12.762400
20
10.520400
11
11.522412
21
11.903325
0
LINE
8
Image
10
11.522412
20
11.903325
11
11.006700
21
12.740700
0
LINE
8
Image
10
11.006700
20
12.740700
11
11.761560
21
14.374401
0
LINE
8
Image
10
11.761560
20
14.374401
11
13.576440
21
17.671990
0
LINE
8
Image
10
13.576440
20
17.671990
11
17.142392
21
24.198061
0
LINE
8
Image
10
17.142392
20
24.198061
11
18.213721
21
26.646139
0
LINE
8
Image
10
18.213721
20
26.646139
11
19.334600
21
29.640000
0
LINE
8
Image
10
19.334600
20
29.640000
11
20.548107
21
33.223424
0
LINE
8
Image
10
20.548107
20
33.223424
11
21.455448
21
36.430548
0
LINE
8
Image
10
21.455448
20
36.430548
11
22.060406
21
39.321752
0
LINE
8
Image
10
22.060406
20
39.321752
11
22.366763
21
41.957413
0
LINE
8
Image
10
22.366763
20
41.957413
11
22.378298
21
44.397909
0
LINE
8
Image
10
22.378298
20
44.397909
11
22.098795
21
46.703620
0
LINE
8
Image
10
22.098795
20
46.703620
11
21.532035
21
48.934924
0
LINE
8
Image
10
21.532035
20
48.934924
11
20.681800
21
51.152200
0
LINE
8
Image
10
20.681800
20
51.152200
11
19.890600
21
52.561538
0
LINE
8
Image
10
19.890600
20
52.561538
11
19.446072
21
52.863058
0
LINE
8
Image
10
19.446072
20
52.863058
11
18.800000
21
53.067800
0
LINE
8
Image
10
18.800000
20
53.067800
11
16.510000
21
53.833500
0
LINE
8
Image
10
16.510000
20
53.833500
11
15.033305
21
54.828073
0
LINE
8
Image
10
15.033305
20
54.828073
11
13.108137
21
56.516013
0
LINE
8
Image
10
13.108137
20
56.516013
11
11.437502
21
58.231870
0
LINE
8
Image
10
11.437502
20
58.231870
11
10.724400
21
59.310200
0
LINE
8
Image
10
10.724400
20
59.310200
11
10.938135
21
59.887429
0
LINE
8
Image
10
10.938135
20
59.887429
11
11.499229
21
60.325694
0
LINE
8
Image
10
11.499229
20
60.325694
11
12.287519
21
60.564684
0
LINE
8
Image
10
12.287519
20
60.564684
11
13.182840
21
60.544090
0
LINE
8
Image
10
13.182840
20
60.544090
11
14.237041
21
60.266232
0
LINE
8
Image
10
14.237041
20
60.266232
11
15.240156
21
59.808038
0
LINE
8
Image
10
15.240156
20
59.808038
11
17.571140
21
58.082500
0
LINE
8
Image
10
17.571140
20
58.082500
11
18.528425
21
57.300331
0
LINE
8
Image
10
18.528425
20
57.300331
11
19.321499
21
56.831220
0
LINE
8
Image
10
19.321499
20
56.831220
11
20.262448
21
56.537954
0
LINE
8
Image
10
20.262448
20
56.537954
11
21.663360
21
56.283320
0
LINE
8
Image
10
21.663360
20
56.283320
11
29.055064
21
55.576672
0
LINE
8
Image
10
29.055064
20
55.576672
11
32.866533
21
55.363724
0
LINE
8
Image
10
32.866533
20
55.363724
11
34.760760
21
55.381657
0
LINE
8
Image
10
34.760760
20
55.381657
11
35.448376
21
56.248477
0
LINE
8
Image
10
35.448376
20
56.248477
11
36.554580
21
58.122627
0
LINE
8
Image
10
36.554580
20
58.122627
11
37.754752
21
60.173360
0
LINE
8
Image
10
37.754752
20
60.173360
11
38.971079
21
61.969387
0
LINE
8
Image
10
38.971079
20
61.969387
11
40.067861
21
63.325772
0
LINE
8
Image
10
40.067861
20
63.325772
11
40.909400
21
64.057577
0
LINE
8
Image
10
40.909400
20
64.057577
11
41.482127
21
64.179544
0
LINE
8
Image
10
41.482127
20
64.179544
11
42.080550
21
63.752730
0
LINE
8
Image
10
42.080550
20
63.752730
11
42.390001
21
63.381744
0
LINE
8
Image
10
42.390001
20
63.381744
11
42.553280
21
62.971449
0
LINE
8
Image
10
42.553280
20
62.971449
11
42.540730
21
61.559040
0
LINE
8
Image
10
42.540730
20
61.559040
11
42.255191
21
59.940930
0
LINE
8
Image
10
42.255191
20
59.940930
11
41.774600
21
58.278900
0
LINE
8
Image
10
41.774600
20
58.278900
11
41.189291
21
56.671269
0
LINE
8
Image
10
41.189291
20
56.671269
11
41.094166
21
55.935106
0
LINE
8
Image
10
41.094166
20
55.935106
11
41.275241
21
55.804042
0
LINE
8
Image
10
41.275241
20
55.804042
11
41.632643
21
55.783106
0
LINE
8
Image
10
41.632643
20
55.783106
11
42.948140
21
55.927960
0
LINE
8
Image
10
42.948140
20
55.927960
11
46.808477
21
56.514974
0
LINE
8
Image
10
46.808477
20
56.514974
11
50.683045
21
57.367468
0
LINE
8
Image
10
50.683045
20
57.367468
11
54.150086
21
58.378391
0
LINE
8
Image
10
54.150086
20
58.378391
11
56.787840
21
59.440690
0
LINE
8
Image
10
56.787840
20
59.440690
11
58.427500
21
60.113300
0
LINE
8
Image
10
58.427500
20
60.113300
11
59.174395
21
59.656409
0
LINE
8
Image
10
59.174395
20
59.656409
11
60.311637
21
58.612175
0
LINE
8
Image
10
60.311637
20
58.612175
11
61.351586
21
57.470253
0
LINE
8
Image
10
61.351586
20
57.470253
11
61.806600
21
56.720300
0
LINE
8
Image
10
61.806600
20
56.720300
11
61.693362
21
56.281001
0
LINE
8
Image
10
61.693362
20
56.281001
11
61.421110
21
55.911423
0
LINE
8
Image
10
61.421110
20
55.911423
11
59.467825
21
55.469612
0
LINE
8
Image
10
59.467825
20
55.469612
11
55.089977
21
54.799371
0
LINE
8
Image
10
55.089977
20
54.799371
11
44.061410
21
53.475363
0
LINE
8
Image
10
44.061410
20
53.475363
11
40.912111
21
53.116959
0
LINE
8
Image
10
40.912111
20
53.116959
11
39.495830
21
52.844948
0
LINE
8
Image
10
39.495830
20
52.844948
11
37.485500
21
49.530018
0
LINE
8
Image
10
37.485500
20
49.530018
11
32.898240
21
42.192248
0
LINE
8
Image
10
32.898240
20
42.192248
11
30.700463
21
38.709252
0
LINE
8
Image
10
30.700463
20
38.709252
11
30.657887
21
38.545206
0
LINE
8
Image
10
30.657887
20
38.545206
11
30.788350
21
38.600813
0
LINE
8
Image
10
30.788350
20
38.600813
11
31.508970
21
39.244928
0
LINE
8
Image
10
31.508970
20
39.244928
11
32.891868
21
40.521374
0
LINE
8
Image
10
32.891868
20
40.521374
11
33.697021
21
41.024139
0
LINE
8
Image
10
33.697021
20
41.024139
11
34.006056
21
41.013035
0
LINE
8
Image
10
34.006056
20
41.013035
11
34.318389
21
40.841683
0
LINE
8
Image
10
34.318389
20
40.841683
11
35.149930
21
40.062466
0
LINE
8
Image
10
35.149930
20
40.062466
11
36.406570
21
38.545836
0
LINE
8
Image
10
36.406570
20
38.545836
11
37.592140
21
37.054496
0
LINE
8
Image
10
37.592140
20
37.054496
11
38.777710
21
35.846486
0
LINE
8
Image
10
38.777710
20
35.846486
11
38.148098
21
35.068259
0
LINE
8
Image
10
38.148098
20
35.068259
11
37.334221
21
33.789091
0
LINE
8
Image
10
37.334221
20
33.789091
11
36.366657
21
31.956105
0
LINE
8
Image
10
36.366657
20
31.956105
11
35.594541
21
30.274621
0
LINE
8
Image
10
35.594541
20
30.274621
11
35.367008
21
29.449959
0
LINE
8
Image
10
35.367008
20
29.449959
11
35.934716
21
29.541417
0
LINE
8
Image
10
35.934716
20
29.541417
11
36.965732
21
30.146629
0
LINE
8
Image
10
36.965732
20
30.146629
11
38.155851
21
31.057898
0
LINE
8
Image
10
38.155851
20
31.057898
11
39.200868
21
32.067529
0
LINE
8
Image
10
39.200868
20
32.067529
11
39.929668
21
32.970739
0
LINE
8
Image
10
39.929668
20
32.970739
11
40.268856
21
33.656063
0
LINE
8
Image
10
40.268856
20
33.656063
11
40.257418
21
34.279134
0
LINE
8
Image
10
40.257418
20
34.279134
11
39.934335
21
34.995589
0
LINE
8
Image
10
39.934335
20
34.995589
11
39.647181
21
35.784419
0
LINE
8
Image
10
39.647181
20
35.784419
11
39.537298
21
36.780200
0
LINE
8
Image
10
39.537298
20
36.780200
11
39.606364
21
37.896061
0
LINE
8
Image
10
39.606364
20
37.896061
11
39.856061
21
39.045129
0
LINE
8
Image
10
39.856061
20
39.045129
11
40.388485
21
40.104976
0
LINE
8
Image
10
40.388485
20
40.104976
11
41.261183
21
41.276516
0
LINE
8
Image
10
41.261183
20
41.276516
11
42.189729
21
42.224955
0
LINE
8
Image
10
42.189729
20
42.224955
11
42.889700
21
42.615500
0
LINE
8
Image
10
42.889700
20
42.615500
11
43.565099
21
42.202062
0
LINE
8
Image
10
43.565099
20
42.202062
11
44.668070
21
41.208050
0
LINE
8
Image
10
44.668070
20
41.208050
11
45.840484
21
39.848948
0
LINE
8
Image
10
45.840484
20
39.848948
11
45.963382
21
39.349620
0
LINE
8
Image
10
45.963382
20
39.349620
11
45.902440
21
38.718250
0
LINE
8
Image
10
45.902440
20
38.718250
11
44.894020
21
35.610140
0
LINE
8
Image
10
44.894020
20
35.610140
11
44.395349
21
34.326203
0
LINE
8
Image
10
44.395349
20
34.326203
11
44.339120
21
33.701225
0
LINE
8
Image
10
44.339120
20
33.701225
11
44.819501
21
33.566552
0
LINE
8
Image
10
44.819501
20
33.566552
11
45.930660
21
33.753530
0
LINE
8
Image
10
45.930660
20
33.753530
11
46.370301
21
33.886154
0
LINE
8
Image
10
46.370301
20
33.886154
11
46.680246
21
34.114525
0
LINE
8
Image
10
46.680246
20
34.114525
11
47.120060
21
35.094080
0
LINE
8
Image
10
47.120060
20
35.094080
11
47.965401
21
37.024649
0
LINE
8
Image
10
47.965401
20
37.024649
11
49.276860
21
38.820725
0
LINE
8
Image
10
49.276860
20
38.820725
11
50.938002
21
40.351976
0
LINE
8
Image
10
50.938002
20
40.351976
11
52.832390
21
41.488070
0
LINE
8
Image
10
52.832390
20
41.488070
11
53.853155
21
41.867077
0
LINE
8
Image
10
53.853155
20
41.867077
11
54.765844
21
42.019278
0
LINE
8
Image
10
54.765844
20
42.019278
11
55.604341
21
41.946205
0
LINE
8
Image
10
55.604341
20
41.946205
11
56.402530
21
41.649388
0
LINE
8
Image
10
56.402530
20
41.649388
11
57.330214
21
40.969321
0
LINE
8
Image
10
57.330214
20
40.969321
11
58.363291
21
39.949436
0
LINE
8
Image
10
58.363291
20
39.949436
11
59.202555
21
38.917604
0
LINE
8
Image
10
59.202555
20
38.917604
11
59.548800
21
38.201700
0
LINE
8
Image
10
59.548800
20
38.201700
11
58.818237
21
36.431510
0
LINE
8
Image
10
58.818237
20
36.431510
11
58.087677
21
35.136710
0
LINE
8
Image
10
58.087677
20
35.136710
11
59.735457
21
36.881900
0
LINE
8
Image
10
59.735457
20
36.881900
11
65.234115
21
42.821128
0
LINE
8
Image
10
65.234115
20
42.821128
11
70.059082
21
48.235225
0
LINE
8
Image
10
70.059082
20
48.235225
11
73.485573
21
52.292234
0
LINE
8
Image
10
73.485573
20
52.292234
11
74.788800
21
54.160200
0
LINE
8
Image
10
74.788800
20
54.160200
11
75.096498
21
54.625767
0
LINE
8
Image
10
75.096498
20
54.625767
11
75.642470
21
54.432122
0
LINE
8
Image
10
75.642470
20
54.432122
11
76.489828
21
53.745179
0
LINE
8
Image
10
76.489828
20
53.745179
11
77.269150
21
52.910500
0
LINE
8
Image
10
77.269150
20
52.910500
11
77.611018
21
52.273647
0
LINE
8
Image
10
77.611018
20
52.273647
11
77.048023
21
51.446731
0
LINE
8
Image
10
77.048023
20
51.446731
11
75.694438
21
50.002587
0
LINE
8
Image
10
75.694438
20
50.002587
11
70.988278
21
44.759477
0
LINE
8
Image
10
70.988278
20
44.759477
11
64.993478
21
37.888627
0
LINE
8
Image
10
64.993478
20
37.888627
11
62.073973
21
34.439322
0
LINE
8
Image
10
62.073973
20
34.439322
11
61.167381
21
33.001866
0
LINE
8
Image
10
61.167381
20
33.001866
11
60.254778
21
31.229177
0
LINE
8
Image
10
60.254778
20
31.229177
11
58.662894
21
27.488810
0
LINE
8
Image
10
58.662894
20
27.488810
11
58.277443
21
26.084870
0
LINE
8
Image
10
58.277443
20
26.084870
11
58.144598
21
24.928897
0
LINE
8
Image
10
58.144598
20
24.928897
11
58.167208
21
24.599340
0
LINE
8
Image
10
58.167208
20
24.599340
11
58.297337
21
24.452109
0
LINE
8
Image
10
58.297337
20
24.452109
11
59.196028
21
24.608315
0
LINE
8
Image
10
59.196028
20
24.608315
11
60.567184
21
25.106517
0
LINE
8
Image
10
60.567184
20
25.106517
11
62.148991
21
25.871966
0
LINE
8
Image
10
62.148991
20
25.871966
11
65.211198
21
27.813795
0
LINE
8
Image
10
65.211198
20
27.813795
11
67.515952
21
29.887393
0
LINE
8
Image
10
67.515952
20
29.887393
11
69.959323
21
32.560671
0
LINE
8
Image
10
69.959323
20
32.560671
11
72.142309
21
35.361511
0
LINE
8
Image
10
72.142309
20
35.361511
11
73.665908
21
37.817795
0
LINE
8
Image
10
73.665908
20
37.817795
11
75.090698
21
40.093615
0
LINE
8
Image
10
75.090698
20
40.093615
11
76.227328
21
41.857505
0
LINE
8
Image
10
76.227328
20
41.857505
11
76.564110
21
42.412825
0
LINE
8
Image
10
76.564110
20
42.412825
11
76.949692
21
42.556646
0
LINE
8
Image
10
76.949692
20
42.556646
11
77.480582
21
42.274391
0
LINE
8
Image
10
77.480582
20
42.274391
11
78.253288
21
41.551486
0
LINE
8
Image
10
78.253288
20
41.551486
11
79.292338
21
40.487396
0
LINE
8
Image
10
79.292338
20
40.487396
11
78.701314
21
39.505374
0
LINE
8
Image
10
78.701314
20
39.505374
11
76.726534
21
36.647334
0
LINE
8
Image
10
76.726534
20
36.647334
11
75.843064
21
35.269003
0
LINE
8
Image
10
75.843064
20
35.269003
11
75.037679
21
33.710242
0
LINE
8
Image
10
75.037679
20
33.710242
11
74.451188
21
32.274018
0
LINE
8
Image
10
74.451188
20
32.274018
11
74.224400
21
31.263300
0
LINE
8
Image
10
74.224400
20
31.263300
11
74.508071
21
31.260312
0
LINE
8
Image
10
74.508071
20
31.260312
11
75.235568
21
31.739683
0
LINE
8
Image
10
75.235568
20
31.739683
11
77.280940
21
33.583050
0
LINE
8
Image
10
77.280940
20
33.583050
11
78.559516
21
35.081742
0
LINE
8
Image
10
78.559516
20
35.081742
11
79.794364
21
36.818022
0
LINE
8
Image
10
79.794364
20
36.818022
11
80.819997
21
38.538804
0
LINE
8
Image
10
80.819997
20
38.538804
11
81.470930
21
39.991000
0
LINE
8
Image
10
81.470930
20
39.991000
11
82.106517
21
41.556070
0
LINE
8
Image
10
82.106517
20
41.556070
11
82.607916
21
41.327812
0
LINE
8
Image
10
82.607916
20
41.327812
11
83.550677
21
40.483430
0
LINE
8
Image
10
83.550677
20
40.483430
11
84.807737
21
39.200290
0
LINE
8
Image
10
84.807737
20
39.200290
11
83.563817
21
36.852930
0
LINE
8
Image
10
83.563817
20
36.852930
11
82.713137
21
35.027842
0
LINE
8
Image
10
82.713137
20
35.027842
11
82.496627
21
34.045020
0
LINE
8
Image
10
82.496627
20
34.045020
11
82.735588
21
33.651903
0
LINE
8
Image
10
82.735588
20
33.651903
11
82.989466
21
33.650727
0
LINE
8
Image
10
82.989466
20
33.650727
11
83.245551
21
34.032018
0
LINE
8
Image
10
83.245551
20
34.032018
11
83.491135
21
34.786304
0
LINE
8
Image
10
83.491135
20
34.786304
11
83.927699
21
35.994195
0
LINE
8
Image
10
83.927699
20
35.994195
11
84.599751
21
37.185053
0
LINE
8
Image
10
84.599751
20
37.185053
11
85.458552
21
38.314489
0
LINE
8
Image
10
85.458552
20
38.314489
11
86.455367
21
39.338113
0
LINE
8
Image
10
86.455367
20
39.338113
11
87.541456
21
40.211536
0
LINE
8
Image
10
87.541456
20
40.211536
11
88.668083
21
40.890367
0
LINE
8
Image
10
88.668083
20
40.890367
11
89.786510
21
41.330219
0
LINE
8
Image
10
89.786510
20
41.330219
11
90.848000
21
41.486700
0
LINE
8
Image
10
90.848000
20
41.486700
11
91.799233
21
41.385935
0
LINE
8
Image
10
91.799233
20
41.385935
11
92.695125
21
41.058790
0
LINE
8
Image
10
92.695125
20
41.058790
11
93.609175
21
40.467987
0
LINE
8
Image
10
93.609175
20
40.467987
11
94.614880
21
39.576250
0
LINE
8
Image
10
94.614880
20
39.576250
11
95.572276
21
38.480889
0
LINE
8
Image
10
95.572276
20
38.480889
11
95.944090
21
37.570948
0
LINE
8
Image
10
95.944090
20
37.570948
11
95.742261
21
36.722974
0
LINE
8
Image
10
95.742261
20
36.722974
11
94.978723
21
35.813520
0
LINE
8
Image
10
94.978723
20
35.813520
11
93.595485
21
34.718493
0
LINE
8
Image
10
93.595485
20
34.718493
11
91.731301
21
33.497946
0
LINE
8
Image
10
91.731301
20
33.497946
11
89.796492
21
32.402074
0
LINE
8
Image
10
89.796492
20
32.402074
11
88.201383
21
31.681070
0
LINE
8
Image
10
88.201383
20
31.681070
11
86.783300
21
31.185600
0
LINE
8
Image
10
86.783300
20
31.185600
11
87.894510
21
31.094854
0
LINE
8
Image
10
87.894510
20
31.094854
11
88.925292
21
31.114102
0
LINE
8
Image
10
88.925292
20
31.114102
11
90.093013
21
31.312035
0
LINE
8
Image
10
90.093013
20
31.312035
11
92.638936
21
32.158431
0
LINE
8
Image
10
92.638936
20
32.158431
11
95.131611
21
33.462999
0
LINE
8
Image
10
95.131611
20
33.462999
11
97.170370
21
35.054694
0
LINE
8
Image
10
97.170370
20
35.054694
11
98.574800
21
36.459124
0
LINE
8
Image
10
98.574800
20
36.459124
11
99.574368
21
35.459556
0
LINE
8
Image
10
99.574368
20
35.459556
11
100.573936
21
34.459988
0
LINE
8
Image
10
100.573936
20
34.459988
11
99.323056
21
33.295818
0
LINE
8
Image
10
99.323056
20
33.295818
11
96.885582
21
31.295606
0
LINE
8
Image
10
96.885582
20
31.295606
11
94.439940
21
29.792822
0
LINE
8
Image
10
94.439940
20
29.792822
11
92.099258
21
28.845382
0
LINE
8
Image
10
92.099258
20
28.845382
11
89.976666
21
28.511198
0
LINE
8
Image
10
89.976666
20
28.511198
11
88.685320
21
28.566118
0
LINE
8
Image
10
88.685320
20
28.566118
11
87.691505
21
28.802526
0
LINE
8
Image
10
87.691505
20
28.802526
11
86.766666
21
29.308904
0
LINE
8
Image
10
86.766666
20
29.308904
11
85.682246
21
30.173738
0
LINE
8
Image
10
85.682246
20
30.173738
11
84.622281
21
30.987992
0
LINE
8
Image
10
84.622281
20
30.987992
11
83.944700
21
31.326700
0
LINE
8
Image
10
83.944700
20
31.326700
11
83.334733
21
31.619130
0
LINE
8
Image
10
83.334733
20
31.619130
11
82.437440
21
32.322207
0
LINE
8
Image
10
82.437440
20
32.322207
11
81.335530
21
33.317711
0
LINE
8
Image
10
81.335530
20
33.317711
11
80.736136
21
32.347869
0
LINE
8
Image
10
80.736136
20
32.347869
11
79.666015
21
31.004025
0
LINE
8
Image
10
79.666015
20
31.004025
11
78.166147
21
29.548393
0
LINE
8
Image
10
78.166147
20
29.548393
11
76.627001
21
28.325169
0
LINE
8
Image
10
76.627001
20
28.325169
11
75.439046
21
27.678549
0
LINE
8
Image
10
75.439046
20
27.678549
11
74.766062
21
27.519338
0
LINE
8
Image
10
74.766062
20
27.519338
11
74.239077
21
27.587301
0
LINE
8
Image
10
74.239077
20
27.587301
11
72.436956
21
28.879099
0
LINE
8
Image
10
72.436956
20
28.879099
11
71.432736
21
29.677051
0
LINE
8
Image
10
71.432736
20
29.677051
11
68.948016
21
27.147891
0
LINE
8
Image
10
68.948016
20
27.147891
11
66.431491
21
24.864860
0
LINE
8
Image
10
66.431491
20
24.864860
11
63.898077
21
23.060561
0
LINE
8
Image
10
63.898077
20
23.060561
11
61.575453
21
21.875180
0
LINE
8
Image
10
61.575453
20
21.875180
11
60.564338
21
21.558390
0
LINE
8
Image
10
60.564338
20
21.558390
11
59.691300
21
21.448900
0
LINE
8
Image
10
59.691300
20
21.448900
11
58.689724
21
21.869478
0
LINE
8
Image
10
58.689724
20
21.869478
11
57.421353
21
22.888680
0
LINE
8
Image
10
57.421353
20
22.888680
11
56.272958
21
24.142707
0
LINE
8
Image
10
56.272958
20
24.142707
11
55.631310
21
25.267760
0
LINE
8
Image
10
55.631310
20
25.267760
11
55.531979
21
26.070154
0
LINE
8
Image
10
55.531979
20
26.070154
11
55.575301
21
27.089766
0
LINE
8
Image
10
55.575301
20
27.089766
11
56.022419
21
29.116510
0
LINE
8
Image
10
56.022419
20
29.116510
11
56.068295
21
29.353234
0
LINE
8
Image
10
56.068295
20
29.353234
11
55.887537
21
29.421529
0
LINE
8
Image
10
55.887537
20
29.421529
11
54.419689
21
29.029744
0
LINE
8
Image
10
54.419689
20
29.029744
11
52.928536
21
28.672503
0
LINE
8
Image
10
52.928536
20
28.672503
11
51.732485
21
28.674275
0
LINE
8
Image
10
51.732485
20
28.674275
11
50.678126
21
29.061582
0
LINE
8
Image
10
50.678126
20
29.061582
11
49.612049
21
29.860950
0
LINE
8
Image
10
49.612049
20
29.860950
11
48.922676
21
30.443780
0
LINE
8
Image
10
48.922676
20
30.443780
11
48.337251
21
30.755436
0
LINE
8
Image
10
48.337251
20
30.755436
11
47.599686
21
30.880444
0
LINE
8
Image
10
47.599686
20
30.880444
11
46.453889
21
30.903330
0
LINE
8
Image
10
46.453889
20
30.903330
11
43.731639
21
31.131089
0
LINE
8
Image
10
43.731639
20
31.131089
11
43.307530
21
31.202433
0
LINE
8
Image
10
43.307530
20
31.202433
11
42.915262
21
31.044968
0
LINE
8
Image
10
42.915262
20
31.044968
11
41.692539
21
29.658059
0
LINE
8
Image
10
41.692539
20
29.658059
11
40.518080
21
28.315262
0
LINE
8
Image
10
40.518080
20
28.315262
11
39.344366
21
27.314162
0
LINE
8
Image
10
39.344366
20
27.314162
11
38.167245
21
26.651821
0
LINE
8
Image
10
38.167245
20
26.651821
11
36.982559
21
26.325299
0
LINE
8
Image
10
36.982559
20
26.325299
11
36.290696
21
26.274631
0
LINE
8
Image
10
36.290696
20
26.274631
11
35.727376
21
26.446289
0
LINE
8
Image
10
35.727376
20
26.446289
11
33.952009
21
28.042779
0
LINE
8
Image
10
33.952009
20
28.042779
11
32.359014
21
29.468272
0
LINE
8
Image
10
32.359014
20
29.468272
11
31.802702
21
29.806378
0
LINE
8
Image
10
31.802702
20
29.806378
11
31.377800
21
29.915600
0
LINE
8
Image
10
31.377800
20
29.915600
11
30.472655
21
30.292853
0
LINE
8
Image
10
30.472655
20
30.292853
11
29.151730
21
31.440200
0
LINE
8
Image
10
29.151730
20
31.440200
11
27.627130
21
32.964800
0
LINE
8
Image
10
27.627130
20
32.964800
11
28.063387
21
34.050750
0
LINE
8
Image
10
28.063387
20
34.050750
11
28.499642
21
35.136700
0
LINE
8
Image
10
28.499642
20
35.136700
11
27.867048
21
34.373594
0
LINE
8
Image
10
27.867048
20
34.373594
11
26.469004
21
32.309977
0
LINE
8
Image
10
26.469004
20
32.309977
11
24.425193
21
28.941010
0
LINE
8
Image
10
24.425193
20
28.941010
11
22.429172
21
25.445235
0
LINE
8
Image
10
22.429172
20
25.445235
11
21.174498
21
23.001194
0
LINE
8
Image
10
21.174498
20
23.001194
11
18.464028
21
15.804534
0
LINE
8
Image
10
18.464028
20
15.804534
11
16.261363
21
10.172893
0
LINE
8
Image
10
16.261363
20
10.172893
11
15.574609
21
9.062464
0
LINE
8
Image
10
15.574609
20
9.062464
11
14.997188
21
8.748984
0
LINE
8
Image
10
14.997188
20
8.748984
11
14.143132
21
9.269357
0
LINE
8
Image
10
14.143132
20
9.269357
11
12.762428
21
10.520464
0
LINE
8
Image
10
12.762428
20
10.520464
11
12.762400
21
10.520400
0
LINE
8
Image
10
54.261600
20
32.584700
11
56.585490
21
34.015570
0
LINE
8
Image
10
56.585490
20
34.015570
11
57.432156
21
34.740505
0
LINE
8
Image
10
57.432156
20
34.740505
11
56.162156
21
33.968315
0
LINE
8
Image
10
56.162156
20
33.968315
11
52.916606
21
32.386475
0
LINE
8
Image
10
52.916606
20
32.386475
11
51.722525
21
31.835936
0
LINE
8
Image
10
51.722525
20
31.835936
11
51.618037
21
31.721693
0
LINE
8
Image
10
51.618037
20
31.721693
11
51.862716
21
31.727797
0
LINE
8
Image
10
51.862716
20
31.727797
11
54.261606
21
32.584708
0
LINE
8
Image
10
54.261606
20
32.584708
11
54.261600
21
32.584700
0
LINE
8
Image
10
35.560000
20
37.601800
11
35.459035
21
37.657485
0
LINE
8
Image
10
35.459035
20
37.657485
11
35.187738
21
37.495772
0
LINE
8
Image
10
35.187738
20
37.495772
11
34.323728
21
36.711930
0
LINE
8
Image
10
34.323728
20
36.711930
11
33.347131
21
35.633831
0
LINE
8
Image
10
33.347131
20
35.633831
11
32.637110
21
34.645030
0
LINE
8
Image
10
32.637110
20
34.645030
11
32.478920
21
34.292658
0
LINE
8
Image
10
32.478920
20
34.292658
11
32.605874
21
34.301938
0
LINE
8
Image
10
32.605874
20
34.301938
11
33.844910
21
35.496926
0
LINE
8
Image
10
33.844910
20
35.496926
11
35.056192
21
36.845934
0
LINE
8
Image
10
35.056192
20
36.845934
11
35.560000
21
37.601796
0
LINE
8
Image
10
35.560000
20
37.601796
11
35.560000
21
37.601800
0
LINE
8
Image
10
91.157700
20
37.142580
11
92.292006
21
38.098900
0
LINE
8
Image
10
92.292006
20
38.098900
11
92.545187
21
38.590971
0
LINE
8
Image
10
92.545187
20
38.590971
11
91.945877
21
38.579073
0
LINE
8
Image
10
91.945877
20
38.579073
11
90.522709
21
38.023488
0
LINE
8
Image
10
90.522709
20
38.023488
11
89.329210
21
37.308711
0
LINE
8
Image
10
89.329210
20
37.308711
11
88.060526
21
36.319073
0
LINE
8
Image
10
88.060526
20
36.319073
11
87.052806
21
35.344622
0
LINE
8
Image
10
87.052806
20
35.344622
11
86.642200
21
34.675400
0
LINE
8
Image
10
86.642200
20
34.675400
11
87.062889
21
34.682669
0
LINE
8
Image
10
87.062889
20
34.682669
11
88.140334
21
35.197172
0
LINE
8
Image
10
88.140334
20
35.197172
11
91.157750
21
37.142630
0
LINE
8
Image
10
91.157750
20
37.142630
11
91.157700
21
37.142580
0
LINE
8
Image
10
53.493200
20
36.287566
11
54.494603
21
37.002218
0
LINE
8
Image
10
54.494603
20
37.002218
11
55.476730
21
37.889319
0
LINE
8
Image
10
55.476730
20
37.889319
11
56.179827
21
38.688894
0
LINE
8
Image
10
56.179827
20
38.688894
11
56.344140
21
39.140966
0
LINE
8
Image
10
56.344140
20
39.140966
11
55.962981
21
39.151306
0
LINE
8
Image
10
55.962981
20
39.151306
11
55.267842
21
38.861611
0
LINE
8
Image
10
55.267842
20
38.861611
11
53.385380
21
37.698071
0
LINE
8
Image
10
53.385380
20
37.698071
11
51.596263
21
36.282262
0
LINE
8
Image
10
51.596263
20
36.282262
11
51.017806
21
35.677230
0
LINE
8
Image
10
51.017806
20
35.677230
11
50.800000
21
35.246100
0
LINE
8
Image
10
50.800000
20
35.246100
11
51.003216
21
35.151162
0
LINE
8
Image
10
51.003216
20
35.151162
11
51.566346
21
35.311078
0
LINE
8
Image
10
51.566346
20
35.311078
11
53.493250
21
36.287550
0
LINE
8
Image
10
53.493250
20
36.287550
11
53.493200
21
36.287566
0
LINE
8
Image
10
29.690700
20
46.143300
11
33.300670
21
52.185180
0
LINE
8
Image
10
33.300670
20
52.185180
11
33.652062
21
52.864842
0
LINE
8
Image
10
33.652062
20
52.864842
11
31.034872
21
52.679069
0
LINE
8
Image
10
31.034872
20
52.679069
11
25.559200
21
52.493300
0
LINE
8
Image
10
25.559200
20
52.493300
11
22.700700
21
52.493300
0
LINE
8
Image
10
22.700700
20
52.493300
11
23.913640
21
50.002680
0
LINE
8
Image
10
23.913640
20
50.002680
11
24.796734
21
47.942090
0
LINE
8
Image
10
24.796734
20
47.942090
11
25.435533
21
45.895161
0
LINE
8
Image
10
25.435533
20
45.895161
11
25.824855
21
43.882344
0
LINE
8
Image
10
25.824855
20
43.882344
11
25.959520
21
41.924090
0
LINE
8
Image
10
25.959520
20
41.924090
11
26.031681
21
40.816898
0
LINE
8
Image
10
26.031681
20
40.816898
11
26.198274
21
40.512980
0
LINE
8
Image
10
26.198274
20
40.512980
11
29.690714
21
46.143310
0
LINE
8
Image
10
29.690714
20
46.143310
11
29.690700
21
46.143300
 0 
ENDSEC
 0 
EOF