999
"DXF R12 Output" (www.mydxf.blogspot.com)
 0 
SECTION
 2 
HEADER
 9 
$ACADVER
 1 
AC1009
 9 
$EXTMIN
 10 
 0 
 20 
 0 
 9 
$EXTMAX
 10 
 8.5 
 20 
 11 
 0 
ENDSEC
 0 
SECTION
 2 
ENTITIES
0
LINE
8
Image
10
41.416600
20
64.192300
11
41.215407
21
64.181276
0
LINE
8
Image
10
41.215407
20
64.181276
11
40.909484
21
64.057804
0
LINE
8
Image
10
40.909484
20
64.057804
11
40.067892
21
63.326002
0
LINE
8
Image
10
40.067892
20
63.326002
11
38.970996
21
61.969624
0
LINE
8
Image
10
38.970996
20
61.969624
11
37.754557
21
60.173604
0
LINE
8
Image
10
37.754557
20
60.173604
11
36.554334
21
58.122874
0
LINE
8
Image
10
36.554334
20
58.122874
11
35.448215
21
56.248613
0
LINE
8
Image
10
35.448215
20
56.248613
11
34.760684
21
55.381684
0
LINE
8
Image
10
34.760684
20
55.381684
11
32.866467
21
55.363772
0
LINE
8
Image
10
32.866467
20
55.363772
11
29.054994
21
55.576762
0
LINE
8
Image
10
29.054994
20
55.576762
11
21.663284
21
56.283472
0
LINE
8
Image
10
21.663284
20
56.283472
11
20.262373
21
56.538107
0
LINE
8
Image
10
20.262373
20
56.538107
11
19.321426
21
56.831370
0
LINE
8
Image
10
19.321426
20
56.831370
11
18.528353
21
57.300476
0
LINE
8
Image
10
18.528353
20
57.300476
11
17.571064
21
58.082642
0
LINE
8
Image
10
17.571064
20
58.082642
11
15.240120
21
59.808243
0
LINE
8
Image
10
15.240120
20
59.808243
11
14.237049
21
60.266493
0
LINE
8
Image
10
14.237049
20
60.266493
11
13.182900
21
60.544400
0
LINE
8
Image
10
13.182900
20
60.544400
11
12.287531
21
60.564941
0
LINE
8
Image
10
12.287531
20
60.564941
11
11.499225
21
60.325850
0
LINE
8
Image
10
11.499225
20
60.325850
11
10.938131
21
59.887484
0
LINE
8
Image
10
10.938131
20
59.887484
11
10.724400
21
59.310200
0
LINE
8
Image
10
10.724400
20
59.310200
11
11.437497
21
58.231840
0
LINE
8
Image
10
11.437497
20
58.231840
11
13.108120
21
56.515904
0
LINE
8
Image
10
13.108120
20
56.515904
11
15.033271
21
54.827899
0
LINE
8
Image
10
15.033271
20
54.827899
11
16.509950
21
53.833330
0
LINE
8
Image
10
16.509950
20
53.833330
11
18.800250
21
53.067692
0
LINE
8
Image
10
18.800250
20
53.067692
11
19.446247
21
52.862951
0
LINE
8
Image
10
19.446247
20
52.862951
11
19.890600
21
52.561466
0
LINE
8
Image
10
19.890600
20
52.561466
11
20.681550
21
51.152222
0
LINE
8
Image
10
20.681550
20
51.152222
11
21.531805
21
48.934955
0
LINE
8
Image
10
21.531805
20
48.934955
11
22.098580
21
46.703653
0
LINE
8
Image
10
22.098580
20
46.703653
11
22.378092
21
44.397939
0
LINE
8
Image
10
22.378092
20
44.397939
11
22.366561
21
41.957433
0
LINE
8
Image
10
22.366561
20
41.957433
11
22.060206
21
39.321757
0
LINE
8
Image
10
22.060206
20
39.321757
11
21.455245
21
36.430532
0
LINE
8
Image
10
21.455245
20
36.430532
11
20.547897
21
33.223380
0
LINE
8
Image
10
20.547897
20
33.223380
11
19.334380
21
29.639922
0
LINE
8
Image
10
19.334380
20
29.639922
11
18.213512
21
26.646106
0
LINE
8
Image
10
18.213512
20
26.646106
11
17.142246
21
24.198045
0
LINE
8
Image
10
17.142246
20
24.198045
11
13.576390
21
17.671922
0
LINE
8
Image
10
13.576390
20
17.671922
11
11.761561
21
14.374415
0
LINE
8
Image
10
11.761561
20
14.374415
11
11.006700
21
12.740800
0
LINE
8
Image
10
11.006700
20
12.740800
11
11.522389
21
11.903455
0
LINE
8
Image
10
11.522389
20
11.903455
11
12.762320
21
10.520510
0
LINE
8
Image
10
12.762320
20
10.520510
11
14.142954
21
9.269342
0
LINE
8
Image
10
14.142954
20
9.269342
11
14.996950
21
8.748910
0
LINE
8
Image
10
14.996950
20
8.748910
11
15.574421
21
9.062390
0
LINE
8
Image
10
15.574421
20
9.062390
11
16.261278
21
10.172819
0
LINE
8
Image
10
16.261278
20
10.172819
11
18.464090
21
15.804460
0
LINE
8
Image
10
18.464090
20
15.804460
11
21.174410
21
23.001120
0
LINE
8
Image
10
21.174410
20
23.001120
11
22.429132
21
25.445220
0
LINE
8
Image
10
22.429132
20
25.445220
11
24.425256
21
28.941086
0
LINE
8
Image
10
24.425256
20
28.941086
11
26.469169
21
32.310145
0
LINE
8
Image
10
26.469169
20
32.310145
11
27.867260
21
34.373820
0
LINE
8
Image
10
27.867260
20
34.373820
11
28.499503
21
35.136700
0
LINE
8
Image
10
28.499503
20
35.136700
11
28.063493
21
34.050810
0
LINE
8
Image
10
28.063493
20
34.050810
11
27.626931
21
32.964920
0
LINE
8
Image
10
27.626931
20
32.964920
11
29.151591
21
31.440260
0
LINE
8
Image
10
29.151591
20
31.440260
11
30.472656
21
30.292884
0
LINE
8
Image
10
30.472656
20
30.292884
11
31.377951
21
29.915600
0
LINE
8
Image
10
31.377951
20
29.915600
11
31.802850
21
29.806349
0
LINE
8
Image
10
31.802850
20
29.806349
11
32.359140
21
29.468178
0
LINE
8
Image
10
32.359140
20
29.468178
11
33.952121
21
28.042570
0
LINE
8
Image
10
33.952121
20
28.042570
11
35.727504
21
26.446306
0
LINE
8
Image
10
35.727504
20
26.446306
11
36.290833
21
26.274803
0
LINE
8
Image
10
36.290833
20
26.274803
11
36.982701
21
26.325540
0
LINE
8
Image
10
36.982701
20
26.325540
11
38.167410
21
26.652044
0
LINE
8
Image
10
38.167410
20
26.652044
11
39.344583
21
27.314344
0
LINE
8
Image
10
39.344583
20
27.314344
11
40.518348
21
28.315402
0
LINE
8
Image
10
40.518348
20
28.315402
11
41.692831
21
29.658180
0
LINE
8
Image
10
41.692831
20
29.658180
11
42.915476
21
31.044994
0
LINE
8
Image
10
42.915476
20
31.044994
11
43.307690
21
31.202399
0
LINE
8
Image
10
43.307690
20
31.202399
11
43.731771
21
31.131030
0
LINE
8
Image
10
43.731771
20
31.131030
11
46.453671
21
30.903378
0
LINE
8
Image
10
46.453671
20
30.903378
11
47.599514
21
30.880497
0
LINE
8
Image
10
47.599514
20
30.880497
11
48.337184
21
30.755500
0
LINE
8
Image
10
48.337184
20
30.755500
11
48.922711
21
30.443854
0
LINE
8
Image
10
48.922711
20
30.443854
11
49.612131
21
29.861028
0
LINE
8
Image
10
49.612131
20
29.861028
11
50.678216
21
29.061657
0
LINE
8
Image
10
50.678216
20
29.061657
11
51.732592
21
28.674342
0
LINE
8
Image
10
51.732592
20
28.674342
11
52.928661
21
28.672562
0
LINE
8
Image
10
52.928661
20
28.672562
11
54.419821
21
29.029797
0
LINE
8
Image
10
54.419821
20
29.029797
11
55.887495
21
29.421469
0
LINE
8
Image
10
55.887495
20
29.421469
11
56.068133
21
29.353097
0
LINE
8
Image
10
56.068133
20
29.353097
11
56.022201
21
29.116338
0
LINE
8
Image
10
56.022201
20
29.116338
11
55.575231
21
27.089673
0
LINE
8
Image
10
55.575231
20
27.089673
11
55.532010
21
26.070122
0
LINE
8
Image
10
55.532010
20
26.070122
11
55.631388
21
25.267758
0
LINE
8
Image
10
55.631388
20
25.267758
11
56.272992
21
24.142715
0
LINE
8
Image
10
56.272992
20
24.142715
11
57.421288
21
22.888701
0
LINE
8
Image
10
57.421288
20
22.888701
11
58.689559
21
21.869511
0
LINE
8
Image
10
58.689559
20
21.869511
11
59.691088
21
21.448938
0
LINE
8
Image
10
59.691088
20
21.448938
11
60.564134
21
21.558428
0
LINE
8
Image
10
60.564134
20
21.558428
11
61.575291
21
21.875219
0
LINE
8
Image
10
61.575291
20
21.875219
11
63.898052
21
23.060605
0
LINE
8
Image
10
63.898052
20
23.060605
11
66.431606
21
24.864910
0
LINE
8
Image
10
66.431606
20
24.864910
11
68.948188
21
27.147948
0
LINE
8
Image
10
68.948188
20
27.147948
11
71.432508
21
29.676918
0
LINE
8
Image
10
71.432508
20
29.676918
11
72.436828
21
28.879308
0
LINE
8
Image
10
72.436828
20
28.879308
11
74.239136
21
27.587515
0
LINE
8
Image
10
74.239136
20
27.587515
11
74.766250
21
27.519554
0
LINE
8
Image
10
74.766250
20
27.519554
11
75.439298
21
27.678768
0
LINE
8
Image
10
75.439298
20
27.678768
11
76.627180
21
28.325392
0
LINE
8
Image
10
76.627180
20
28.325392
11
78.166167
21
29.548623
0
LINE
8
Image
10
78.166167
20
29.548623
11
79.665874
21
31.004261
0
LINE
8
Image
10
79.665874
20
31.004261
11
80.735918
21
32.348108
0
LINE
8
Image
10
80.735918
20
32.348108
11
81.335640
21
33.317696
0
LINE
8
Image
10
81.335640
20
33.317696
11
82.437520
21
32.322200
0
LINE
8
Image
10
82.437520
20
32.322200
11
83.334695
21
31.619129
0
LINE
8
Image
10
83.334695
20
31.619129
11
83.944540
21
31.326707
0
LINE
8
Image
10
83.944540
20
31.326707
11
84.622376
21
30.987939
0
LINE
8
Image
10
84.622376
20
30.987939
11
85.682520
21
30.173567
0
LINE
8
Image
10
85.682520
20
30.173567
11
86.766869
21
29.308748
0
LINE
8
Image
10
86.766869
20
29.308748
11
87.691553
21
28.802397
0
LINE
8
Image
10
87.691553
20
28.802397
11
88.685210
21
28.566015
0
LINE
8
Image
10
88.685210
20
28.566015
11
89.976480
21
28.511107
0
LINE
8
Image
10
89.976480
20
28.511107
11
92.099074
21
28.845280
0
LINE
8
Image
10
92.099074
20
28.845280
11
94.439759
21
29.792693
0
LINE
8
Image
10
94.439759
20
29.792693
11
96.885405
21
31.295447
0
LINE
8
Image
10
96.885405
20
31.295447
11
99.322880
21
33.295647
0
LINE
8
Image
10
99.322880
20
33.295647
11
100.574140
21
34.459817
0
LINE
8
Image
10
100.574140
20
34.459817
11
99.574239
21
35.459721
0
LINE
8
Image
10
99.574239
20
35.459721
11
98.574885
21
36.459075
0
LINE
8
Image
10
98.574885
20
36.459075
11
97.170395
21
35.054575
0
LINE
8
Image
10
97.170395
20
35.054575
11
95.131639
21
33.462865
0
LINE
8
Image
10
95.131639
20
33.462865
11
92.638971
21
32.158267
0
LINE
8
Image
10
92.638971
20
32.158267
11
90.093055
21
31.311840
0
LINE
8
Image
10
90.093055
20
31.311840
11
88.925337
21
31.113897
0
LINE
8
Image
10
88.925337
20
31.113897
11
87.894555
21
31.094645
0
LINE
8
Image
10
87.894555
20
31.094645
11
86.783300
21
31.185600
0
LINE
8
Image
10
86.783300
20
31.185600
11
88.201580
21
31.681142
0
LINE
8
Image
10
88.201580
20
31.681142
11
89.796666
21
32.402148
0
LINE
8
Image
10
89.796666
20
32.402148
11
91.731422
21
33.498023
0
LINE
8
Image
10
91.731422
20
33.498023
11
93.595556
21
34.718573
0
LINE
8
Image
10
93.595556
20
34.718573
11
94.978770
21
35.813602
0
LINE
8
Image
10
94.978770
20
35.813602
11
95.742316
21
36.723036
0
LINE
8
Image
10
95.742316
20
36.723036
11
95.944160
21
37.570963
0
LINE
8
Image
10
95.944160
20
37.570963
11
95.572359
21
38.480857
0
LINE
8
Image
10
95.572359
20
38.480857
11
94.614969
21
39.576192
0
LINE
8
Image
10
94.614969
20
39.576192
11
93.609213
21
40.467911
0
LINE
8
Image
10
93.609213
20
40.467911
11
92.695109
21
41.058736
0
LINE
8
Image
10
92.695109
20
41.058736
11
91.799167
21
41.385917
0
LINE
8
Image
10
91.799167
20
41.385917
11
90.847900
21
41.486700
0
LINE
8
Image
10
90.847900
20
41.486700
11
89.786384
21
41.330212
0
LINE
8
Image
10
89.786384
20
41.330212
11
88.667925
21
40.890345
0
LINE
8
Image
10
88.667925
20
40.890345
11
87.541264
21
40.211489
0
LINE
8
Image
10
87.541264
20
40.211489
11
86.455141
21
39.338039
0
LINE
8
Image
10
86.455141
20
39.338039
11
85.458297
21
38.314385
0
LINE
8
Image
10
85.458297
20
38.314385
11
84.599471
21
37.184921
0
LINE
8
Image
10
84.599471
20
37.184921
11
83.927406
21
35.994038
0
LINE
8
Image
10
83.927406
20
35.994038
11
83.490840
21
34.786130
0
LINE
8
Image
10
83.490840
20
34.786130
11
83.245274
21
34.031914
0
LINE
8
Image
10
83.245274
20
34.031914
11
82.989230
21
33.650778
0
LINE
8
Image
10
82.989230
20
33.650778
11
82.735393
21
33.652110
0
LINE
8
Image
10
82.735393
20
33.652110
11
82.496451
21
34.045297
0
LINE
8
Image
10
82.496451
20
34.045297
11
82.712943
21
35.028112
0
LINE
8
Image
10
82.712943
20
35.028112
11
83.563601
21
36.853187
0
LINE
8
Image
10
83.563601
20
36.853187
11
84.807691
21
39.200257
0
LINE
8
Image
10
84.807691
20
39.200257
11
83.550371
21
40.483487
0
LINE
8
Image
10
83.550371
20
40.483487
11
82.607875
21
41.327881
0
LINE
8
Image
10
82.607875
20
41.327881
11
82.106741
21
41.556147
0
LINE
8
Image
10
82.106741
20
41.556147
11
81.470638
21
39.991247
0
LINE
8
Image
10
81.470638
20
39.991247
11
80.819739
21
38.538974
0
LINE
8
Image
10
80.819739
20
38.538974
11
79.794177
21
36.818031
0
LINE
8
Image
10
79.794177
20
36.818031
11
78.559401
21
35.081591
0
LINE
8
Image
10
78.559401
20
35.081591
11
77.280858
21
33.582827
0
LINE
8
Image
10
77.280858
20
33.582827
11
75.235510
21
31.739582
0
LINE
8
Image
10
75.235510
20
31.739582
11
74.508031
21
31.260293
0
LINE
8
Image
10
74.508031
20
31.260293
11
74.224368
21
31.263317
0
LINE
8
Image
10
74.224368
20
31.263317
11
74.451120
21
32.274082
0
LINE
8
Image
10
74.451120
20
32.274082
11
75.037535
21
33.710390
0
LINE
8
Image
10
75.037535
20
33.710390
11
75.842858
21
35.269228
0
LINE
8
Image
10
75.842858
20
35.269228
11
76.726328
21
36.647587
0
LINE
8
Image
10
76.726328
20
36.647587
11
78.701328
21
39.505637
0
LINE
8
Image
10
78.701328
20
39.505637
11
79.292230
21
40.487349
0
LINE
8
Image
10
79.292230
20
40.487349
11
78.253190
21
41.551749
0
LINE
8
Image
10
78.253190
20
41.551749
11
77.480522
21
42.274639
0
LINE
8
Image
10
77.480522
20
42.274639
11
76.949717
21
42.556859
0
LINE
8
Image
10
76.949717
20
42.556859
11
76.564222
21
42.413005
0
LINE
8
Image
10
76.564222
20
42.413005
11
76.227480
21
41.857672
0
LINE
8
Image
10
76.227480
20
41.857672
11
75.090870
21
40.093782
0
LINE
8
Image
10
75.090870
20
40.093782
11
73.665980
21
37.817812
0
LINE
8
Image
10
73.665980
20
37.817812
11
72.142408
21
35.361524
0
LINE
8
Image
10
72.142408
20
35.361524
11
69.959481
21
32.560685
0
LINE
8
Image
10
69.959481
20
32.560685
11
67.516172
21
29.887409
0
LINE
8
Image
10
67.516172
20
29.887409
11
65.211450
21
27.813812
0
LINE
8
Image
10
65.211450
20
27.813812
11
62.149126
21
25.872067
0
LINE
8
Image
10
62.149126
20
25.872067
11
60.567238
21
25.106677
0
LINE
8
Image
10
60.567238
20
25.106677
11
59.196040
21
24.608502
0
LINE
8
Image
10
59.196040
20
24.608502
11
58.297480
21
24.452133
0
LINE
8
Image
10
58.297480
20
24.452133
11
58.167441
21
24.599253
0
LINE
8
Image
10
58.167441
20
24.599253
11
58.144870
21
24.928759
0
LINE
8
Image
10
58.144870
20
24.928759
11
58.277698
21
26.084749
0
LINE
8
Image
10
58.277698
20
26.084749
11
58.663103
21
27.488727
0
LINE
8
Image
10
58.663103
20
27.488727
11
60.254920
21
31.229149
0
LINE
8
Image
10
60.254920
20
31.229149
11
61.167543
21
33.001798
0
LINE
8
Image
10
61.167543
20
33.001798
11
62.074169
21
34.439177
0
LINE
8
Image
10
62.074169
20
34.439177
11
64.993720
21
37.888379
0
LINE
8
Image
10
64.993720
20
37.888379
11
70.988180
21
44.759269
0
LINE
8
Image
10
70.988180
20
44.759269
11
75.694450
21
50.002429
0
LINE
8
Image
10
75.694450
20
50.002429
11
77.048031
21
51.446491
0
LINE
8
Image
10
77.048031
20
51.446491
11
77.611000
21
52.273400
0
LINE
8
Image
10
77.611000
20
52.273400
11
77.269127
21
52.910333
0
LINE
8
Image
10
77.269127
20
52.910333
11
76.489788
21
53.745162
0
LINE
8
Image
10
76.489788
20
53.745162
11
75.642405
21
54.432261
0
LINE
8
Image
10
75.642405
20
54.432261
11
75.096400
21
54.626000
0
LINE
8
Image
10
75.096400
20
54.626000
11
74.788800
21
54.160200
0
LINE
8
Image
10
74.788800
20
54.160200
11
73.485595
21
52.292227
0
LINE
8
Image
10
73.485595
20
52.292227
11
70.059161
21
48.235200
0
LINE
8
Image
10
70.059161
20
48.235200
11
65.234272
21
42.821073
0
LINE
8
Image
10
65.234272
20
42.821073
11
59.735700
21
36.881800
0
LINE
8
Image
10
59.735700
20
36.881800
11
58.946643
21
35.929056
0
LINE
8
Image
10
58.946643
20
35.929056
11
58.203075
21
35.261901
0
LINE
8
Image
10
58.203075
20
35.261901
11
56.585130
21
34.014670
0
LINE
8
Image
10
56.585130
20
34.014670
11
54.261210
21
32.583720
0
LINE
8
Image
10
54.261210
20
32.583720
11
51.862320
21
31.727134
0
LINE
8
Image
10
51.862320
20
31.727134
11
51.617649
21
31.721032
0
LINE
8
Image
10
51.617649
20
31.721032
11
51.722148
21
31.835283
0
LINE
8
Image
10
51.722148
20
31.835283
11
52.916240
21
32.385835
0
LINE
8
Image
10
52.916240
20
32.385835
11
54.650984
21
33.238820
0
LINE
8
Image
10
54.650984
20
33.238820
11
56.094690
21
34.076355
0
LINE
8
Image
10
56.094690
20
34.076355
11
57.383392
21
35.044934
0
LINE
8
Image
10
57.383392
20
35.044934
11
58.678950
21
36.472445
0
LINE
8
Image
10
58.678950
20
36.472445
11
59.307152
21
37.383621
0
LINE
8
Image
10
59.307152
20
37.383621
11
59.548976
21
38.201015
0
LINE
8
Image
10
59.548976
20
38.201015
11
59.218977
21
38.916407
0
LINE
8
Image
10
59.218977
20
38.916407
11
58.377895
21
39.948336
0
LINE
8
Image
10
58.377895
20
39.948336
11
57.335769
21
40.968567
0
LINE
8
Image
10
57.335769
20
40.968567
11
56.402636
21
41.648865
0
LINE
8
Image
10
56.402636
20
41.648865
11
55.604434
21
41.945738
0
LINE
8
Image
10
55.604434
20
41.945738
11
54.765910
21
42.018937
0
LINE
8
Image
10
54.765910
20
42.018937
11
53.853193
21
41.866861
0
LINE
8
Image
10
53.853193
20
41.866861
11
52.832416
21
41.487911
0
LINE
8
Image
10
52.832416
20
41.487911
11
50.938042
21
40.351800
0
LINE
8
Image
10
50.938042
20
40.351800
11
49.276932
21
38.820512
0
LINE
8
Image
10
49.276932
20
38.820512
11
47.965504
21
37.024402
0
LINE
8
Image
10
47.965504
20
37.024402
11
47.120176
21
35.093821
0
LINE
8
Image
10
47.120176
20
35.093821
11
46.680301
21
34.114262
0
LINE
8
Image
10
46.680301
20
34.114262
11
46.370314
21
33.885892
0
LINE
8
Image
10
46.370314
20
33.885892
11
45.930656
21
33.753271
0
LINE
8
Image
10
45.930656
20
33.753271
11
44.819555
21
33.566274
0
LINE
8
Image
10
44.819555
20
33.566274
11
44.339296
21
33.700905
0
LINE
8
Image
10
44.339296
20
33.700905
11
44.395647
21
34.325842
0
LINE
8
Image
10
44.395647
20
34.325842
11
44.894376
21
35.609761
0
LINE
8
Image
10
44.894376
20
35.609761
11
45.902546
21
38.718061
0
LINE
8
Image
10
45.902546
20
38.718061
11
45.963517
21
39.349440
0
LINE
8
Image
10
45.963517
20
39.349440
11
45.840687
21
39.848778
0
LINE
8
Image
10
45.840687
20
39.848778
11
44.668376
21
41.207901
0
LINE
8
Image
10
44.668376
20
41.207901
11
43.565122
21
42.202138
0
LINE
8
Image
10
43.565122
20
42.202138
11
42.889500
21
42.615500
0
LINE
8
Image
10
42.889500
20
42.615500
11
42.189565
21
42.224988
0
LINE
8
Image
10
42.189565
20
42.224988
11
41.261094
21
41.276618
0
LINE
8
Image
10
41.261094
20
41.276618
11
40.388493
21
40.105133
0
LINE
8
Image
10
40.388493
20
40.105133
11
39.856170
21
39.045280
0
LINE
8
Image
10
39.856170
20
39.045280
11
39.606473
21
37.896170
0
LINE
8
Image
10
39.606473
20
37.896170
11
39.537405
21
36.780229
0
LINE
8
Image
10
39.537405
20
36.780229
11
39.647288
21
35.784368
0
LINE
8
Image
10
39.647288
20
35.784368
11
39.934441
21
34.995500
0
LINE
8
Image
10
39.934441
20
34.995500
11
40.257492
21
34.279051
0
LINE
8
Image
10
40.257492
20
34.279051
11
40.268863
21
33.655983
0
LINE
8
Image
10
40.268863
20
33.655983
11
39.929607
21
32.970660
0
LINE
8
Image
10
39.929607
20
32.970660
11
39.200774
21
32.067450
0
LINE
8
Image
10
39.200774
20
32.067450
11
38.155782
21
31.057791
0
LINE
8
Image
10
38.155782
20
31.057791
11
36.965718
21
30.146470
0
LINE
8
Image
10
36.965718
20
30.146470
11
35.934757
21
29.541209
0
LINE
8
Image
10
35.934757
20
29.541209
11
35.367074
21
29.449730
0
LINE
8
Image
10
35.367074
20
29.449730
11
35.610419
21
30.258752
0
LINE
8
Image
10
35.610419
20
30.258752
11
36.417326
21
31.905831
0
LINE
8
Image
10
36.417326
20
31.905831
11
38.249374
21
34.967940
0
LINE
8
Image
10
38.249374
20
34.967940
11
38.807753
21
35.781535
0
LINE
8
Image
10
38.807753
20
35.781535
11
37.592323
21
37.054285
0
LINE
8
Image
10
37.592323
20
37.054285
11
36.903857
21
37.765352
0
LINE
8
Image
10
36.903857
20
37.765352
11
34.128487
21
35.340562
0
LINE
8
Image
10
34.128487
20
35.340562
11
33.289632
21
34.563788
0
LINE
8
Image
10
33.289632
20
34.563788
11
32.747559
21
34.223704
0
LINE
8
Image
10
32.747559
20
34.223704
11
32.523052
21
34.268140
0
LINE
8
Image
10
32.523052
20
34.268140
11
32.636897
21
34.644927
0
LINE
8
Image
10
32.636897
20
34.644927
11
34.441582
21
36.721072
0
LINE
8
Image
10
34.441582
20
36.721072
11
36.357597
21
38.647847
0
LINE
8
Image
10
36.357597
20
38.647847
11
35.149887
21
40.062257
0
LINE
8
Image
10
35.149887
20
40.062257
11
34.318374
21
40.841491
0
LINE
8
Image
10
34.318374
20
40.841491
11
34.006070
21
41.012857
0
LINE
8
Image
10
34.006070
20
41.012857
11
33.697069
21
41.023977
0
LINE
8
Image
10
33.697069
20
41.023977
11
32.891977
21
40.521240
0
LINE
8
Image
10
32.891977
20
40.521240
11
31.509107
21
39.244807
0
LINE
8
Image
10
31.509107
20
39.244807
11
30.788455
21
38.600696
0
LINE
8
Image
10
30.788455
20
38.600696
11
30.657958
21
38.545092
0
LINE
8
Image
10
30.657958
20
38.545092
11
30.700495
21
38.709142
0
LINE
8
Image
10
30.700495
20
38.709142
11
32.898167
21
42.192157
0
LINE
8
Image
10
32.898167
20
42.192157
11
37.485377
21
49.529927
0
LINE
8
Image
10
37.485377
20
49.529927
11
39.495657
21
52.844937
0
LINE
8
Image
10
39.495657
20
52.844937
11
40.912007
21
53.117035
0
LINE
8
Image
10
40.912007
20
53.117035
11
44.061367
21
53.475527
0
LINE
8
Image
10
44.061367
20
53.475527
11
55.090041
21
54.799413
0
LINE
8
Image
10
55.090041
20
54.799413
11
59.468008
21
55.469573
0
LINE
8
Image
10
59.468008
20
55.469573
11
61.421367
21
55.911347
0
LINE
8
Image
10
61.421367
20
55.911347
11
61.693496
21
56.280893
0
LINE
8
Image
10
61.693496
20
56.280893
11
61.806600
21
56.720000
0
LINE
8
Image
10
61.806600
20
56.720000
11
61.351617
21
57.470042
0
LINE
8
Image
10
61.351617
20
57.470042
11
60.311737
21
58.612063
0
LINE
8
Image
10
60.311737
20
58.612063
11
59.174564
21
59.656377
0
LINE
8
Image
10
59.174564
20
59.656377
11
58.427700
21
60.113300
0
LINE
8
Image
10
58.427700
20
60.113300
11
56.787840
21
59.440818
0
LINE
8
Image
10
56.787840
20
59.440818
11
54.150071
21
58.378494
0
LINE
8
Image
10
54.150071
20
58.378494
11
50.682960
21
57.367517
0
LINE
8
Image
10
50.682960
20
57.367517
11
46.808314
21
56.514967
0
LINE
8
Image
10
46.808314
20
56.514967
11
42.947940
21
55.927928
0
LINE
8
Image
10
42.947940
20
55.927928
11
41.632449
21
55.783073
0
LINE
8
Image
10
41.632449
20
55.783073
11
41.275048
21
55.804008
0
LINE
8
Image
10
41.275048
20
55.804008
11
41.093974
21
55.935070
0
LINE
8
Image
10
41.093974
20
55.935070
11
41.189097
21
56.671229
0
LINE
8
Image
10
41.189097
20
56.671229
11
41.774400
21
58.278858
0
LINE
8
Image
10
41.774400
20
58.278858
11
42.255012
21
59.940963
0
LINE
8
Image
10
42.255012
20
59.940963
11
42.540590
21
61.559138
0
LINE
8
Image
10
42.540590
20
61.559138
11
42.553094
21
62.971619
0
LINE
8
Image
10
42.553094
20
62.971619
11
42.389788
21
63.381963
0
LINE
8
Image
10
42.389788
20
63.381963
11
42.080325
21
63.752968
0
LINE
8
Image
10
42.080325
20
63.752968
11
41.416660
21
64.192286
0
LINE
8
Image
10
41.416660
20
64.192286
11
41.416600
21
64.192300
0
LINE
8
Image
10
33.652100
20
52.864800
11
33.300426
21
52.185152
0
LINE
8
Image
10
33.300426
20
52.185152
11
29.690600
21
46.143300
0
LINE
8
Image
10
29.690600
20
46.143300
11
26.198100
21
40.513190
0
LINE
8
Image
10
26.198100
20
40.513190
11
26.031546
21
40.817108
0
LINE
8
Image
10
26.031546
20
40.817108
11
25.959424
21
41.924300
0
LINE
8
Image
10
25.959424
20
41.924300
11
25.824806
21
43.882560
0
LINE
8
Image
10
25.824806
20
43.882560
11
25.435595
21
45.895381
0
LINE
8
Image
10
25.435595
20
45.895381
11
24.796909
21
47.942315
0
LINE
8
Image
10
24.796909
20
47.942315
11
23.913864
21
50.002910
0
LINE
8
Image
10
23.913864
20
50.002910
11
22.700700
21
52.493300
0
LINE
8
Image
10
22.700700
20
52.493300
11
25.559300
21
52.493300
0
LINE
8
Image
10
25.559300
20
52.493300
11
31.035070
21
52.679059
0
LINE
8
Image
10
31.035070
20
52.679059
11
33.652100
21
52.864800
0
LINE
8
Image
10
56.199500
20
39.188600
11
56.343919
21
39.141195
0
LINE
8
Image
10
56.343919
20
39.141195
11
56.179615
21
38.689086
0
LINE
8
Image
10
56.179615
20
38.689086
11
55.476539
21
37.889429
0
LINE
8
Image
10
55.476539
20
37.889429
11
54.494433
21
37.002245
0
LINE
8
Image
10
54.494433
20
37.002245
11
53.493039
21
36.287555
0
LINE
8
Image
10
53.493039
20
36.287555
11
51.566140
21
35.311189
0
LINE
8
Image
10
51.566140
20
35.311189
11
51.003013
21
35.151344
0
LINE
8
Image
10
51.003013
20
35.151344
11
50.799799
21
35.246315
0
LINE
8
Image
10
50.799799
20
35.246315
11
50.992254
21
35.644556
0
LINE
8
Image
10
50.992254
20
35.644556
11
51.507857
21
36.199975
0
LINE
8
Image
10
51.507857
20
36.199975
11
53.137928
21
37.522018
0
LINE
8
Image
10
53.137928
20
37.522018
11
54.948859
21
38.691782
0
LINE
8
Image
10
54.948859
20
38.691782
11
56.199499
21
39.188605
0
LINE
8
Image
10
56.199499
20
39.188605
11
56.199500
21
39.188600
0
LINE
8
Image
10
92.350400
20
38.650614
11
92.560808
21
38.556297
0
LINE
8
Image
10
92.560808
20
38.556297
11
92.436771
21
38.267011
0
LINE
8
Image
10
92.436771
20
38.267011
11
91.157570
21
37.142494
0
LINE
8
Image
10
91.157570
20
37.142494
11
88.140154
21
35.197034
0
LINE
8
Image
10
88.140154
20
35.197034
11
87.062709
21
34.682527
0
LINE
8
Image
10
87.062709
20
34.682527
11
86.642020
21
34.675254
0
LINE
8
Image
10
86.642020
20
34.675254
11
87.052634
21
35.344476
0
LINE
8
Image
10
87.052634
20
35.344476
11
88.060370
21
36.318917
0
LINE
8
Image
10
88.060370
20
36.318917
11
89.329068
21
37.308546
0
LINE
8
Image
10
89.329068
20
37.308546
11
90.522570
21
38.023334
0
LINE
8
Image
10
90.522570
20
38.023334
11
91.666183
21
38.492681
0
LINE
8
Image
10
91.666183
20
38.492681
11
92.350400
21
38.650615
0
LINE
8
Image
10
92.350400
20
38.650615
11
92.350400
21
38.650614
 0 
ENDSEC
 0 
EOF