999
"DXF R12 Output" (www.mydxf.blogspot.com)
 0 
SECTION
 2 
HEADER
 9 
$ACADVER
 1 
AC1009
 9 
$EXTMIN
 10 
 0 
 20 
 0 
 9 
$EXTMAX
 10 
 8.5 
 20 
 11 
 0 
ENDSEC
 0 
SECTION
 2 
ENTITIES
0
LINE
8
Image
10
17.714400
20
4.727240
11
15.545420
21
6.914460
0
LINE
8
Image
10
15.545420
20
6.914460
11
16.074950
21
8.510430
0
LINE
8
Image
10
16.074950
20
8.510430
11
17.902170
21
15.707090
0
LINE
8
Image
10
17.902170
20
15.707090
11
20.026200
21
23.988900
0
LINE
8
Image
10
20.026200
20
23.988900
11
22.281770
21
31.945650
0
LINE
8
Image
10
22.281770
20
31.945650
11
23.711060
21
37.221290
0
LINE
8
Image
10
23.711060
20
37.221290
11
23.122008
21
38.718970
0
LINE
8
Image
10
23.122008
20
38.718970
11
20.606488
21
43.734884
0
LINE
8
Image
10
20.606488
20
43.734884
11
17.598600
21
48.949300
0
LINE
8
Image
10
17.598600
20
48.949300
11
16.932393
21
49.801596
0
LINE
8
Image
10
16.932393
20
49.801596
11
16.136866
21
50.575361
0
LINE
8
Image
10
16.136866
20
50.575361
11
14.279900
21
51.824313
0
LINE
8
Image
10
14.279900
20
51.824313
11
12.271809
21
52.570183
0
LINE
8
Image
10
12.271809
20
52.570183
11
11.287375
21
52.715096
0
LINE
8
Image
10
11.287375
20
52.715096
11
10.356700
21
52.687000
0
LINE
8
Image
10
10.356700
20
52.687000
11
9.656953
21
52.641083
0
LINE
8
Image
10
9.656953
20
52.641083
11
9.046428
21
52.855987
0
LINE
8
Image
10
9.046428
20
52.855987
11
6.859930
21
54.820700
0
LINE
8
Image
10
6.859930
20
54.820700
11
5.204211
21
56.589975
0
LINE
8
Image
10
5.204211
20
56.589975
11
4.515550
21
57.630400
0
LINE
8
Image
10
4.515550
20
57.630400
11
4.719140
21
58.080146
0
LINE
8
Image
10
4.719140
20
58.080146
11
5.227806
21
58.422568
0
LINE
8
Image
10
5.227806
20
58.422568
11
9.231505
21
58.669768
0
LINE
8
Image
10
9.231505
20
58.669768
11
17.857206
21
58.883828
0
LINE
8
Image
10
17.857206
20
58.883828
11
29.774400
21
59.074200
0
LINE
8
Image
10
29.774400
20
59.074200
11
30.621066
21
60.510950
0
LINE
8
Image
10
30.621066
20
60.510950
11
31.391849
21
61.574210
0
LINE
8
Image
10
31.391849
20
61.574210
11
32.039116
21
62.029550
0
LINE
8
Image
10
32.039116
20
62.029550
11
32.659031
21
61.864350
0
LINE
8
Image
10
32.659031
20
61.864350
11
33.336604
21
61.329127
0
LINE
8
Image
10
33.336604
20
61.329127
11
33.904506
21
60.594487
0
LINE
8
Image
10
33.904506
20
60.594487
11
34.195406
21
59.831040
0
LINE
8
Image
10
34.195406
20
59.831040
11
34.291683
21
59.433753
0
LINE
8
Image
10
34.291683
20
59.433753
11
34.565411
21
59.223112
0
LINE
8
Image
10
34.565411
20
59.223112
11
36.375226
21
59.125485
0
LINE
8
Image
10
36.375226
20
59.125485
11
38.460500
21
59.125500
0
LINE
8
Image
10
38.460500
20
59.125500
11
39.559430
21
60.959940
0
LINE
8
Image
10
39.559430
20
60.959940
11
40.639939
21
62.555562
0
LINE
8
Image
10
40.639939
20
62.555562
11
41.737100
21
63.805060
0
LINE
8
Image
10
41.737100
20
63.805060
11
42.759861
21
64.619776
0
LINE
8
Image
10
42.759861
20
64.619776
11
43.617170
21
64.911050
0
LINE
8
Image
10
43.617170
20
64.911050
11
44.562464
21
64.543764
0
LINE
8
Image
10
44.562464
20
64.543764
11
45.948320
21
63.383250
0
LINE
8
Image
10
45.948320
20
63.383250
11
46.839213
21
62.497484
0
LINE
8
Image
10
46.839213
20
62.497484
11
47.307285
21
61.882224
0
LINE
8
Image
10
47.307285
20
61.882224
11
47.478793
21
61.301349
0
LINE
8
Image
10
47.478793
20
61.301349
11
47.479990
21
60.518740
0
LINE
8
Image
10
47.479990
20
60.518740
11
47.421813
21
59.182030
0
LINE
8
Image
10
47.421813
20
59.182030
11
50.099513
21
59.357921
0
LINE
8
Image
10
50.099513
20
59.357921
11
54.122768
21
59.909668
0
LINE
8
Image
10
54.122768
20
59.909668
11
55.804624
21
60.348833
0
LINE
8
Image
10
55.804624
20
60.348833
11
57.083843
21
60.857611
0
LINE
8
Image
10
57.083843
20
60.857611
11
57.580973
21
61.064900
0
LINE
8
Image
10
57.580973
20
61.064900
11
58.044993
21
60.969287
0
LINE
8
Image
10
58.044993
20
60.969287
11
59.918583
21
59.292431
0
LINE
8
Image
10
59.918583
20
59.292431
11
61.520705
21
57.581694
0
LINE
8
Image
10
61.520705
20
57.581694
11
61.721707
21
57.142252
0
LINE
8
Image
10
61.721707
20
57.142252
11
61.638563
21
56.813031
0
LINE
8
Image
10
61.638563
20
56.813031
11
61.034648
21
56.324862
0
LINE
8
Image
10
61.034648
20
56.324862
11
59.661204
21
56.016577
0
LINE
8
Image
10
59.661204
20
56.016577
11
57.063102
21
55.831657
0
LINE
8
Image
10
57.063102
20
55.831657
11
52.785213
21
55.713581
0
LINE
8
Image
10
52.785213
20
55.713581
11
46.162703
21
55.583516
0
LINE
8
Image
10
46.162703
20
55.583516
11
44.573053
21
52.125086
0
LINE
8
Image
10
44.573053
20
52.125086
11
43.255227
21
49.367066
0
LINE
8
Image
10
43.255227
20
49.367066
11
42.153444
21
47.407323
0
LINE
8
Image
10
42.153444
20
47.407323
11
40.994727
21
45.817140
0
LINE
8
Image
10
40.994727
20
45.817140
11
39.506100
21
44.167800
0
LINE
8
Image
10
39.506100
20
44.167800
11
38.016870
21
42.424779
0
LINE
8
Image
10
38.016870
20
42.424779
11
37.432560
21
41.204470
0
LINE
8
Image
10
37.432560
20
41.204470
11
37.250806
21
40.216693
0
LINE
8
Image
10
37.250806
20
40.216693
11
38.592616
21
41.678283
0
LINE
8
Image
10
38.592616
20
41.678283
11
40.228766
21
43.215314
0
LINE
8
Image
10
40.228766
20
43.215314
11
40.924084
21
43.618961
0
LINE
8
Image
10
40.924084
20
43.618961
11
41.578695
21
43.782148
0
LINE
8
Image
10
41.578695
20
43.782148
11
42.223446
21
43.706965
0
LINE
8
Image
10
42.223446
20
43.706965
11
42.889186
21
43.395500
0
LINE
8
Image
10
42.889186
20
43.395500
11
44.407026
21
42.072084
0
LINE
8
Image
10
44.407026
20
42.072084
11
45.455336
21
40.857466
0
LINE
8
Image
10
45.455336
20
40.857466
11
45.944482
21
39.814784
0
LINE
8
Image
10
45.944482
20
39.814784
11
45.952581
21
38.587422
0
LINE
8
Image
10
45.952581
20
38.587422
11
45.557746
21
36.818764
0
LINE
8
Image
10
45.557746
20
36.818764
11
44.949972
21
33.056284
0
LINE
8
Image
10
44.949972
20
33.056284
11
44.786661
21
30.975874
0
LINE
8
Image
10
44.786661
20
30.975874
11
46.734991
21
31.106035
0
LINE
8
Image
10
46.734991
20
31.106035
11
48.541290
21
31.359012
0
LINE
8
Image
10
48.541290
20
31.359012
11
50.241010
21
31.875463
0
LINE
8
Image
10
50.241010
20
31.875463
11
51.861617
21
32.666199
0
LINE
8
Image
10
51.861617
20
32.666199
11
53.430581
21
33.742035
0
LINE
8
Image
10
53.430581
20
33.742035
11
55.073401
21
35.035285
0
LINE
8
Image
10
55.073401
20
35.035285
11
53.783351
21
36.414445
0
LINE
8
Image
10
53.783351
20
36.414445
11
52.872468
21
37.562615
0
LINE
8
Image
10
52.872468
20
37.562615
11
52.510434
21
38.571301
0
LINE
8
Image
10
52.510434
20
38.571301
11
52.681924
21
39.604724
0
LINE
8
Image
10
52.681924
20
39.604724
11
53.371615
21
40.827105
0
LINE
8
Image
10
53.371615
20
40.827105
11
54.365467
21
41.987546
0
LINE
8
Image
10
54.365467
20
41.987546
11
55.542389
21
42.912076
0
LINE
8
Image
10
55.542389
20
42.912076
11
56.780871
21
43.523444
0
LINE
8
Image
10
56.780871
20
43.523444
11
57.959400
21
43.744400
0
LINE
8
Image
10
57.959400
20
43.744400
11
58.618165
21
43.687303
0
LINE
8
Image
10
58.618165
20
43.687303
11
59.212322
21
43.431567
0
LINE
8
Image
10
59.212322
20
43.431567
11
61.008590
21
41.817500
0
LINE
8
Image
10
61.008590
20
41.817500
11
62.292475
21
40.414369
0
LINE
8
Image
10
62.292475
20
40.414369
11
62.873926
21
39.332552
0
LINE
8
Image
10
62.873926
20
39.332552
11
62.923517
21
38.823004
0
LINE
8
Image
10
62.923517
20
38.823004
11
62.824232
21
38.286822
0
LINE
8
Image
10
62.824232
20
38.286822
11
62.214680
21
36.991950
0
LINE
8
Image
10
62.214680
20
36.991950
11
61.500670
21
35.742830
0
LINE
8
Image
10
61.500670
20
35.742830
11
62.963950
21
34.261150
0
LINE
8
Image
10
62.963950
20
34.261150
11
64.184811
21
32.839159
0
LINE
8
Image
10
64.184811
20
32.839159
11
64.314818
21
32.331987
0
LINE
8
Image
10
64.314818
20
32.331987
11
64.255930
21
31.700270
0
LINE
8
Image
10
64.255930
20
31.700270
11
63.751070
21
30.200889
0
LINE
8
Image
10
63.751070
20
30.200889
11
62.777810
21
28.111460
0
LINE
8
Image
10
62.777810
20
28.111460
11
61.158601
21
24.672432
0
LINE
8
Image
10
61.158601
20
24.672432
11
60.878828
21
23.746007
0
LINE
8
Image
10
60.878828
20
23.746007
11
60.981500
21
23.424500
0
LINE
8
Image
10
60.981500
20
23.424500
11
61.656841
21
23.599019
0
LINE
8
Image
10
61.656841
20
23.599019
11
62.635678
21
24.090368
0
LINE
8
Image
10
62.635678
20
24.090368
11
65.242226
21
25.830325
0
LINE
8
Image
10
65.242226
20
25.830325
11
68.277911
21
28.257897
0
LINE
8
Image
10
68.277911
20
28.257897
11
71.219500
21
30.986610
0
LINE
8
Image
10
71.219500
20
30.986610
11
73.303425
21
33.244285
0
LINE
8
Image
10
73.303425
20
33.244285
11
73.498390
21
33.752650
0
LINE
8
Image
10
73.498390
20
33.752650
11
73.353170
21
34.183730
0
LINE
8
Image
10
73.353170
20
34.183730
11
73.088811
21
35.207904
0
LINE
8
Image
10
73.088811
20
35.207904
11
72.999378
21
36.684993
0
LINE
8
Image
10
72.999378
20
36.684993
11
73.085394
21
38.161355
0
LINE
8
Image
10
73.085394
20
38.161355
11
73.347384
21
39.183350
0
LINE
8
Image
10
73.347384
20
39.183350
11
74.824279
21
41.063734
0
LINE
8
Image
10
74.824279
20
41.063734
11
75.740577
21
41.935681
0
LINE
8
Image
10
75.740577
20
41.935681
11
76.517414
21
42.492760
0
LINE
8
Image
10
76.517414
20
42.492760
11
77.538766
21
42.778835
0
LINE
8
Image
10
77.538766
20
42.778835
11
78.894394
21
42.897822
0
LINE
8
Image
10
78.894394
20
42.897822
11
79.843135
21
42.866585
0
LINE
8
Image
10
79.843135
20
42.866585
11
80.532559
21
42.658295
0
LINE
8
Image
10
80.532559
20
42.658295
11
81.286791
21
42.101086
0
LINE
8
Image
10
81.286791
20
42.101086
11
82.429954
21
41.023092
0
LINE
8
Image
10
82.429954
20
41.023092
11
83.848346
21
39.551178
0
LINE
8
Image
10
83.848346
20
39.551178
11
84.531624
21
38.644922
0
LINE
8
Image
10
84.531624
20
38.644922
11
84.518977
21
37.983028
0
LINE
8
Image
10
84.518977
20
37.983028
11
84.234076
21
37.077282
0
LINE
8
Image
10
84.234076
20
37.077282
11
83.757889
21
36.125317
0
LINE
8
Image
10
83.757889
20
36.125317
11
83.171384
21
35.324772
0
LINE
8
Image
10
83.171384
20
35.324772
11
81.464174
21
34.101792
0
LINE
8
Image
10
81.464174
20
34.101792
11
80.742612
21
33.663447
0
LINE
8
Image
10
80.742612
20
33.663447
11
80.532364
21
33.391253
0
LINE
8
Image
10
80.532364
20
33.391253
11
81.232972
21
33.575440
0
LINE
8
Image
10
81.232972
20
33.575440
11
82.582131
21
34.314462
0
LINE
8
Image
10
82.582131
20
34.314462
11
84.051469
21
35.287387
0
LINE
8
Image
10
84.051469
20
35.287387
11
85.112614
21
36.173283
0
LINE
8
Image
10
85.112614
20
36.173283
11
85.586068
21
36.758662
0
LINE
8
Image
10
85.586068
20
36.758662
11
85.893141
21
37.414581
0
LINE
8
Image
10
85.893141
20
37.414581
11
86.313484
21
39.880713
0
LINE
8
Image
10
86.313484
20
39.880713
11
86.604961
21
41.823005
0
LINE
8
Image
10
86.604961
20
41.823005
11
86.983885
21
43.177144
0
LINE
8
Image
10
86.983885
20
43.177144
11
87.535969
21
44.158108
0
LINE
8
Image
10
87.535969
20
44.158108
11
88.346924
21
44.980873
0
LINE
8
Image
10
88.346924
20
44.980873
11
89.335451
21
45.568939
0
LINE
8
Image
10
89.335451
20
45.568939
11
90.642274
21
45.720046
0
LINE
8
Image
10
90.642274
20
45.720046
11
91.480789
21
45.680649
0
LINE
8
Image
10
91.480789
20
45.680649
11
92.136586
21
45.456236
0
LINE
8
Image
10
92.136586
20
45.456236
11
92.893432
21
44.887479
0
LINE
8
Image
10
92.893432
20
44.887479
11
94.035094
21
43.815046
0
LINE
8
Image
10
94.035094
20
43.815046
11
95.171158
21
42.696494
0
LINE
8
Image
10
95.171158
20
42.696494
11
95.744521
21
41.986256
0
LINE
8
Image
10
95.744521
20
41.986256
11
95.926145
21
41.388039
0
LINE
8
Image
10
95.926145
20
41.388039
11
95.886994
21
40.605546
0
LINE
8
Image
10
95.886994
20
40.605546
11
95.619618
21
39.384954
0
LINE
8
Image
10
95.619618
20
39.384954
11
94.972903
21
38.285051
0
LINE
8
Image
10
94.972903
20
38.285051
11
93.796864
21
37.119419
0
LINE
8
Image
10
93.796864
20
37.119419
11
91.941514
21
35.701636
0
LINE
8
Image
10
91.941514
20
35.701636
11
90.205044
21
34.396936
0
LINE
8
Image
10
90.205044
20
34.396936
11
89.632064
21
33.836806
0
LINE
8
Image
10
89.632064
20
33.836806
11
90.876669
21
33.860192
0
LINE
8
Image
10
90.876669
20
33.860192
11
92.204827
21
34.292460
0
LINE
8
Image
10
92.204827
20
34.292460
11
93.824371
21
35.230206
0
LINE
8
Image
10
93.824371
20
35.230206
11
95.943134
21
36.770026
0
LINE
8
Image
10
95.943134
20
36.770026
11
98.042417
21
38.589594
0
LINE
8
Image
10
98.042417
20
38.589594
11
99.329794
21
40.368826
0
LINE
8
Image
10
99.329794
20
40.368826
11
100.225579
21
41.815235
0
LINE
8
Image
10
100.225579
20
41.815235
11
100.908171
21
42.461647
0
LINE
8
Image
10
100.908171
20
42.461647
11
101.223733
21
42.508047
0
LINE
8
Image
10
101.223733
20
42.508047
11
101.551052
21
42.382279
0
LINE
8
Image
10
101.551052
20
42.382279
11
102.327704
21
41.651346
0
LINE
8
Image
10
102.327704
20
41.651346
11
102.909099
21
40.824008
0
LINE
8
Image
10
102.909099
20
40.824008
11
103.221140
21
39.971122
0
LINE
8
Image
10
103.221140
20
39.971122
11
103.259541
21
39.081808
0
LINE
8
Image
10
103.259541
20
39.081808
11
103.020013
21
38.145187
0
LINE
8
Image
10
103.020013
20
38.145187
11
102.498268
21
37.150380
0
LINE
8
Image
10
102.498268
20
37.150380
11
101.690019
21
36.086507
0
LINE
8
Image
10
101.690019
20
36.086507
11
99.196854
21
33.708046
0
LINE
8
Image
10
99.196854
20
33.708046
11
97.062171
21
32.039051
0
LINE
8
Image
10
97.062171
20
32.039051
11
95.332419
21
30.956906
0
LINE
8
Image
10
95.332419
20
30.956906
11
93.835571
21
30.372769
0
LINE
8
Image
10
93.835571
20
30.372769
11
92.399600
21
30.197800
0
LINE
8
Image
10
92.399600
20
30.197800
11
91.567584
21
30.232384
0
LINE
8
Image
10
91.567584
20
30.232384
11
90.948859
21
30.391975
0
LINE
8
Image
10
90.948859
20
30.391975
11
89.578810
21
31.421200
0
LINE
8
Image
10
89.578810
20
31.421200
11
88.227520
21
32.644600
0
LINE
8
Image
10
88.227520
20
32.644600
11
86.690990
21
31.568260
0
LINE
8
Image
10
86.690990
20
31.568260
11
85.234157
21
30.670673
0
LINE
8
Image
10
85.234157
20
30.670673
11
83.715690
21
29.976267
0
LINE
8
Image
10
83.715690
20
29.976267
11
82.133210
21
29.484133
0
LINE
8
Image
10
82.133210
20
29.484133
11
80.484340
21
29.193360
0
LINE
8
Image
10
80.484340
20
29.193360
11
78.880640
21
29.143395
0
LINE
8
Image
10
78.880640
20
29.143395
11
77.661360
21
29.574109
0
LINE
8
Image
10
77.661360
20
29.574109
11
76.557690
21
30.149376
0
LINE
8
Image
10
76.557690
20
30.149376
11
74.897150
21
28.447326
0
LINE
8
Image
10
74.897150
20
28.447326
11
72.464435
21
26.127027
0
LINE
8
Image
10
72.464435
20
26.127027
11
69.659401
21
23.696644
0
LINE
8
Image
10
69.659401
20
23.696644
11
67.061130
21
21.637341
0
LINE
8
Image
10
67.061130
20
21.637341
11
65.248700
21
20.430286
0
LINE
8
Image
10
65.248700
20
20.430286
11
63.717097
21
19.838091
0
LINE
8
Image
10
63.717097
20
19.838091
11
62.184930
21
19.528460
0
LINE
8
Image
10
62.184930
20
19.528460
11
60.652410
21
19.401373
0
LINE
8
Image
10
60.652410
20
19.401373
11
58.689520
21
21.364263
0
LINE
8
Image
10
58.689520
20
21.364263
11
57.191190
21
23.028958
0
LINE
8
Image
10
57.191190
20
23.028958
11
56.839480
21
23.599154
0
LINE
8
Image
10
56.839480
20
23.599154
11
56.726600
21
24.030100
0
LINE
8
Image
10
56.726600
20
24.030100
11
56.879178
21
25.138301
0
LINE
8
Image
10
56.879178
20
25.138301
11
57.312433
21
26.616880
0
LINE
8
Image
10
57.312433
20
26.616880
11
58.874110
21
30.259180
0
LINE
8
Image
10
58.874110
20
30.259180
11
59.846554
21
32.356547
0
LINE
8
Image
10
59.846554
20
32.356547
11
60.034541
21
33.290710
0
LINE
8
Image
10
60.034541
20
33.290710
11
59.824712
21
33.338246
0
LINE
8
Image
10
59.824712
20
33.338246
11
59.407188
21
33.114970
0
LINE
8
Image
10
59.407188
20
33.114970
11
57.933616
21
31.882630
0
LINE
8
Image
10
57.933616
20
31.882630
11
55.744305
21
30.075692
0
LINE
8
Image
10
55.744305
20
30.075692
11
53.650583
21
28.769526
0
LINE
8
Image
10
53.650583
20
28.769526
11
51.556438
21
27.914585
0
LINE
8
Image
10
51.556438
20
27.914585
11
49.365856
21
27.461320
0
LINE
8
Image
10
49.365856
20
27.461320
11
47.993762
21
27.498521
0
LINE
8
Image
10
47.993762
20
27.498521
11
46.635363
21
28.002289
0
LINE
8
Image
10
46.635363
20
28.002289
11
45.142561
21
29.053391
0
LINE
8
Image
10
45.142561
20
29.053391
11
43.367256
21
30.732590
0
LINE
8
Image
10
43.367256
20
30.732590
11
41.522382
21
32.812286
0
LINE
8
Image
10
41.522382
20
32.812286
11
41.256054
21
33.460683
0
LINE
8
Image
10
41.256054
20
33.460683
11
41.204400
21
34.205800
0
LINE
8
Image
10
41.204400
20
34.205800
11
41.506033
21
37.088060
0
LINE
8
Image
10
41.506033
20
37.088060
11
41.670868
21
38.856540
0
LINE
8
Image
10
41.670868
20
38.856540
11
41.145413
21
38.345259
0
LINE
8
Image
10
41.145413
20
38.345259
11
40.074188
21
36.923910
0
LINE
8
Image
10
40.074188
20
36.923910
11
38.623317
21
34.600263
0
LINE
8
Image
10
38.623317
20
34.600263
11
37.153638
21
31.815074
0
LINE
8
Image
10
37.153638
20
31.815074
11
35.904361
21
29.056103
0
LINE
8
Image
10
35.904361
20
29.056103
11
35.114698
21
26.811110
0
LINE
8
Image
10
35.114698
20
26.811110
11
34.648182
21
25.248048
0
LINE
8
Image
10
34.648182
20
25.248048
11
34.196928
21
24.604519
0
LINE
8
Image
10
34.196928
20
24.604519
11
33.916097
21
24.602340
0
LINE
8
Image
10
33.916097
20
24.602340
11
33.565967
21
24.799758
0
LINE
8
Image
10
33.565967
20
24.799758
11
32.560328
21
25.753000
0
LINE
8
Image
10
32.560328
20
25.753000
11
31.132628
21
27.234450
0
LINE
8
Image
10
31.132628
20
27.234450
11
31.894396
21
31.185560
0
LINE
8
Image
10
31.894396
20
31.185560
11
34.480481
21
44.011351
0
LINE
8
Image
10
34.480481
20
44.011351
11
36.392586
21
52.493360
0
LINE
8
Image
10
36.392586
20
52.493360
11
37.251498
21
55.809470
0
LINE
8
Image
10
37.251498
20
55.809470
11
36.877218
21
55.896040
0
LINE
8
Image
10
36.877218
20
55.896040
11
36.016106
21
55.871952
0
LINE
8
Image
10
36.016106
20
55.871952
11
34.450238
21
55.608055
0
LINE
8
Image
10
34.450238
20
55.608055
11
34.029014
21
55.080010
0
LINE
8
Image
10
34.029014
20
55.080010
11
33.752309
21
54.126385
0
LINE
8
Image
10
33.752309
20
54.126385
11
32.771766
21
49.793704
0
LINE
8
Image
10
32.771766
20
49.793704
11
31.186439
21
44.167805
0
LINE
8
Image
10
31.186439
20
44.167805
11
29.343409
21
37.722695
0
LINE
8
Image
10
29.343409
20
37.722695
11
28.663594
21
34.733034
0
LINE
8
Image
10
28.663594
20
34.733034
11
28.628524
21
33.868025
0
LINE
8
Image
10
28.628524
20
33.868025
11
28.751302
21
33.066035
0
LINE
8
Image
10
28.751302
20
33.066035
11
29.239971
21
29.970379
0
LINE
8
Image
10
29.239971
20
29.970379
11
29.069076
21
26.939245
0
LINE
8
Image
10
29.069076
20
26.939245
11
28.398634
21
23.061089
0
LINE
8
Image
10
28.398634
20
23.061089
11
27.262381
21
18.880079
0
LINE
8
Image
10
27.262381
20
18.880079
11
25.547660
21
14.039726
0
LINE
8
Image
10
25.547660
20
14.039726
11
23.141816
21
8.183545
0
LINE
8
Image
10
23.141816
20
8.183545
11
21.104302
21
3.783226
0
LINE
8
Image
10
21.104302
20
3.783226
11
20.491610
21
2.829862
0
LINE
8
Image
10
20.491610
20
2.829862
11
20.058000
21
2.540020
0
LINE
8
Image
10
20.058000
20
2.540020
11
17.714470
21
4.727240
0
LINE
8
Image
10
17.714470
20
4.727240
11
17.714400
21
4.727240
0
LINE
8
Image
10
79.917200
20
38.574900
11
80.341900
21
39.116400
0
LINE
8
Image
10
80.341900
20
39.116400
11
80.042700
21
39.228900
0
LINE
8
Image
10
80.042700
20
39.228900
11
79.308415
21
38.848117
0
LINE
8
Image
10
79.308415
20
38.848117
11
78.229620
21
37.932620
0
LINE
8
Image
10
78.229620
20
37.932620
11
76.905490
21
36.636340
0
LINE
8
Image
10
76.905490
20
36.636340
11
78.104140
21
37.278593
0
LINE
8
Image
10
78.104140
20
37.278593
11
79.917220
21
38.574873
0
LINE
8
Image
10
79.917220
20
38.574873
11
79.917200
21
38.574900
0
LINE
8
Image
10
57.956400
20
38.122786
11
58.476662
21
38.976892
0
LINE
8
Image
10
58.476662
20
38.976892
11
58.595068
21
39.430126
0
LINE
8
Image
10
58.595068
20
39.430126
11
58.177162
21
39.223902
0
LINE
8
Image
10
58.177162
20
39.223902
11
57.446972
21
38.551582
0
LINE
8
Image
10
57.446972
20
38.551582
11
56.753168
21
37.769325
0
LINE
8
Image
10
56.753168
20
37.769325
11
56.444418
21
37.233286
0
LINE
8
Image
10
56.444418
20
37.233286
11
56.575630
21
36.963938
0
LINE
8
Image
10
56.575630
20
36.963938
11
56.920314
21
37.051204
0
LINE
8
Image
10
56.920314
20
37.051204
11
57.956398
21
38.122790
0
LINE
8
Image
10
57.956398
20
38.122790
11
57.956400
21
38.122786
0
LINE
8
Image
10
92.004400
20
41.867300
11
91.797143
21
41.871910
0
LINE
8
Image
10
91.797143
20
41.871910
11
91.298845
21
41.486687
0
LINE
8
Image
10
91.298845
20
41.486687
11
90.593290
21
40.541630
0
LINE
8
Image
10
90.593290
20
40.541630
11
90.800547
21
40.537020
0
LINE
8
Image
10
90.800547
20
40.537020
11
91.298845
21
40.922243
0
LINE
8
Image
10
91.298845
20
40.922243
11
92.004400
21
41.867300
0
LINE
8
Image
10
92.004400
20
41.867300
11
92.004400
21
41.867300
0
LINE
8
Image
10
25.659200
20
44.661700
11
28.406390
21
55.130600
0
LINE
8
Image
10
28.406390
20
55.130600
11
28.435092
21
55.412028
0
LINE
8
Image
10
28.435092
20
55.412028
11
28.204051
21
55.544073
0
LINE
8
Image
10
28.204051
20
55.544073
11
26.344680
21
55.458232
0
LINE
8
Image
10
26.344680
20
55.458232
11
21.262164
21
54.871015
0
LINE
8
Image
10
21.262164
20
54.871015
11
16.978630
21
54.172432
0
LINE
8
Image
10
16.978630
20
54.172432
11
15.471710
21
53.846903
0
LINE
8
Image
10
15.471710
20
53.846903
11
18.283750
21
50.982933
0
LINE
8
Image
10
18.283750
20
50.982933
11
20.158259
21
48.948514
0
LINE
8
Image
10
20.158259
20
48.948514
11
21.788484
21
46.920668
0
LINE
8
Image
10
21.788484
20
46.920668
11
23.135725
21
44.951352
0
LINE
8
Image
10
23.135725
20
44.951352
11
24.161280
21
43.092523
0
LINE
8
Image
10
24.161280
20
43.092523
11
24.833361
21
42.051183
0
LINE
8
Image
10
24.833361
20
42.051183
11
25.659203
21
44.661733
0
LINE
8
Image
10
25.659203
20
44.661733
11
25.659200
21
44.661700
0
LINE
8
Image
10
41.248500
20
53.167100
11
42.051106
21
55.495430
0
LINE
8
Image
10
42.051106
20
55.495430
11
41.955459
21
55.847539
0
LINE
8
Image
10
41.955459
20
55.847539
11
41.703202
21
55.823385
0
LINE
8
Image
10
41.703202
20
55.823385
11
40.936946
21
54.779919
0
LINE
8
Image
10
40.936946
20
54.779919
11
39.878792
21
51.851925
0
LINE
8
Image
10
39.878792
20
51.851925
11
39.241366
21
49.253399
0
LINE
8
Image
10
39.241366
20
49.253399
11
39.294067
21
49.210262
0
LINE
8
Image
10
39.294067
20
49.210262
11
39.429991
21
49.371083
0
LINE
8
Image
10
39.429991
20
49.371083
11
39.898313
21
50.200883
0
LINE
8
Image
10
39.898313
20
50.200883
11
41.248506
21
53.167099
0
LINE
8
Image
10
41.248506
20
53.167099
11
41.248500
21
53.167100
 0 
ENDSEC
 0 
EOF