999
"DXF R12 Output" (www.mydxf.blogspot.com)
 0 
SECTION
 2 
HEADER
 9 
$ACADVER
 1 
AC1009
 9 
$EXTMIN
 10 
 0 
 20 
 0 
 9 
$EXTMAX
 10 
 8.5 
 20 
 11 
 0 
ENDSEC
 0 
SECTION
 2 
ENTITIES
0
LINE
8
Image
10
16.710800
20
5.105110
11
14.541820
21
7.292330
0
LINE
8
Image
10
14.541820
20
7.292330
11
15.071350
21
8.888300
0
LINE
8
Image
10
15.071350
20
8.888300
11
16.898570
21
16.084960
0
LINE
8
Image
10
16.898570
20
16.084960
11
19.022550
21
24.366760
0
LINE
8
Image
10
19.022550
20
24.366760
11
21.278120
21
32.323510
0
LINE
8
Image
10
21.278120
20
32.323510
11
22.707400
21
37.599200
0
LINE
8
Image
10
22.707400
20
37.599200
11
22.118300
21
39.096800
0
LINE
8
Image
10
22.118300
20
39.096800
11
19.602863
21
44.112737
0
LINE
8
Image
10
19.602863
20
44.112737
11
16.594900
21
49.327200
0
LINE
8
Image
10
16.594900
20
49.327200
11
15.928697
21
50.179496
0
LINE
8
Image
10
15.928697
20
50.179496
11
15.133180
21
50.953259
0
LINE
8
Image
10
15.133180
20
50.953259
11
13.276238
21
52.202200
0
LINE
8
Image
10
13.276238
20
52.202200
11
11.268152
21
52.948041
0
LINE
8
Image
10
11.268152
20
52.948041
11
10.283704
21
53.092929
0
LINE
8
Image
10
10.283704
20
53.092929
11
9.353000
21
53.064800
0
LINE
8
Image
10
9.353000
20
53.064800
11
8.653280
21
53.018898
0
LINE
8
Image
10
8.653280
20
53.018898
11
8.042768
21
53.233837
0
LINE
8
Image
10
8.042768
20
53.233837
11
5.856280
21
55.198600
0
LINE
8
Image
10
5.856280
20
55.198600
11
4.200561
21
56.967859
0
LINE
8
Image
10
4.200561
20
56.967859
11
3.511900
21
58.008260
0
LINE
8
Image
10
3.511900
20
58.008260
11
3.715490
21
58.458006
0
LINE
8
Image
10
3.715490
20
58.458006
11
4.224156
21
58.800428
0
LINE
8
Image
10
4.224156
20
58.800428
11
8.227855
21
59.047628
0
LINE
8
Image
10
8.227855
20
59.047628
11
16.853556
21
59.261688
0
LINE
8
Image
10
16.853556
20
59.261688
11
28.770756
21
59.452148
0
LINE
8
Image
10
28.770756
20
59.452148
11
29.617422
21
60.888898
0
LINE
8
Image
10
29.617422
20
60.888898
11
30.388205
21
61.952158
0
LINE
8
Image
10
30.388205
20
61.952158
11
31.035472
21
62.407498
0
LINE
8
Image
10
31.035472
20
62.407498
11
31.655387
21
62.242298
0
LINE
8
Image
10
31.655387
20
62.242298
11
32.332960
21
61.707075
0
LINE
8
Image
10
32.332960
20
61.707075
11
32.900862
21
60.972435
0
LINE
8
Image
10
32.900862
20
60.972435
11
33.191762
21
60.208988
0
LINE
8
Image
10
33.191762
20
60.208988
11
33.288039
21
59.811701
0
LINE
8
Image
10
33.288039
20
59.811701
11
33.561767
21
59.601060
0
LINE
8
Image
10
33.561767
20
59.601060
11
35.371582
21
59.503433
0
LINE
8
Image
10
35.371582
20
59.503433
11
37.456900
21
59.503400
0
LINE
8
Image
10
37.456900
20
59.503400
11
38.555830
21
61.337840
0
LINE
8
Image
10
38.555830
20
61.337840
11
39.636339
21
62.933462
0
LINE
8
Image
10
39.636339
20
62.933462
11
40.733500
21
64.182960
0
LINE
8
Image
10
40.733500
20
64.182960
11
41.756261
21
64.997676
0
LINE
8
Image
10
41.756261
20
64.997676
11
42.613570
21
65.288950
0
LINE
8
Image
10
42.613570
20
65.288950
11
43.558864
21
64.921664
0
LINE
8
Image
10
43.558864
20
64.921664
11
44.944720
21
63.761150
0
LINE
8
Image
10
44.944720
20
63.761150
11
45.835612
21
62.875384
0
LINE
8
Image
10
45.835612
20
62.875384
11
46.303685
21
62.260124
0
LINE
8
Image
10
46.303685
20
62.260124
11
46.475193
21
61.679249
0
LINE
8
Image
10
46.475193
20
61.679249
11
46.476390
21
60.896640
0
LINE
8
Image
10
46.476390
20
60.896640
11
46.418213
21
59.559930
0
LINE
8
Image
10
46.418213
20
59.559930
11
49.095913
21
59.735821
0
LINE
8
Image
10
49.095913
20
59.735821
11
53.119168
21
60.287568
0
LINE
8
Image
10
53.119168
20
60.287568
11
54.801024
21
60.726733
0
LINE
8
Image
10
54.801024
20
60.726733
11
56.080243
21
61.235511
0
LINE
8
Image
10
56.080243
20
61.235511
11
56.577373
21
61.442800
0
LINE
8
Image
10
56.577373
20
61.442800
11
57.041393
21
61.347187
0
LINE
8
Image
10
57.041393
20
61.347187
11
58.914983
21
59.670331
0
LINE
8
Image
10
58.914983
20
59.670331
11
60.517105
21
57.959593
0
LINE
8
Image
10
60.517105
20
57.959593
11
60.718107
21
57.520152
0
LINE
8
Image
10
60.718107
20
57.520152
11
60.634963
21
57.190931
0
LINE
8
Image
10
60.634963
20
57.190931
11
60.031048
21
56.702762
0
LINE
8
Image
10
60.031048
20
56.702762
11
58.657604
21
56.394477
0
LINE
8
Image
10
58.657604
20
56.394477
11
56.059502
21
56.209557
0
LINE
8
Image
10
56.059502
20
56.209557
11
51.781613
21
56.091481
0
LINE
8
Image
10
51.781613
20
56.091481
11
45.159103
21
55.961416
0
LINE
8
Image
10
45.159103
20
55.961416
11
43.569453
21
52.502986
0
LINE
8
Image
10
43.569453
20
52.502986
11
42.251618
21
49.744958
0
LINE
8
Image
10
42.251618
20
49.744958
11
41.149840
21
47.785200
0
LINE
8
Image
10
41.149840
20
47.785200
11
39.991126
21
46.194994
0
LINE
8
Image
10
39.991126
20
46.194994
11
38.502483
21
44.545626
0
LINE
8
Image
10
38.502483
20
44.545626
11
37.013253
21
42.802605
0
LINE
8
Image
10
37.013253
20
42.802605
11
36.428943
21
41.582296
0
LINE
8
Image
10
36.428943
20
41.582296
11
36.247189
21
40.594519
0
LINE
8
Image
10
36.247189
20
40.594519
11
37.588999
21
42.056109
0
LINE
8
Image
10
37.588999
20
42.056109
11
39.225149
21
43.593140
0
LINE
8
Image
10
39.225149
20
43.593140
11
39.920467
21
43.996787
0
LINE
8
Image
10
39.920467
20
43.996787
11
40.575078
21
44.159974
0
LINE
8
Image
10
40.575078
20
44.159974
11
41.219829
21
44.084791
0
LINE
8
Image
10
41.219829
20
44.084791
11
41.885569
21
43.773326
0
LINE
8
Image
10
41.885569
20
43.773326
11
43.403409
21
42.449910
0
LINE
8
Image
10
43.403409
20
42.449910
11
44.451719
21
41.235292
0
LINE
8
Image
10
44.451719
20
41.235292
11
44.940865
21
40.192610
0
LINE
8
Image
10
44.940865
20
40.192610
11
44.948963
21
38.965248
0
LINE
8
Image
10
44.948963
20
38.965248
11
44.554129
21
37.196590
0
LINE
8
Image
10
44.554129
20
37.196590
11
43.946355
21
33.434110
0
LINE
8
Image
10
43.946355
20
33.434110
11
43.783044
21
31.353700
0
LINE
8
Image
10
43.783044
20
31.353700
11
45.731374
21
31.483861
0
LINE
8
Image
10
45.731374
20
31.483861
11
47.537673
21
31.736838
0
LINE
8
Image
10
47.537673
20
31.736838
11
49.237393
21
32.253289
0
LINE
8
Image
10
49.237393
20
32.253289
11
50.858000
21
33.044025
0
LINE
8
Image
10
50.858000
20
33.044025
11
52.426964
21
34.119861
0
LINE
8
Image
10
52.426964
20
34.119861
11
54.069784
21
35.413111
0
LINE
8
Image
10
54.069784
20
35.413111
11
52.779734
21
36.792271
0
LINE
8
Image
10
52.779734
20
36.792271
11
51.868851
21
37.940441
0
LINE
8
Image
10
51.868851
20
37.940441
11
51.506817
21
38.949127
0
LINE
8
Image
10
51.506817
20
38.949127
11
51.678307
21
39.982550
0
LINE
8
Image
10
51.678307
20
39.982550
11
52.367998
21
41.204931
0
LINE
8
Image
10
52.367998
20
41.204931
11
53.361862
21
42.365364
0
LINE
8
Image
10
53.361862
20
42.365364
11
54.538795
21
43.289911
0
LINE
8
Image
10
54.538795
20
43.289911
11
55.777285
21
43.901303
0
LINE
8
Image
10
55.777285
20
43.901303
11
56.955818
21
44.122271
0
LINE
8
Image
10
56.955818
20
44.122271
11
57.614582
21
44.065174
0
LINE
8
Image
10
57.614582
20
44.065174
11
58.208740
21
43.809438
0
LINE
8
Image
10
58.208740
20
43.809438
11
60.005008
21
42.195371
0
LINE
8
Image
10
60.005008
20
42.195371
11
61.288893
21
40.792240
0
LINE
8
Image
10
61.288893
20
40.792240
11
61.870344
21
39.710424
0
LINE
8
Image
10
61.870344
20
39.710424
11
61.919934
21
39.200875
0
LINE
8
Image
10
61.919934
20
39.200875
11
61.820650
21
38.664694
0
LINE
8
Image
10
61.820650
20
38.664694
11
61.211098
21
37.369821
0
LINE
8
Image
10
61.211098
20
37.369821
11
60.497088
21
36.120701
0
LINE
8
Image
10
60.497088
20
36.120701
11
61.960368
21
34.639021
0
LINE
8
Image
10
61.960368
20
34.639021
11
63.181229
21
33.217030
0
LINE
8
Image
10
63.181229
20
33.217030
11
63.311235
21
32.709858
0
LINE
8
Image
10
63.311235
20
32.709858
11
63.252348
21
32.078141
0
LINE
8
Image
10
63.252348
20
32.078141
11
62.747488
21
30.578761
0
LINE
8
Image
10
62.747488
20
30.578761
11
61.774228
21
28.489331
0
LINE
8
Image
10
61.774228
20
28.489331
11
60.154997
21
25.050260
0
LINE
8
Image
10
60.154997
20
25.050260
11
59.875246
21
24.123809
0
LINE
8
Image
10
59.875246
20
24.123809
11
59.977948
21
23.802291
0
LINE
8
Image
10
59.977948
20
23.802291
11
60.653289
21
23.976810
0
LINE
8
Image
10
60.653289
20
23.976810
11
61.632126
21
24.468159
0
LINE
8
Image
10
61.632126
20
24.468159
11
64.238674
21
26.208116
0
LINE
8
Image
10
64.238674
20
26.208116
11
67.274359
21
28.635688
0
LINE
8
Image
10
67.274359
20
28.635688
11
70.215948
21
31.364401
0
LINE
8
Image
10
70.215948
20
31.364401
11
72.299873
21
33.622076
0
LINE
8
Image
10
72.299873
20
33.622076
11
72.494838
21
34.130441
0
LINE
8
Image
10
72.494838
20
34.130441
11
72.349618
21
34.561521
0
LINE
8
Image
10
72.349618
20
34.561521
11
72.085258
21
35.585695
0
LINE
8
Image
10
72.085258
20
35.585695
11
71.995825
21
37.062784
0
LINE
8
Image
10
71.995825
20
37.062784
11
72.081842
21
38.539146
0
LINE
8
Image
10
72.081842
20
38.539146
11
72.343832
21
39.561141
0
LINE
8
Image
10
72.343832
20
39.561141
11
73.820727
21
41.441525
0
LINE
8
Image
10
73.820727
20
41.441525
11
74.737025
21
42.313472
0
LINE
8
Image
10
74.737025
20
42.313472
11
75.513862
21
42.870551
0
LINE
8
Image
10
75.513862
20
42.870551
11
76.535214
21
43.156626
0
LINE
8
Image
10
76.535214
20
43.156626
11
77.890842
21
43.275613
0
LINE
8
Image
10
77.890842
20
43.275613
11
78.839583
21
43.244376
0
LINE
8
Image
10
78.839583
20
43.244376
11
79.529007
21
43.036086
0
LINE
8
Image
10
79.529007
20
43.036086
11
80.283239
21
42.478877
0
LINE
8
Image
10
80.283239
20
42.478877
11
81.426402
21
41.400883
0
LINE
8
Image
10
81.426402
20
41.400883
11
82.792035
21
40.108287
0
LINE
8
Image
10
82.792035
20
40.108287
11
83.253447
21
39.567849
0
LINE
8
Image
10
83.253447
20
39.567849
11
83.528072
21
39.022713
0
LINE
8
Image
10
83.528072
20
39.022713
11
83.500908
21
38.368089
0
LINE
8
Image
10
83.500908
20
38.368089
11
83.198170
21
37.476430
0
LINE
8
Image
10
83.198170
20
37.476430
11
82.167832
21
35.702563
0
LINE
8
Image
10
82.167832
20
35.702563
11
81.375339
21
34.999962
0
LINE
8
Image
10
81.375339
20
34.999962
11
80.460622
21
34.479583
0
LINE
8
Image
10
80.460622
20
34.479583
11
79.739060
21
34.041238
0
LINE
8
Image
10
79.739060
20
34.041238
11
79.528812
21
33.769044
0
LINE
8
Image
10
79.528812
20
33.769044
11
80.229420
21
33.953231
0
LINE
8
Image
10
80.229420
20
33.953231
11
81.578579
21
34.692253
0
LINE
8
Image
10
81.578579
20
34.692253
11
83.047917
21
35.665178
0
LINE
8
Image
10
83.047917
20
35.665178
11
84.109062
21
36.551074
0
LINE
8
Image
10
84.109062
20
36.551074
11
84.582516
21
37.136453
0
LINE
8
Image
10
84.582516
20
37.136453
11
84.889589
21
37.792372
0
LINE
8
Image
10
84.889589
20
37.792372
11
85.309932
21
40.258504
0
LINE
8
Image
10
85.309932
20
40.258504
11
85.601409
21
42.200796
0
LINE
8
Image
10
85.601409
20
42.200796
11
85.980333
21
43.554935
0
LINE
8
Image
10
85.980333
20
43.554935
11
86.532417
21
44.535899
0
LINE
8
Image
10
86.532417
20
44.535899
11
87.343372
21
45.358664
0
LINE
8
Image
10
87.343372
20
45.358664
11
88.331899
21
45.946730
0
LINE
8
Image
10
88.331899
20
45.946730
11
89.638722
21
46.097837
0
LINE
8
Image
10
89.638722
20
46.097837
11
90.477237
21
46.058440
0
LINE
8
Image
10
90.477237
20
46.058440
11
91.133034
21
45.834027
0
LINE
8
Image
10
91.133034
20
45.834027
11
91.889880
21
45.265270
0
LINE
8
Image
10
91.889880
20
45.265270
11
93.031542
21
44.192837
0
LINE
8
Image
10
93.031542
20
44.192837
11
94.167606
21
43.074285
0
LINE
8
Image
10
94.167606
20
43.074285
11
94.740969
21
42.364047
0
LINE
8
Image
10
94.740969
20
42.364047
11
94.922593
21
41.765830
0
LINE
8
Image
10
94.922593
20
41.765830
11
94.883442
21
40.983337
0
LINE
8
Image
10
94.883442
20
40.983337
11
94.616066
21
39.762745
0
LINE
8
Image
10
94.616066
20
39.762745
11
93.969351
21
38.662842
0
LINE
8
Image
10
93.969351
20
38.662842
11
92.793312
21
37.497210
0
LINE
8
Image
10
92.793312
20
37.497210
11
90.937962
21
36.079427
0
LINE
8
Image
10
90.937962
20
36.079427
11
89.201492
21
34.774727
0
LINE
8
Image
10
89.201492
20
34.774727
11
88.628512
21
34.214597
0
LINE
8
Image
10
88.628512
20
34.214597
11
89.873117
21
34.237983
0
LINE
8
Image
10
89.873117
20
34.237983
11
91.201275
21
34.670251
0
LINE
8
Image
10
91.201275
20
34.670251
11
92.820819
21
35.607997
0
LINE
8
Image
10
92.820819
20
35.607997
11
94.939582
21
37.147817
0
LINE
8
Image
10
94.939582
20
37.147817
11
97.038865
21
38.967385
0
LINE
8
Image
10
97.038865
20
38.967385
11
98.326242
21
40.746617
0
LINE
8
Image
10
98.326242
20
40.746617
11
99.222026
21
42.193026
0
LINE
8
Image
10
99.222026
20
42.193026
11
99.904619
21
42.839438
0
LINE
8
Image
10
99.904619
20
42.839438
11
100.220180
21
42.885838
0
LINE
8
Image
10
100.220180
20
42.885838
11
100.547500
21
42.760070
0
LINE
8
Image
10
100.547500
20
42.760070
11
101.324152
21
42.029137
0
LINE
8
Image
10
101.324152
20
42.029137
11
101.905546
21
41.201799
0
LINE
8
Image
10
101.905546
20
41.201799
11
102.217588
21
40.348913
0
LINE
8
Image
10
102.217588
20
40.348913
11
102.255989
21
39.459599
0
LINE
8
Image
10
102.255989
20
39.459599
11
102.016461
21
38.522978
0
LINE
8
Image
10
102.016461
20
38.522978
11
101.494716
21
37.528171
0
LINE
8
Image
10
101.494716
20
37.528171
11
100.686467
21
36.464298
0
LINE
8
Image
10
100.686467
20
36.464298
11
98.193302
21
34.085837
0
LINE
8
Image
10
98.193302
20
34.085837
11
96.058557
21
32.416851
0
LINE
8
Image
10
96.058557
20
32.416851
11
94.328774
21
31.334711
0
LINE
8
Image
10
94.328774
20
31.334711
11
92.831919
21
30.750576
0
LINE
8
Image
10
92.831919
20
30.750576
11
91.395962
21
30.575607
0
LINE
8
Image
10
91.395962
20
30.575607
11
90.563946
21
30.610191
0
LINE
8
Image
10
90.563946
20
30.610191
11
89.945221
21
30.769782
0
LINE
8
Image
10
89.945221
20
30.769782
11
88.575172
21
31.799007
0
LINE
8
Image
10
88.575172
20
31.799007
11
87.223882
21
33.022407
0
LINE
8
Image
10
87.223882
20
33.022407
11
85.687352
21
31.946067
0
LINE
8
Image
10
85.687352
20
31.946067
11
84.230520
21
31.048480
0
LINE
8
Image
10
84.230520
20
31.048480
11
82.712052
21
30.354075
0
LINE
8
Image
10
82.712052
20
30.354075
11
81.129572
21
29.861940
0
LINE
8
Image
10
81.129572
20
29.861940
11
79.480702
21
29.571167
0
LINE
8
Image
10
79.480702
20
29.571167
11
77.877002
21
29.521202
0
LINE
8
Image
10
77.877002
20
29.521202
11
76.657722
21
29.951916
0
LINE
8
Image
10
76.657722
20
29.951916
11
75.554052
21
30.527183
0
LINE
8
Image
10
75.554052
20
30.527183
11
73.893512
21
28.825133
0
LINE
8
Image
10
73.893512
20
28.825133
11
71.460797
21
26.504834
0
LINE
8
Image
10
71.460797
20
26.504834
11
68.655764
21
24.074451
0
LINE
8
Image
10
68.655764
20
24.074451
11
66.057492
21
22.015148
0
LINE
8
Image
10
66.057492
20
22.015148
11
64.245062
21
20.808093
0
LINE
8
Image
10
64.245062
20
20.808093
11
62.713459
21
20.215898
0
LINE
8
Image
10
62.713459
20
20.215898
11
61.181292
21
19.906267
0
LINE
8
Image
10
61.181292
20
19.906267
11
59.648772
21
19.779180
0
LINE
8
Image
10
59.648772
20
19.779180
11
57.685882
21
21.742070
0
LINE
8
Image
10
57.685882
20
21.742070
11
56.187556
21
23.406776
0
LINE
8
Image
10
56.187556
20
23.406776
11
55.835863
21
23.976982
0
LINE
8
Image
10
55.835863
20
23.976982
11
55.722992
21
24.407950
0
LINE
8
Image
10
55.722992
20
24.407950
11
55.875570
21
25.516151
0
LINE
8
Image
10
55.875570
20
25.516151
11
56.308825
21
26.994730
0
LINE
8
Image
10
56.308825
20
26.994730
11
57.870502
21
30.637030
0
LINE
8
Image
10
57.870502
20
30.637030
11
58.842947
21
32.734398
0
LINE
8
Image
10
58.842947
20
32.734398
11
59.030933
21
33.668560
0
LINE
8
Image
10
59.030933
20
33.668560
11
58.821104
21
33.716096
0
LINE
8
Image
10
58.821104
20
33.716096
11
58.403580
21
33.492820
0
LINE
8
Image
10
58.403580
20
33.492820
11
56.930008
21
32.260480
0
LINE
8
Image
10
56.930008
20
32.260480
11
54.740697
21
30.453542
0
LINE
8
Image
10
54.740697
20
30.453542
11
52.646976
21
29.147376
0
LINE
8
Image
10
52.646976
20
29.147376
11
50.552830
21
28.292435
0
LINE
8
Image
10
50.552830
20
28.292435
11
48.362248
21
27.839170
0
LINE
8
Image
10
48.362248
20
27.839170
11
46.964061
21
27.848436
0
LINE
8
Image
10
46.964061
20
27.848436
11
45.548256
21
28.290748
0
LINE
8
Image
10
45.548256
20
28.290748
11
43.998047
21
29.280393
0
LINE
8
Image
10
43.998047
20
29.280393
11
42.196648
21
30.931660
0
LINE
8
Image
10
42.196648
20
30.931660
11
41.025898
21
32.219331
0
LINE
8
Image
10
41.025898
20
32.219331
11
40.435251
21
33.100715
0
LINE
8
Image
10
40.435251
20
33.100715
11
40.226335
21
33.810552
0
LINE
8
Image
10
40.226335
20
33.810552
11
40.200778
21
34.583580
0
LINE
8
Image
10
40.200778
20
34.583580
11
40.502411
21
37.465840
0
LINE
8
Image
10
40.502411
20
37.465840
11
40.667246
21
39.234320
0
LINE
8
Image
10
40.667246
20
39.234320
11
40.141791
21
38.723039
0
LINE
8
Image
10
40.141791
20
38.723039
11
39.070566
21
37.301690
0
LINE
8
Image
10
39.070566
20
37.301690
11
37.619695
21
34.978043
0
LINE
8
Image
10
37.619695
20
34.978043
11
36.150016
21
32.192854
0
LINE
8
Image
10
36.150016
20
32.192854
11
34.900740
21
29.433883
0
LINE
8
Image
10
34.900740
20
29.433883
11
34.111076
21
27.188890
0
LINE
8
Image
10
34.111076
20
27.188890
11
33.644561
21
25.625828
0
LINE
8
Image
10
33.644561
20
25.625828
11
33.193307
21
24.982299
0
LINE
8
Image
10
33.193307
20
24.982299
11
32.912475
21
24.980120
0
LINE
8
Image
10
32.912475
20
24.980120
11
32.562345
21
25.177538
0
LINE
8
Image
10
32.562345
20
25.177538
11
31.556706
21
26.130780
0
LINE
8
Image
10
31.556706
20
26.130780
11
30.129006
21
27.612230
0
LINE
8
Image
10
30.129006
20
27.612230
11
30.890774
21
31.563340
0
LINE
8
Image
10
30.890774
20
31.563340
11
33.476859
21
44.389131
0
LINE
8
Image
10
33.476859
20
44.389131
11
35.388964
21
52.871140
0
LINE
8
Image
10
35.388964
20
52.871140
11
36.247876
21
56.187250
0
LINE
8
Image
10
36.247876
20
56.187250
11
35.873596
21
56.273820
0
LINE
8
Image
10
35.873596
20
56.273820
11
35.012484
21
56.249732
0
LINE
8
Image
10
35.012484
20
56.249732
11
33.446616
21
55.985835
0
LINE
8
Image
10
33.446616
20
55.985835
11
33.025392
21
55.457790
0
LINE
8
Image
10
33.025392
20
55.457790
11
32.748687
21
54.504165
0
LINE
8
Image
10
32.748687
20
54.504165
11
31.768144
21
50.171484
0
LINE
8
Image
10
31.768144
20
50.171484
11
30.182817
21
44.545585
0
LINE
8
Image
10
30.182817
20
44.545585
11
28.339787
21
38.100475
0
LINE
8
Image
10
28.339787
20
38.100475
11
27.659973
21
35.110814
0
LINE
8
Image
10
27.659973
20
35.110814
11
27.624902
21
34.245805
0
LINE
8
Image
10
27.624902
20
34.245805
11
27.747679
21
33.443815
0
LINE
8
Image
10
27.747679
20
33.443815
11
28.236349
21
30.348159
0
LINE
8
Image
10
28.236349
20
30.348159
11
28.065453
21
27.317025
0
LINE
8
Image
10
28.065453
20
27.317025
11
27.395012
21
23.438869
0
LINE
8
Image
10
27.395012
20
23.438869
11
26.258758
21
19.257859
0
LINE
8
Image
10
26.258758
20
19.257859
11
24.544037
21
14.417506
0
LINE
8
Image
10
24.544037
20
14.417506
11
22.138193
21
8.561325
0
LINE
8
Image
10
22.138193
20
8.561325
11
20.100648
21
4.161001
0
LINE
8
Image
10
20.100648
20
4.161001
11
19.487946
21
3.207637
0
LINE
8
Image
10
19.487946
20
3.207637
11
19.054333
21
2.917795
0
LINE
8
Image
10
19.054333
20
2.917795
11
16.710803
21
5.105015
0
LINE
8
Image
10
16.710803
20
5.105015
11
16.710800
21
5.105110
0
LINE
8
Image
10
78.694700
20
38.684400
11
78.830863
21
39.113870
0
LINE
8
Image
10
78.830863
20
39.113870
11
78.685309
21
39.398813
0
LINE
8
Image
10
78.685309
20
39.398813
11
78.379906
21
39.542341
0
LINE
8
Image
10
78.379906
20
39.542341
11
78.036527
21
39.547565
0
LINE
8
Image
10
78.036527
20
39.547565
11
77.307162
21
39.308859
0
LINE
8
Image
10
77.307162
20
39.308859
11
76.668153
21
38.725866
0
LINE
8
Image
10
76.668153
20
38.725866
11
76.122957
21
37.726070
0
LINE
8
Image
10
76.122957
20
37.726070
11
75.675027
21
36.236955
0
LINE
8
Image
10
75.675027
20
36.236955
11
76.930087
21
37.000653
0
LINE
8
Image
10
76.930087
20
37.000653
11
77.929979
21
37.790602
0
LINE
8
Image
10
77.929979
20
37.790602
11
78.694697
21
38.684393
0
LINE
8
Image
10
78.694697
20
38.684393
11
78.694700
21
38.684400
0
LINE
8
Image
10
56.992300
20
38.611242
11
57.626883
21
39.422232
0
LINE
8
Image
10
57.626883
20
39.422232
11
57.741168
21
39.833332
0
LINE
8
Image
10
57.741168
20
39.833332
11
56.727030
21
39.863838
0
LINE
8
Image
10
56.727030
20
39.863838
11
56.134186
21
39.552810
0
LINE
8
Image
10
56.134186
20
39.552810
11
55.846955
21
38.981989
0
LINE
8
Image
10
55.846955
20
38.981989
11
55.749658
21
38.233112
0
LINE
8
Image
10
55.749658
20
38.233112
11
55.801135
21
37.905072
0
LINE
8
Image
10
55.801135
20
37.905072
11
56.013758
21
37.851316
0
LINE
8
Image
10
56.013758
20
37.851316
11
56.992298
21
38.611250
0
LINE
8
Image
10
56.992298
20
38.611250
11
56.992300
21
38.611242
0
LINE
8
Image
10
91.000700
20
42.245142
11
90.730446
21
42.418327
0
LINE
8
Image
10
90.730446
20
42.418327
11
90.240169
21
42.442299
0
LINE
8
Image
10
90.240169
20
42.442299
11
89.663287
21
42.312462
0
LINE
8
Image
10
89.663287
20
42.312462
11
89.133220
21
42.024219
0
LINE
8
Image
10
89.133220
20
42.024219
11
88.681148
21
41.405628
0
LINE
8
Image
10
88.681148
20
41.405628
11
88.408706
21
40.609568
0
LINE
8
Image
10
88.408706
20
40.609568
11
88.239666
21
39.521949
0
LINE
8
Image
10
88.239666
20
39.521949
11
89.171524
21
40.155541
0
LINE
8
Image
10
89.171524
20
40.155541
11
90.394426
21
41.178969
0
LINE
8
Image
10
90.394426
20
41.178969
11
90.878099
21
41.774290
0
LINE
8
Image
10
90.878099
20
41.774290
11
91.000704
21
42.245149
0
LINE
8
Image
10
91.000704
20
42.245149
11
91.000700
21
42.245142
0
LINE
8
Image
10
24.655500
20
45.039500
11
27.402690
21
55.508400
0
LINE
8
Image
10
27.402690
20
55.508400
11
27.431392
21
55.789828
0
LINE
8
Image
10
27.431392
20
55.789828
11
27.200351
21
55.921873
0
LINE
8
Image
10
27.200351
20
55.921873
11
25.340980
21
55.836032
0
LINE
8
Image
10
25.340980
20
55.836032
11
20.258464
21
55.248815
0
LINE
8
Image
10
20.258464
20
55.248815
11
15.974930
21
54.550232
0
LINE
8
Image
10
15.974930
20
54.550232
11
14.468010
21
54.224703
0
LINE
8
Image
10
14.468010
20
54.224703
11
17.280050
21
51.360733
0
LINE
8
Image
10
17.280050
20
51.360733
11
19.154559
21
49.326314
0
LINE
8
Image
10
19.154559
20
49.326314
11
20.784784
21
47.298468
0
LINE
8
Image
10
20.784784
20
47.298468
11
22.132025
21
45.329152
0
LINE
8
Image
10
22.132025
20
45.329152
11
23.157580
21
43.470323
0
LINE
8
Image
10
23.157580
20
43.470323
11
23.829661
21
42.428983
0
LINE
8
Image
10
23.829661
20
42.428983
11
24.655503
21
45.039533
0
LINE
8
Image
10
24.655503
20
45.039533
11
24.655500
21
45.039500
0
LINE
8
Image
10
40.244800
20
53.545000
11
41.047406
21
55.873330
0
LINE
8
Image
10
41.047406
20
55.873330
11
40.863503
21
56.233764
0
LINE
8
Image
10
40.863503
20
56.233764
11
40.417080
21
56.227924
0
LINE
8
Image
10
40.417080
20
56.227924
11
39.866067
21
55.879228
0
LINE
8
Image
10
39.866067
20
55.879228
11
39.368396
21
55.211097
0
LINE
8
Image
10
39.368396
20
55.211097
11
38.848904
21
53.746019
0
LINE
8
Image
10
38.848904
20
53.746019
11
38.229236
21
51.498913
0
LINE
8
Image
10
38.229236
20
51.498913
11
37.510806
21
48.116197
0
LINE
8
Image
10
37.510806
20
48.116197
11
37.594739
21
48.138162
0
LINE
8
Image
10
37.594739
20
48.138162
11
37.813001
21
48.470615
0
LINE
8
Image
10
37.813001
20
48.470615
11
38.531178
21
49.821230
0
LINE
8
Image
10
38.531178
20
49.821230
11
40.244796
21
53.544997
0
LINE
8
Image
10
40.244796
20
53.544997
11
40.244800
21
53.545000
 0 
ENDSEC
 0 
EOF