999
"DXF R12 Output" (www.mydxf.blogspot.com)
 0 
SECTION
 2 
HEADER
 9 
$ACADVER
 1 
AC1009
 9 
$EXTMIN
 10 
 0 
 20 
 0 
 9 
$EXTMAX
 10 
 8.5 
 20 
 11 
 0 
ENDSEC
 0 
SECTION
 2 
ENTITIES
0
LINE
8
Image
10
16.549800
20
11.449500
11
15.770401
21
11.826063
0
LINE
8
Image
10
15.770401
20
11.826063
11
14.797561
21
12.487663
0
LINE
8
Image
10
14.797561
20
12.487663
11
12.571161
21
14.383300
0
LINE
8
Image
10
12.571161
20
14.383300
11
10.469804
21
16.571063
0
LINE
8
Image
10
10.469804
20
16.571063
11
9.092690
21
18.485600
0
LINE
8
Image
10
9.092690
20
18.485600
11
8.633228
21
19.597846
0
LINE
8
Image
10
8.633228
20
19.597846
11
8.370954
21
20.742962
0
LINE
8
Image
10
8.370954
20
20.742962
11
8.302641
21
21.903775
0
LINE
8
Image
10
8.302641
20
21.903775
11
8.425060
21
23.063113
0
LINE
8
Image
10
8.425060
20
23.063113
11
8.734984
21
24.203802
0
LINE
8
Image
10
8.734984
20
24.203802
11
9.229184
21
25.308672
0
LINE
8
Image
10
9.229184
20
25.308672
11
9.904432
21
26.360548
0
LINE
8
Image
10
9.904432
20
26.360548
11
10.757500
21
27.342260
0
LINE
8
Image
10
10.757500
20
27.342260
11
12.558682
21
28.817798
0
LINE
8
Image
10
12.558682
20
28.817798
11
14.775911
21
29.949419
0
LINE
8
Image
10
14.775911
20
29.949419
11
17.678935
21
30.843858
0
LINE
8
Image
10
17.678935
20
30.843858
11
21.537500
21
31.607850
0
LINE
8
Image
10
21.537500
20
31.607850
11
27.473720
21
32.778750
0
LINE
8
Image
10
27.473720
20
32.778750
11
29.970760
21
33.379056
0
LINE
8
Image
10
29.970760
20
33.379056
11
29.802355
21
34.257876
0
LINE
8
Image
10
29.802355
20
34.257876
11
29.639314
21
34.832271
0
LINE
8
Image
10
29.639314
20
34.832271
11
29.331737
21
35.335644
0
LINE
8
Image
10
29.331737
20
35.335644
11
28.793257
21
35.810062
0
LINE
8
Image
10
28.793257
20
35.810062
11
27.937507
21
36.297596
0
LINE
8
Image
10
27.937507
20
36.297596
11
24.928725
21
37.480281
0
LINE
8
Image
10
24.928725
20
37.480281
11
19.614455
21
39.220246
0
LINE
8
Image
10
19.614455
20
39.220246
11
16.243635
21
40.421414
0
LINE
8
Image
10
16.243635
20
40.421414
11
13.291375
21
41.670186
0
LINE
8
Image
10
13.291375
20
41.670186
11
11.827661
21
42.429260
0
LINE
8
Image
10
11.827661
20
42.429260
11
10.608267
21
43.218573
0
LINE
8
Image
10
10.608267
20
43.218573
11
7.826260
21
45.677000
0
LINE
8
Image
10
7.826260
20
45.677000
11
5.684051
21
47.885280
0
LINE
8
Image
10
5.684051
20
47.885280
11
4.320773
21
49.660088
0
LINE
8
Image
10
4.320773
20
49.660088
11
3.601058
21
51.217977
0
LINE
8
Image
10
3.601058
20
51.217977
11
3.389540
21
52.775500
0
LINE
8
Image
10
3.389540
20
52.775500
11
3.504063
21
53.987748
0
LINE
8
Image
10
3.504063
20
53.987748
11
3.841141
21
55.213580
0
LINE
8
Image
10
3.841141
20
55.213580
11
4.385411
21
56.431337
0
LINE
8
Image
10
4.385411
20
56.431337
11
5.121512
21
57.619362
0
LINE
8
Image
10
5.121512
20
57.619362
11
6.034082
21
58.755999
0
LINE
8
Image
10
6.034082
20
58.755999
11
7.107758
21
59.819589
0
LINE
8
Image
10
7.107758
20
59.819589
11
8.327178
21
60.788475
0
LINE
8
Image
10
8.327178
20
60.788475
11
9.676980
21
61.641000
0
LINE
8
Image
10
9.676980
20
61.641000
11
12.028807
21
62.773862
0
LINE
8
Image
10
12.028807
20
62.773862
11
14.610520
21
63.703883
0
LINE
8
Image
10
14.610520
20
63.703883
11
17.319510
21
64.417315
0
LINE
8
Image
10
17.319510
20
64.417315
11
20.053173
21
64.900412
0
LINE
8
Image
10
20.053173
20
64.900412
11
22.708899
21
65.139427
0
LINE
8
Image
10
22.708899
20
65.139427
11
25.184084
21
65.120611
0
LINE
8
Image
10
25.184084
20
65.120611
11
27.376120
21
64.830218
0
LINE
8
Image
10
27.376120
20
64.830218
11
29.182400
21
64.254500
0
LINE
8
Image
10
29.182400
20
64.254500
11
30.980514
21
63.067396
0
LINE
8
Image
10
30.980514
20
63.067396
11
33.256959
21
61.135095
0
LINE
8
Image
10
33.256959
20
61.135095
11
35.352126
21
59.061954
0
LINE
8
Image
10
35.352126
20
59.061954
11
36.606410
21
57.452330
0
LINE
8
Image
10
36.606410
20
57.452330
11
36.933929
21
56.143665
0
LINE
8
Image
10
36.933929
20
56.143665
11
36.924711
21
54.371129
0
LINE
8
Image
10
36.924711
20
54.371129
11
36.607514
21
52.459323
0
LINE
8
Image
10
36.607514
20
52.459323
11
36.011097
21
50.732850
0
LINE
8
Image
10
36.011097
20
50.732850
11
34.680753
21
48.722423
0
LINE
8
Image
10
34.680753
20
48.722423
11
32.744630
21
46.747812
0
LINE
8
Image
10
32.744630
20
46.747812
11
30.519370
21
45.085738
0
LINE
8
Image
10
30.519370
20
45.085738
11
28.321617
21
44.012920
0
LINE
8
Image
10
28.321617
20
44.012920
11
27.378420
21
43.846508
0
LINE
8
Image
10
27.378420
20
43.846508
11
26.627087
21
44.349238
0
LINE
8
Image
10
26.627087
20
44.349238
11
26.139794
21
44.990573
0
LINE
8
Image
10
26.139794
20
44.990573
11
26.157616
21
45.931973
0
LINE
8
Image
10
26.157616
20
45.931973
11
26.803391
21
47.669296
0
LINE
8
Image
10
26.803391
20
47.669296
11
28.199957
21
50.698398
0
LINE
8
Image
10
28.199957
20
50.698398
11
29.663922
21
53.989859
0
LINE
8
Image
10
29.663922
20
53.989859
11
30.593070
21
56.513375
0
LINE
8
Image
10
30.593070
20
56.513375
11
30.966346
21
58.200828
0
LINE
8
Image
10
30.966346
20
58.200828
11
30.937954
21
58.709744
0
LINE
8
Image
10
30.937954
20
58.709744
11
30.762700
21
58.984100
0
LINE
8
Image
10
30.762700
20
58.984100
11
29.897995
21
59.275122
0
LINE
8
Image
10
29.897995
20
59.275122
11
28.448338
21
59.493750
0
LINE
8
Image
10
28.448338
20
59.493750
11
24.412200
21
59.649100
0
LINE
8
Image
10
24.412200
20
59.649100
11
21.195579
21
59.403115
0
LINE
8
Image
10
21.195579
20
59.403115
11
18.228328
21
58.785653
0
LINE
8
Image
10
18.228328
20
58.785653
11
15.565626
21
57.833114
0
LINE
8
Image
10
15.565626
20
57.833114
11
13.262652
21
56.581900
0
LINE
8
Image
10
13.262652
20
56.581900
11
11.374588
21
55.068411
0
LINE
8
Image
10
11.374588
20
55.068411
11
9.956611
21
53.329047
0
LINE
8
Image
10
9.956611
20
53.329047
11
9.063902
21
51.400210
0
LINE
8
Image
10
9.063902
20
51.400210
11
8.831766
21
50.376114
0
LINE
8
Image
10
8.831766
20
50.376114
11
8.751640
21
49.318300
0
LINE
8
Image
10
8.751640
20
49.318300
11
8.865163
21
47.939105
0
LINE
8
Image
10
8.865163
20
47.939105
11
9.271391
21
47.173020
0
LINE
8
Image
10
9.271391
20
47.173020
11
10.481076
21
46.363714
0
LINE
8
Image
10
10.481076
20
46.363714
11
12.675086
21
45.320428
0
LINE
8
Image
10
12.675086
20
45.320428
11
19.483591
21
42.761930
0
LINE
8
Image
10
19.483591
20
42.761930
11
23.616474
21
41.304517
0
LINE
8
Image
10
23.616474
20
41.304517
11
26.304125
21
40.124491
0
LINE
8
Image
10
26.304125
20
40.124491
11
28.264634
21
38.841312
0
LINE
8
Image
10
28.264634
20
38.841312
11
30.216091
21
37.074440
0
LINE
8
Image
10
30.216091
20
37.074440
11
32.016916
21
35.406892
0
LINE
8
Image
10
32.016916
20
35.406892
11
32.952121
21
34.713310
0
LINE
8
Image
10
32.952121
20
34.713310
11
35.352791
21
35.662061
0
LINE
8
Image
10
35.352791
20
35.662061
11
37.084281
21
36.595768
0
LINE
8
Image
10
37.084281
20
36.595768
11
37.525661
21
37.014616
0
LINE
8
Image
10
37.525661
20
37.014616
11
37.797091
21
37.485741
0
LINE
8
Image
10
37.797091
20
37.485741
11
38.532813
21
38.644016
0
LINE
8
Image
10
38.532813
20
38.644016
11
39.687659
21
39.781992
0
LINE
8
Image
10
39.687659
20
39.781992
11
41.069183
21
40.740592
0
LINE
8
Image
10
41.069183
20
40.740592
11
42.484941
21
41.360741
0
LINE
8
Image
10
42.484941
20
41.360741
11
44.150721
21
41.716843
0
LINE
8
Image
10
44.150721
20
41.716843
11
45.474568
21
41.631831
0
LINE
8
Image
10
45.474568
20
41.631831
11
46.686985
21
41.044612
0
LINE
8
Image
10
46.686985
20
41.044612
11
48.018471
21
39.894091
0
LINE
8
Image
10
48.018471
20
39.894091
11
49.121035
21
38.685922
0
LINE
8
Image
10
49.121035
20
38.685922
11
49.596704
21
37.783945
0
LINE
8
Image
10
49.596704
20
37.783945
11
49.478544
21
37.035521
0
LINE
8
Image
10
49.478544
20
37.035521
11
48.799619
21
36.288011
0
LINE
8
Image
10
48.799619
20
36.288011
11
46.996238
21
35.064959
0
LINE
8
Image
10
46.996238
20
35.064959
11
44.823215
21
34.020739
0
LINE
8
Image
10
44.823215
20
34.020739
11
42.620889
21
33.293152
0
LINE
8
Image
10
42.620889
20
33.293152
11
40.729600
21
33.020000
0
LINE
8
Image
10
40.729600
20
33.020000
11
40.308538
21
32.958831
0
LINE
8
Image
10
40.308538
20
32.958831
11
40.112200
21
32.761340
0
LINE
8
Image
10
40.112200
20
32.761340
11
40.133956
21
32.406548
0
LINE
8
Image
10
40.133956
20
32.406548
11
40.367173
21
31.873480
0
LINE
8
Image
10
40.367173
20
31.873480
11
40.786302
21
31.374935
0
LINE
8
Image
10
40.786302
20
31.374935
11
41.456035
21
30.922405
0
LINE
8
Image
10
41.456035
20
30.922405
11
43.342361
21
30.208754
0
LINE
8
Image
10
43.342361
20
30.208754
11
45.616238
21
29.839254
0
LINE
8
Image
10
45.616238
20
29.839254
11
47.867753
21
29.920630
0
LINE
8
Image
10
47.867753
20
29.920630
11
48.958493
21
30.177354
0
LINE
8
Image
10
48.958493
20
30.177354
11
49.996369
21
30.578648
0
LINE
8
Image
10
49.996369
20
30.578648
11
51.867318
21
31.776036
0
LINE
8
Image
10
51.867318
20
31.776036
11
53.388190
21
33.434973
0
LINE
8
Image
10
53.388190
20
33.434973
11
53.988468
21
34.413204
0
LINE
8
Image
10
53.988468
20
34.413204
11
54.466573
21
35.477640
0
LINE
8
Image
10
54.466573
20
35.477640
11
54.752615
21
36.400108
0
LINE
8
Image
10
54.752615
20
36.400108
11
54.925484
21
37.453855
0
LINE
8
Image
10
54.925484
20
37.453855
11
55.033300
21
40.932800
0
LINE
8
Image
10
55.033300
20
40.932800
11
55.108550
21
43.741850
0
LINE
8
Image
10
55.108550
20
43.741850
11
55.295400
21
44.873300
0
LINE
8
Image
10
55.295400
20
44.873300
11
56.873690
21
43.612170
0
LINE
8
Image
10
56.873690
20
43.612170
11
58.189920
21
42.351040
0
LINE
8
Image
10
58.189920
20
42.351040
11
57.952179
21
39.872720
0
LINE
8
Image
10
57.952179
20
39.872720
11
57.817002
21
36.608210
0
LINE
8
Image
10
57.817002
20
36.608210
11
57.939135
21
33.273365
0
LINE
8
Image
10
57.939135
20
33.273365
11
58.258270
21
30.678342
0
LINE
8
Image
10
58.258270
20
30.678342
11
58.472867
21
29.911439
0
LINE
8
Image
10
58.472867
20
29.911439
11
58.714100
21
29.633300
0
LINE
8
Image
10
58.714100
20
29.633300
11
59.110675
21
29.973974
0
LINE
8
Image
10
59.110675
20
29.973974
11
59.737000
21
30.810314
0
LINE
8
Image
10
59.737000
20
30.810314
11
60.917250
21
32.855910
0
LINE
8
Image
10
60.917250
20
32.855910
11
61.499427
21
34.574912
0
LINE
8
Image
10
61.499427
20
34.574912
11
61.958523
21
36.675011
0
LINE
8
Image
10
61.958523
20
36.675011
11
62.259935
21
38.956837
0
LINE
8
Image
10
62.259935
20
38.956837
11
62.369060
21
41.221020
0
LINE
8
Image
10
62.369060
20
41.221020
11
62.463852
21
43.642467
0
LINE
8
Image
10
62.463852
20
43.642467
11
62.777221
21
44.748790
0
LINE
8
Image
10
62.777221
20
44.748790
11
63.038357
21
45.022660
0
LINE
8
Image
10
63.038357
20
45.022660
11
63.345346
21
45.003970
0
LINE
8
Image
10
63.345346
20
45.003970
11
64.738621
21
43.768015
0
LINE
8
Image
10
64.738621
20
43.768015
11
66.293841
21
42.239415
0
LINE
8
Image
10
66.293841
20
42.239415
11
66.257968
21
39.816905
0
LINE
8
Image
10
66.257968
20
39.816905
11
66.299872
21
37.861810
0
LINE
8
Image
10
66.299872
20
37.861810
11
66.586858
21
36.745638
0
LINE
8
Image
10
66.586858
20
36.745638
11
66.863845
21
36.431393
0
LINE
8
Image
10
66.863845
20
36.431393
11
67.252007
21
36.241974
0
LINE
8
Image
10
67.252007
20
36.241974
11
68.428400
21
36.124400
0
LINE
8
Image
10
68.428400
20
36.124400
11
69.950300
21
36.124400
0
LINE
8
Image
10
69.950300
20
36.124400
11
69.798507
21
37.606070
0
LINE
8
Image
10
69.798507
20
37.606070
11
69.783060
21
38.991950
0
LINE
8
Image
10
69.783060
20
38.991950
11
69.959080
21
40.243320
0
LINE
8
Image
10
69.959080
20
40.243320
11
70.305971
21
41.206212
0
LINE
8
Image
10
70.305971
20
41.206212
11
70.804435
21
42.145302
0
LINE
8
Image
10
70.804435
20
42.145302
11
72.130821
21
43.826501
0
LINE
8
Image
10
72.130821
20
43.826501
11
73.687709
21
45.035765
0
LINE
8
Image
10
73.687709
20
45.035765
11
74.474301
21
45.384936
0
LINE
8
Image
10
74.474301
20
45.384936
11
75.224570
21
45.521940
0
LINE
8
Image
10
75.224570
20
45.521940
11
75.815092
21
45.468022
0
LINE
8
Image
10
75.815092
20
45.468022
11
76.405575
21
45.187617
0
LINE
8
Image
10
76.405575
20
45.187617
11
78.321660
21
43.457180
0
LINE
8
Image
10
78.321660
20
43.457180
11
79.869275
21
41.752205
0
LINE
8
Image
10
79.869275
20
41.752205
11
80.793293
21
40.284600
0
LINE
8
Image
10
80.793293
20
40.284600
11
81.151589
21
38.926847
0
LINE
8
Image
10
81.151589
20
38.926847
11
81.002040
21
37.551430
0
LINE
8
Image
10
81.002040
20
37.551430
11
80.307978
21
36.032304
0
LINE
8
Image
10
80.307978
20
36.032304
11
79.131080
21
34.739136
0
LINE
8
Image
10
79.131080
20
34.739136
11
77.522240
21
33.714276
0
LINE
8
Image
10
77.522240
20
33.714276
11
75.532350
21
33.000070
0
LINE
8
Image
10
75.532350
20
33.000070
11
74.328299
21
32.591180
0
LINE
8
Image
10
74.328299
20
32.591180
11
74.297436
21
32.325008
0
LINE
8
Image
10
74.297436
20
32.325008
11
74.516570
21
31.872520
0
LINE
8
Image
10
74.516570
20
31.872520
11
74.734088
21
31.596981
0
LINE
8
Image
10
74.734088
20
31.596981
11
75.085677
21
31.432278
0
LINE
8
Image
10
75.085677
20
31.432278
11
76.562680
21
31.338367
0
LINE
8
Image
10
76.562680
20
31.338367
11
78.807568
21
31.627947
0
LINE
8
Image
10
78.807568
20
31.627947
11
80.939365
21
32.422556
0
LINE
8
Image
10
80.939365
20
32.422556
11
82.827555
21
33.656341
0
LINE
8
Image
10
82.827555
20
33.656341
11
84.341620
21
35.263447
0
LINE
8
Image
10
84.341620
20
35.263447
11
84.775043
21
35.972967
0
LINE
8
Image
10
84.775043
20
35.972967
11
85.125883
21
36.848589
0
LINE
8
Image
10
85.125883
20
36.848589
11
85.781540
21
39.722877
0
LINE
8
Image
10
85.781540
20
39.722877
11
86.802625
21
44.444521
0
LINE
8
Image
10
86.802625
20
44.444521
11
87.216680
21
45.619552
0
LINE
8
Image
10
87.216680
20
45.619552
11
87.590580
21
46.089117
0
LINE
8
Image
10
87.590580
20
46.089117
11
87.892811
21
46.023110
0
LINE
8
Image
10
87.892811
20
46.023110
11
88.362049
21
45.714027
0
LINE
8
Image
10
88.362049
20
45.714027
11
89.561117
21
44.615210
0
LINE
8
Image
10
89.561117
20
44.615210
11
90.706913
21
43.289809
0
LINE
8
Image
10
90.706913
20
43.289809
11
91.318570
21
42.234967
0
LINE
8
Image
10
91.318570
20
42.234967
11
91.623689
21
41.591758
0
LINE
8
Image
10
91.623689
20
41.591758
11
92.370620
21
41.602197
0
LINE
8
Image
10
92.370620
20
41.602197
11
92.887812
21
41.636543
0
LINE
8
Image
10
92.887812
20
41.636543
11
93.405636
21
41.428165
0
LINE
8
Image
10
93.405636
20
41.428165
11
95.194060
21
39.805397
0
LINE
8
Image
10
95.194060
20
39.805397
11
97.161970
21
37.837487
0
LINE
8
Image
10
97.161970
20
37.837487
11
96.958925
21
34.273467
0
LINE
8
Image
10
96.958925
20
34.273467
11
96.755883
21
30.709447
0
LINE
8
Image
10
96.755883
20
30.709447
11
97.414030
21
30.909201
0
LINE
8
Image
10
97.414030
20
30.909201
11
98.822939
21
31.489747
0
LINE
8
Image
10
98.822939
20
31.489747
11
100.425315
21
32.373385
0
LINE
8
Image
10
100.425315
20
32.373385
11
101.919503
21
33.376334
0
LINE
8
Image
10
101.919503
20
33.376334
11
103.003850
21
34.314811
0
LINE
8
Image
10
103.003850
20
34.314811
11
103.951494
21
35.578007
0
LINE
8
Image
10
103.951494
20
35.578007
11
104.104782
21
36.172348
0
LINE
8
Image
10
104.104782
20
36.172348
11
104.139950
21
36.964751
0
LINE
8
Image
10
104.139950
20
36.964751
11
104.210826
21
37.965798
0
LINE
8
Image
10
104.210826
20
37.965798
11
104.381233
21
38.382161
0
LINE
8
Image
10
104.381233
20
38.382161
11
106.074563
21
36.846831
0
LINE
8
Image
10
106.074563
20
36.846831
11
107.024798
21
35.675012
0
LINE
8
Image
10
107.024798
20
35.675012
11
107.499164
21
34.622583
0
LINE
8
Image
10
107.499164
20
34.622583
11
107.521343
21
33.590116
0
LINE
8
Image
10
107.521343
20
33.590116
11
107.115013
21
32.478181
0
LINE
8
Image
10
107.115013
20
32.478181
11
106.498062
21
31.573734
0
LINE
8
Image
10
106.498062
20
31.573734
11
105.603555
21
30.647800
0
LINE
8
Image
10
105.603555
20
30.647800
11
103.265902
21
28.906635
0
LINE
8
Image
10
103.265902
20
28.906635
11
100.670100
21
27.605023
0
LINE
8
Image
10
100.670100
20
27.605023
11
99.452909
21
27.228529
0
LINE
8
Image
10
99.452909
20
27.228529
11
98.384200
21
27.093300
0
LINE
8
Image
10
98.384200
20
27.093300
11
97.555915
21
27.132733
0
LINE
8
Image
10
97.555915
20
27.132733
11
96.910085
21
27.361678
0
LINE
8
Image
10
96.910085
20
27.361678
11
96.162345
21
27.946107
0
LINE
8
Image
10
96.162345
20
27.946107
11
95.028330
21
29.051990
0
LINE
8
Image
10
95.028330
20
29.051990
11
93.069640
21
31.010680
0
LINE
8
Image
10
93.069640
20
31.010680
11
93.176475
21
34.131980
0
LINE
8
Image
10
93.176475
20
34.131980
11
93.194947
21
36.336410
0
LINE
8
Image
10
93.194947
20
36.336410
11
93.089200
21
37.253300
0
LINE
8
Image
10
93.089200
20
37.253300
11
92.437776
21
36.765434
0
LINE
8
Image
10
92.437776
20
36.765434
11
91.455784
21
35.464315
0
LINE
8
Image
10
91.455784
20
35.464315
11
90.306957
21
33.593661
0
LINE
8
Image
10
90.306957
20
33.593661
11
89.155030
21
31.397190
0
LINE
8
Image
10
89.155030
20
31.397190
11
87.868618
21
28.955529
0
LINE
8
Image
10
87.868618
20
28.955529
11
87.117580
21
27.939970
0
LINE
8
Image
10
87.117580
20
27.939970
11
86.627115
21
28.179304
0
LINE
8
Image
10
86.627115
20
28.179304
11
85.967200
21
28.754725
0
LINE
8
Image
10
85.967200
20
28.754725
11
85.186616
21
29.569483
0
LINE
8
Image
10
85.186616
20
29.569483
11
83.573076
21
28.737315
0
LINE
8
Image
10
83.573076
20
28.737315
11
81.842262
21
28.052566
0
LINE
8
Image
10
81.842262
20
28.052566
11
79.813106
21
27.742815
0
LINE
8
Image
10
79.813106
20
27.742815
11
77.968507
21
27.754640
0
LINE
8
Image
10
77.968507
20
27.754640
11
76.439642
21
28.173346
0
LINE
8
Image
10
76.439642
20
28.173346
11
74.998889
21
29.102226
0
LINE
8
Image
10
74.998889
20
29.102226
11
73.418626
21
30.644575
0
LINE
8
Image
10
73.418626
20
30.644575
11
71.833728
21
32.176684
0
LINE
8
Image
10
71.833728
20
32.176684
11
71.268950
21
32.407601
0
LINE
8
Image
10
71.268950
20
32.407601
11
70.583800
21
32.455600
0
LINE
8
Image
10
70.583800
20
32.455600
11
69.516536
21
32.554772
0
LINE
8
Image
10
69.516536
20
32.554772
11
68.502247
21
32.857119
0
LINE
8
Image
10
68.502247
20
32.857119
11
67.523221
21
33.369883
0
LINE
8
Image
10
67.523221
20
33.369883
11
66.561740
21
34.100310
0
LINE
8
Image
10
66.561740
20
34.100310
11
65.572397
21
34.968967
0
LINE
8
Image
10
65.572397
20
34.968967
11
65.075153
21
32.859767
0
LINE
8
Image
10
65.075153
20
32.859767
11
64.231023
21
30.175380
0
LINE
8
Image
10
64.231023
20
30.175380
11
63.118781
21
28.057849
0
LINE
8
Image
10
63.118781
20
28.057849
11
61.786261
21
26.577567
0
LINE
8
Image
10
61.786261
20
26.577567
11
61.052343
21
26.098392
0
LINE
8
Image
10
61.052343
20
26.098392
11
60.281293
21
25.804927
0
LINE
8
Image
10
60.281293
20
25.804927
11
59.829495
21
25.762890
0
LINE
8
Image
10
59.829495
20
25.762890
11
59.366481
21
25.939361
0
LINE
8
Image
10
59.366481
20
25.939361
11
57.858843
21
27.281927
0
LINE
8
Image
10
57.858843
20
27.281927
11
56.482573
21
28.869482
0
LINE
8
Image
10
56.482573
20
28.869482
11
55.842353
21
30.256487
0
LINE
8
Image
10
55.842353
20
30.256487
11
55.492550
21
31.564357
0
LINE
8
Image
10
55.492550
20
31.564357
11
54.204570
21
30.418267
0
LINE
8
Image
10
54.204570
20
30.418267
11
52.838968
21
29.392459
0
LINE
8
Image
10
52.838968
20
29.392459
11
51.364370
21
28.535557
0
LINE
8
Image
10
51.364370
20
28.535557
11
49.613495
21
27.930159
0
LINE
8
Image
10
49.613495
20
27.930159
11
47.131040
21
27.808008
0
LINE
8
Image
10
47.131040
20
27.808008
11
44.970338
21
27.934119
0
LINE
8
Image
10
44.970338
20
27.934119
11
43.264854
21
28.369789
0
LINE
8
Image
10
43.264854
20
28.369789
11
41.736360
21
29.226174
0
LINE
8
Image
10
41.736360
20
29.226174
11
40.106630
21
30.614428
0
LINE
8
Image
10
40.106630
20
30.614428
11
38.727681
21
31.794613
0
LINE
8
Image
10
38.727681
20
31.794613
11
38.374458
21
31.924940
0
LINE
8
Image
10
38.374458
20
31.924940
11
38.148090
21
31.808068
0
LINE
8
Image
10
38.148090
20
31.808068
11
36.450620
21
30.782888
0
LINE
8
Image
10
36.450620
20
30.782888
11
35.065600
21
30.134178
0
LINE
8
Image
10
35.065600
20
30.134178
11
35.199528
21
28.402118
0
LINE
8
Image
10
35.199528
20
28.402118
11
35.213501
21
26.903730
0
LINE
8
Image
10
35.213501
20
26.903730
11
35.030988
21
25.381356
0
LINE
8
Image
10
35.030988
20
25.381356
11
34.658893
21
23.851206
0
LINE
8
Image
10
34.658893
20
23.851206
11
34.104117
21
22.329493
0
LINE
8
Image
10
34.104117
20
22.329493
11
33.373563
21
20.832426
0
LINE
8
Image
10
33.373563
20
20.832426
11
32.474132
21
19.376218
0
LINE
8
Image
10
32.474132
20
19.376218
11
31.412726
21
17.977078
0
LINE
8
Image
10
31.412726
20
17.977078
11
30.196248
21
16.651218
0
LINE
8
Image
10
30.196248
20
16.651218
11
28.508041
21
15.126090
0
LINE
8
Image
10
28.508041
20
15.126090
11
26.752890
21
13.827344
0
LINE
8
Image
10
26.752890
20
13.827344
11
24.961753
21
12.766778
0
LINE
8
Image
10
24.961753
20
12.766778
11
23.165585
21
11.956192
0
LINE
8
Image
10
23.165585
20
11.956192
11
21.395344
21
11.407385
0
LINE
8
Image
10
21.395344
20
11.407385
11
19.681987
21
11.132158
0
LINE
8
Image
10
19.681987
20
11.132158
11
18.056469
21
11.142309
0
LINE
8
Image
10
18.056469
20
11.142309
11
16.549748
21
11.449638
0
LINE
8
Image
10
16.549748
20
11.449638
11
16.549800
21
11.449500
0
LINE
8
Image
10
18.756060
20
15.672110
11
20.161098
21
16.133265
0
LINE
8
Image
10
20.161098
20
16.133265
11
21.569283
21
16.775618
0
LINE
8
Image
10
21.569283
20
16.775618
11
24.278395
21
18.513639
0
LINE
8
Image
10
24.278395
20
18.513639
11
26.649999
21
20.705617
0
LINE
8
Image
10
26.649999
20
20.705617
11
27.636300
21
21.915418
0
LINE
8
Image
10
27.636300
20
21.915418
11
28.450700
21
23.171000
0
LINE
8
Image
10
28.450700
20
23.171000
11
29.120351
21
24.615306
0
LINE
8
Image
10
29.120351
20
24.615306
11
29.744129
21
26.348334
0
LINE
8
Image
10
29.744129
20
26.348334
11
30.155751
21
27.850509
0
LINE
8
Image
10
30.155751
20
27.850509
11
30.188930
21
28.602260
0
LINE
8
Image
10
30.188930
20
28.602260
11
26.343781
21
27.928701
0
LINE
8
Image
10
26.343781
20
27.928701
11
21.461840
21
26.775000
0
LINE
8
Image
10
21.461840
20
26.775000
11
19.897585
21
26.154053
0
LINE
8
Image
10
19.897585
20
26.154053
11
18.260591
21
25.317949
0
LINE
8
Image
10
18.260591
20
25.317949
11
16.782907
21
24.397550
0
LINE
8
Image
10
16.782907
20
24.397550
11
15.696580
21
23.523720
0
LINE
8
Image
10
15.696580
20
23.523720
11
14.956853
21
22.669572
0
LINE
8
Image
10
14.956853
20
22.669572
11
14.333536
21
21.711282
0
LINE
8
Image
10
14.333536
20
21.711282
11
13.482746
21
19.653227
0
LINE
8
Image
10
13.482746
20
19.653227
11
13.278581
21
18.638942
0
LINE
8
Image
10
13.278581
20
18.638942
11
13.237441
21
17.691470
0
LINE
8
Image
10
13.237441
20
17.691470
11
13.370979
21
16.853549
0
LINE
8
Image
10
13.370979
20
16.853549
11
13.690850
21
16.167920
0
LINE
8
Image
10
13.690850
20
16.167920
11
14.416085
21
15.601663
0
LINE
8
Image
10
14.416085
20
15.601663
11
15.550330
21
15.325554
0
LINE
8
Image
10
15.550330
20
15.325554
11
17.021132
21
15.346684
0
LINE
8
Image
10
17.021132
20
15.346684
11
18.756040
21
15.672143
0
LINE
8
Image
10
18.756040
20
15.672143
11
18.756060
21
15.672110
0
LINE
8
Image
10
43.605960
20
36.480610
11
44.801703
21
37.202319
0
LINE
8
Image
10
44.801703
20
37.202319
11
45.698660
21
37.930910
0
LINE
8
Image
10
45.698660
20
37.930910
11
46.382800
21
38.664400
0
LINE
8
Image
10
46.382800
20
38.664400
11
45.477900
21
38.664400
0
LINE
8
Image
10
45.477900
20
38.664400
11
44.544448
21
38.555102
0
LINE
8
Image
10
44.544448
20
38.555102
11
43.588406
21
38.232335
0
LINE
8
Image
10
43.588406
20
38.232335
11
42.627087
21
37.703785
0
LINE
8
Image
10
42.627087
20
37.703785
11
41.677800
21
36.977140
0
LINE
8
Image
10
41.677800
20
36.977140
11
40.709807
21
35.940007
0
LINE
8
Image
10
40.709807
20
35.940007
11
40.616047
21
35.642549
0
LINE
8
Image
10
40.616047
20
35.642549
11
40.767655
21
35.496307
0
LINE
8
Image
10
40.767655
20
35.496307
11
41.762605
21
35.668891
0
LINE
8
Image
10
41.762605
20
35.668891
11
43.605920
21
36.480613
0
LINE
8
Image
10
43.605920
20
36.480613
11
43.605960
21
36.480610
0
LINE
8
Image
10
75.428360
20
37.728620
11
76.318973
21
38.492956
0
LINE
8
Image
10
76.318973
20
38.492956
11
76.925190
21
39.266830
0
LINE
8
Image
10
76.925190
20
39.266830
11
77.198510
21
39.992459
0
LINE
8
Image
10
77.198510
20
39.992459
11
77.316010
21
40.713428
0
LINE
8
Image
10
77.316010
20
40.713428
11
77.268670
21
41.266048
0
LINE
8
Image
10
77.268670
20
41.266048
11
77.047474
21
41.486630
0
LINE
8
Image
10
77.047474
20
41.486630
11
76.409697
21
41.142350
0
LINE
8
Image
10
76.409697
20
41.142350
11
75.490118
21
40.316483
0
LINE
8
Image
10
75.490118
20
40.316483
11
74.597394
21
39.319483
0
LINE
8
Image
10
74.597394
20
39.319483
11
74.040184
21
38.461810
0
LINE
8
Image
10
74.040184
20
38.461810
11
73.708467
21
37.449136
0
LINE
8
Image
10
73.708467
20
37.449136
11
73.814279
21
36.997291
0
LINE
8
Image
10
73.814279
20
36.997291
11
74.380086
21
37.094408
0
LINE
8
Image
10
74.380086
20
37.094408
11
75.428354
21
37.728625
0
LINE
8
Image
10
75.428354
20
37.728625
11
75.428360
21
37.728620
 0 
ENDSEC
 0 
EOF